<svg width="408" height="408" viewBox="0 0 408 408" fill="none" xmlns="http://www.w3.org/2000/svg">
<rect width="408" height="408" rx="204" fill="#55B7BE"/>
<g filter="url(#filter0_d_646_443)">
<path d="M226.859 220.696C224.076 219.313 224.348 215.515 227.085 214.043V214.043C233.14 210.81 233.491 204.618 227.877 200.661C222.918 197.189 217.038 196.43 211.029 195.911C201.507 195.031 191.855 194.552 182.512 192.795C177.728 191.915 172.99 189.199 169.13 186.323C155.441 176.098 158.996 157.085 175.669 151.132C180.624 149.375 186.196 148.575 191.55 148.215C196.331 147.896 199.885 150.813 202.736 154.088C204.228 155.765 202.648 156.926 201.29 157.602C197.339 159.521 193.084 160.758 188.696 159.202C181.37 156.604 177.248 159.719 175.361 163.794C172.027 170.983 172.948 175.339 178.607 178.814C185.012 182.768 192.338 183.967 199.885 184.327C208.178 184.764 216.558 184.726 224.543 187.241C233.844 190.197 240.862 195.11 242.837 204.538C244.329 211.649 240.162 219.397 232.92 222.473C232.219 222.751 231.078 222.713 230.377 222.394C229.19 221.84 228.016 221.27 226.859 220.696Z" fill="#333333"/>
<path d="M223.989 142.308C223.928 142.541 223.896 142.706 224.104 142.828V142.828C224.591 143.114 224.535 143.979 223.97 143.979C220.001 143.979 216.308 143.979 212.63 143.979C210.136 143.979 208.549 141.377 209.582 139.107V139.107C210.37 137.468 211.554 136.671 213.704 136.512C225.201 135.673 227.569 128.722 227.306 120.853C227.26 118.937 226.956 116.979 226.998 115.06C227.085 109.388 230.377 106.234 236.607 106.633C240.6 106.872 244.809 107.513 248.364 109.069C258.323 113.462 267.975 118.417 277.76 123.13C280.302 124.367 279.164 125.607 277.672 126.643C273.767 129.28 269.159 130.399 264.42 130.361C259.332 130.278 254.243 129.481 249.155 129.003V129.003C248.037 128.918 247.918 130.004 248.971 130.393C249.344 130.53 249.715 130.667 250.085 130.804C251.06 131.164 251.432 132.357 250.706 133.101C246.472 137.437 240.792 136.125 235.172 135.151C234.924 135.108 234.68 135.292 234.62 135.537V135.537C234.569 135.74 234.68 135.929 234.873 136.012C235.132 136.124 235.392 136.236 235.653 136.349C236.938 136.904 236.962 138.965 235.758 139.679C232.43 141.654 229.319 143.867 224.718 141.957C224.418 141.832 224.07 141.993 223.989 142.308V142.308Z" fill="#333333"/>
<path d="M187.858 144.101C187.53 144.101 187.497 143.547 187.708 143.296V143.296C187.956 143.002 187.515 142.74 187.14 142.825C183.068 143.739 180.143 141.739 177.065 139.86C175.774 139.071 175.865 136.881 177.277 136.338C177.499 136.253 177.72 136.167 177.942 136.081C178.083 136.027 178.185 135.89 178.198 135.74V135.74C178.223 135.46 177.977 135.221 177.698 135.252C171.72 135.934 165.403 137.859 161.25 132.306C160.955 131.912 161.095 131.371 161.556 131.198V131.198C162.399 130.881 162.179 129.701 161.283 129.796C151.856 130.8 142.487 131.928 134.088 125.829C133.486 125.392 133.026 124.286 133.68 123.931V123.931C144.956 117.257 156.408 110.868 169.526 107.552C172.244 106.873 175.273 106.433 178.036 106.713C183.958 107.351 186.458 111.388 185.804 117.458C185.45 120.615 185.45 123.889 185.979 127.005C186.854 132.157 191.109 135.594 196.768 136.353C199.396 136.714 201.171 137.264 202.419 138.32C204.991 140.498 201.947 144.101 198.577 144.101C195.082 144.101 191.536 144.101 187.858 144.101Z" fill="#333333"/>
<path d="M184.972 196.145C187.06 196.718 187.304 199.372 185.538 200.623V200.623C179.616 204.857 180.099 210.928 186.55 214.324C191.943 217.158 197.956 218.118 204.098 218.198C210.941 218.278 217.742 218.558 224.014 221.594C232.086 225.509 236.345 233.177 234.72 241.365C234.412 242.962 233.711 244.563 232.79 245.921C229.544 250.634 227.789 250.953 222.61 248.357C221.68 247.886 220.735 247.429 219.713 246.946C218.844 246.535 218.867 245.277 219.759 244.92V244.92C222.568 243.804 225.464 242.564 225.681 239.407C225.944 235.973 224.718 232.817 221.472 230.7C217.742 228.264 213.4 227.626 209.012 227.664C201.507 227.706 194.051 227.585 186.9 225.228C184.792 224.549 182.687 223.79 180.757 222.831C169.306 217.158 166.718 204.338 175.01 195.232C176.107 194.033 176.982 193.672 178.74 194.272C180.782 194.969 182.862 195.566 184.972 196.145Z" fill="#333333"/>
<mask id="mask0_646_443" style="mask-type:luminance" maskUnits="userSpaceOnUse" x="66" y="125" width="83" height="23">
<path d="M66.0732 136.139C66.0732 130.054 71.0067 125.12 77.0924 125.12H137.386C143.472 125.12 148.406 130.054 148.406 136.139V136.139C148.406 142.225 143.472 147.159 137.386 147.159H77.0924C71.0066 147.159 66.0732 142.225 66.0732 136.139V136.139Z" fill="white"/>
</mask>
<g mask="url(#mask0_646_443)">
<path d="M73.2241 143.987C69.1676 142.226 71.1596 137.349 75.5435 136.769C93.0793 134.448 110.071 131.084 126.789 126.45C128.771 125.9 130.807 126.857 132.289 128.282C135.536 131.405 140.117 131.87 145.011 132.207C145.914 132.269 146.15 133.514 145.306 133.841V133.841C129.733 139.475 113.851 144.188 97.1358 146.066C89.0637 146.984 80.9005 147.185 73.2241 143.987V143.987Z" fill="#333333"/>
</g>
<path d="M327.291 135.362C335.196 136.6 337.488 145.392 329.53 146.219V146.219C320.712 147.138 312.111 145.54 303.556 143.863C295.843 142.362 288.277 140.42 280.687 138.113C276.618 136.877 277.437 131.121 280.469 128.139V128.139C281.762 126.867 283.669 125.912 285.419 126.389C299.084 130.115 312.991 133.121 327.291 135.362Z" fill="#333333"/>
<path d="M233.258 188.738C229.125 186.965 229.479 181.487 233.448 179.374V179.374C240.995 175.458 241.829 166.113 235.466 160.76C232.657 158.365 229.544 157.444 225.814 158.843C221.559 160.441 217.434 159.841 213.399 158.244C209.186 156.567 208.924 154.969 212.125 152.093C216.292 148.337 221.163 147.62 226.868 148.497C234.982 149.737 242.75 151.574 247.793 157.925C255.865 168.029 253.981 182.929 238.316 190.08C237.703 190.358 236.695 190.198 236.036 189.921C235.108 189.529 234.182 189.135 233.258 188.738Z" fill="#333333"/>
<path d="M181.519 227.959C182.434 226.73 183.975 226.301 185.435 226.766V226.766C188.638 227.785 189.194 232.418 188.107 235.599C187.875 236.278 187.719 237 187.646 237.772C187.425 240.288 188.259 242.166 190.542 243.445C194.576 245.721 199.052 246.359 203.744 246.241C209.229 246.081 214.583 246.799 219.497 249.276C229.982 254.55 231.561 267.97 222.522 274.321C220.855 275.479 219.497 275.718 217.655 274.72C217.292 274.524 216.919 274.349 216.535 274.189C214.902 273.507 214.773 271.434 216.292 270.527V270.527C222.876 266.691 222.743 259.262 215.854 255.946C213.617 254.869 210.808 254.709 208.22 254.429C202.648 253.788 196.814 253.989 191.505 252.63C178.333 249.259 174.159 237.834 181.519 227.959Z" fill="#333333"/>
<path d="M159.083 133.879C161.456 135.666 161.523 139.2 159.024 140.805C143.74 150.626 116.006 155.984 100.002 152.683C96.4315 151.947 97.0972 148.155 100.691 147.539V147.539C118.281 144.385 135.438 139.87 151.669 132.722C154.391 131.523 156.845 132.24 159.083 133.879V133.879Z" fill="#333333"/>
<path d="M254.779 141.022C251.854 139.615 251.388 135.534 254.023 133.639V133.639C256.219 132.042 258.631 131.681 261.174 132.801C279.952 140.947 299.738 146.061 320.316 148.816V148.816C320.81 148.816 320.535 149.752 320.061 149.892C316.6 150.915 313.485 151.964 310.223 152.652C295.483 155.808 281.664 152.333 268.283 147.139C263.711 145.317 259.302 143.198 254.779 141.022Z" fill="#333333"/>
<path d="M237.824 146.532C235.635 145.452 235.423 142.303 237.528 141.067V141.067C241.562 138.71 245.163 138.149 249.855 140.748C259.137 145.847 268.909 149.99 279.428 152.757C283.998 153.959 284.709 158.713 279.997 159.081V159.081C270.346 159.84 261.349 157.723 252.839 153.769C247.854 151.499 242.97 149.07 237.824 146.532Z" fill="#333333"/>
<path d="M178.974 143.918C178.912 144.109 178.771 144.276 178.595 144.37C168.381 149.802 158.452 155.75 146.668 158.202C140.042 159.602 133.329 159.921 126.749 158.043V158.043C124.91 157.537 125.274 154.64 127.137 154.237C141.293 151.178 153.733 145.909 165.709 139.47C166.717 138.95 168.339 138.552 169.305 138.909C172.439 140.059 175.459 141.481 178.503 142.861C178.903 143.042 179.107 143.501 178.974 143.918V143.918Z" fill="#333333"/>
<path d="M186.773 256.098C187.566 254.673 189.37 254.122 190.92 254.631V254.631C193.361 255.432 194.078 258.421 193.108 260.8C190.792 266.481 194.123 270.766 202.607 272.681C205.807 273.402 209.141 273.6 212.3 274.4C221.384 276.715 225.069 285.263 220.285 292.415C218.125 295.622 216.14 296.766 213.054 296.003C211.57 295.637 211.55 293.742 212.871 292.973V292.973C216.117 291.056 217.48 288.219 216.646 284.667C215.942 281.548 213.309 280.232 210.283 279.674C207.037 279.074 203.703 279.074 200.498 278.395C193.085 276.756 187.03 273.52 185.012 266.132C184.06 262.53 184.981 259.317 186.773 256.098Z" fill="#333333"/>
<mask id="mask1_646_443" style="mask-type:luminance" maskUnits="userSpaceOnUse" x="190" y="278" width="28" height="49">
<path d="M190.542 292.021C190.542 284.594 196.563 278.573 203.99 278.573V278.573C211.417 278.573 217.437 284.594 217.437 292.021V313.082C217.437 320.509 211.417 326.53 203.99 326.53V326.53C196.563 326.53 190.542 320.509 190.542 313.082V292.021Z" fill="white"/>
</mask>
<g mask="url(#mask1_646_443)">
<path d="M191.418 282.549C192.678 277.782 194.513 285.783 197.133 289.96C197.986 291.32 199.419 292.547 201.419 293.533C203.57 294.569 205.982 295.169 208.22 296.007C215.154 298.565 218.138 304.157 216.117 310.63C215.395 312.953 214.159 314.655 212.291 315.664C209.774 317.024 207.221 318.943 207.016 321.797C206.902 323.374 206.789 324.942 206.666 326.517C206.652 326.703 206.498 326.846 206.312 326.846V326.846C206.127 326.846 205.971 326.704 205.955 326.519C205.834 325.069 205.711 323.622 205.59 322.172C205.324 319.417 205.72 316.898 201.332 315.741C196.727 314.503 195.102 306.832 197.648 302.081C198.033 301.38 198.517 300.734 199.047 300.031C199.517 299.408 200.367 299.176 201.086 299.479V299.479C202.16 299.931 202.445 301.308 201.774 302.261C199.5 305.49 198.821 308.718 199.65 311.242C200.786 314.705 204.956 312.156 204.886 308.512V308.512C204.857 306.88 204.761 305.247 204.661 303.56C204.591 302.388 205.523 301.402 206.697 301.402C206.829 301.402 206.958 301.402 207.084 301.402C207.336 301.402 207.737 301.428 207.737 301.68V301.68C207.737 303.891 207.737 306.093 207.737 308.308C207.737 312.285 212.106 315.244 213.221 311.427V311.427C214.188 308.111 214.275 304.635 211.249 302.161C209.449 300.682 206.903 299.923 204.669 298.883C201.29 297.327 197.473 296.25 194.622 294.091C190.805 291.215 190.276 286.822 191.418 282.549V282.549Z" fill="#333333"/>
</g>
<path d="M206.378 121.774C200.939 121.774 196.243 117.46 196.156 112.467C196.114 107.273 200.806 102.959 206.466 103C211.995 103 216.6 107.193 216.688 112.266C216.775 117.339 211.95 121.774 206.378 121.774Z" fill="#333333"/>
<path d="M210.226 177.797C210.277 180.058 208.489 182.089 206.228 182.089V182.089C204.198 182.089 202.606 180.444 202.606 178.415C202.606 177.838 202.606 177.265 202.606 176.697C202.606 173.78 202.823 170.866 202.561 167.948V167.948C201.861 160.663 210.467 160.569 210.458 167.887C210.454 171.156 210.15 174.478 210.226 177.797Z" fill="#333333"/>
<path d="M202.547 131.636C202.92 129.392 202.251 126.548 200.626 124.956V124.956C199.401 123.756 200.798 122.134 202.512 122.134C205.158 122.134 207.756 122.134 210.332 122.134C211.936 122.134 213.669 122.71 212.946 124.142V124.142C211.913 126.187 210.45 129.545 210.568 131.834C210.632 133.074 210.313 134.487 209.616 136.044C208.373 138.821 204.506 139.06 203.266 136.282C202.549 134.674 202.305 133.093 202.547 131.636Z" fill="#333333"/>
<path d="M209.583 212.011C209.582 214.435 207.618 216.4 205.194 216.4V216.4V216.4C203.972 216.4 203.044 215.264 203.044 214.042C203.044 209.753 203.044 205.505 203.044 201.186C203.044 199.375 204.381 197.907 206.191 197.907V197.907C208.011 197.907 209.614 199.389 209.605 201.208C209.589 204.769 209.584 208.335 209.583 212.011Z" fill="#333333"/>
<path d="M217.089 146.748C217.079 146.491 217.277 146.32 217.533 146.292C222.121 145.784 226.71 145.21 231.298 144.824C232.044 144.744 232.878 145.302 233.624 145.662C240.146 148.785 246.647 151.91 253.448 155.187C255.935 156.386 255.289 160.212 252.531 160.319V160.319C251.918 160.361 251.085 159.363 250.559 158.722C242.75 149.256 232.219 146.019 219.671 147.339C218.979 147.406 218.254 147.307 217.551 147.247C217.306 147.227 217.099 146.994 217.089 146.748V146.748Z" fill="#333333"/>
<path d="M195.665 146.648C195.655 146.869 195.48 147.042 195.262 147.08C194.814 147.158 194.366 147.243 193.918 147.18C180.67 145.94 169.568 149.457 161.366 159.363C160.925 159.883 159.962 160.32 159.304 160.282V160.282C156.346 160.063 155.989 156.59 158.687 155.36C163.898 152.985 169.097 150.611 174.177 148.057C178.694 145.781 182.995 144.263 188.216 145.583C190.437 146.145 192.851 146.037 195.205 146.156C195.468 146.169 195.677 146.385 195.665 146.648V146.648Z" fill="#333333"/>
<path d="M203.44 232.334C203.44 230.771 204.738 229.504 206.301 229.504V229.504C207.864 229.504 209.099 230.771 209.099 232.334C209.099 235.797 209.099 239.209 209.099 242.69C209.099 244.252 207.831 245.519 206.268 245.519V245.519C204.705 245.519 203.44 244.253 203.44 242.69C203.44 239.26 203.44 235.848 203.44 232.334Z" fill="#333333"/>
<path d="M203.965 257.394C203.965 256.11 205.023 255.068 206.307 255.068V255.068C207.591 255.068 208.616 256.109 208.623 257.394C208.646 261.71 208.702 265.973 208.44 270.207V270.207C208.273 272.569 203.965 269.54 203.965 267.173C203.965 263.799 203.965 260.621 203.965 257.394Z" fill="#333333"/>
<path d="M208.09 291.929C208.09 292.924 207.155 293.73 206.161 293.73V293.73C205.202 293.73 204.539 292.978 204.492 292.021C204.346 289.035 204.215 286.099 204.069 283.06C204.013 281.911 204.911 280.948 206.061 280.948V280.948C207.172 280.948 208.09 281.848 208.09 282.959C208.09 285.89 208.09 288.858 208.09 291.929Z" fill="#333333"/>
<path d="M207.236 145.684C207.55 145.388 207.989 145.289 208.405 145.402C209.24 145.628 210.076 145.855 210.928 146.088C213.242 146.72 213.767 149.769 211.839 151.198V151.198C210.132 152.463 207.72 151.488 207.346 149.396C207.189 148.511 207.035 147.64 206.883 146.768C206.814 146.373 206.945 145.96 207.236 145.684V145.684Z" fill="#333333"/>
<path d="M202.162 145.968C203.969 145.535 205.756 147.345 205.455 149.179V149.179C205.144 151.078 203.121 151.797 201.553 150.681V150.681C199.732 149.386 199.989 146.489 202.162 145.968V145.968Z" fill="#333333"/>
<path d="M221.448 220.696C218.664 219.313 218.936 215.514 221.675 214.043V214.043C227.726 210.81 228.08 204.618 222.463 200.661C217.504 197.189 211.627 196.43 205.614 195.911C196.096 195.031 186.444 194.552 177.098 192.795C172.317 191.915 167.579 189.199 163.716 186.323C150.03 176.098 153.581 157.085 170.255 151.132C175.213 149.375 180.785 148.575 186.136 148.215C190.92 147.896 194.471 150.813 197.325 154.088C198.817 155.765 197.238 156.926 195.875 157.602C191.929 159.521 187.67 160.758 183.286 159.202C175.959 156.604 171.834 159.719 169.946 163.794C166.612 170.983 167.534 175.339 173.193 178.814C179.598 182.768 186.924 183.967 194.471 184.327C202.764 184.764 211.144 184.726 219.129 187.241C228.43 190.197 235.448 195.11 237.423 204.538C238.915 211.649 234.748 219.397 227.509 222.473C226.805 222.751 225.667 222.713 224.963 222.394C223.777 221.84 222.605 221.271 221.448 220.696Z" fill="white"/>
<path d="M218.574 142.308C218.514 142.541 218.481 142.706 218.689 142.828V142.828C219.177 143.114 219.121 143.979 218.556 143.979C214.589 143.979 210.895 143.979 207.215 143.979C204.721 143.979 203.135 141.377 204.168 139.107V139.107C204.956 137.468 206.143 136.671 208.293 136.512C219.787 135.673 222.154 128.722 221.892 120.853C221.85 118.937 221.541 116.979 221.583 115.06C221.675 109.388 224.963 106.234 231.193 106.633C235.185 106.872 239.398 107.513 242.953 109.069C252.909 113.462 262.561 118.417 272.345 123.13C274.891 124.367 273.75 125.607 272.258 126.643C268.353 129.28 263.748 130.399 259.01 130.361C253.918 130.278 248.829 129.481 243.741 129.003V129.003C242.624 128.918 242.506 130.004 243.557 130.392C243.93 130.53 244.303 130.668 244.673 130.804C245.647 131.164 246.018 132.356 245.294 133.098C241.059 137.438 235.377 136.124 229.755 135.151C229.508 135.108 229.267 135.29 229.208 135.534V135.534C229.157 135.738 229.268 135.93 229.461 136.013C229.724 136.126 229.987 136.24 230.252 136.354C231.533 136.908 231.557 138.961 230.356 139.673C227.024 141.65 223.91 143.869 219.303 141.957C219.003 141.832 218.656 141.993 218.574 142.308V142.308Z" fill="white"/>
<path d="M182.445 144.101C182.117 144.101 182.083 143.548 182.294 143.297V143.297C182.542 143.003 182.101 142.741 181.725 142.825C177.659 143.737 174.736 141.744 171.662 139.866C170.368 139.075 170.46 136.879 171.875 136.334C172.093 136.25 172.31 136.166 172.528 136.081C172.669 136.026 172.772 135.89 172.786 135.74V135.74C172.813 135.459 172.565 135.22 172.284 135.252C166.306 135.934 159.988 137.86 155.835 132.306C155.541 131.912 155.681 131.371 156.142 131.198V131.198C156.984 130.882 156.764 129.701 155.869 129.797C146.441 130.8 137.074 131.927 128.676 125.83C128.074 125.393 127.613 124.282 128.269 123.931V123.931C139.542 117.257 150.993 110.868 164.112 107.552C166.833 106.873 169.859 106.433 172.622 106.713C178.547 107.351 181.048 111.388 180.389 117.458C180.039 120.615 180.039 123.889 180.565 127.005C181.444 132.157 185.698 135.594 191.358 136.353C193.976 136.712 195.747 137.26 196.994 138.31C199.578 140.486 196.528 144.101 193.151 144.101C189.659 144.101 186.117 144.101 182.445 144.101Z" fill="white"/>
<path d="M179.561 196.146C181.647 196.718 181.892 199.372 180.127 200.623V200.623C174.201 204.857 174.685 210.928 181.135 214.324C186.532 217.158 192.542 218.118 198.684 218.198C205.527 218.278 212.328 218.558 218.604 221.594C226.676 225.509 230.931 233.177 229.306 241.365C229.001 242.962 228.297 244.563 227.376 245.921C224.13 250.634 222.375 250.953 217.199 248.357C216.269 247.886 215.323 247.429 214.299 246.945C213.43 246.535 213.453 245.277 214.345 244.92V244.92C217.154 243.804 220.05 242.564 220.27 239.407C220.533 235.973 219.304 232.817 216.058 230.7C212.328 228.264 207.985 227.626 203.597 227.664C196.096 227.706 188.637 227.585 181.486 225.228C179.381 224.549 177.273 223.79 175.343 222.831C163.892 217.158 161.304 204.338 169.596 195.232C170.692 194.033 171.571 193.672 173.326 194.272C175.369 194.969 177.45 195.566 179.561 196.146Z" fill="white"/>
<mask id="mask2_646_443" style="mask-type:luminance" maskUnits="userSpaceOnUse" x="60" y="125" width="84" height="23">
<path d="M60.6589 136.139C60.6589 130.054 65.5924 125.12 71.6782 125.12H132.007C138.093 125.12 143.026 130.054 143.026 136.139V136.139C143.026 142.225 138.093 147.159 132.007 147.159H71.6782C65.5924 147.159 60.6589 142.225 60.6589 136.139V136.139Z" fill="white"/>
</mask>
<g mask="url(#mask2_646_443)">
<path d="M67.8101 143.987C63.7536 142.226 65.7456 137.349 70.1295 136.769C87.6652 134.448 104.657 131.084 121.378 126.45C123.36 125.9 125.396 126.858 126.879 128.284C130.124 131.405 134.705 131.87 139.601 132.207C140.503 132.269 140.739 133.514 139.896 133.841V133.841C124.319 139.475 108.437 144.188 91.7218 146.066C83.6497 146.984 75.49 147.185 67.8101 143.987V143.987Z" fill="white"/>
</g>
<path d="M321.877 135.361C329.782 136.6 332.074 145.393 324.116 146.219V146.219C315.298 147.138 306.697 145.54 298.145 143.863C290.431 142.362 282.865 140.42 275.276 138.114C271.206 136.877 272.026 131.121 275.058 128.139V128.139C276.352 126.867 278.258 125.912 280.009 126.389C293.673 130.115 307.578 133.121 321.877 135.361Z" fill="white"/>
<path d="M227.844 188.738C223.712 186.965 224.067 181.488 228.035 179.374V179.374C235.581 175.458 236.415 166.113 230.052 160.76C227.247 158.365 224.13 157.444 220.4 158.843C216.145 160.441 212.02 159.841 207.985 158.244C203.773 156.567 203.51 154.969 206.714 152.093C210.882 148.337 215.749 147.62 221.454 148.497C229.572 149.737 237.336 151.574 242.382 157.925C250.454 168.029 248.567 182.929 232.906 190.08C232.289 190.358 231.281 190.198 230.623 189.921C229.694 189.529 228.768 189.135 227.844 188.738Z" fill="white"/>
<path d="M176.107 227.959C177.023 226.731 178.564 226.301 180.024 226.766V226.766C183.227 227.786 183.783 232.416 182.694 235.596C182.461 236.276 182.304 236.999 182.231 237.772C182.011 240.288 182.844 242.166 185.128 243.445C189.162 245.721 193.638 246.359 198.334 246.241C203.818 246.081 209.169 246.799 214.082 249.276C224.567 254.55 226.147 267.97 217.112 274.321C215.445 275.479 214.082 275.718 212.24 274.72C211.879 274.524 211.507 274.35 211.124 274.19C209.49 273.506 209.36 271.433 210.881 270.527V270.527C217.462 266.691 217.329 259.262 210.44 255.946C208.202 254.869 205.397 254.709 202.809 254.429C197.238 253.788 191.4 253.989 186.091 252.63C172.923 249.259 168.749 237.834 176.107 227.959Z" fill="white"/>
<path d="M153.669 133.879C156.042 135.666 156.11 139.201 153.611 140.807C138.325 150.627 110.592 155.984 94.5883 152.683C91.0176 151.947 91.6833 148.155 95.2766 147.539V147.539C112.871 144.385 130.024 139.87 146.256 132.722C148.977 131.523 151.431 132.24 153.669 133.879V133.879Z" fill="white"/>
<path d="M249.368 141.023C246.442 139.616 245.976 135.535 248.612 133.639V133.639C250.805 132.042 253.217 131.681 255.763 132.801C274.541 140.947 294.328 146.061 314.902 148.816V148.816C315.397 148.816 315.122 149.752 314.647 149.892C311.186 150.915 308.071 151.964 304.813 152.652C290.069 155.808 276.25 152.333 262.869 147.139C258.297 145.317 253.89 143.198 249.368 141.023Z" fill="white"/>
<path d="M232.411 146.532C230.221 145.452 230.011 142.306 232.114 141.067V141.067C236.152 138.71 239.749 138.149 244.442 140.748C253.725 145.846 263.497 149.989 274.014 152.756C278.587 153.959 279.297 158.713 274.583 159.081V159.081C264.932 159.84 255.939 157.723 247.425 153.769C242.441 151.499 237.557 149.07 232.411 146.532Z" fill="white"/>
<path d="M173.559 143.921C173.498 144.11 173.358 144.276 173.182 144.369C162.969 149.802 153.039 155.75 141.254 158.202C134.629 159.602 127.919 159.921 121.335 158.043V158.043C119.497 157.536 119.86 154.64 121.724 154.237C135.879 151.178 148.319 145.909 160.295 139.47C161.304 138.95 162.928 138.552 163.891 138.909C167.025 140.059 170.043 141.48 173.09 142.86C173.49 143.041 173.693 143.503 173.559 143.921V143.921Z" fill="white"/>
<path d="M181.359 256.1C182.152 254.674 183.958 254.123 185.508 254.631V254.631C187.95 255.432 188.666 258.421 187.696 260.802C185.38 266.481 188.709 270.766 197.192 272.681C200.396 273.402 203.73 273.6 206.889 274.4C215.97 276.715 219.654 285.263 214.874 292.415C212.712 295.622 210.728 296.766 207.643 296.004C206.158 295.636 206.137 293.741 207.46 292.973V292.973C210.706 291.056 212.065 288.219 211.232 284.667C210.528 281.548 207.898 280.232 204.868 279.674C201.622 279.074 198.288 279.074 195.087 278.395C187.67 276.756 181.619 273.52 179.598 266.132C178.645 262.53 179.568 259.318 181.359 256.1Z" fill="white"/>
<mask id="mask3_646_443" style="mask-type:luminance" maskUnits="userSpaceOnUse" x="185" y="278" width="28" height="49">
<path d="M185.163 292.021C185.163 284.594 191.183 278.573 198.61 278.573V278.573C206.037 278.573 212.058 284.594 212.058 292.021V313.082C212.058 320.509 206.037 326.53 198.61 326.53V326.53C191.183 326.53 185.163 320.509 185.163 313.082V292.021Z" fill="white"/>
</mask>
<g mask="url(#mask3_646_443)">
<path d="M186.003 282.549C187.267 277.782 189.101 285.784 191.722 289.961C192.575 291.32 194.008 292.547 196.009 293.533C198.159 294.569 200.572 295.169 202.809 296.007C209.74 298.565 212.724 304.157 210.707 310.63C209.984 312.953 208.746 314.656 206.878 315.665C204.361 317.024 201.809 318.941 201.604 321.795C201.491 323.372 201.378 324.941 201.256 326.517C201.241 326.702 201.085 326.846 200.898 326.846V326.846C200.713 326.846 200.56 326.704 200.544 326.519C200.42 325.069 200.296 323.622 200.176 322.172C199.913 319.417 200.306 316.898 195.921 315.741C191.312 314.503 189.691 306.832 192.233 302.081C192.619 301.38 193.105 300.733 193.636 300.03C194.106 299.408 194.955 299.177 195.674 299.479V299.479C196.746 299.931 197.031 301.307 196.361 302.258C194.087 305.488 193.408 308.716 194.237 311.241C195.373 314.703 199.541 312.156 199.472 308.512V308.512C199.442 306.877 199.347 305.241 199.246 303.551C199.176 302.384 200.105 301.402 201.274 301.402C201.411 301.402 201.544 301.402 201.674 301.402C201.925 301.402 202.326 301.429 202.326 301.68V301.68C202.326 303.891 202.326 306.094 202.326 308.309C202.326 312.285 206.69 315.242 207.81 311.427V311.427C208.773 308.111 208.861 304.635 205.835 302.161C204.035 300.682 201.493 299.923 199.255 298.883C195.875 297.327 192.058 296.25 189.208 294.091C185.39 291.215 184.865 286.822 186.003 282.549V282.549Z" fill="white"/>
</g>
<path d="M200.964 121.774C195.525 121.774 190.829 117.46 190.741 112.467C190.699 107.273 195.392 102.959 201.051 103C206.581 103 211.186 107.193 211.274 112.266C211.361 117.339 206.535 121.774 200.964 121.774Z" fill="white"/>
<path d="M204.813 177.798C204.864 180.058 203.077 182.089 200.816 182.089V182.089C198.786 182.089 197.192 180.443 197.192 178.414C197.192 177.837 197.192 177.265 197.192 176.697C197.192 173.78 197.413 170.866 197.147 167.948V167.948C196.452 160.663 205.053 160.569 205.045 167.887C205.042 171.156 204.738 174.478 204.813 177.798Z" fill="white"/>
<path d="M197.135 131.639C197.508 129.394 196.837 126.548 195.212 124.956V124.956C193.987 123.756 195.384 122.134 197.099 122.134C199.744 122.134 202.342 122.134 204.918 122.134C206.522 122.134 208.254 122.71 207.532 124.142V124.142C206.499 126.187 205.037 129.545 205.155 131.834C205.22 133.074 204.9 134.488 204.203 136.046C202.959 138.822 199.092 139.06 197.853 136.282C197.137 134.675 196.894 133.095 197.135 131.639Z" fill="white"/>
<path d="M204.169 212.011C204.168 214.435 202.204 216.4 199.78 216.4V216.4V216.4C198.558 216.4 197.63 215.264 197.63 214.042C197.63 209.753 197.63 205.505 197.63 201.186C197.63 199.375 198.968 197.907 200.779 197.907V197.907C202.598 197.907 204.2 199.389 204.191 201.208C204.175 204.769 204.17 208.335 204.169 212.011Z" fill="white"/>
<path d="M211.676 146.75C211.665 146.492 211.864 146.32 212.121 146.292C216.708 145.784 221.296 145.21 225.884 144.824C226.63 144.744 227.463 145.302 228.209 145.662C234.734 148.785 241.235 151.91 248.037 155.188C250.523 156.386 249.878 160.212 247.12 160.319V160.319C246.504 160.361 245.67 159.363 245.145 158.722C237.336 149.256 226.805 146.019 214.257 147.339C213.564 147.406 212.841 147.306 212.138 147.247C211.893 147.227 211.686 146.996 211.676 146.75V146.75Z" fill="white"/>
<path d="M190.254 146.65C190.242 146.87 190.067 147.042 189.85 147.08C189.401 147.158 188.952 147.243 188.503 147.18C175.255 145.94 164.157 149.457 155.952 159.363C155.514 159.883 154.548 160.32 153.89 160.282V160.282C150.933 160.063 150.575 156.59 153.273 155.36C158.484 152.985 163.683 150.611 168.763 148.057C173.28 145.781 177.581 144.263 182.802 145.583C185.022 146.145 187.438 146.037 189.792 146.156C190.056 146.169 190.267 146.386 190.254 146.65V146.65Z" fill="white"/>
<path d="M198.026 232.334C198.026 230.771 199.325 229.504 200.888 229.504V229.504C202.451 229.504 203.685 230.771 203.685 232.334C203.685 235.797 203.685 239.209 203.685 242.69C203.685 244.252 202.418 245.519 200.855 245.519V245.519C199.292 245.519 198.026 244.253 198.026 242.69C198.026 239.26 198.026 235.848 198.026 232.334Z" fill="white"/>
<path d="M198.551 257.394C198.551 256.11 199.609 255.068 200.893 255.068V255.068C202.178 255.068 203.202 256.109 203.209 257.394C203.232 261.71 203.288 265.973 203.026 270.207V270.207C202.872 272.57 198.551 269.54 198.551 267.172C198.551 263.798 198.551 260.621 198.551 257.394Z" fill="white"/>
<path d="M202.676 291.93C202.676 292.924 201.741 293.73 200.747 293.73V293.73C199.789 293.73 199.128 292.98 199.081 292.023C198.933 289.037 198.802 286.1 198.655 283.06C198.599 281.911 199.498 280.948 200.649 280.948V280.948C201.759 280.948 202.676 281.848 202.676 282.959C202.676 285.891 202.676 288.859 202.676 291.93Z" fill="white"/>
<path d="M201.824 145.683C202.138 145.387 202.578 145.289 202.994 145.401C203.829 145.628 204.665 145.855 205.518 146.088C207.831 146.72 208.355 149.768 206.428 151.195V151.195C204.721 152.461 202.307 151.484 201.933 149.391C201.775 148.509 201.622 147.641 201.47 146.771C201.4 146.374 201.531 145.959 201.824 145.683V145.683Z" fill="white"/>
<path d="M196.745 145.969C198.554 145.536 200.343 147.348 200.042 149.183V149.183C199.731 151.082 197.708 151.797 196.14 150.682V150.682C194.32 149.386 194.572 146.49 196.745 145.969V145.969Z" fill="white"/>
</g>
<defs>
<filter id="filter0_d_646_443" x="61.6053" y="103" width="276.874" height="231.53" filterUnits="userSpaceOnUse" color-interpolation-filters="sRGB">
<feFlood flood-opacity="0" result="BackgroundImageFix"/>
<feColorMatrix in="SourceAlpha" type="matrix" values="0 0 0 0 0 0 0 0 0 0 0 0 0 0 0 0 0 0 127 0" result="hardAlpha"/>
<feOffset dy="4"/>
<feGaussianBlur stdDeviation="2"/>
<feComposite in2="hardAlpha" operator="out"/>
<feColorMatrix type="matrix" values="0 0 0 0 0 0 0 0 0 0 0 0 0 0 0 0 0 0 0.25 0"/>
<feBlend mode="normal" in2="BackgroundImageFix" result="effect1_dropShadow_646_443"/>
<feBlend mode="normal" in="SourceGraphic" in2="effect1_dropShadow_646_443" result="shape"/>
</filter>
</defs>
</svg>
