<svg xmlns="http://www.w3.org/2000/svg" xmlns:xlink="http://www.w3.org/1999/xlink" width="740" zoomAndPan="magnify" viewBox="0 0 555 418.499988" height="558" preserveAspectRatio="xMidYMid meet" version="1.0"><defs><g/><clipPath id="584dbc8a14"><path d="M 181.074219 122.769531 L 554.128906 122.769531 L 554.128906 208.917969 L 181.074219 208.917969 Z M 181.074219 122.769531 " clip-rule="nonzero"/></clipPath><clipPath id="94e637a049"><path d="M 45 285.027344 L 520 285.027344 L 520 327.726562 L 45 327.726562 Z M 45 285.027344 " clip-rule="nonzero"/></clipPath></defs><g clip-path="url(#584dbc8a14)"><path fill="#ffffff" d="M 79.019531 174.460938 L 115.007812 174.574219 L 115.113281 174.507812 L 122.117188 157.96875 C 122.117188 157.96875 129.0625 208.8125 129.0625 208.8125 L 129.742188 208.820312 L 143.734375 126.960938 C 143.734375 126.960938 150.253906 174.558594 150.253906 174.558594 L 150.996094 175.207031 L 157.679688 175.230469 C 157.679688 175.230469 164.628906 191.925781 164.628906 191.925781 L 166.195312 191.777344 L 172.871094 160.367188 C 172.871094 160.367188 178.902344 174.832031 178.902344 174.832031 L 179.785156 175.417969 L 222.484375 175.523438 L 273.355469 175.617188 L 274.421875 174.90625 L 279.960938 161.789062 C 279.960938 161.789062 286.484375 208.933594 286.484375 208.933594 L 289.011719 208.972656 L 302.019531 131.964844 C 302.019531 131.964844 307.992188 174.652344 307.992188 174.652344 L 309.34375 175.828125 L 315.636719 175.828125 C 315.636719 175.828125 322.496094 192.132812 322.496094 192.132812 L 325.058594 191.886719 L 331.355469 161.683594 C 331.355469 161.683594 336.953125 174.953125 336.953125 174.953125 L 338.132812 175.734375 L 395.714844 175.632812 C 395.714844 175.632812 431.699219 175.546875 431.699219 175.546875 L 432.703125 174.882812 L 438.402344 161.214844 C 438.402344 161.214844 445.191406 208.886719 445.191406 208.886719 L 446.992188 208.910156 L 460.445312 127.308594 C 460.445312 127.308594 467.214844 174.53125 467.214844 174.53125 L 467.6875 174.9375 L 474.582031 174.914062 C 474.582031 174.914062 481.71875 191.761719 481.71875 191.761719 L 482.472656 191.695312 L 489.375 158.238281 C 489.375 158.238281 496.28125 174.546875 496.28125 174.546875 L 496.476562 174.675781 L 554.058594 174.460938 L 496.625 174.246094 C 496.625 174.246094 489.539062 157.203125 489.539062 157.203125 L 489.007812 157.253906 L 481.960938 190.289062 C 481.960938 190.289062 475.304688 174.285156 475.304688 174.285156 L 474.886719 174.003906 L 468.109375 173.980469 C 468.109375 173.980469 461.140625 122.917969 461.140625 122.917969 L 459.84375 122.902344 L 446.195312 202.777344 C 446.195312 202.777344 439.929688 157.164062 439.929688 157.164062 L 437.9375 156.90625 L 430.980469 173.371094 C 430.980469 173.371094 395.714844 173.289062 395.714844 173.289062 C 395.714844 173.289062 338.980469 173.1875 338.980469 173.1875 C 338.980469 173.1875 332.140625 156.804688 332.140625 156.804688 L 329.652344 157.042969 L 323.3125 187.101562 C 323.3125 187.101562 317.796875 173.933594 317.796875 173.933594 L 316.542969 173.097656 L 310.53125 173.09375 C 310.53125 173.09375 303.496094 122.820312 303.496094 122.820312 L 300.800781 122.785156 L 287.851562 200.375 C 287.851562 200.375 281.738281 157.144531 281.738281 157.144531 L 279.449219 156.847656 L 272.582031 173.300781 L 222.484375 173.398438 L 180.421875 173.5 C 180.421875 173.5 173.429688 156.957031 173.429688 156.957031 L 171.695312 157.121094 L 165.121094 188.851562 C 165.121094 188.851562 158.902344 174.164062 158.902344 174.164062 L 158.191406 173.6875 L 151.644531 173.707031 C 151.644531 173.707031 144.394531 122.925781 144.394531 122.925781 L 143.207031 122.910156 L 129.425781 206.496094 C 129.425781 206.496094 122.378906 157.285156 122.378906 157.285156 L 122.042969 157.242188 L 114.929688 174.34375 C 114.929688 174.34375 79.019531 174.460938 79.019531 174.460938 Z M 79.019531 174.460938 " fill-opacity="1" fill-rule="evenodd"/></g><g fill="#d9d9d9" fill-opacity="1"><g transform="translate(222.372812, 276.721625)"><g><path d="M 20.171875 -59.03125 C 20.773438 -57.09375 22.039062 -55.175781 23.96875 -53.28125 C 25.894531 -51.382812 28.191406 -49.503906 30.859375 -47.640625 C 33.523438 -45.773438 36.269531 -43.925781 39.09375 -42.09375 C 41.925781 -40.257812 44.570312 -38.410156 47.03125 -36.546875 C 49.5 -34.679688 51.5 -32.816406 53.03125 -30.953125 C 54.5625 -29.097656 55.328125 -27.203125 55.328125 -25.265625 C 55.328125 -23.140625 54.628906 -20.910156 53.234375 -18.578125 C 51.835938 -16.242188 49.9375 -13.960938 47.53125 -11.734375 C 45.132812 -9.503906 42.472656 -7.472656 39.546875 -5.640625 C 36.617188 -3.804688 33.609375 -2.359375 30.515625 -1.296875 C 27.421875 -0.234375 24.472656 0.296875 21.671875 0.296875 C 19.472656 0.296875 17.191406 0.015625 14.828125 -0.546875 C 12.460938 -1.109375 10.25 -1.957031 8.1875 -3.09375 C 6.125 -4.226562 4.441406 -5.625 3.140625 -7.28125 C 1.847656 -8.945312 1.203125 -10.878906 1.203125 -13.078125 L 15.78125 -26.765625 L 18.78125 -24.96875 C 17.78125 -23.570312 17.628906 -22.222656 18.328125 -20.921875 C 19.023438 -19.617188 20.320312 -18.398438 22.21875 -17.265625 C 24.113281 -16.140625 26.375 -15.160156 29 -14.328125 C 31.632812 -13.492188 34.382812 -12.847656 37.25 -12.390625 C 37.582031 -13.648438 37.78125 -14.863281 37.84375 -16.03125 C 37.914062 -17.195312 37.753906 -18.3125 37.359375 -19.375 C 36.285156 -21.4375 34.535156 -23.398438 32.109375 -25.265625 C 29.679688 -27.128906 26.96875 -28.941406 23.96875 -30.703125 C 20.96875 -32.472656 18.050781 -34.207031 15.21875 -35.90625 C 12.394531 -37.601562 10.035156 -39.347656 8.140625 -41.140625 C 6.242188 -42.941406 5.226562 -44.773438 5.09375 -46.640625 C 4.957031 -48.898438 5.585938 -51.242188 6.984375 -53.671875 C 8.390625 -56.109375 10.191406 -58.441406 12.390625 -60.671875 C 14.585938 -62.898438 16.800781 -64.910156 19.03125 -66.703125 C 21.257812 -68.503906 23.140625 -69.921875 24.671875 -70.953125 C 26.203125 -71.992188 26.96875 -72.515625 26.96875 -72.515625 C 28.300781 -73.109375 30.03125 -73.488281 32.15625 -73.65625 C 34.289062 -73.820312 36.585938 -73.785156 39.046875 -73.546875 C 41.515625 -73.316406 43.878906 -72.867188 46.140625 -72.203125 C 48.398438 -71.535156 50.363281 -70.6875 52.03125 -69.65625 C 53.695312 -68.625 54.796875 -67.410156 55.328125 -66.015625 L 39.046875 -48.84375 L 36.0625 -51.140625 C 37.1875 -52.398438 37.382812 -53.628906 36.65625 -54.828125 C 35.925781 -56.023438 34.644531 -57.039062 32.8125 -57.875 C 30.976562 -58.707031 28.910156 -59.253906 26.609375 -59.515625 C 24.316406 -59.785156 22.171875 -59.625 20.171875 -59.03125 Z M 20.171875 -59.03125 "/></g></g></g><g fill="#d9d9d9" fill-opacity="1"><g transform="translate(277.704562, 276.721625)"><g><path d="M 1.203125 -7.6875 L 9.59375 -14.984375 L 15.375 -7.296875 L 6.984375 0 Z M 1.203125 -7.6875 "/></g></g></g><g fill="#d9d9d9" fill-opacity="1"><g transform="translate(294.28411, 276.721625)"><g><path d="M 62.71875 -55.328125 C 64.320312 -51.128906 64.9375 -46.453125 64.5625 -41.296875 C 64.195312 -36.140625 62.75 -30.910156 60.21875 -25.609375 C 57.6875 -20.316406 53.894531 -15.3125 48.84375 -10.59375 C 45.707031 -7.789062 42.390625 -5.320312 38.890625 -3.1875 C 35.398438 -1.0625 31.890625 0 28.359375 0 C 26.492188 0 24.660156 -0.265625 22.859375 -0.796875 C 21.066406 -1.328125 19.269531 -1.804688 17.46875 -2.234375 C 15.675781 -2.671875 13.914062 -2.789062 12.1875 -2.59375 C 10.457031 -2.394531 8.722656 -1.53125 6.984375 0 L 4.59375 -2.296875 C 5.457031 -3.628906 6.1875 -4.941406 6.78125 -6.234375 C 7.382812 -7.535156 7.722656 -9.316406 7.796875 -11.578125 L 7.6875 -50.53125 C 7.550781 -53.59375 6.851562 -55.554688 5.59375 -56.421875 C 4.332031 -57.296875 2.234375 -56.832031 -0.703125 -55.03125 L -2.390625 -58.125 L 15.484375 -73.203125 C 18.609375 -72.140625 20.671875 -70.441406 21.671875 -68.109375 C 22.671875 -65.785156 23.238281 -63.15625 23.375 -60.21875 L 38.546875 -73.203125 C 41.742188 -73.003906 44.941406 -72.140625 48.140625 -70.609375 C 51.335938 -69.078125 54.234375 -67.015625 56.828125 -64.421875 C 59.421875 -61.828125 61.382812 -58.796875 62.71875 -55.328125 Z M 46.140625 -14.984375 C 47.671875 -16.578125 48.6875 -18.753906 49.1875 -21.515625 C 49.6875 -24.285156 49.769531 -27.347656 49.4375 -30.703125 C 49.101562 -34.066406 48.382812 -37.445312 47.28125 -40.84375 C 46.1875 -44.238281 44.820312 -47.367188 43.1875 -50.234375 C 41.5625 -53.097656 39.679688 -55.394531 37.546875 -57.125 C 35.421875 -58.851562 33.160156 -59.71875 30.765625 -59.71875 L 23.375 -53.640625 L 23.46875 -16.578125 C 25.9375 -16.710938 28.203125 -16.445312 30.265625 -15.78125 C 32.328125 -15.113281 34.238281 -14.429688 36 -13.734375 C 37.769531 -13.035156 39.484375 -12.703125 41.140625 -12.734375 C 42.804688 -12.765625 44.472656 -13.515625 46.140625 -14.984375 Z M 46.140625 -14.984375 "/></g></g></g><g fill="#d9d9d9" fill-opacity="1"><g transform="translate(361.401336, 276.721625)"><g><path d="M 1.203125 -7.6875 L 9.59375 -14.984375 L 15.375 -7.296875 L 6.984375 0 Z M 1.203125 -7.6875 "/></g></g></g><g fill="#d9d9d9" fill-opacity="1"><g transform="translate(377.980885, 276.721625)"><g><path d="M 30.765625 -73.203125 C 35.023438 -73.203125 38.882812 -72.335938 42.34375 -70.609375 C 45.8125 -68.878906 48.804688 -66.53125 51.328125 -63.5625 C 53.859375 -60.601562 55.820312 -57.289062 57.21875 -53.625 C 58.625 -49.96875 59.359375 -46.191406 59.421875 -42.296875 C 59.492188 -38.398438 58.828125 -34.632812 57.421875 -31 C 56.023438 -27.375 53.796875 -24.128906 50.734375 -21.265625 L 24.265625 0 C 21.671875 -0.863281 19.039062 -2.378906 16.375 -4.546875 C 13.71875 -6.710938 11.253906 -9.328125 8.984375 -12.390625 C 6.722656 -15.453125 4.8125 -18.765625 3.25 -22.328125 C 1.6875 -25.890625 0.671875 -29.53125 0.203125 -33.25 C -0.265625 -36.976562 -0.0195312 -40.59375 0.9375 -44.09375 C 1.90625 -47.59375 3.789062 -50.738281 6.59375 -53.53125 Z M 38.359375 -17.375 C 39.816406 -19.96875 40.742188 -23.015625 41.140625 -26.515625 C 41.546875 -30.015625 41.414062 -33.59375 40.75 -37.25 C 40.082031 -40.914062 38.898438 -44.328125 37.203125 -47.484375 C 35.503906 -50.648438 33.269531 -53.210938 30.5 -55.171875 C 27.738281 -57.140625 24.460938 -58.125 20.671875 -58.125 C 19.003906 -56.394531 17.90625 -54.179688 17.375 -51.484375 C 16.84375 -48.785156 16.8125 -45.90625 17.28125 -42.84375 C 17.75 -39.78125 18.613281 -36.75 19.875 -33.75 C 21.132812 -30.757812 22.710938 -28.03125 24.609375 -25.5625 C 26.515625 -23.101562 28.628906 -21.125 30.953125 -19.625 C 33.285156 -18.125 35.753906 -17.375 38.359375 -17.375 Z M 38.359375 -17.375 "/></g></g></g><g fill="#d9d9d9" fill-opacity="1"><g transform="translate(438.606115, 276.721625)"><g><path d="M 1.203125 -7.6875 L 9.59375 -14.984375 L 15.375 -7.296875 L 6.984375 0 Z M 1.203125 -7.6875 "/></g></g></g><g fill="#d9d9d9" fill-opacity="1"><g transform="translate(455.185663, 276.721625)"><g><path d="M 19.078125 -63.71875 C 21.742188 -66.1875 24.109375 -68.101562 26.171875 -69.46875 C 28.234375 -70.832031 30.242188 -71.796875 32.203125 -72.359375 C 34.171875 -72.921875 36.253906 -73.203125 38.453125 -73.203125 C 41.046875 -73.203125 43.175781 -72.585938 44.84375 -71.359375 C 46.507812 -70.128906 47.925781 -68.679688 49.09375 -67.015625 C 50.257812 -65.347656 51.359375 -63.78125 52.390625 -62.3125 C 53.421875 -60.851562 54.597656 -59.820312 55.921875 -59.21875 C 57.253906 -58.625 58.957031 -58.859375 61.03125 -59.921875 L 63.015625 -56.734375 L 47.734375 -46.234375 C 45.867188 -45.835938 44.171875 -46.039062 42.640625 -46.84375 C 41.109375 -47.644531 39.707031 -48.757812 38.4375 -50.1875 C 37.175781 -51.613281 35.945312 -53.09375 34.75 -54.625 C 33.550781 -56.15625 32.351562 -57.488281 31.15625 -58.625 C 29.957031 -59.757812 28.691406 -60.441406 27.359375 -60.671875 C 26.035156 -60.910156 24.539062 -60.394531 22.875 -59.125 C 20.34375 -57.320312 18.609375 -54.15625 17.671875 -49.625 C 16.742188 -45.101562 17.144531 -39.75 18.875 -33.5625 C 19.738281 -30.957031 21.019531 -28.304688 22.71875 -25.609375 C 24.414062 -22.921875 26.445312 -20.539062 28.8125 -18.46875 C 31.175781 -16.40625 33.804688 -14.925781 36.703125 -14.03125 C 39.597656 -13.132812 42.675781 -13.148438 45.9375 -14.078125 C 49.207031 -15.015625 52.570312 -17.179688 56.03125 -20.578125 L 58.71875 -18.171875 C 55.726562 -14.710938 52.832031 -11.617188 50.03125 -8.890625 C 47.238281 -6.160156 44.226562 -3.992188 41 -2.390625 C 37.769531 -0.796875 33.988281 0 29.65625 0 C 25.269531 0 21.210938 -1.078125 17.484375 -3.234375 C 13.753906 -5.398438 10.523438 -8.484375 7.796875 -12.484375 C 5.066406 -16.484375 3.035156 -21.273438 1.703125 -26.859375 C 1.035156 -30.992188 1.097656 -34.820312 1.890625 -38.34375 C 2.691406 -41.875 3.988281 -45.171875 5.78125 -48.234375 C 7.582031 -51.296875 9.648438 -54.109375 11.984375 -56.671875 C 14.316406 -59.242188 16.679688 -61.59375 19.078125 -63.71875 Z M 19.078125 -63.71875 "/></g></g></g><g fill="#ffffff" fill-opacity="1"><g transform="translate(218.440188, 273.890375)"><g><path d="M 20.171875 -59.03125 C 20.773438 -57.09375 22.039062 -55.175781 23.96875 -53.28125 C 25.894531 -51.382812 28.191406 -49.503906 30.859375 -47.640625 C 33.523438 -45.773438 36.269531 -43.925781 39.09375 -42.09375 C 41.925781 -40.257812 44.570312 -38.410156 47.03125 -36.546875 C 49.5 -34.679688 51.5 -32.816406 53.03125 -30.953125 C 54.5625 -29.097656 55.328125 -27.203125 55.328125 -25.265625 C 55.328125 -23.140625 54.628906 -20.910156 53.234375 -18.578125 C 51.835938 -16.242188 49.9375 -13.960938 47.53125 -11.734375 C 45.132812 -9.503906 42.472656 -7.472656 39.546875 -5.640625 C 36.617188 -3.804688 33.609375 -2.359375 30.515625 -1.296875 C 27.421875 -0.234375 24.472656 0.296875 21.671875 0.296875 C 19.472656 0.296875 17.191406 0.015625 14.828125 -0.546875 C 12.460938 -1.109375 10.25 -1.957031 8.1875 -3.09375 C 6.125 -4.226562 4.441406 -5.625 3.140625 -7.28125 C 1.847656 -8.945312 1.203125 -10.878906 1.203125 -13.078125 L 15.78125 -26.765625 L 18.78125 -24.96875 C 17.78125 -23.570312 17.628906 -22.222656 18.328125 -20.921875 C 19.023438 -19.617188 20.320312 -18.398438 22.21875 -17.265625 C 24.113281 -16.140625 26.375 -15.160156 29 -14.328125 C 31.632812 -13.492188 34.382812 -12.847656 37.25 -12.390625 C 37.582031 -13.648438 37.78125 -14.863281 37.84375 -16.03125 C 37.914062 -17.195312 37.753906 -18.3125 37.359375 -19.375 C 36.285156 -21.4375 34.535156 -23.398438 32.109375 -25.265625 C 29.679688 -27.128906 26.96875 -28.941406 23.96875 -30.703125 C 20.96875 -32.472656 18.050781 -34.207031 15.21875 -35.90625 C 12.394531 -37.601562 10.035156 -39.347656 8.140625 -41.140625 C 6.242188 -42.941406 5.226562 -44.773438 5.09375 -46.640625 C 4.957031 -48.898438 5.585938 -51.242188 6.984375 -53.671875 C 8.390625 -56.109375 10.191406 -58.441406 12.390625 -60.671875 C 14.585938 -62.898438 16.800781 -64.910156 19.03125 -66.703125 C 21.257812 -68.503906 23.140625 -69.921875 24.671875 -70.953125 C 26.203125 -71.992188 26.96875 -72.515625 26.96875 -72.515625 C 28.300781 -73.109375 30.03125 -73.488281 32.15625 -73.65625 C 34.289062 -73.820312 36.585938 -73.785156 39.046875 -73.546875 C 41.515625 -73.316406 43.878906 -72.867188 46.140625 -72.203125 C 48.398438 -71.535156 50.363281 -70.6875 52.03125 -69.65625 C 53.695312 -68.625 54.796875 -67.410156 55.328125 -66.015625 L 39.046875 -48.84375 L 36.0625 -51.140625 C 37.1875 -52.398438 37.382812 -53.628906 36.65625 -54.828125 C 35.925781 -56.023438 34.644531 -57.039062 32.8125 -57.875 C 30.976562 -58.707031 28.910156 -59.253906 26.609375 -59.515625 C 24.316406 -59.785156 22.171875 -59.625 20.171875 -59.03125 Z M 20.171875 -59.03125 "/></g></g></g><g fill="#ffffff" fill-opacity="1"><g transform="translate(273.771938, 273.890375)"><g><path d="M 1.203125 -7.6875 L 9.59375 -14.984375 L 15.375 -7.296875 L 6.984375 0 Z M 1.203125 -7.6875 "/></g></g></g><g fill="#ffffff" fill-opacity="1"><g transform="translate(290.351487, 273.890375)"><g><path d="M 62.71875 -55.328125 C 64.320312 -51.128906 64.9375 -46.453125 64.5625 -41.296875 C 64.195312 -36.140625 62.75 -30.910156 60.21875 -25.609375 C 57.6875 -20.316406 53.894531 -15.3125 48.84375 -10.59375 C 45.707031 -7.789062 42.390625 -5.320312 38.890625 -3.1875 C 35.398438 -1.0625 31.890625 0 28.359375 0 C 26.492188 0 24.660156 -0.265625 22.859375 -0.796875 C 21.066406 -1.328125 19.269531 -1.804688 17.46875 -2.234375 C 15.675781 -2.671875 13.914062 -2.789062 12.1875 -2.59375 C 10.457031 -2.394531 8.722656 -1.53125 6.984375 0 L 4.59375 -2.296875 C 5.457031 -3.628906 6.1875 -4.941406 6.78125 -6.234375 C 7.382812 -7.535156 7.722656 -9.316406 7.796875 -11.578125 L 7.6875 -50.53125 C 7.550781 -53.59375 6.851562 -55.554688 5.59375 -56.421875 C 4.332031 -57.296875 2.234375 -56.832031 -0.703125 -55.03125 L -2.390625 -58.125 L 15.484375 -73.203125 C 18.609375 -72.140625 20.671875 -70.441406 21.671875 -68.109375 C 22.671875 -65.785156 23.238281 -63.15625 23.375 -60.21875 L 38.546875 -73.203125 C 41.742188 -73.003906 44.941406 -72.140625 48.140625 -70.609375 C 51.335938 -69.078125 54.234375 -67.015625 56.828125 -64.421875 C 59.421875 -61.828125 61.382812 -58.796875 62.71875 -55.328125 Z M 46.140625 -14.984375 C 47.671875 -16.578125 48.6875 -18.753906 49.1875 -21.515625 C 49.6875 -24.285156 49.769531 -27.347656 49.4375 -30.703125 C 49.101562 -34.066406 48.382812 -37.445312 47.28125 -40.84375 C 46.1875 -44.238281 44.820312 -47.367188 43.1875 -50.234375 C 41.5625 -53.097656 39.679688 -55.394531 37.546875 -57.125 C 35.421875 -58.851562 33.160156 -59.71875 30.765625 -59.71875 L 23.375 -53.640625 L 23.46875 -16.578125 C 25.9375 -16.710938 28.203125 -16.445312 30.265625 -15.78125 C 32.328125 -15.113281 34.238281 -14.429688 36 -13.734375 C 37.769531 -13.035156 39.484375 -12.703125 41.140625 -12.734375 C 42.804688 -12.765625 44.472656 -13.515625 46.140625 -14.984375 Z M 46.140625 -14.984375 "/></g></g></g><g fill="#ffffff" fill-opacity="1"><g transform="translate(357.468713, 273.890375)"><g><path d="M 1.203125 -7.6875 L 9.59375 -14.984375 L 15.375 -7.296875 L 6.984375 0 Z M 1.203125 -7.6875 "/></g></g></g><g fill="#ffffff" fill-opacity="1"><g transform="translate(374.048261, 273.890375)"><g><path d="M 30.765625 -73.203125 C 35.023438 -73.203125 38.882812 -72.335938 42.34375 -70.609375 C 45.8125 -68.878906 48.804688 -66.53125 51.328125 -63.5625 C 53.859375 -60.601562 55.820312 -57.289062 57.21875 -53.625 C 58.625 -49.96875 59.359375 -46.191406 59.421875 -42.296875 C 59.492188 -38.398438 58.828125 -34.632812 57.421875 -31 C 56.023438 -27.375 53.796875 -24.128906 50.734375 -21.265625 L 24.265625 0 C 21.671875 -0.863281 19.039062 -2.378906 16.375 -4.546875 C 13.71875 -6.710938 11.253906 -9.328125 8.984375 -12.390625 C 6.722656 -15.453125 4.8125 -18.765625 3.25 -22.328125 C 1.6875 -25.890625 0.671875 -29.53125 0.203125 -33.25 C -0.265625 -36.976562 -0.0195312 -40.59375 0.9375 -44.09375 C 1.90625 -47.59375 3.789062 -50.738281 6.59375 -53.53125 Z M 38.359375 -17.375 C 39.816406 -19.96875 40.742188 -23.015625 41.140625 -26.515625 C 41.546875 -30.015625 41.414062 -33.59375 40.75 -37.25 C 40.082031 -40.914062 38.898438 -44.328125 37.203125 -47.484375 C 35.503906 -50.648438 33.269531 -53.210938 30.5 -55.171875 C 27.738281 -57.140625 24.460938 -58.125 20.671875 -58.125 C 19.003906 -56.394531 17.90625 -54.179688 17.375 -51.484375 C 16.84375 -48.785156 16.8125 -45.90625 17.28125 -42.84375 C 17.75 -39.78125 18.613281 -36.75 19.875 -33.75 C 21.132812 -30.757812 22.710938 -28.03125 24.609375 -25.5625 C 26.515625 -23.101562 28.628906 -21.125 30.953125 -19.625 C 33.285156 -18.125 35.753906 -17.375 38.359375 -17.375 Z M 38.359375 -17.375 "/></g></g></g><g fill="#ffffff" fill-opacity="1"><g transform="translate(434.673491, 273.890375)"><g><path d="M 1.203125 -7.6875 L 9.59375 -14.984375 L 15.375 -7.296875 L 6.984375 0 Z M 1.203125 -7.6875 "/></g></g></g><g fill="#ffffff" fill-opacity="1"><g transform="translate(451.25304, 273.890375)"><g><path d="M 19.078125 -63.71875 C 21.742188 -66.1875 24.109375 -68.101562 26.171875 -69.46875 C 28.234375 -70.832031 30.242188 -71.796875 32.203125 -72.359375 C 34.171875 -72.921875 36.253906 -73.203125 38.453125 -73.203125 C 41.046875 -73.203125 43.175781 -72.585938 44.84375 -71.359375 C 46.507812 -70.128906 47.925781 -68.679688 49.09375 -67.015625 C 50.257812 -65.347656 51.359375 -63.78125 52.390625 -62.3125 C 53.421875 -60.851562 54.597656 -59.820312 55.921875 -59.21875 C 57.253906 -58.625 58.957031 -58.859375 61.03125 -59.921875 L 63.015625 -56.734375 L 47.734375 -46.234375 C 45.867188 -45.835938 44.171875 -46.039062 42.640625 -46.84375 C 41.109375 -47.644531 39.707031 -48.757812 38.4375 -50.1875 C 37.175781 -51.613281 35.945312 -53.09375 34.75 -54.625 C 33.550781 -56.15625 32.351562 -57.488281 31.15625 -58.625 C 29.957031 -59.757812 28.691406 -60.441406 27.359375 -60.671875 C 26.035156 -60.910156 24.539062 -60.394531 22.875 -59.125 C 20.34375 -57.320312 18.609375 -54.15625 17.671875 -49.625 C 16.742188 -45.101562 17.144531 -39.75 18.875 -33.5625 C 19.738281 -30.957031 21.019531 -28.304688 22.71875 -25.609375 C 24.414062 -22.921875 26.445312 -20.539062 28.8125 -18.46875 C 31.175781 -16.40625 33.804688 -14.925781 36.703125 -14.03125 C 39.597656 -13.132812 42.675781 -13.148438 45.9375 -14.078125 C 49.207031 -15.015625 52.570312 -17.179688 56.03125 -20.578125 L 58.71875 -18.171875 C 55.726562 -14.710938 52.832031 -11.617188 50.03125 -8.890625 C 47.238281 -6.160156 44.226562 -3.992188 41 -2.390625 C 37.769531 -0.796875 33.988281 0 29.65625 0 C 25.269531 0 21.210938 -1.078125 17.484375 -3.234375 C 13.753906 -5.398438 10.523438 -8.484375 7.796875 -12.484375 C 5.066406 -16.484375 3.035156 -21.273438 1.703125 -26.859375 C 1.035156 -30.992188 1.097656 -34.820312 1.890625 -38.34375 C 2.691406 -41.875 3.988281 -45.171875 5.78125 -48.234375 C 7.582031 -51.296875 9.648438 -54.109375 11.984375 -56.671875 C 14.316406 -59.242188 16.679688 -61.59375 19.078125 -63.71875 Z M 19.078125 -63.71875 "/></g></g></g><g fill="#d9d9d9" fill-opacity="1"><g transform="translate(83.375165, 279.567346)"><g><path d="M 97.078125 -97.53125 C 105.023438 -96.332031 112.144531 -93.597656 118.4375 -89.328125 C 124.726562 -85.054688 129.554688 -79.550781 132.921875 -72.8125 C 136.296875 -66.070312 137.382812 -58.503906 136.1875 -50.109375 L 98.4375 -14.390625 C 94.6875 -10.785156 89.960938 -7.484375 84.265625 -4.484375 C 78.578125 -1.492188 72.960938 0 67.421875 0 C 63.828125 0 60.15625 -0.597656 56.40625 -1.796875 C 52.664062 -2.992188 48.734375 -4.113281 44.609375 -5.15625 C 40.484375 -6.207031 36.175781 -6.582031 31.6875 -6.28125 C 27.195312 -5.988281 22.550781 -4.34375 17.75 -1.34375 L 16.40625 0 L 10.109375 -5.390625 C 12.054688 -8.535156 13.78125 -11.867188 15.28125 -15.390625 C 16.78125 -18.910156 17.601562 -23.21875 17.75 -28.3125 L 17.75 -113.9375 C 17.601562 -120.832031 15.992188 -125.253906 12.921875 -127.203125 C 9.847656 -129.148438 5.015625 -128.023438 -1.578125 -123.828125 L -5.390625 -130.796875 L 35.0625 -164.734375 C 42.101562 -162.335938 46.707031 -158.515625 48.875 -153.265625 C 51.050781 -148.023438 52.289062 -142.035156 52.59375 -135.296875 L 91.921875 -164.734375 C 97.609375 -164.734375 102.882812 -163.304688 107.75 -160.453125 C 112.625 -157.609375 116.707031 -153.863281 120 -149.21875 C 123.300781 -144.570312 125.4375 -139.476562 126.40625 -133.9375 C 127.382812 -128.394531 126.828125 -122.925781 124.734375 -117.53125 Z M 71.234375 -95.515625 C 80.679688 -103.304688 86.675781 -110.269531 89.21875 -116.40625 C 91.769531 -122.550781 91.429688 -127.457031 88.203125 -131.125 C 84.984375 -134.800781 79.328125 -136.640625 71.234375 -136.640625 L 52.8125 -123.609375 L 52.8125 -80.90625 Z M 103.15625 -32.359375 C 105.550781 -35.804688 106.296875 -39.550781 105.390625 -43.59375 C 104.492188 -47.644531 102.4375 -51.503906 99.21875 -55.171875 C 96 -58.835938 91.914062 -61.984375 86.96875 -64.609375 C 82.03125 -67.234375 76.640625 -68.921875 70.796875 -69.671875 C 64.953125 -70.421875 58.957031 -69.820312 52.8125 -67.875 L 52.8125 -40 C 58.507812 -39.851562 63.828125 -38.765625 68.765625 -36.734375 C 73.710938 -34.710938 78.320312 -32.726562 82.59375 -30.78125 C 86.863281 -28.832031 90.71875 -27.742188 94.15625 -27.515625 C 97.601562 -27.296875 100.601562 -28.910156 103.15625 -32.359375 Z M 103.15625 -32.359375 "/></g></g></g><g fill="#ffffff" fill-opacity="1"><g transform="translate(80.543908, 276.232453)"><g><path d="M 97.078125 -97.53125 C 105.023438 -96.332031 112.144531 -93.597656 118.4375 -89.328125 C 124.726562 -85.054688 129.554688 -79.550781 132.921875 -72.8125 C 136.296875 -66.070312 137.382812 -58.503906 136.1875 -50.109375 L 98.4375 -14.390625 C 94.6875 -10.785156 89.960938 -7.484375 84.265625 -4.484375 C 78.578125 -1.492188 72.960938 0 67.421875 0 C 63.828125 0 60.15625 -0.597656 56.40625 -1.796875 C 52.664062 -2.992188 48.734375 -4.113281 44.609375 -5.15625 C 40.484375 -6.207031 36.175781 -6.582031 31.6875 -6.28125 C 27.195312 -5.988281 22.550781 -4.34375 17.75 -1.34375 L 16.40625 0 L 10.109375 -5.390625 C 12.054688 -8.535156 13.78125 -11.867188 15.28125 -15.390625 C 16.78125 -18.910156 17.601562 -23.21875 17.75 -28.3125 L 17.75 -113.9375 C 17.601562 -120.832031 15.992188 -125.253906 12.921875 -127.203125 C 9.847656 -129.148438 5.015625 -128.023438 -1.578125 -123.828125 L -5.390625 -130.796875 L 35.0625 -164.734375 C 42.101562 -162.335938 46.707031 -158.515625 48.875 -153.265625 C 51.050781 -148.023438 52.289062 -142.035156 52.59375 -135.296875 L 91.921875 -164.734375 C 97.609375 -164.734375 102.882812 -163.304688 107.75 -160.453125 C 112.625 -157.609375 116.707031 -153.863281 120 -149.21875 C 123.300781 -144.570312 125.4375 -139.476562 126.40625 -133.9375 C 127.382812 -128.394531 126.828125 -122.925781 124.734375 -117.53125 Z M 71.234375 -95.515625 C 80.679688 -103.304688 86.675781 -110.269531 89.21875 -116.40625 C 91.769531 -122.550781 91.429688 -127.457031 88.203125 -131.125 C 84.984375 -134.800781 79.328125 -136.640625 71.234375 -136.640625 L 52.8125 -123.609375 L 52.8125 -80.90625 Z M 103.15625 -32.359375 C 105.550781 -35.804688 106.296875 -39.550781 105.390625 -43.59375 C 104.492188 -47.644531 102.4375 -51.503906 99.21875 -55.171875 C 96 -58.835938 91.914062 -61.984375 86.96875 -64.609375 C 82.03125 -67.234375 76.640625 -68.921875 70.796875 -69.671875 C 64.953125 -70.421875 58.957031 -69.820312 52.8125 -67.875 L 52.8125 -40 C 58.507812 -39.851562 63.828125 -38.765625 68.765625 -36.734375 C 73.710938 -34.710938 78.320312 -32.726562 82.59375 -30.78125 C 86.863281 -28.832031 90.71875 -27.742188 94.15625 -27.515625 C 97.601562 -27.296875 100.601562 -28.910156 103.15625 -32.359375 Z M 103.15625 -32.359375 "/></g></g></g><g clip-path="url(#94e637a049)"><path fill="#ffffff" d="M 322.265625 317.007812 C 286.523438 318.050781 250.777344 319.089844 215.039062 320.125 C 207.386719 320.347656 199.722656 320.488281 192.066406 320.777344 C 208.628906 319.453125 225.207031 318.457031 241.792969 317.78125 C 268.605469 316.699219 295.441406 316.4375 322.265625 317.007812 Z M 517.617188 288.082031 C 456.753906 285.625 395.871094 285.164062 334.988281 286.917969 C 273.921875 288.675781 212.773438 292.101562 151.921875 298.214844 C 116.613281 301.757812 81.371094 305.6875 46.253906 311.070312 C 44.800781 311.292969 46.03125 312.785156 47 312.703125 C 77.59375 310.046875 108.152344 306.777344 138.765625 304.28125 C 169.058594 301.820312 199.378906 299.699219 229.714844 298.078125 C 288.054688 294.964844 346.472656 293.695312 404.875 294.105469 C 393.554688 294.878906 382.234375 295.683594 370.910156 296.515625 C 322.070312 300.101562 273.273438 304.550781 224.554688 309.851562 C 197.199219 312.824219 169.875 316.082031 142.570312 319.597656 C 140.203125 319.90625 137.492188 326.316406 140.78125 325.917969 C 147.140625 325.148438 153.507812 324.425781 159.878906 323.757812 C 159.5625 324.078125 159.285156 324.449219 159.074219 324.863281 C 158.640625 325.722656 158.40625 327.578125 159.800781 327.539062 C 167.585938 327.304688 175.433594 327.71875 183.230469 327.648438 C 191.074219 327.578125 198.914062 327.25 206.753906 327.007812 C 222.398438 326.53125 238.042969 326.054688 253.695312 325.578125 C 285.492188 324.609375 317.289062 323.644531 349.085938 322.675781 C 366.613281 322.144531 384.132812 321.613281 401.660156 321.082031 C 403.726562 321.019531 406.632812 314.867188 403.925781 314.648438 C 370.066406 311.929688 336.125 310.519531 302.171875 310.417969 C 296.390625 310.398438 290.605469 310.425781 284.820312 310.484375 C 285.601562 310.414062 286.382812 310.339844 287.164062 310.269531 C 335.992188 305.945312 384.871094 302.519531 433.808594 300.070312 C 461.28125 298.703125 488.769531 297.652344 516.261719 296.65625 C 518.984375 296.558594 520.441406 288.195312 517.617188 288.082031 " fill-opacity="1" fill-rule="nonzero"/></g></svg>