<svg width="612" height="233" viewBox="0 0 612 233" fill="none" xmlns="http://www.w3.org/2000/svg">
<rect width="612" height="233" fill="white"/>
<path d="M179.425 114.652C180.396 114.246 181.652 113.842 182.785 113.233C185.578 111.741 185.74 108.884 183.15 107.058C180.862 105.457 178.149 105.106 175.376 104.867C170.983 104.461 166.53 104.24 162.219 103.429C160.012 103.023 157.826 101.77 156.046 100.443C149.73 95.7255 151.37 86.9536 159.062 84.2071C161.349 83.3966 163.919 83.0274 166.39 82.8611C168.595 82.714 170.235 84.06 171.55 85.5708C172.239 86.3446 171.51 86.88 170.883 87.1919C169.061 88.0775 167.097 88.6483 165.073 87.9304C161.693 86.7315 159.791 88.1687 158.92 90.0487C157.382 93.3659 157.807 95.3754 160.418 96.9788C163.373 98.8029 166.753 99.3561 170.235 99.5223C174.061 99.7238 177.928 99.7062 181.612 100.867C185.903 102.23 189.141 104.497 190.052 108.847C190.74 112.128 188.818 115.702 185.476 117.122C185.153 117.25 184.626 117.232 184.303 117.085C182.602 116.292 180.964 115.426 179.425 114.652Z" fill="#333333"/>
<path d="M181.308 80.3182C181.51 80.4286 181.692 80.5565 182.3 80.9067C179.181 80.9067 176.47 80.9067 173.615 80.9067C173.98 80.1697 174.365 79.415 174.709 78.6589C175.073 77.9028 175.619 77.535 176.611 77.4614C181.915 77.0746 183.007 73.8677 182.886 70.2371C182.865 69.353 182.725 68.4498 182.744 67.5642C182.785 64.9472 184.303 63.4923 187.178 63.6762C189.02 63.7865 190.962 64.0822 192.602 64.8001C197.197 66.8272 201.65 69.1132 206.164 71.2874C207.337 71.8582 206.812 72.4304 206.124 72.9085C204.322 74.1251 202.196 74.6414 200.01 74.6238C197.662 74.5855 195.315 74.2178 192.967 73.9971C192.481 73.9603 191.994 73.9044 191.408 74.0883C192.379 74.4576 193.351 74.8077 194.282 75.1578C192.238 78.0881 189.243 77.2952 186.307 76.798C186.287 76.926 186.245 77.0554 186.226 77.1658C186.914 77.4614 187.582 77.7557 188.432 78.1058C186.084 78.9354 184.445 81.295 181.429 79.8563C181.389 80.0049 181.348 80.1697 181.308 80.3182Z" fill="#333333"/>
<path d="M164.304 80.963C164.629 80.5761 164.79 80.3923 164.932 80.2069C161.956 81.2587 160.297 78.9918 157.949 78.0886C158.818 77.7561 159.507 77.4987 160.216 77.2221C160.235 77.0927 160.235 76.9647 160.256 76.8529C157.301 77.1486 154.123 78.2533 152.16 75.1583C153.029 74.8258 154.002 74.4757 154.952 74.1256C149.589 74.5125 144.144 75.9879 139.407 72.172C139.568 71.8778 139.589 71.7116 139.69 71.6571C144.892 68.5782 150.176 65.6302 156.228 64.1003C157.482 63.787 158.88 63.584 160.155 63.7135C162.887 64.0077 164.04 65.87 163.738 68.6709C163.575 70.1272 163.575 71.638 163.819 73.0752C164.223 75.4525 166.186 77.0383 168.797 77.3884C171.348 77.7385 172.158 78.4755 172.623 80.963C169.912 80.963 167.199 80.963 164.304 80.963Z" fill="#333333"/>
<path d="M165.984 105.695C165.175 106.137 164.344 106.524 163.616 107.041C160.883 108.994 161.106 111.795 164.082 113.362C166.571 114.67 169.345 115.112 172.179 115.149C175.336 115.186 178.474 115.315 181.368 116.716C185.092 118.522 187.057 122.06 186.307 125.838C186.165 126.575 185.842 127.313 185.417 127.94C183.919 130.114 183.109 130.261 180.72 129.064C179.991 128.695 179.243 128.344 178.332 127.921C178.778 127.737 179.081 127.607 179.404 127.478C180.7 126.963 182.036 126.391 182.137 124.935C182.258 123.35 181.692 121.894 180.195 120.917C178.474 119.793 176.47 119.499 174.446 119.517C170.983 119.536 167.543 119.48 164.244 118.393C163.271 118.079 162.3 117.729 161.41 117.287C156.127 114.67 154.933 108.754 158.759 104.553C159.264 104 159.668 103.834 160.479 104.11C162.26 104.718 164.102 105.161 165.984 105.695Z" fill="#333333"/>
<mask id="mask0_575_205" style="mask-type:luminance" maskUnits="userSpaceOnUse" x="108" y="72" width="39" height="11">
<path d="M108.498 72.2056H146.484V82.3735H108.498V72.2056Z" fill="white"/>
</mask>
<g mask="url(#mask0_575_205)">
<path d="M108.498 78.1092C118.7 76.9853 128.476 75.142 138.071 72.3779C139.791 75.4745 143.091 75.3083 146.471 75.5848C145.863 75.8614 145.479 76.0644 145.054 76.2291C137.869 78.8285 130.541 81.0027 122.829 81.8692C119.105 82.2928 115.339 82.3855 111.797 80.91C110.442 80.3216 109.369 79.5096 108.498 78.1092Z" fill="#333333"/>
</g>
<path d="M237.842 78.0889C235.656 80.4838 233.065 81.6268 230.05 81.9401C225.981 82.3638 222.013 81.6268 218.066 80.853C211.913 79.6556 205.962 77.8491 199.808 75.619C203.169 75.288 206.487 75.5455 208.329 72.4121C217.843 75.085 227.6 77.0018 237.842 78.0889Z" fill="#333333"/>
<path d="M180.437 99.283C182.158 98.6372 184.059 98.1208 185.72 97.2367C189.202 95.4303 189.587 91.1186 186.651 88.6487C185.355 87.5439 183.919 87.1188 182.198 87.7646C180.235 88.5016 178.332 88.225 176.47 87.488C174.526 86.7143 174.405 85.9773 175.882 84.6504C177.805 82.9175 180.052 82.5865 182.684 82.991C186.428 83.5633 190.012 84.4106 192.338 87.3409C196.063 92.0027 195.193 98.8769 187.966 102.177C187.683 102.305 187.218 102.231 186.914 102.103C184.728 101.181 182.562 100.223 180.437 99.283Z" fill="#333333"/>
<path d="M162.502 118.762C164.061 119.259 165.621 119.757 167.361 120.291C165.802 121.287 164.75 122.466 164.588 124.18C164.486 125.341 164.871 126.207 165.924 126.797C167.786 127.847 169.851 128.142 172.016 128.087C174.546 128.014 177.016 128.345 179.283 129.488C184.121 131.921 184.849 138.112 180.679 141.043C179.91 141.577 179.283 141.687 178.433 141.227C177.684 140.821 176.834 140.619 175.863 140.269C176.57 139.919 177.218 139.642 177.805 139.292C180.842 137.523 180.781 134.095 177.603 132.565C176.57 132.068 175.275 131.994 174.081 131.865C171.51 131.569 168.818 131.662 166.369 131.035C159.891 129.377 158.13 123.498 162.502 118.762Z" fill="#333333"/>
<path d="M153.495 77.8677C145.946 84.5022 125.927 87.8385 120.097 83.2503C121.655 83.0105 123.072 82.7884 124.469 82.5486C132.585 81.0938 140.501 79.0107 147.99 75.7126C149.245 75.1595 150.378 75.4905 151.41 76.2466C152.12 76.7806 152.808 77.3337 153.495 77.8677Z" fill="#333333"/>
<path d="M192.582 78.1267C193.696 77.2794 194.444 76.6895 195.213 76.1364C196.226 75.3994 197.339 75.2331 198.512 75.7495C207.176 79.508 216.305 81.8676 225.799 83.1386C225.839 83.1386 225.858 83.1945 226.183 83.4887C224.382 84.005 222.803 84.5582 221.142 84.9083C214.341 86.3646 207.966 84.7612 201.792 82.3648C198.695 81.1306 195.761 79.6007 192.582 78.1267Z" fill="#333333"/>
<path d="M185.417 80.9458C186.388 80.3368 186.974 79.9322 187.603 79.563C189.464 78.4759 191.125 78.217 193.29 79.4159C199.16 82.6404 205.455 85.0368 212.48 86.1048C210.9 87.3949 209.079 87.7274 207.197 87.8745C202.744 88.2246 198.593 87.2478 194.667 85.4237C191.631 84.0409 188.675 82.5301 185.417 80.9458Z" fill="#333333"/>
<path d="M160.539 81.0196C155.782 83.5439 151.168 86.3272 145.682 87.4687C142.625 88.1145 139.528 88.2616 136.492 87.3952C135.621 87.1554 134.833 86.7141 133.598 86.2169C141.431 84.9635 148.091 82.2538 154.467 78.8263C154.932 78.5865 155.681 78.4026 156.126 78.5674C157.686 79.1396 159.183 79.8575 160.701 80.5401C160.641 80.6872 160.6 80.8534 160.539 81.0196Z" fill="#333333"/>
<path d="M164.852 131.551C166.105 131.957 167.259 132.344 168.413 132.712C165.417 136.362 166.592 139.18 171.491 140.286C172.967 140.619 174.506 140.71 175.963 141.079C180.154 142.147 181.854 146.091 179.647 149.391C178.332 151.344 177.157 151.639 174.769 150.441C175.296 150.147 175.782 149.907 176.226 149.648C177.724 148.764 178.353 147.455 177.968 145.816C177.643 144.377 176.428 143.77 175.032 143.512C173.535 143.236 171.996 143.236 170.518 142.923C167.098 142.166 164.304 140.673 163.373 137.265C162.827 135.199 163.616 133.412 164.852 131.551Z" fill="#333333"/>
<mask id="mask1_575_205" style="mask-type:luminance" maskUnits="userSpaceOnUse" x="165" y="143" width="14" height="23">
<path d="M165.924 143.004H178.333V165.131H165.924V143.004Z" fill="white"/>
</mask>
<g mask="url(#mask1_575_205)">
<path d="M170.214 143.843C167.726 145.926 168.028 148.47 170.943 149.907C171.935 150.385 173.048 150.661 174.081 151.048C177.28 152.228 178.657 154.808 177.724 157.795C177.157 159.619 175.903 160.613 173.696 160.613C173.575 162.199 173.473 163.729 173.352 165.276C173.252 165.276 173.15 165.276 173.048 165.276C172.989 164.557 172.927 163.839 172.867 163.12C172.745 161.849 172.927 160.687 170.903 160.153C168.778 159.582 168.028 156.043 169.203 153.851C169.466 153.371 169.83 152.947 170.214 152.412C170.762 152.634 171.268 152.855 171.794 153.075C169.082 156.081 169.445 159.342 172.543 160.135C172.543 159.029 172.564 157.923 172.543 156.818C172.523 155.748 172.442 154.679 172.381 153.537C172.927 153.537 173.352 153.537 173.737 153.537C173.798 153.592 173.858 153.629 173.858 153.665C173.858 155.822 173.858 157.959 173.858 160.172C175.255 160.006 176.065 159.269 176.388 158.162C176.834 156.632 176.874 155.029 175.478 153.887C174.648 153.205 173.473 152.855 172.442 152.375C170.883 151.657 169.122 151.16 167.807 150.164C166.046 148.837 165.802 146.81 166.328 144.839C166.875 142.774 167.3 142.7 170.214 143.843Z" fill="#333333"/>
</g>
<path d="M173.231 70.6617C170.722 70.6617 168.555 68.6714 168.514 66.3677C168.495 63.9713 170.66 61.981 173.271 62.0001C175.822 62.0001 177.947 63.9346 177.987 66.275C178.028 68.6155 175.801 70.6617 173.231 70.6617Z" fill="#333333"/>
<path d="M175.174 98.4893C173.798 98.4893 172.785 98.4893 171.49 98.4893C171.49 97.6419 171.49 96.8123 171.49 96.0017C171.49 94.6557 171.591 93.3112 171.469 91.9651C171.247 89.6438 171.854 87.5432 173.231 85.5337C176.368 89.5335 174.465 94.0658 175.174 98.4893Z" fill="#333333"/>
<path d="M172.704 73.223C171.429 72.7449 170.114 72.3212 169.972 70.8281C172.179 70.8281 174.304 70.8281 176.409 70.8281C176.368 72.0079 176.328 72.0623 173.838 73.3157C175.782 74.366 175.578 76.5961 173.333 79.4706C171.045 77.2404 170.781 74.7161 172.704 73.223Z" fill="#333333"/>
<path d="M174.709 114.32C173.94 114.32 173.311 114.32 172.684 114.32C172.4 114.32 172.117 114.265 171.692 114.229C171.692 111.408 171.692 108.644 171.692 105.788C172.623 105.788 173.636 105.788 174.728 105.788C174.709 108.588 174.709 111.353 174.709 114.32Z" fill="#333333"/>
<path d="M178.17 81.9963C180.356 81.7565 182.542 81.4799 184.728 81.296C185.072 81.2593 185.457 81.5167 185.801 81.6829C190.071 83.7277 194.322 85.7739 198.977 88.0217C197.318 88.1879 195.922 88.3909 194.524 88.4453C194.242 88.4645 193.857 88.004 193.615 87.7084C190.012 83.3408 185.153 81.8477 179.364 82.4567C178.979 82.4935 178.574 82.4199 178.189 82.4008C178.17 82.236 178.17 82.1066 178.17 81.9963Z" fill="#333333"/>
<path d="M168.272 82.3098C168.009 82.3466 167.745 82.4201 167.482 82.3833C161.37 81.8111 156.248 83.4337 152.464 88.0042C152.26 88.244 151.816 88.4455 151.512 88.4279C150.257 88.3352 149.001 88.169 147.726 87.7644C151.289 86.1051 154.892 84.5384 158.374 82.7879C160.458 81.7375 162.442 81.0373 164.852 81.6463C165.944 81.9229 167.138 81.8479 168.291 81.9229C168.291 82.0509 168.291 82.1803 168.272 82.3098Z" fill="#333333"/>
<path d="M171.875 120.365C172.785 120.365 173.615 120.365 174.486 120.365C174.486 122.853 174.486 125.248 174.486 127.754C173.575 127.754 172.785 127.754 171.875 127.754C171.875 125.304 171.875 122.907 171.875 120.365Z" fill="#333333"/>
<path d="M172.117 132.16C172.867 132.16 173.534 132.16 174.263 132.16C174.263 134.519 174.324 136.841 174.182 139.144C174.161 139.44 173.029 139.661 172.117 140.03C172.117 137.173 172.117 134.74 172.117 132.16Z" fill="#333333"/>
<path d="M174.021 149.998C173.332 149.998 172.927 149.998 172.4 149.998C172.3 148.026 172.219 146.127 172.117 144.1C172.765 144.1 173.352 144.1 174.021 144.1C174.021 146.017 174.021 147.953 174.021 149.998Z" fill="#333333"/>
<path d="M173.858 81.4795C175.153 81.8296 176.428 82.1797 177.968 82.6034C176.511 83.6728 175.438 84.4643 174.061 85.4969C173.817 84.2068 173.615 83.0638 173.413 81.9032C173.555 81.7561 173.717 81.6089 173.858 81.4795Z" fill="#333333"/>
<path d="M173.129 81.3877C172.867 82.8999 172.704 83.9135 172.523 85.0742C171.268 84.1886 170.235 83.4516 168.797 82.4204C170.276 82.0703 171.47 81.7746 173.129 81.3877Z" fill="#333333"/>
<path d="M176.927 114.652C177.899 114.246 179.154 113.842 180.288 113.233C183.08 111.741 183.243 108.884 180.652 107.058C178.364 105.457 175.653 105.106 172.878 104.867C168.487 104.461 164.034 104.24 159.722 103.429C157.516 103.023 155.33 101.77 153.548 100.443C147.234 95.7255 148.872 86.9536 156.564 84.2071C158.852 83.3966 161.423 83.0274 163.892 82.8611C166.099 82.714 167.737 84.06 169.054 85.5708C169.742 86.3446 169.014 86.88 168.385 87.1919C166.564 88.0775 164.599 88.6483 162.577 87.9304C159.196 86.7315 157.293 88.1687 156.422 90.0487C154.884 93.3659 155.309 95.3754 157.92 96.9788C160.875 98.8029 164.255 99.3561 167.737 99.5223C171.563 99.7238 175.43 99.7062 179.114 100.867C183.405 102.23 186.643 104.497 187.554 108.847C188.242 112.128 186.32 115.702 182.98 117.122C182.655 117.25 182.13 117.232 181.805 117.085C180.106 116.292 178.466 115.426 176.927 114.652Z" fill="#55B7BE"/>
<path d="M178.81 80.3182C179.012 80.4286 179.194 80.5565 179.802 80.9067C176.685 80.9067 173.972 80.9067 171.117 80.9067C171.482 80.1697 171.867 79.415 172.211 78.6589C172.575 77.9028 173.122 77.535 174.114 77.4614C179.417 77.0746 180.51 73.8677 180.388 70.2371C180.369 69.353 180.227 68.4498 180.246 67.5642C180.288 64.9472 181.805 63.4923 184.68 63.6762C186.522 63.7865 188.465 64.0822 190.105 64.8001C194.699 66.8272 199.152 69.1132 203.666 71.2874C204.841 71.8582 204.314 72.4304 203.626 72.9085C201.824 74.1251 199.7 74.6414 197.514 74.6238C195.164 74.5855 192.817 74.2178 190.469 73.9971C189.983 73.9603 189.498 73.9044 188.91 74.0883C189.882 74.4576 190.853 74.8077 191.784 75.1578C189.74 78.0881 186.745 77.2952 183.809 76.798C183.79 76.926 183.749 77.0554 183.728 77.1658C184.416 77.4614 185.085 77.7557 185.935 78.1058C183.588 78.9354 181.948 81.295 178.931 79.8563C178.891 80.0049 178.85 80.1697 178.81 80.3182Z" fill="#55B7BE"/>
<path d="M161.807 80.963C162.131 80.5761 162.292 80.3923 162.434 80.2069C159.458 81.2587 157.799 78.9918 155.451 78.0886C156.322 77.7561 157.01 77.4987 157.718 77.2221C157.739 77.0927 157.739 76.9647 157.758 76.8529C154.803 77.1486 151.625 78.2533 149.662 75.1583C150.533 74.8258 151.504 74.4757 152.456 74.1256C147.091 74.5125 141.646 75.9879 136.909 72.172C137.072 71.8778 137.092 71.7116 137.193 71.6571C142.394 68.5782 147.678 65.6302 153.73 64.1003C154.986 63.787 156.382 63.584 157.657 63.7135C160.39 64.0077 161.544 65.87 161.24 68.6709C161.079 70.1272 161.079 71.638 161.321 73.0752C161.727 75.4525 163.69 77.0383 166.301 77.3884C168.85 77.7385 169.66 78.4755 170.127 80.963C167.414 80.963 164.701 80.963 161.807 80.963Z" fill="#55B7BE"/>
<path d="M163.486 105.695C162.677 106.137 161.848 106.524 161.119 107.041C158.385 108.994 158.608 111.795 161.584 113.362C164.074 114.67 166.847 115.112 169.681 115.149C172.838 115.186 175.976 115.315 178.871 116.716C182.595 118.522 184.559 122.06 183.809 125.838C183.668 126.575 183.344 127.313 182.919 127.94C181.421 130.114 180.611 130.261 178.223 129.064C177.495 128.695 176.745 128.344 175.834 127.921C176.28 127.737 176.583 127.607 176.906 127.478C178.202 126.963 179.539 126.391 179.64 124.935C179.761 123.35 179.194 121.894 177.697 120.917C175.976 119.793 173.972 119.499 171.948 119.517C168.487 119.536 165.045 119.48 161.746 118.393C160.775 118.079 159.802 117.729 158.912 117.287C153.629 114.67 152.435 108.754 156.261 104.553C156.766 104 157.172 103.834 157.981 104.11C159.762 104.718 161.604 105.161 163.486 105.695Z" fill="#55B7BE"/>
<mask id="mask2_575_205" style="mask-type:luminance" maskUnits="userSpaceOnUse" x="106" y="72" width="39" height="11">
<path d="M106 72.2056H144.002V82.3735H106V72.2056Z" fill="white"/>
</mask>
<g mask="url(#mask2_575_205)">
<path d="M106 78.1092C116.202 76.9853 125.979 75.142 135.574 72.3779C137.294 75.4745 140.593 75.3083 143.975 75.5848C143.367 75.8614 142.983 76.0644 142.558 76.2291C135.371 78.8285 128.043 81.0027 120.332 81.8692C116.607 82.2928 112.843 82.3855 109.299 80.91C107.944 80.3216 106.871 79.5096 106 78.1092Z" fill="#55B7BE"/>
</g>
<path d="M235.344 78.0889C233.158 80.4838 230.568 81.6268 227.552 81.9401C223.483 82.3638 219.515 81.6268 215.569 80.853C209.415 79.6556 203.464 77.8491 197.31 75.619C200.671 75.288 203.991 75.5455 205.833 72.4121C215.346 75.085 225.102 77.0018 235.344 78.0889Z" fill="#55B7BE"/>
<path d="M177.939 99.283C179.66 98.6372 181.563 98.1208 183.222 97.2367C186.704 95.4303 187.089 91.1186 184.153 88.6487C182.859 87.5439 181.421 87.1188 179.7 87.7646C177.737 88.5016 175.834 88.225 173.972 87.488C172.029 86.7143 171.907 85.9773 173.386 84.6504C175.308 82.9175 177.554 82.5865 180.186 82.991C183.932 83.5633 187.514 84.4106 189.842 87.3409C193.566 92.0027 192.695 98.8769 185.47 102.177C185.185 102.305 184.72 102.231 184.416 102.103C182.23 101.181 180.065 100.223 177.939 99.283Z" fill="#55B7BE"/>
<path d="M160.006 118.762C161.563 119.259 163.123 119.757 164.863 120.291C163.305 121.287 162.252 122.466 162.09 124.18C161.988 125.341 162.373 126.207 163.426 126.797C165.288 127.847 167.353 128.142 169.519 128.087C172.05 128.014 174.518 128.345 176.785 129.488C181.623 131.921 182.352 138.112 178.183 141.043C177.414 141.577 176.785 141.687 175.935 141.227C175.187 140.821 174.336 140.619 173.365 140.269C174.072 139.919 174.72 139.642 175.309 139.292C178.344 137.523 178.283 134.095 175.105 132.565C174.072 132.068 172.778 131.994 171.584 131.865C169.014 131.569 166.32 131.662 163.871 131.035C157.395 129.377 155.634 123.498 160.006 118.762Z" fill="#55B7BE"/>
<path d="M150.998 77.8677C143.448 84.5022 123.429 87.8385 117.599 83.2503C119.157 83.0105 120.574 82.7884 121.972 82.5486C130.089 81.0938 138.003 79.0107 145.492 75.7126C146.747 75.1595 147.88 75.4905 148.912 76.2466C149.622 76.7806 150.31 77.3337 150.998 77.8677Z" fill="#55B7BE"/>
<path d="M190.084 78.1267C191.198 77.2794 191.947 76.6895 192.716 76.1364C193.728 75.3994 194.841 75.2331 196.016 75.7495C204.679 79.508 213.808 81.8676 223.301 83.1386C223.341 83.1386 223.362 83.1945 223.685 83.4887C221.884 84.005 220.305 84.5582 218.646 84.9083C211.843 86.3646 205.468 84.7612 199.294 82.3648C196.197 81.1306 193.262 79.6007 190.084 78.1267Z" fill="#55B7BE"/>
<path d="M182.919 80.9458C183.89 80.3368 184.478 79.9322 185.105 79.563C186.968 78.4759 188.627 78.217 190.792 79.4159C196.664 82.6404 202.959 85.0368 209.982 86.1048C208.404 87.3949 206.581 87.7274 204.699 87.8745C200.246 88.2246 196.097 87.2478 192.169 85.4237C189.133 84.0409 186.178 82.5301 182.919 80.9458Z" fill="#55B7BE"/>
<path d="M158.041 81.0196C153.284 83.5439 148.67 86.3272 143.185 87.4687C140.128 88.1145 137.032 88.2616 133.994 87.3952C133.125 87.1554 132.335 86.7141 131.1 86.2169C138.934 84.9635 145.594 82.2538 151.969 78.8263C152.435 78.5865 153.184 78.4026 153.629 78.5674C155.188 79.1396 156.686 79.8575 158.204 80.5401C158.143 80.6872 158.103 80.8534 158.041 81.0196Z" fill="#55B7BE"/>
<path d="M162.354 131.551C163.609 131.957 164.763 132.344 165.916 132.712C162.921 136.362 164.094 139.18 168.993 140.286C170.471 140.619 172.009 140.71 173.467 141.079C177.656 142.147 179.356 146.091 177.15 149.391C175.834 151.344 174.661 151.639 172.273 150.441C172.798 150.147 173.284 149.907 173.73 149.648C175.228 148.764 175.855 147.455 175.47 145.816C175.145 144.377 173.932 143.77 172.534 143.512C171.036 143.236 169.498 143.236 168.022 142.923C164.599 142.166 161.807 140.673 160.875 137.265C160.329 135.199 161.119 133.412 162.354 131.551Z" fill="#55B7BE"/>
<mask id="mask3_575_205" style="mask-type:luminance" maskUnits="userSpaceOnUse" x="163" y="143" width="13" height="23">
<path d="M163.443 143.004H175.851V165.131H163.443V143.004Z" fill="white"/>
</mask>
<g mask="url(#mask3_575_205)">
<path d="M167.718 143.843C165.228 145.926 165.532 148.47 168.447 149.907C169.439 150.385 170.552 150.661 171.584 151.048C174.782 152.228 176.158 154.808 175.228 157.795C174.661 159.619 173.405 160.613 171.2 160.613C171.077 162.199 170.977 163.729 170.856 165.276C170.754 165.276 170.652 165.276 170.552 165.276C170.49 164.557 170.429 163.839 170.369 163.12C170.248 161.849 170.429 160.687 168.406 160.153C166.28 159.582 165.532 156.043 166.705 153.851C166.968 153.371 167.333 152.947 167.718 152.412C168.264 152.634 168.77 152.855 169.296 153.075C166.584 156.081 166.949 159.342 170.045 160.135C170.045 159.029 170.066 157.923 170.045 156.818C170.025 155.748 169.944 154.679 169.883 153.537C170.429 153.537 170.856 153.537 171.24 153.537C171.3 153.592 171.361 153.629 171.361 153.665C171.361 155.822 171.361 157.959 171.361 160.172C172.757 160.006 173.567 159.269 173.892 158.162C174.336 156.632 174.376 155.029 172.98 153.887C172.15 153.205 170.977 152.855 169.944 152.375C168.385 151.657 166.624 151.16 165.309 150.164C163.548 148.837 163.305 146.81 163.83 144.839C164.378 142.774 164.803 142.7 167.718 143.843Z" fill="#55B7BE"/>
</g>
<path d="M170.733 70.6617C168.223 70.6617 166.057 68.6714 166.016 66.3677C165.997 63.9713 168.162 61.981 170.773 62.0001C173.324 62.0001 175.449 63.9346 175.489 66.275C175.53 68.6155 173.303 70.6617 170.733 70.6617Z" fill="#55B7BE"/>
<path d="M172.676 98.4893C171.3 98.4893 170.288 98.4893 168.993 98.4893C168.993 97.6419 168.993 96.8123 168.993 96.0017C168.993 94.6557 169.094 93.3112 168.972 91.9651C168.75 89.6438 169.356 87.5432 170.733 85.5337C173.87 89.5335 171.969 94.0658 172.676 98.4893Z" fill="#55B7BE"/>
<path d="M170.208 73.223C168.931 72.7449 167.616 72.3212 167.474 70.8281C169.681 70.8281 171.806 70.8281 173.911 70.8281C173.871 72.0079 173.83 72.0623 171.34 73.3157C173.284 74.366 173.082 76.5961 170.835 79.4706C168.547 77.2404 168.285 74.7161 170.208 73.223Z" fill="#55B7BE"/>
<path d="M172.211 114.32C171.442 114.32 170.815 114.32 170.187 114.32C169.904 114.32 169.62 114.265 169.195 114.229C169.195 111.408 169.195 108.644 169.195 105.788C170.127 105.788 171.138 105.788 172.231 105.788C172.211 108.588 172.211 111.353 172.211 114.32Z" fill="#55B7BE"/>
<path d="M175.672 81.9963C177.858 81.7565 180.044 81.4799 182.23 81.296C182.574 81.2593 182.959 81.5167 183.303 81.6829C187.575 83.7277 191.824 85.7739 196.481 88.0217C194.822 88.1879 193.424 88.3909 192.028 88.4453C191.744 88.4645 191.359 88.004 191.117 87.7084C187.514 83.3408 182.655 81.8477 176.866 82.4567C176.481 82.4935 176.078 82.4199 175.693 82.4008C175.672 82.236 175.672 82.1066 175.672 81.9963Z" fill="#55B7BE"/>
<path d="M165.774 82.3098C165.511 82.3466 165.247 82.4201 164.984 82.3833C158.872 81.8111 153.751 83.4337 149.966 88.0042C149.764 88.244 149.318 88.4455 149.014 88.4279C147.759 88.3352 146.505 88.169 145.228 87.7644C148.791 86.1051 152.394 84.5384 155.876 82.7879C157.96 81.7375 159.944 81.0373 162.354 81.6463C163.446 81.9229 164.641 81.8479 165.795 81.9229C165.795 82.0509 165.795 82.1803 165.774 82.3098Z" fill="#55B7BE"/>
<path d="M169.377 120.365C170.288 120.365 171.117 120.365 171.988 120.365C171.988 122.853 171.988 125.248 171.988 127.754C171.077 127.754 170.288 127.754 169.377 127.754C169.377 125.304 169.377 122.907 169.377 120.365Z" fill="#55B7BE"/>
<path d="M169.62 132.16C170.369 132.16 171.037 132.16 171.765 132.16C171.765 134.519 171.827 136.841 171.685 139.144C171.665 139.44 170.531 139.661 169.62 140.03C169.62 137.173 169.62 134.74 169.62 132.16Z" fill="#55B7BE"/>
<path d="M171.523 149.998C170.835 149.998 170.429 149.998 169.904 149.998C169.802 148.026 169.721 146.127 169.62 144.1C170.268 144.1 170.856 144.1 171.523 144.1C171.523 146.017 171.523 147.953 171.523 149.998Z" fill="#55B7BE"/>
<path d="M171.361 81.4795C172.657 81.8296 173.932 82.1797 175.47 82.6034C174.013 83.6728 172.94 84.4643 171.563 85.4969C171.321 84.2068 171.117 83.0638 170.915 81.9032C171.058 81.7561 171.219 81.6089 171.361 81.4795Z" fill="#55B7BE"/>
<path d="M170.633 81.3877C170.369 82.8999 170.208 83.9135 170.025 85.0742C168.77 84.1886 167.737 83.4516 166.301 82.4204C167.778 82.0703 168.972 81.7746 170.633 81.3877Z" fill="#55B7BE"/>
<mask id="mask4_575_205" style="mask-type:luminance" maskUnits="userSpaceOnUse" x="224" y="131" width="239" height="20">
<path d="M224 131.64H462.339V150.864H224V131.64Z" fill="white"/>
</mask>
<g mask="url(#mask4_575_205)">
<path d="M363.221 145.953C345.238 146.43 327.256 146.907 309.275 147.382C305.423 147.482 301.569 147.547 297.717 147.679C306.049 147.073 314.389 146.616 322.734 146.308C336.223 145.812 349.726 145.692 363.221 145.953ZM461.506 132.703C430.885 131.577 400.254 131.368 369.624 132.171C338.898 132.975 308.133 134.545 277.518 137.344C259.754 138.968 242.024 140.769 224.356 143.233C223.624 143.335 224.242 144.018 224.73 143.982C240.124 142.765 255.497 141.267 270.901 140.124C286.141 138.995 301.396 138.024 316.658 137.282C346.01 135.857 375.401 135.275 404.785 135.463C399.089 135.816 393.393 136.185 387.697 136.567C363.122 138.21 338.573 140.247 314.062 142.674C300.3 144.038 286.551 145.529 272.814 147.14C271.623 147.281 270.259 150.219 271.914 150.034C275.115 149.683 278.317 149.351 281.524 149.045C281.362 149.192 281.223 149.362 281.116 149.552C280.9 149.944 280.782 150.796 281.482 150.778C285.399 150.67 289.348 150.86 293.271 150.828C297.217 150.796 301.162 150.645 305.104 150.534C312.977 150.315 320.849 150.097 328.722 149.878C344.72 149.435 360.719 148.993 376.717 148.55C385.533 148.306 394.349 148.063 403.167 147.819C404.207 147.79 405.669 144.973 404.307 144.873C387.271 143.627 370.194 142.982 353.111 142.934C350.202 142.925 347.293 142.937 344.382 142.964C344.776 142.932 345.169 142.898 345.563 142.866C370.129 140.885 394.719 139.316 419.341 138.196C433.163 137.568 446.994 137.086 460.825 136.631C462.195 136.586 462.929 132.755 461.506 132.703Z" fill="#222222"/>
</g>
<path d="M270.654 106.064C272.443 106.179 274.078 106.62 275.559 107.383C277.039 108.148 278.214 109.189 279.086 110.508C279.956 111.824 280.33 113.34 280.204 115.06L272.417 122.917C271.65 123.71 270.658 124.456 269.441 125.153C268.223 125.852 266.997 126.243 265.764 126.329C264.961 126.391 264.131 126.332 263.276 126.149C262.42 125.963 261.523 125.798 260.584 125.655C259.649 125.508 258.682 125.501 257.686 125.633C256.688 125.762 255.681 126.169 254.663 126.852L254.395 127.146L252.892 126.149C253.269 125.486 253.594 124.786 253.868 124.049C254.139 123.309 254.248 122.42 254.191 121.383L252.687 104C252.529 102.609 252.09 101.742 251.372 101.398C250.654 101.05 249.597 101.355 248.199 102.315L247.231 100.96L255.655 93.4264C257.265 93.7956 258.358 94.4945 258.93 95.5267C259.507 96.559 259.887 97.7561 260.072 99.118L268.323 92.5161C269.593 92.4265 270.795 92.6308 271.929 93.1326C273.067 93.6307 274.043 94.3225 274.858 95.2113C275.671 96.1002 276.236 97.1002 276.551 98.2077C276.866 99.3116 276.836 100.428 276.464 101.555L270.654 106.064ZM264.938 106.888C266.9 105.154 268.111 103.645 268.567 102.358C269.028 101.068 268.868 100.079 268.087 99.3904C267.309 98.6987 266.018 98.4155 264.213 98.5446L260.332 101.484L261.08 110.143L264.938 106.888ZM273.157 119.196C273.63 118.456 273.728 117.684 273.457 116.881C273.189 116.075 272.661 115.324 271.874 114.63C271.091 113.933 270.126 113.358 268.977 112.903C267.831 112.449 266.601 112.196 265.284 112.143C263.971 112.085 262.647 112.304 261.308 112.795L261.804 118.451C263.074 118.39 264.276 118.526 265.41 118.859C266.548 119.189 267.611 119.517 268.599 119.841C269.585 120.168 270.465 120.325 271.236 120.315C272.008 120.306 272.648 119.933 273.157 119.196Z" fill="#222222"/>
<path d="M281.88 121.753L285.88 118.198L289.013 121.552L285.014 125.115L281.88 121.753Z" fill="#222222"/>
<path d="M298.488 97.3968C298.828 98.2677 299.503 99.1207 300.511 99.9558C301.523 100.787 302.716 101.605 304.086 102.407C305.459 103.207 306.881 103.999 308.345 104.787C309.809 105.572 311.175 106.37 312.447 107.181C313.722 107.99 314.764 108.807 315.573 109.633C316.386 110.456 316.811 111.307 316.848 112.185C316.895 113.165 316.59 114.203 315.935 115.296C315.277 116.385 314.37 117.464 313.211 118.529C312.049 119.595 310.75 120.575 309.313 121.468C307.875 122.362 306.389 123.081 304.857 123.625C303.33 124.17 301.861 124.469 300.456 124.521C299.348 124.561 298.192 124.475 296.992 124.263C295.789 124.048 294.657 123.702 293.598 123.224C292.543 122.742 291.671 122.133 290.985 121.396C290.302 120.661 289.937 119.789 289.89 118.78L296.929 112.242L298.48 113.002C298.007 113.667 297.96 114.291 298.338 114.873C298.716 115.452 299.393 115.982 300.369 116.464C301.346 116.948 302.503 117.357 303.842 117.69C305.18 118.02 306.574 118.267 308.022 118.428C308.164 117.841 308.239 117.28 308.251 116.744C308.26 116.21 308.156 115.703 307.936 115.224C307.357 114.298 306.436 113.432 305.172 112.629C303.912 111.823 302.511 111.042 300.968 110.285C299.425 109.531 297.923 108.792 296.464 108.07C295.01 107.344 293.787 106.586 292.795 105.798C291.807 105.009 291.262 104.196 291.158 103.354C291.048 102.318 291.317 101.23 291.969 100.092C292.624 98.9505 293.48 97.8484 294.535 96.7875C295.594 95.723 296.669 94.7588 297.756 93.8987C298.842 93.0385 299.757 92.3575 300.503 91.8557C301.253 91.3539 301.629 91.103 301.629 91.103C302.279 90.802 303.137 90.5941 304.204 90.4794C305.274 90.3611 306.432 90.3324 307.676 90.3934C308.92 90.4561 310.117 90.6192 311.266 90.8808C312.416 91.1443 313.419 91.4955 314.281 91.9346C315.142 92.3754 315.718 92.9094 316.014 93.5402L308.18 101.712L306.629 100.708C307.168 100.112 307.243 99.5454 306.849 99.0096C306.459 98.4756 305.796 98.0347 304.857 97.6907C303.916 97.343 302.867 97.1297 301.708 97.0527C300.552 96.972 299.48 97.0867 298.488 97.3968Z" fill="#222222"/>
<path d="M317.616 120.31L321.749 116.884L324.757 120.346L320.615 123.772L317.616 120.31Z" fill="#222222"/>
<path d="M356.632 98.1718C357.439 100.093 357.752 102.236 357.569 104.602C357.39 106.967 356.665 109.361 355.396 111.784C354.13 114.207 352.225 116.506 349.68 118.68C348.105 119.961 346.438 121.092 344.68 122.071C342.927 123.046 341.161 123.537 339.382 123.54C338.447 123.54 337.526 123.418 336.618 123.175C335.715 122.931 334.811 122.712 333.91 122.515C333.006 122.32 332.119 122.268 331.249 122.357C330.377 122.449 329.505 122.845 328.635 123.547L327.43 122.501C327.865 121.895 328.229 121.293 328.524 120.694C328.824 120.098 328.991 119.28 329.028 118.243L328.95 100.401C328.881 98.9961 328.526 98.0983 327.887 97.7059C327.251 97.3098 326.196 97.5249 324.722 98.351L323.871 96.9317L332.855 90.0143C334.429 90.4982 335.469 91.2742 335.973 92.344C336.48 93.4103 336.768 94.6146 336.831 95.9568L344.46 90C346.07 90.086 347.68 90.4803 349.286 91.1828C350.892 91.8852 352.349 92.8315 353.656 94.0214C354.967 95.2077 355.959 96.5912 356.632 98.1718ZM348.318 116.666C349.089 115.935 349.597 114.937 349.845 113.67C350.097 112.404 350.137 111.001 349.963 109.462C349.794 107.919 349.432 106.37 348.877 104.817C348.326 103.259 347.637 101.826 346.814 100.516C345.989 99.2076 345.039 98.1575 343.964 97.369C342.893 96.5769 341.755 96.179 340.555 96.179L336.839 98.9746L336.917 115.949C338.155 115.888 339.295 116.006 340.334 116.307C341.374 116.609 342.336 116.92 343.224 117.239C344.11 117.56 344.972 117.712 345.806 117.698C346.645 117.68 347.483 117.336 348.318 116.666Z" fill="#222222"/>
<path d="M359.249 120.129L363.539 116.86L366.374 120.437L362.083 123.698L359.249 120.129Z" fill="#222222"/>
<path d="M383.525 90.7256C385.666 90.8026 387.589 91.2686 389.296 92.1234C391.006 92.98 392.469 94.109 393.681 95.514C394.894 96.9154 395.815 98.4655 396.445 100.166C397.075 101.863 397.368 103.605 397.326 105.392C397.283 107.18 396.874 108.89 396.098 110.524C395.321 112.155 394.134 113.599 392.54 114.861L378.816 124.115C377.525 123.671 376.23 122.931 374.935 121.893C373.638 120.852 372.451 119.612 371.376 118.173C370.3 116.73 369.402 115.18 368.684 113.521C367.969 111.858 367.53 110.171 367.369 108.46C367.211 106.745 367.408 105.096 367.959 103.514C368.514 101.928 369.526 100.523 370.99 99.2988L383.525 90.7256ZM386.241 116.417C387.028 115.255 387.556 113.879 387.823 112.288C388.095 110.696 388.101 109.058 387.839 107.37C387.575 105.679 387.048 104.094 386.257 102.618C385.463 101.137 384.393 99.9224 383.044 98.9762C381.694 98.0264 380.064 97.5175 378.155 97.4494C377.289 98.2146 376.693 99.2092 376.368 100.431C376.041 101.655 375.966 102.973 376.14 104.381C376.317 105.791 376.695 107.195 377.273 108.589C377.85 109.979 378.59 111.255 379.494 112.417C380.401 113.578 381.424 114.524 382.564 115.255C383.708 115.986 384.934 116.374 386.241 116.417Z" fill="#222222"/>
<path d="M397.627 121.381L402.051 118.27L404.728 121.94L400.304 125.044L397.627 121.381Z" fill="#222222"/>
<path d="M416.915 96.7755C418.348 95.7433 419.609 94.953 420.702 94.4028C421.792 93.8545 422.839 93.4889 423.843 93.3061C424.851 93.1197 425.906 93.066 427.008 93.1412C428.315 93.238 429.358 93.5964 430.142 94.2165C430.929 94.8383 431.579 95.5498 432.094 96.3526C432.614 97.1555 433.102 97.9117 433.559 98.6178C434.019 99.3203 434.574 99.8346 435.22 100.159C435.866 100.48 436.726 100.435 437.802 100.023L438.676 101.55L430.606 105.786C429.65 105.901 428.805 105.75 428.071 105.334C427.335 104.915 426.679 104.356 426.103 103.657C425.524 102.955 424.963 102.234 424.418 101.492C423.877 100.747 423.327 100.094 422.772 99.5353C422.215 98.9762 421.609 98.6214 420.954 98.4672C420.296 98.3149 419.523 98.4959 418.631 99.012C417.296 99.7396 416.304 101.119 415.655 103.155C415.009 105.191 414.997 107.655 415.623 110.546C415.954 111.761 416.491 113.012 417.237 114.302C417.981 115.592 418.907 116.753 420.009 117.786C421.115 118.814 422.379 119.585 423.796 120.101C425.213 120.614 426.756 120.716 428.425 120.409C430.098 120.105 431.87 119.237 433.74 117.807L434.999 118.997C433.356 120.474 431.779 121.786 430.268 122.932C428.76 124.076 427.166 124.952 425.481 125.563C423.8 126.18 421.875 126.409 419.702 126.251C417.497 126.094 415.501 125.452 413.718 124.33C411.939 123.208 410.443 121.685 409.23 119.764C408.018 117.843 407.187 115.578 406.742 112.969C406.573 111.073 406.758 109.333 407.293 107.75C407.833 106.164 408.616 104.704 409.64 103.37C410.663 102.037 411.809 100.829 413.08 99.7432C414.35 98.6536 415.627 97.6644 416.915 96.7755Z" fill="#222222"/>
</svg>
