<svg width="408" height="408" viewBox="0 0 408 408" fill="none" xmlns="http://www.w3.org/2000/svg">
<rect width="408" height="408" fill="white"/>
<path d="M211.425 167.652C212.396 167.246 213.652 166.842 214.785 166.233C217.578 164.741 217.74 161.884 215.15 160.058C212.862 158.457 210.149 158.106 207.376 157.867C202.983 157.461 198.53 157.24 194.219 156.429C192.012 156.023 189.826 154.77 188.046 153.443C181.73 148.725 183.37 139.954 191.062 137.207C193.349 136.397 195.919 136.027 198.39 135.861C200.595 135.714 202.235 137.06 203.55 138.571C204.239 139.345 203.51 139.88 202.883 140.192C201.061 141.077 199.097 141.648 197.073 140.93C193.693 139.731 191.791 141.169 190.92 143.049C189.382 146.366 189.807 148.375 192.418 149.979C195.373 151.803 198.753 152.356 202.235 152.522C206.061 152.724 209.928 152.706 213.612 153.867C217.903 155.23 221.141 157.497 222.052 161.847C222.74 165.128 220.818 168.702 217.476 170.122C217.153 170.25 216.626 170.232 216.303 170.085C214.602 169.292 212.964 168.426 211.425 167.652Z" fill="#333333"/>
<path d="M213.308 133.318C213.51 133.429 213.692 133.557 214.3 133.907C211.181 133.907 208.47 133.907 205.615 133.907C205.98 133.17 206.365 132.415 206.709 131.659C207.073 130.903 207.619 130.535 208.611 130.461C213.915 130.075 215.007 126.868 214.886 123.237C214.865 122.353 214.725 121.45 214.744 120.564C214.785 117.947 216.303 116.492 219.178 116.676C221.02 116.787 222.962 117.082 224.602 117.8C229.197 119.827 233.65 122.113 238.164 124.287C239.337 124.858 238.812 125.43 238.124 125.909C236.322 127.125 234.196 127.641 232.01 127.624C229.662 127.586 227.315 127.218 224.967 126.997C224.481 126.96 223.994 126.904 223.408 127.088C224.379 127.458 225.351 127.808 226.282 128.158C224.238 131.088 221.243 130.295 218.307 129.798C218.287 129.926 218.245 130.055 218.226 130.166C218.914 130.461 219.582 130.756 220.432 131.106C218.084 131.935 216.445 134.295 213.429 132.856C213.389 133.005 213.348 133.17 213.308 133.318Z" fill="#333333"/>
<path d="M196.304 133.963C196.629 133.576 196.79 133.392 196.932 133.207C193.956 134.259 192.297 131.992 189.949 131.089C190.818 130.756 191.507 130.499 192.216 130.222C192.235 130.093 192.235 129.965 192.256 129.853C189.301 130.149 186.123 131.253 184.16 128.158C185.029 127.826 186.002 127.476 186.952 127.126C181.589 127.512 176.144 128.988 171.407 125.172C171.568 124.878 171.589 124.712 171.69 124.657C176.892 121.578 182.176 118.63 188.228 117.1C189.482 116.787 190.88 116.584 192.155 116.713C194.887 117.008 196.04 118.87 195.738 121.671C195.575 123.127 195.575 124.638 195.819 126.075C196.223 128.452 198.186 130.038 200.797 130.388C203.348 130.738 204.158 131.475 204.623 133.963C201.912 133.963 199.199 133.963 196.304 133.963Z" fill="#333333"/>
<path d="M197.984 158.695C197.175 159.137 196.344 159.524 195.616 160.041C192.883 161.994 193.106 164.795 196.082 166.362C198.571 167.67 201.345 168.112 204.179 168.149C207.336 168.186 210.474 168.315 213.368 169.716C217.092 171.522 219.057 175.06 218.307 178.838C218.165 179.575 217.842 180.313 217.417 180.94C215.919 183.114 215.109 183.261 212.72 182.064C211.991 181.695 211.243 181.344 210.332 180.921C210.778 180.737 211.081 180.607 211.404 180.478C212.7 179.963 214.036 179.391 214.137 177.935C214.258 176.35 213.692 174.894 212.195 173.917C210.474 172.793 208.47 172.499 206.446 172.517C202.983 172.536 199.543 172.48 196.244 171.393C195.271 171.079 194.3 170.729 193.41 170.287C188.127 167.67 186.933 161.754 190.759 157.553C191.264 157 191.668 156.834 192.479 157.11C194.26 157.718 196.102 158.161 197.984 158.695Z" fill="#333333"/>
<mask id="mask0_575_202" style="mask-type:luminance" maskUnits="userSpaceOnUse" x="140" y="125" width="39" height="11">
<path d="M140.498 125.206H178.484V135.373H140.498V125.206Z" fill="white"/>
</mask>
<g mask="url(#mask0_575_202)">
<path d="M140.498 131.109C150.7 129.985 160.476 128.142 170.071 125.378C171.791 128.474 175.091 128.308 178.471 128.585C177.863 128.861 177.479 129.064 177.054 129.229C169.869 131.828 162.541 134.003 154.829 134.869C151.105 135.293 147.339 135.386 143.797 133.91C142.442 133.322 141.369 132.51 140.498 131.109Z" fill="#333333"/>
</g>
<path d="M269.842 131.089C267.656 133.484 265.065 134.627 262.05 134.94C257.981 135.364 254.013 134.627 250.066 133.853C243.913 132.656 237.962 130.849 231.808 128.619C235.169 128.288 238.487 128.545 240.329 125.412C249.843 128.085 259.6 130.002 269.842 131.089Z" fill="#333333"/>
<path d="M212.437 152.283C214.158 151.637 216.059 151.121 217.72 150.237C221.202 148.43 221.587 144.119 218.651 141.649C217.355 140.544 215.919 140.119 214.198 140.765C212.235 141.502 210.332 141.225 208.47 140.488C206.526 139.714 206.405 138.977 207.882 137.65C209.805 135.917 212.052 135.586 214.684 135.991C218.428 136.563 222.012 137.411 224.338 140.341C228.063 145.003 227.193 151.877 219.966 155.177C219.683 155.305 219.218 155.231 218.914 155.103C216.728 154.181 214.562 153.223 212.437 152.283Z" fill="#333333"/>
<path d="M194.502 171.762C196.061 172.259 197.621 172.757 199.361 173.291C197.802 174.287 196.75 175.466 196.588 177.18C196.486 178.341 196.871 179.207 197.924 179.797C199.786 180.847 201.851 181.142 204.016 181.087C206.546 181.014 209.016 181.345 211.283 182.488C216.121 184.921 216.849 191.112 212.679 194.043C211.91 194.577 211.283 194.687 210.433 194.227C209.684 193.821 208.834 193.619 207.863 193.269C208.57 192.919 209.218 192.642 209.805 192.292C212.842 190.523 212.781 187.095 209.603 185.565C208.57 185.068 207.275 184.994 206.081 184.865C203.51 184.569 200.818 184.662 198.369 184.035C191.891 182.377 190.13 176.498 194.502 171.762Z" fill="#333333"/>
<path d="M185.495 130.868C177.946 137.502 157.927 140.839 152.097 136.25C153.655 136.011 155.072 135.788 156.469 135.549C164.585 134.094 172.501 132.011 179.99 128.713C181.245 128.16 182.378 128.491 183.41 129.247C184.12 129.781 184.808 130.334 185.495 130.868Z" fill="#333333"/>
<path d="M224.582 131.127C225.696 130.279 226.444 129.689 227.213 129.136C228.226 128.399 229.339 128.233 230.512 128.749C239.176 132.508 248.305 134.868 257.799 136.139C257.839 136.139 257.858 136.194 258.183 136.489C256.382 137.005 254.803 137.558 253.142 137.908C246.341 139.365 239.966 137.761 233.792 135.365C230.695 134.131 227.76 132.601 224.582 131.127Z" fill="#333333"/>
<path d="M217.416 133.946C218.387 133.337 218.974 132.932 219.603 132.563C221.464 131.476 223.125 131.217 225.29 132.416C231.16 135.64 237.455 138.037 244.48 139.105C242.9 140.395 241.079 140.727 239.197 140.874C234.744 141.225 230.593 140.248 226.667 138.424C223.631 137.041 220.675 135.53 217.416 133.946Z" fill="#333333"/>
<path d="M192.539 134.02C187.782 136.544 183.168 139.327 177.682 140.469C174.625 141.115 171.528 141.262 168.492 140.395C167.621 140.155 166.833 139.714 165.598 139.217C173.431 137.964 180.091 135.254 186.467 131.826C186.932 131.586 187.681 131.403 188.126 131.567C189.686 132.14 191.183 132.857 192.701 133.54C192.641 133.687 192.6 133.853 192.539 134.02Z" fill="#333333"/>
<path d="M196.852 184.551C198.105 184.957 199.259 185.344 200.413 185.712C197.417 189.362 198.592 192.18 203.491 193.286C204.967 193.619 206.506 193.71 207.963 194.079C212.154 195.147 213.854 199.091 211.647 202.391C210.332 204.344 209.157 204.639 206.769 203.441C207.296 203.147 207.782 202.907 208.226 202.648C209.724 201.764 210.353 200.455 209.968 198.816C209.643 197.377 208.428 196.77 207.032 196.512C205.535 196.236 203.996 196.236 202.518 195.923C199.098 195.166 196.304 193.673 195.373 190.265C194.827 188.199 195.616 186.412 196.852 184.551Z" fill="#333333"/>
<mask id="mask1_575_202" style="mask-type:luminance" maskUnits="userSpaceOnUse" x="197" y="196" width="14" height="23">
<path d="M197.924 196.004H210.333V218.131H197.924V196.004Z" fill="white"/>
</mask>
<g mask="url(#mask1_575_202)">
<path d="M202.214 196.843C199.726 198.926 200.028 201.47 202.943 202.907C203.935 203.385 205.048 203.661 206.081 204.048C209.28 205.228 210.656 207.808 209.724 210.795C209.157 212.619 207.903 213.613 205.696 213.613C205.575 215.199 205.473 216.729 205.352 218.276C205.252 218.276 205.15 218.276 205.048 218.276C204.988 217.557 204.927 216.839 204.867 216.12C204.744 214.849 204.927 213.687 202.903 213.153C200.778 212.582 200.028 209.043 201.203 206.851C201.466 206.371 201.83 205.947 202.214 205.412C202.762 205.634 203.268 205.855 203.794 206.075C201.082 209.081 201.445 212.342 204.543 213.135C204.543 212.029 204.564 210.923 204.543 209.818C204.523 208.748 204.442 207.679 204.381 206.537C204.927 206.537 205.352 206.537 205.737 206.537C205.798 206.592 205.858 206.629 205.858 206.665C205.858 208.822 205.858 210.959 205.858 213.172C207.255 213.006 208.065 212.269 208.388 211.162C208.834 209.632 208.874 208.029 207.478 206.887C206.648 206.205 205.473 205.855 204.442 205.375C202.883 204.657 201.122 204.16 199.807 203.164C198.046 201.837 197.802 199.81 198.328 197.839C198.875 195.774 199.299 195.7 202.214 196.843Z" fill="#333333"/>
</g>
<path d="M205.231 123.662C202.722 123.662 200.555 121.671 200.514 119.368C200.495 116.971 202.66 114.981 205.271 115C207.822 115 209.947 116.935 209.987 119.275C210.028 121.615 207.801 123.662 205.231 123.662Z" fill="#333333"/>
<path d="M207.174 151.489C205.798 151.489 204.785 151.489 203.49 151.489C203.49 150.642 203.49 149.812 203.49 149.002C203.49 147.656 203.591 146.311 203.469 144.965C203.247 142.644 203.854 140.543 205.231 138.534C208.368 142.533 206.465 147.066 207.174 151.489Z" fill="#333333"/>
<path d="M204.704 126.223C203.429 125.745 202.114 125.321 201.972 123.828C204.179 123.828 206.304 123.828 208.409 123.828C208.369 125.008 208.328 125.062 205.838 126.316C207.782 127.366 207.578 129.596 205.333 132.471C203.045 130.24 202.781 127.716 204.704 126.223Z" fill="#333333"/>
<path d="M206.709 167.32C205.94 167.32 205.311 167.32 204.685 167.32C204.4 167.32 204.117 167.265 203.692 167.229C203.692 164.408 203.692 161.644 203.692 158.788C204.623 158.788 205.636 158.788 206.728 158.788C206.709 161.588 206.709 164.353 206.709 167.32Z" fill="#333333"/>
<path d="M210.17 134.996C212.356 134.756 214.542 134.48 216.728 134.296C217.072 134.259 217.457 134.517 217.801 134.683C222.071 136.728 226.322 138.774 230.977 141.022C229.318 141.188 227.922 141.391 226.524 141.445C226.242 141.464 225.857 141.004 225.615 140.708C222.012 136.341 217.153 134.848 211.364 135.457C210.979 135.493 210.574 135.42 210.189 135.401C210.17 135.236 210.17 135.107 210.17 134.996Z" fill="#333333"/>
<path d="M200.272 135.31C200.009 135.347 199.745 135.42 199.482 135.383C193.37 134.811 188.248 136.434 184.464 141.004C184.26 141.244 183.816 141.446 183.512 141.428C182.257 141.335 181.001 141.169 179.726 140.764C183.289 139.105 186.892 137.538 190.374 135.788C192.458 134.738 194.442 134.037 196.852 134.646C197.944 134.923 199.138 134.848 200.291 134.923C200.291 135.051 200.291 135.18 200.272 135.31Z" fill="#333333"/>
<path d="M203.875 173.365C204.785 173.365 205.615 173.365 206.486 173.365C206.486 175.853 206.486 178.248 206.486 180.754C205.575 180.754 204.785 180.754 203.875 180.754C203.875 178.304 203.875 175.907 203.875 173.365Z" fill="#333333"/>
<path d="M204.117 185.16C204.867 185.16 205.534 185.16 206.263 185.16C206.263 187.519 206.324 189.841 206.182 192.144C206.161 192.44 205.029 192.661 204.117 193.03C204.117 190.173 204.117 187.74 204.117 185.16Z" fill="#333333"/>
<path d="M206.021 202.998C205.332 202.998 204.927 202.998 204.4 202.998C204.3 201.026 204.219 199.127 204.117 197.1C204.765 197.1 205.352 197.1 206.021 197.1C206.021 199.017 206.021 200.953 206.021 202.998Z" fill="#333333"/>
<path d="M205.858 134.479C207.153 134.83 208.428 135.18 209.968 135.603C208.511 136.673 207.438 137.464 206.061 138.497C205.817 137.207 205.615 136.064 205.413 134.903C205.555 134.756 205.717 134.609 205.858 134.479Z" fill="#333333"/>
<path d="M205.129 134.388C204.867 135.9 204.704 136.913 204.523 138.074C203.268 137.189 202.235 136.452 200.797 135.42C202.276 135.07 203.47 134.775 205.129 134.388Z" fill="#333333"/>
<path d="M208.927 167.652C209.899 167.246 211.154 166.842 212.288 166.233C215.08 164.741 215.243 161.884 212.652 160.058C210.364 158.457 207.653 158.106 204.878 157.867C200.487 157.461 196.034 157.24 191.722 156.429C189.516 156.023 187.33 154.77 185.548 153.443C179.234 148.725 180.872 139.954 188.564 137.207C190.852 136.397 193.423 136.027 195.892 135.861C198.099 135.714 199.737 137.06 201.054 138.571C201.742 139.345 201.014 139.88 200.385 140.192C198.564 141.077 196.599 141.648 194.577 140.93C191.196 139.731 189.293 141.169 188.422 143.049C186.884 146.366 187.309 148.375 189.92 149.979C192.875 151.803 196.255 152.356 199.737 152.522C203.563 152.724 207.43 152.706 211.114 153.867C215.405 155.23 218.643 157.497 219.554 161.847C220.242 165.128 218.32 168.702 214.98 170.122C214.655 170.25 214.13 170.232 213.805 170.085C212.106 169.292 210.466 168.426 208.927 167.652Z" fill="#55B7BE"/>
<path d="M210.81 133.318C211.012 133.429 211.194 133.557 211.802 133.907C208.685 133.907 205.972 133.907 203.117 133.907C203.482 133.17 203.867 132.415 204.211 131.659C204.575 130.903 205.122 130.535 206.114 130.461C211.417 130.075 212.51 126.868 212.388 123.237C212.369 122.353 212.227 121.45 212.246 120.564C212.288 117.947 213.805 116.492 216.68 116.676C218.522 116.787 220.465 117.082 222.105 117.8C226.699 119.827 231.152 122.113 235.666 124.287C236.841 124.858 236.314 125.43 235.626 125.909C233.824 127.125 231.7 127.641 229.513 127.624C227.164 127.586 224.817 127.218 222.469 126.997C221.983 126.96 221.498 126.904 220.91 127.088C221.882 127.458 222.853 127.808 223.784 128.158C221.74 131.088 218.745 130.295 215.809 129.798C215.789 129.926 215.749 130.055 215.728 130.166C216.416 130.461 217.085 130.756 217.935 131.106C215.587 131.935 213.948 134.295 210.931 132.856C210.891 133.005 210.85 133.17 210.81 133.318Z" fill="#55B7BE"/>
<path d="M193.807 133.963C194.131 133.576 194.292 133.392 194.434 133.207C191.458 134.259 189.799 131.992 187.451 131.089C188.322 130.756 189.01 130.499 189.718 130.222C189.739 130.093 189.739 129.965 189.758 129.853C186.803 130.149 183.625 131.253 181.662 128.158C182.533 127.826 183.504 127.476 184.456 127.126C179.091 127.512 173.646 128.988 168.909 125.172C169.072 124.878 169.092 124.712 169.193 124.657C174.394 121.578 179.678 118.63 185.73 117.1C186.986 116.787 188.382 116.584 189.657 116.713C192.39 117.008 193.544 118.87 193.24 121.671C193.079 123.127 193.079 124.638 193.321 126.075C193.727 128.452 195.69 130.038 198.301 130.388C200.85 130.738 201.66 131.475 202.127 133.963C199.414 133.963 196.701 133.963 193.807 133.963Z" fill="#55B7BE"/>
<path d="M195.486 158.695C194.677 159.137 193.848 159.524 193.119 160.041C190.385 161.994 190.608 164.795 193.584 166.362C196.074 167.67 198.847 168.112 201.681 168.149C204.838 168.186 207.976 168.315 210.871 169.716C214.595 171.522 216.559 175.06 215.809 178.838C215.668 179.575 215.344 180.313 214.919 180.94C213.421 183.114 212.611 183.261 210.223 182.064C209.495 181.695 208.745 181.344 207.834 180.921C208.28 180.737 208.583 180.607 208.906 180.478C210.202 179.963 211.539 179.391 211.64 177.935C211.761 176.35 211.194 174.894 209.697 173.917C207.976 172.793 205.972 172.499 203.948 172.517C200.487 172.536 197.045 172.48 193.746 171.393C192.775 171.079 191.802 170.729 190.912 170.287C185.629 167.67 184.435 161.754 188.261 157.553C188.766 157 189.172 156.834 189.981 157.11C191.762 157.718 193.604 158.161 195.486 158.695Z" fill="#55B7BE"/>
<mask id="mask2_575_202" style="mask-type:luminance" maskUnits="userSpaceOnUse" x="138" y="125" width="39" height="11">
<path d="M138 125.206H176.002V135.373H138V125.206Z" fill="white"/>
</mask>
<g mask="url(#mask2_575_202)">
<path d="M138 131.109C148.202 129.985 157.979 128.142 167.574 125.378C169.294 128.474 172.593 128.308 175.975 128.585C175.367 128.861 174.983 129.064 174.558 129.229C167.371 131.828 160.043 134.003 152.332 134.869C148.607 135.293 144.843 135.386 141.299 133.91C139.944 133.322 138.871 132.51 138 131.109Z" fill="#55B7BE"/>
</g>
<path d="M267.344 131.089C265.158 133.484 262.568 134.627 259.552 134.94C255.483 135.364 251.515 134.627 247.569 133.853C241.415 132.656 235.464 130.849 229.31 128.619C232.671 128.288 235.991 128.545 237.833 125.412C247.346 128.085 257.102 130.002 267.344 131.089Z" fill="#55B7BE"/>
<path d="M209.939 152.283C211.66 151.637 213.563 151.121 215.222 150.237C218.704 148.43 219.089 144.119 216.153 141.649C214.859 140.544 213.421 140.119 211.7 140.765C209.737 141.502 207.834 141.225 205.972 140.488C204.029 139.714 203.907 138.977 205.386 137.65C207.309 135.917 209.554 135.586 212.186 135.991C215.932 136.563 219.514 137.411 221.842 140.341C225.566 145.003 224.695 151.877 217.47 155.177C217.186 155.305 216.72 155.231 216.416 155.103C214.23 154.181 212.065 153.223 209.939 152.283Z" fill="#55B7BE"/>
<path d="M192.006 171.762C193.563 172.259 195.123 172.757 196.863 173.291C195.305 174.287 194.252 175.466 194.09 177.18C193.988 178.341 194.373 179.207 195.426 179.797C197.288 180.847 199.353 181.142 201.519 181.087C204.05 181.014 206.518 181.345 208.785 182.488C213.623 184.921 214.352 191.112 210.183 194.043C209.414 194.577 208.785 194.687 207.935 194.227C207.187 193.821 206.336 193.619 205.365 193.269C206.072 192.919 206.72 192.642 207.309 192.292C210.344 190.523 210.283 187.095 207.105 185.565C206.072 185.068 204.778 184.994 203.584 184.865C201.014 184.569 198.32 184.662 195.871 184.035C189.395 182.377 187.634 176.498 192.006 171.762Z" fill="#55B7BE"/>
<path d="M182.998 130.868C175.448 137.502 155.429 140.839 149.599 136.25C151.157 136.011 152.574 135.788 153.972 135.549C162.089 134.094 170.003 132.011 177.492 128.713C178.747 128.16 179.88 128.491 180.912 129.247C181.622 129.781 182.31 130.334 182.998 130.868Z" fill="#55B7BE"/>
<path d="M222.084 131.127C223.198 130.279 223.947 129.689 224.716 129.136C225.728 128.399 226.841 128.233 228.016 128.749C236.679 132.508 245.808 134.868 255.301 136.139C255.341 136.139 255.362 136.194 255.685 136.489C253.884 137.005 252.305 137.558 250.646 137.908C243.843 139.365 237.468 137.761 231.294 135.365C228.197 134.131 225.263 132.601 222.084 131.127Z" fill="#55B7BE"/>
<path d="M214.919 133.946C215.89 133.337 216.478 132.932 217.105 132.563C218.968 131.476 220.627 131.217 222.792 132.416C228.664 135.64 234.959 138.037 241.982 139.105C240.404 140.395 238.581 140.727 236.699 140.874C232.246 141.225 228.097 140.248 224.169 138.424C221.133 137.041 218.178 135.53 214.919 133.946Z" fill="#55B7BE"/>
<path d="M190.041 134.02C185.284 136.544 180.67 139.327 175.185 140.469C172.128 141.115 169.032 141.262 165.994 140.395C165.125 140.155 164.335 139.714 163.1 139.217C170.934 137.964 177.594 135.254 183.969 131.826C184.435 131.586 185.184 131.403 185.629 131.567C187.188 132.14 188.686 132.857 190.204 133.54C190.143 133.687 190.103 133.853 190.041 134.02Z" fill="#55B7BE"/>
<path d="M194.354 184.551C195.609 184.957 196.763 185.344 197.916 185.712C194.921 189.362 196.094 192.18 200.993 193.286C202.471 193.619 204.009 193.71 205.467 194.079C209.656 195.147 211.356 199.091 209.15 202.391C207.834 204.344 206.661 204.639 204.273 203.441C204.798 203.147 205.284 202.907 205.73 202.648C207.228 201.764 207.855 200.455 207.47 198.816C207.145 197.377 205.932 196.77 204.534 196.512C203.036 196.236 201.498 196.236 200.022 195.923C196.599 195.166 193.807 193.673 192.875 190.265C192.329 188.199 193.119 186.412 194.354 184.551Z" fill="#55B7BE"/>
<mask id="mask3_575_202" style="mask-type:luminance" maskUnits="userSpaceOnUse" x="195" y="196" width="13" height="23">
<path d="M195.443 196.004H207.851V218.131H195.443V196.004Z" fill="white"/>
</mask>
<g mask="url(#mask3_575_202)">
<path d="M199.718 196.843C197.228 198.926 197.532 201.47 200.447 202.907C201.439 203.385 202.552 203.661 203.584 204.048C206.782 205.228 208.158 207.808 207.228 210.795C206.661 212.619 205.405 213.613 203.2 213.613C203.077 215.199 202.977 216.729 202.856 218.276C202.754 218.276 202.652 218.276 202.552 218.276C202.49 217.557 202.429 216.839 202.369 216.12C202.248 214.849 202.429 213.687 200.406 213.153C198.28 212.582 197.532 209.043 198.705 206.851C198.968 206.371 199.333 205.947 199.718 205.412C200.264 205.634 200.77 205.855 201.296 206.075C198.584 209.081 198.949 212.342 202.045 213.135C202.045 212.029 202.066 210.923 202.045 209.818C202.025 208.748 201.944 207.679 201.883 206.537C202.429 206.537 202.856 206.537 203.24 206.537C203.3 206.592 203.361 206.629 203.361 206.665C203.361 208.822 203.361 210.959 203.361 213.172C204.757 213.006 205.567 212.269 205.892 211.162C206.336 209.632 206.376 208.029 204.98 206.887C204.15 206.205 202.977 205.855 201.944 205.375C200.385 204.657 198.624 204.16 197.309 203.164C195.548 201.837 195.305 199.81 195.83 197.839C196.378 195.774 196.803 195.7 199.718 196.843Z" fill="#55B7BE"/>
</g>
<path d="M202.733 123.662C200.223 123.662 198.057 121.671 198.016 119.368C197.997 116.971 200.162 114.981 202.773 115C205.324 115 207.449 116.935 207.489 119.275C207.53 121.615 205.303 123.662 202.733 123.662Z" fill="#55B7BE"/>
<path d="M204.676 151.489C203.3 151.489 202.288 151.489 200.993 151.489C200.993 150.642 200.993 149.812 200.993 149.002C200.993 147.656 201.094 146.311 200.972 144.965C200.75 142.644 201.356 140.543 202.733 138.534C205.871 142.533 203.969 147.066 204.676 151.489Z" fill="#55B7BE"/>
<path d="M202.208 126.223C200.931 125.745 199.616 125.321 199.474 123.828C201.681 123.828 203.806 123.828 205.911 123.828C205.871 125.008 205.83 125.062 203.34 126.316C205.284 127.366 205.082 129.596 202.835 132.471C200.547 130.24 200.285 127.716 202.208 126.223Z" fill="#55B7BE"/>
<path d="M204.211 167.32C203.442 167.32 202.815 167.32 202.187 167.32C201.904 167.32 201.62 167.265 201.195 167.229C201.195 164.408 201.195 161.644 201.195 158.788C202.127 158.788 203.138 158.788 204.231 158.788C204.211 161.588 204.211 164.353 204.211 167.32Z" fill="#55B7BE"/>
<path d="M207.672 134.996C209.858 134.756 212.044 134.48 214.23 134.296C214.574 134.259 214.959 134.517 215.303 134.683C219.575 136.728 223.824 138.774 228.481 141.022C226.822 141.188 225.424 141.391 224.028 141.445C223.744 141.464 223.359 141.004 223.117 140.708C219.514 136.341 214.655 134.848 208.866 135.457C208.481 135.493 208.078 135.42 207.693 135.401C207.672 135.236 207.672 135.107 207.672 134.996Z" fill="#55B7BE"/>
<path d="M197.774 135.31C197.511 135.347 197.247 135.42 196.984 135.383C190.872 134.811 185.751 136.434 181.966 141.004C181.764 141.244 181.318 141.446 181.014 141.428C179.759 141.335 178.505 141.169 177.228 140.764C180.791 139.105 184.394 137.538 187.876 135.788C189.96 134.738 191.944 134.037 194.354 134.646C195.446 134.923 196.641 134.848 197.795 134.923C197.795 135.051 197.795 135.18 197.774 135.31Z" fill="#55B7BE"/>
<path d="M201.377 173.365C202.288 173.365 203.117 173.365 203.988 173.365C203.988 175.853 203.988 178.248 203.988 180.754C203.077 180.754 202.288 180.754 201.377 180.754C201.377 178.304 201.377 175.907 201.377 173.365Z" fill="#55B7BE"/>
<path d="M201.62 185.16C202.369 185.16 203.037 185.16 203.765 185.16C203.765 187.519 203.827 189.841 203.684 192.144C203.665 192.44 202.531 192.661 201.62 193.03C201.62 190.173 201.62 187.74 201.62 185.16Z" fill="#55B7BE"/>
<path d="M203.523 202.998C202.835 202.998 202.429 202.998 201.904 202.998C201.802 201.026 201.721 199.127 201.62 197.1C202.267 197.1 202.856 197.1 203.523 197.1C203.523 199.017 203.523 200.953 203.523 202.998Z" fill="#55B7BE"/>
<path d="M203.361 134.479C204.657 134.83 205.932 135.18 207.47 135.603C206.013 136.673 204.94 137.464 203.563 138.497C203.321 137.207 203.117 136.064 202.915 134.903C203.058 134.756 203.219 134.609 203.361 134.479Z" fill="#55B7BE"/>
<path d="M202.633 134.388C202.369 135.9 202.208 136.913 202.025 138.074C200.77 137.189 199.737 136.452 198.301 135.42C199.778 135.07 200.972 134.775 202.633 134.388Z" fill="#55B7BE"/>
<mask id="mask4_575_202" style="mask-type:luminance" maskUnits="userSpaceOnUse" x="83" y="271" width="239" height="20">
<path d="M83 271.64H321.339V290.864H83V271.64Z" fill="white"/>
</mask>
<g mask="url(#mask4_575_202)">
<path d="M222.221 285.953C204.238 286.43 186.256 286.907 168.275 287.382C164.423 287.482 160.569 287.547 156.717 287.679C165.049 287.073 173.389 286.616 181.734 286.308C195.223 285.812 208.726 285.692 222.221 285.953ZM320.506 272.703C289.885 271.577 259.254 271.368 228.623 272.171C197.898 272.975 167.133 274.545 136.518 277.344C118.754 278.968 101.024 280.769 83.3561 283.233C82.6239 283.335 83.2419 284.018 83.7301 283.982C99.1242 282.765 114.497 281.267 129.901 280.124C145.141 278.995 160.396 278.024 175.658 277.282C205.01 275.857 234.4 275.275 263.785 275.463C258.089 275.816 252.393 276.185 246.697 276.567C222.122 278.21 197.573 280.247 173.062 282.674C159.3 284.038 145.551 285.529 131.814 287.14C130.623 287.281 129.259 290.219 130.914 290.034C134.115 289.683 137.317 289.351 140.524 289.045C140.362 289.192 140.223 289.362 140.116 289.552C139.9 289.944 139.782 290.796 140.482 290.778C144.399 290.67 148.348 290.86 152.271 290.828C156.217 290.796 160.162 290.645 164.104 290.534C171.977 290.315 179.849 290.097 187.722 289.878C203.72 289.435 219.719 288.993 235.717 288.55C244.533 288.306 253.349 288.063 262.167 287.819C263.207 287.79 264.669 284.973 263.307 284.873C246.271 283.627 229.194 282.982 212.111 282.934C209.202 282.925 206.293 282.937 203.382 282.964C203.776 282.932 204.169 282.898 204.563 282.866C229.129 280.885 253.719 279.316 278.341 278.196C292.163 277.568 305.994 277.086 319.825 276.631C321.195 276.586 321.929 272.755 320.506 272.703Z" fill="#222222"/>
</g>
<path d="M129.654 246.064C131.443 246.179 133.078 246.62 134.559 247.383C136.039 248.148 137.214 249.189 138.086 250.508C138.956 251.824 139.33 253.34 139.204 255.06L131.417 262.917C130.65 263.71 129.658 264.456 128.441 265.153C127.223 265.852 125.996 266.243 124.764 266.329C123.961 266.391 123.131 266.332 122.276 266.149C121.42 265.963 120.523 265.798 119.584 265.655C118.649 265.508 117.682 265.501 116.686 265.633C115.688 265.762 114.681 266.169 113.663 266.852L113.395 267.146L111.892 266.149C112.269 265.486 112.594 264.786 112.868 264.049C113.139 263.309 113.248 262.42 113.191 261.383L111.687 244C111.529 242.609 111.09 241.742 110.372 241.398C109.654 241.05 108.597 241.355 107.199 242.315L106.231 240.96L114.655 233.426C116.265 233.796 117.358 234.495 117.93 235.527C118.507 236.559 118.887 237.756 119.072 239.118L127.323 232.516C128.593 232.426 129.795 232.631 130.929 233.133C132.067 233.631 133.043 234.322 133.858 235.211C134.671 236.1 135.236 237.1 135.551 238.208C135.866 239.312 135.836 240.428 135.464 241.555L129.654 246.064ZM123.938 246.888C125.9 245.154 127.111 243.645 127.567 242.358C128.028 241.068 127.868 240.079 127.087 239.39C126.309 238.699 125.018 238.416 123.213 238.545L119.332 241.484L120.08 250.143L123.938 246.888ZM132.157 259.196C132.63 258.456 132.728 257.684 132.456 256.881C132.189 256.075 131.661 255.324 130.874 254.63C130.091 253.933 129.126 253.358 127.977 252.903C126.831 252.449 125.601 252.196 124.284 252.143C122.971 252.085 121.646 252.304 120.308 252.795L120.804 258.451C122.074 258.39 123.276 258.526 124.41 258.859C125.548 259.189 126.611 259.517 127.599 259.841C128.585 260.168 129.465 260.325 130.236 260.315C131.008 260.306 131.647 259.933 132.157 259.196Z" fill="#222222"/>
<path d="M140.88 261.753L144.88 258.198L148.013 261.552L144.014 265.115L140.88 261.753Z" fill="#222222"/>
<path d="M157.488 237.397C157.828 238.268 158.503 239.121 159.511 239.956C160.523 240.787 161.716 241.605 163.086 242.407C164.459 243.207 165.881 243.999 167.345 244.787C168.809 245.572 170.175 246.37 171.447 247.181C172.722 247.99 173.764 248.807 174.573 249.633C175.386 250.456 175.811 251.307 175.848 252.185C175.895 253.165 175.59 254.203 174.935 255.296C174.277 256.385 173.37 257.464 172.211 258.529C171.049 259.595 169.75 260.575 168.313 261.468C166.875 262.362 165.388 263.081 163.857 263.625C162.33 264.17 160.861 264.469 159.456 264.521C158.348 264.561 157.192 264.475 155.992 264.263C154.789 264.048 153.657 263.702 152.598 263.224C151.543 262.742 150.671 262.133 149.984 261.396C149.301 260.661 148.937 259.789 148.89 258.78L155.929 252.242L157.48 253.002C157.007 253.667 156.96 254.291 157.338 254.873C157.716 255.452 158.393 255.982 159.369 256.464C160.346 256.948 161.503 257.357 162.841 257.69C164.18 258.02 165.573 258.267 167.022 258.428C167.164 257.841 167.239 257.28 167.25 256.744C167.26 256.21 167.156 255.703 166.936 255.224C166.357 254.298 165.436 253.432 164.172 252.629C162.912 251.823 161.511 251.042 159.968 250.285C158.425 249.531 156.923 248.792 155.464 248.07C154.01 247.344 152.787 246.586 151.795 245.798C150.807 245.009 150.262 244.196 150.158 243.354C150.047 242.318 150.317 241.23 150.969 240.092C151.624 238.95 152.48 237.848 153.535 236.787C154.594 235.723 155.669 234.759 156.755 233.899C157.842 233.038 158.757 232.357 159.503 231.856C160.253 231.354 160.629 231.103 160.629 231.103C161.279 230.802 162.137 230.594 163.204 230.479C164.274 230.361 165.432 230.332 166.676 230.393C167.92 230.456 169.116 230.619 170.266 230.881C171.415 231.144 172.419 231.495 173.281 231.935C174.142 232.375 174.718 232.909 175.014 233.54L167.18 241.712L165.629 240.708C166.168 240.112 166.243 239.545 165.849 239.01C165.459 238.476 164.796 238.035 163.857 237.691C162.916 237.343 161.867 237.13 160.708 237.053C159.552 236.972 158.48 237.087 157.488 237.397Z" fill="#222222"/>
<path d="M176.616 260.31L180.749 256.884L183.757 260.346L179.615 263.772L176.616 260.31Z" fill="#222222"/>
<path d="M215.632 238.172C216.439 240.093 216.752 242.236 216.569 244.602C216.39 246.967 215.665 249.361 214.396 251.784C213.13 254.207 211.225 256.506 208.68 258.68C207.105 259.961 205.438 261.092 203.68 262.071C201.927 263.046 200.161 263.537 198.382 263.54C197.447 263.54 196.526 263.418 195.618 263.175C194.715 262.931 193.811 262.712 192.91 262.515C192.006 262.32 191.119 262.268 190.249 262.357C189.377 262.449 188.505 262.845 187.635 263.547L186.43 262.501C186.865 261.895 187.229 261.293 187.524 260.694C187.824 260.098 187.991 259.28 188.028 258.243L187.95 240.401C187.881 238.996 187.526 238.098 186.887 237.706C186.251 237.31 185.196 237.525 183.722 238.351L182.871 236.932L191.855 230.014C193.429 230.498 194.469 231.274 194.973 232.344C195.48 233.41 195.768 234.615 195.831 235.957L203.46 230C205.07 230.086 206.68 230.48 208.286 231.183C209.892 231.885 211.349 232.831 212.656 234.021C213.967 235.208 214.959 236.591 215.632 238.172ZM207.318 256.666C208.089 255.935 208.597 254.937 208.845 253.67C209.097 252.404 209.137 251.001 208.963 249.462C208.794 247.919 208.432 246.37 207.877 244.817C207.326 243.259 206.637 241.826 205.814 240.516C204.989 239.208 204.039 238.157 202.964 237.369C201.893 236.577 200.755 236.179 199.555 236.179L195.839 238.975L195.917 255.949C197.155 255.888 198.295 256.006 199.334 256.307C200.374 256.609 201.336 256.92 202.224 257.239C203.11 257.56 203.972 257.712 204.806 257.698C205.645 257.68 206.483 257.336 207.318 256.666Z" fill="#222222"/>
<path d="M218.249 260.129L222.54 256.86L225.374 260.437L221.083 263.698L218.249 260.129Z" fill="#222222"/>
<path d="M242.525 230.726C244.666 230.803 246.589 231.269 248.296 232.123C250.006 232.98 251.469 234.109 252.681 235.514C253.894 236.915 254.815 238.465 255.445 240.166C256.075 241.863 256.368 243.605 256.326 245.392C256.283 247.18 255.874 248.89 255.098 250.524C254.321 252.155 253.134 253.599 251.54 254.861L237.816 264.115C236.525 263.671 235.23 262.931 233.935 261.893C232.638 260.852 231.451 259.612 230.376 258.173C229.3 256.73 228.402 255.18 227.684 253.521C226.969 251.858 226.53 250.171 226.369 248.46C226.211 246.745 226.408 245.096 226.959 243.514C227.514 241.928 228.526 240.523 229.99 239.299L242.525 230.726ZM245.241 256.417C246.028 255.255 246.556 253.879 246.823 252.288C247.095 250.696 247.101 249.058 246.839 247.37C246.575 245.679 246.048 244.094 245.257 242.618C244.463 241.137 243.393 239.922 242.044 238.976C240.694 238.026 239.064 237.517 237.155 237.449C236.289 238.215 235.693 239.209 235.368 240.431C235.041 241.655 234.966 242.973 235.14 244.381C235.317 245.791 235.695 247.195 236.273 248.589C236.85 249.979 237.59 251.255 238.494 252.417C239.401 253.578 240.424 254.524 241.564 255.255C242.708 255.986 243.934 256.374 245.241 256.417Z" fill="#222222"/>
<path d="M256.627 261.381L261.051 258.27L263.728 261.94L259.304 265.044L256.627 261.381Z" fill="#222222"/>
<path d="M275.915 236.776C277.348 235.743 278.609 234.953 279.702 234.403C280.792 233.854 281.839 233.489 282.843 233.306C283.851 233.12 284.906 233.066 286.008 233.141C287.315 233.238 288.358 233.596 289.142 234.216C289.929 234.838 290.579 235.55 291.094 236.353C291.614 237.155 292.102 237.912 292.559 238.618C293.019 239.32 293.574 239.835 294.22 240.159C294.866 240.48 295.726 240.435 296.802 240.023L297.676 241.55L289.606 245.786C288.65 245.901 287.805 245.75 287.071 245.334C286.335 244.915 285.679 244.356 285.103 243.657C284.524 242.955 283.963 242.234 283.418 241.492C282.877 240.747 282.327 240.094 281.772 239.535C281.215 238.976 280.609 238.621 279.954 238.467C279.296 238.315 278.523 238.496 277.631 239.012C276.296 239.74 275.304 241.119 274.655 243.155C274.009 245.191 273.997 247.655 274.623 250.546C274.954 251.761 275.491 253.012 276.237 254.302C276.981 255.592 277.907 256.753 279.009 257.786C280.115 258.814 281.379 259.585 282.796 260.101C284.213 260.614 285.756 260.716 287.425 260.409C289.098 260.105 290.87 259.237 292.74 257.807L293.999 258.997C292.356 260.474 290.779 261.786 289.268 262.932C287.76 264.076 286.166 264.952 284.481 265.563C282.8 266.18 280.875 266.409 278.702 266.251C276.497 266.094 274.501 265.452 272.718 264.33C270.939 263.208 269.443 261.685 268.23 259.764C267.018 257.843 266.187 255.578 265.742 252.969C265.573 251.073 265.758 249.333 266.293 247.75C266.833 246.164 267.616 244.704 268.64 243.37C269.663 242.037 270.809 240.829 272.08 239.743C273.35 238.654 274.627 237.664 275.915 236.776Z" fill="#222222"/>
</svg>
