<svg width="242" height="178" viewBox="0 0 242 178" fill="none" xmlns="http://www.w3.org/2000/svg">
<path d="M128.425 52.6521C129.397 52.2461 130.652 51.8415 131.785 51.2325C134.578 49.7409 134.74 46.8841 132.15 45.0585C129.862 43.4565 127.149 43.1064 124.376 42.8666C119.983 42.4606 115.53 42.24 111.22 41.4294C109.012 41.0234 106.826 39.7701 105.046 38.4432C98.7299 33.7255 100.37 24.9536 108.062 22.2071C110.349 21.3966 112.919 21.0274 115.39 20.8611C117.595 20.714 119.235 22.06 120.55 23.5708C121.239 24.3446 120.51 24.88 119.883 25.1919C118.061 26.0775 116.097 26.6483 114.073 25.9304C110.693 24.7315 108.791 26.1687 107.92 28.0487C106.382 31.3659 106.807 33.3754 109.418 34.9788C112.373 36.8029 115.753 37.3561 119.235 37.5223C123.061 37.7238 126.928 37.7062 130.612 38.8668C134.903 40.2305 138.141 42.4974 139.052 46.8473C139.74 50.1277 137.818 53.7024 134.476 55.122C134.153 55.2499 133.627 55.2323 133.303 55.0852C131.602 54.2923 129.964 53.4258 128.425 52.6521Z" fill="white"/>
<path d="M130.308 18.3182C130.51 18.4286 130.692 18.5565 131.3 18.9067C128.181 18.9067 125.47 18.9067 122.615 18.9067C122.98 18.1697 123.365 17.415 123.709 16.6589C124.073 15.9028 124.619 15.535 125.611 15.4614C130.915 15.0746 132.007 11.8677 131.886 8.2371C131.865 7.353 131.725 6.44977 131.744 5.5642C131.785 2.94719 133.303 1.49232 136.178 1.6762C138.02 1.78653 139.962 2.08222 141.602 2.80009C146.197 4.8272 150.65 7.11322 155.164 9.28744C156.337 9.8582 155.812 10.4304 155.124 10.9085C153.322 12.1251 151.196 12.6414 149.01 12.6238C146.662 12.5855 144.315 12.2178 141.967 11.9971C141.481 11.9603 140.994 11.9044 140.408 12.0883C141.379 12.4576 142.351 12.8077 143.282 13.1578C141.238 16.0881 138.243 15.2952 135.307 14.798C135.287 14.926 135.245 15.0554 135.226 15.1658C135.914 15.4614 136.582 15.7557 137.432 16.1058C135.084 16.9354 133.445 19.295 130.429 17.8563C130.389 18.0049 130.348 18.1697 130.308 18.3182Z" fill="white"/>
<path d="M113.304 18.963C113.629 18.5761 113.79 18.3923 113.932 18.2069C110.956 19.2587 109.297 16.9918 106.949 16.0886C107.818 15.7561 108.507 15.4987 109.216 15.2221C109.235 15.0927 109.235 14.9647 109.256 14.8529C106.301 15.1486 103.123 16.2533 101.16 13.1583C102.029 12.8258 103.002 12.4757 103.952 12.1256C98.5893 12.5125 93.1443 13.9879 88.407 10.172C88.5685 9.8778 88.5895 9.71157 88.6897 9.65714C93.8924 6.57823 99.1758 3.63024 105.228 2.10034C106.482 1.78701 107.88 1.584 109.155 1.71346C111.887 2.00767 113.04 3.87002 112.738 6.67091C112.575 8.12725 112.575 9.63802 112.819 11.0752C113.223 13.4525 115.186 15.0383 117.797 15.3884C120.348 15.7385 121.158 16.4755 121.623 18.963C118.912 18.963 116.199 18.963 113.304 18.963Z" fill="white"/>
<path d="M114.984 43.6946C114.175 44.1374 113.344 44.5243 112.616 45.0406C109.883 46.9942 110.106 49.7951 113.082 51.3618C115.571 52.6695 118.345 53.1123 121.179 53.1491C124.336 53.1859 127.474 53.3153 130.368 54.7158C134.092 56.5222 136.057 60.0601 135.307 63.8378C135.165 64.5748 134.842 65.3132 134.417 65.9399C132.919 68.1141 132.109 68.2612 129.72 67.0638C128.991 66.6946 128.243 66.3444 127.332 65.9208C127.778 65.7369 128.081 65.6074 128.404 65.478C129.7 64.9631 131.036 64.3909 131.137 62.9345C131.258 61.3502 130.692 59.8939 129.195 58.9171C127.474 57.7932 125.47 57.499 123.446 57.5167C119.983 57.5358 116.543 57.4799 113.244 56.3928C112.271 56.0794 111.3 55.7293 110.41 55.2865C105.127 52.6695 103.933 46.7544 107.759 42.5531C108.264 42 108.668 41.8338 109.479 42.1103C111.26 42.7179 113.102 43.1606 114.984 43.6946Z" fill="white"/>
<mask id="mask0_575_515" style="mask-type:luminance" maskUnits="userSpaceOnUse" x="57" y="10" width="39" height="11">
<path d="M57.498 10.2056H95.4839V20.3735H57.498V10.2056Z" fill="white"/>
</mask>
<g mask="url(#mask0_575_515)">
<path d="M57.4978 16.1092C67.6996 14.9853 77.4764 13.142 87.0706 10.3779C88.7914 13.4745 92.0907 13.3083 95.4708 13.5848C94.8633 13.8614 94.4787 14.0644 94.0538 14.2291C86.8686 16.8285 79.5413 19.0027 71.8294 19.8692C68.1051 20.2928 64.3388 20.3855 60.7972 18.91C59.4416 18.3216 58.3687 17.5096 57.4978 16.1092Z" fill="white"/>
</g>
<path d="M186.842 16.0889C184.656 18.4838 182.065 19.6268 179.05 19.9401C174.981 20.3638 171.013 19.6268 167.066 18.853C160.913 17.6556 154.962 15.8491 148.808 13.619C152.169 13.288 155.487 13.5455 157.329 10.4121C166.843 13.085 176.6 15.0018 186.842 16.0889Z" fill="white"/>
<path d="M129.437 37.283C131.158 36.6372 133.059 36.1208 134.72 35.2367C138.202 33.4303 138.587 29.1186 135.651 26.6487C134.355 25.5439 132.919 25.1188 131.198 25.7646C129.235 26.5016 127.332 26.225 125.47 25.488C123.526 24.7143 123.405 23.9773 124.882 22.6504C126.805 20.9175 129.052 20.5865 131.684 20.991C135.428 21.5633 139.012 22.4106 141.338 25.3409C145.063 30.0027 144.193 36.8769 136.966 40.1765C136.683 40.3045 136.218 40.231 135.914 40.103C133.728 39.1806 131.562 38.223 129.437 37.283Z" fill="white"/>
<path d="M111.502 56.7622C113.061 57.2594 114.621 57.7566 116.361 58.2906C114.802 59.2865 113.75 60.4663 113.588 62.1801C113.486 63.3408 113.871 64.2072 114.924 64.7971C116.786 65.8474 118.851 66.1416 121.016 66.0872C123.546 66.0137 126.016 66.3447 128.283 67.4877C133.121 69.9208 133.849 76.1124 129.679 79.0428C128.91 79.5768 128.283 79.6871 127.433 79.2267C126.684 78.8207 125.834 78.6191 124.863 78.269C125.57 77.9189 126.218 77.6423 126.805 77.2922C129.842 75.5226 129.781 72.095 126.603 70.5651C125.57 70.0679 124.275 69.9943 123.081 69.8649C120.51 69.5692 117.818 69.6619 115.369 69.0352C108.891 67.3773 107.13 61.4975 111.502 56.7622Z" fill="white"/>
<path d="M102.495 15.8677C94.9458 22.5022 74.9269 25.8385 69.0973 21.2503C70.6549 21.0105 72.0719 20.7884 73.4695 20.5486C81.5853 19.0938 89.5008 17.0107 96.9897 13.7126C98.2451 13.1595 99.3778 13.4905 100.41 14.2466C101.12 14.7806 101.808 15.3337 102.495 15.8677Z" fill="white"/>
<path d="M141.582 16.1267C142.696 15.2794 143.444 14.6895 144.213 14.1364C145.226 13.3994 146.339 13.2331 147.512 13.7495C156.176 17.508 165.305 19.8676 174.799 21.1386C174.839 21.1386 174.858 21.1945 175.183 21.4887C173.382 22.005 171.803 22.5582 170.142 22.9083C163.341 24.3646 156.966 22.7612 150.792 20.3648C147.695 19.1306 144.761 17.6007 141.582 16.1267Z" fill="white"/>
<path d="M134.416 18.9458C135.388 18.3368 135.974 17.9322 136.603 17.563C138.464 16.4759 140.125 16.217 142.29 17.4159C148.16 20.6404 154.455 23.0368 161.48 24.1048C159.9 25.3949 158.079 25.7274 156.197 25.8745C151.744 26.2246 147.593 25.2478 143.667 23.4237C140.631 22.0409 137.675 20.5301 134.416 18.9458Z" fill="white"/>
<path d="M109.539 19.0196C104.782 21.5439 100.168 24.3272 94.6823 25.4687C91.6254 26.1145 88.528 26.2616 85.492 25.3952C84.6212 25.1554 83.8327 24.7141 82.5983 24.2169C90.4313 22.9635 97.0914 20.2538 103.467 16.8263C103.932 16.5865 104.68 16.4026 105.126 16.5674C106.686 17.1396 108.183 17.8575 109.701 18.5401C109.641 18.6872 109.6 18.8534 109.539 19.0196Z" fill="white"/>
<path d="M113.852 69.5513C115.105 69.9573 116.259 70.3442 117.413 70.7119C114.417 74.3616 115.592 77.1802 120.491 78.2864C121.967 78.6188 123.506 78.71 124.963 79.0793C129.154 80.1473 130.854 84.0912 128.647 87.3907C127.332 89.3443 126.157 89.6385 123.769 88.4411C124.296 88.1469 124.782 87.9071 125.226 87.6482C126.724 86.7641 127.353 85.4548 126.968 83.8161C126.643 82.3774 125.428 81.7698 124.032 81.5124C122.535 81.2358 120.996 81.2358 119.518 80.9225C116.097 80.1664 113.304 78.6733 112.373 75.2648C111.827 73.1995 112.616 71.4122 113.852 69.5513Z" fill="white"/>
<mask id="mask1_575_515" style="mask-type:luminance" maskUnits="userSpaceOnUse" x="114" y="81" width="14" height="23">
<path d="M114.924 81.0044H127.333V103.131H114.924V81.0044Z" fill="white"/>
</mask>
<g mask="url(#mask1_575_515)">
<path d="M119.214 81.8431C116.726 83.9261 117.028 86.4695 119.943 87.9068C120.935 88.3848 122.048 88.6614 123.081 89.0483C126.28 90.2281 127.657 92.8083 126.724 95.7945C126.157 97.6187 124.903 98.6131 122.696 98.6131C122.575 100.199 122.473 101.729 122.352 103.276C122.252 103.276 122.15 103.276 122.048 103.276C121.989 102.557 121.927 101.839 121.867 101.12C121.745 99.8488 121.927 98.6866 119.903 98.1526C117.778 97.5819 117.028 94.0425 118.203 91.8507C118.466 91.3711 118.83 90.9474 119.214 90.412C119.762 90.6341 120.268 90.8547 120.794 91.0754C118.082 94.0808 118.445 97.3421 121.543 98.135C121.543 97.0288 121.564 95.9225 121.543 94.8178C121.523 93.7483 121.442 92.6789 121.381 91.5373C121.927 91.5373 122.352 91.5373 122.737 91.5373C122.798 91.5917 122.858 91.6285 122.858 91.6653C122.858 93.8219 122.858 95.9593 122.858 98.1718C124.255 98.0055 125.065 97.2685 125.388 96.1623C125.834 94.6324 125.874 93.029 124.478 91.8874C123.648 91.2049 122.473 90.8547 121.442 90.3752C119.883 89.6573 118.122 89.1601 116.807 88.1642C115.046 86.8373 114.802 84.8102 115.328 82.839C115.875 80.7736 116.3 80.7001 119.214 81.8431Z" fill="white"/>
</g>
<path d="M122.231 8.6617C119.722 8.6617 117.555 6.67136 117.514 4.36769C117.495 1.97135 119.66 -0.0189872 122.271 0.000136674C124.822 0.000136674 126.947 1.93457 126.987 4.27502C127.028 6.61546 124.801 8.6617 122.231 8.6617Z" fill="white"/>
<path d="M124.174 36.4893C122.798 36.4893 121.785 36.4893 120.491 36.4893C120.491 35.6419 120.491 34.8123 120.491 34.0017C120.491 32.6557 120.591 31.3112 120.47 29.9651C120.247 27.6438 120.854 25.5432 122.231 23.5337C125.368 27.5335 123.465 32.0658 124.174 36.4893Z" fill="white"/>
<path d="M121.704 11.223C120.429 10.7449 119.114 10.3212 118.972 8.82812C121.179 8.82812 123.304 8.82812 125.409 8.82812C125.369 10.0079 125.328 10.0623 122.838 11.3157C124.782 12.366 124.578 14.5961 122.333 17.4706C120.045 15.2404 119.781 12.7161 121.704 11.223Z" fill="white"/>
<path d="M123.709 52.3197C122.94 52.3197 122.311 52.3197 121.685 52.3197C121.4 52.3197 121.117 52.2653 120.692 52.2285C120.692 49.4085 120.692 46.6444 120.692 43.7876C121.623 43.7876 122.636 43.7876 123.728 43.7876C123.709 46.5885 123.709 49.3526 123.709 52.3197Z" fill="white"/>
<path d="M127.17 19.9963C129.356 19.7565 131.542 19.4799 133.728 19.296C134.072 19.2593 134.457 19.5167 134.801 19.6829C139.071 21.7277 143.322 23.7739 147.977 26.0217C146.318 26.1879 144.922 26.3909 143.524 26.4453C143.242 26.4645 142.857 26.004 142.615 25.7084C139.012 21.3408 134.153 19.8477 128.364 20.4567C127.979 20.4935 127.574 20.4199 127.189 20.4008C127.17 20.236 127.17 20.1066 127.17 19.9963Z" fill="white"/>
<path d="M117.272 20.3098C117.009 20.3466 116.745 20.4201 116.482 20.3833C110.37 19.8111 105.248 21.4337 101.464 26.0042C101.26 26.244 100.816 26.4455 100.512 26.4279C99.2566 26.3352 98.0012 26.169 96.7264 25.7644C100.289 24.1051 103.892 22.5384 107.374 20.7879C109.458 19.7375 111.442 19.0373 113.852 19.6463C114.944 19.9229 116.138 19.8479 117.291 19.9229C117.291 20.0509 117.291 20.1803 117.272 20.3098Z" fill="white"/>
<path d="M120.875 58.3652C121.785 58.3652 122.615 58.3652 123.486 58.3652C123.486 60.8528 123.486 63.2477 123.486 65.7543C122.575 65.7543 121.785 65.7543 120.875 65.7543C120.875 63.3036 120.875 60.9072 120.875 58.3652Z" fill="white"/>
<path d="M121.117 70.1597C121.867 70.1597 122.534 70.1597 123.263 70.1597C123.263 72.5192 123.324 74.8406 123.182 77.1442C123.161 77.4399 122.029 77.6606 121.117 78.0298C121.117 75.173 121.117 72.7399 121.117 70.1597Z" fill="white"/>
<path d="M123.021 87.9976C122.332 87.9976 121.927 87.9976 121.4 87.9976C121.3 86.0263 121.219 84.1272 121.117 82.1001C121.765 82.1001 122.352 82.1001 123.021 82.1001C123.021 84.0169 123.021 85.9528 123.021 87.9976Z" fill="white"/>
<path d="M122.858 19.4795C124.153 19.8296 125.428 20.1797 126.968 20.6034C125.511 21.6728 124.438 22.4643 123.061 23.4969C122.817 22.2068 122.615 21.0638 122.413 19.9032C122.555 19.7561 122.717 19.6089 122.858 19.4795Z" fill="white"/>
<path d="M122.129 19.3877C121.867 20.8999 121.704 21.9135 121.523 23.0742C120.268 22.1886 119.235 21.4516 117.797 20.4204C119.276 20.0703 120.47 19.7746 122.129 19.3877Z" fill="white"/>
<path d="M125.928 52.6521C126.899 52.2461 128.154 51.8415 129.288 51.2325C132.08 49.7409 132.243 46.8841 129.652 45.0585C127.364 43.4565 124.653 43.1064 121.878 42.8666C117.487 42.4606 113.034 42.24 108.722 41.4294C106.516 41.0234 104.33 39.7701 102.548 38.4432C96.2336 33.7255 97.8719 24.9536 105.564 22.2071C107.852 21.3966 110.423 21.0274 112.892 20.8611C115.099 20.714 116.737 22.06 118.054 23.5708C118.742 24.3446 118.014 24.88 117.385 25.1919C115.564 26.0775 113.599 26.6483 111.577 25.9304C108.196 24.7315 106.293 26.1687 105.422 28.0487C103.884 31.3659 104.309 33.3754 106.92 34.9788C109.875 36.8029 113.255 37.3561 116.737 37.5223C120.563 37.7238 124.43 37.7062 128.114 38.8668C132.405 40.2305 135.643 42.4974 136.554 46.8473C137.243 50.1277 135.32 53.7024 131.98 55.122C131.655 55.2499 131.13 55.2323 130.805 55.0852C129.106 54.2923 127.466 53.4258 125.928 52.6521Z" fill="white"/>
<path d="M127.81 18.3182C128.012 18.4286 128.194 18.5565 128.802 18.9067C125.685 18.9067 122.972 18.9067 120.117 18.9067C120.482 18.1697 120.867 17.415 121.211 16.6589C121.575 15.9028 122.122 15.535 123.114 15.4614C128.417 15.0746 129.51 11.8677 129.388 8.2371C129.369 7.353 129.227 6.44977 129.246 5.5642C129.288 2.94719 130.805 1.49232 133.68 1.6762C135.522 1.78653 137.465 2.08222 139.105 2.80009C143.699 4.8272 148.152 7.11322 152.666 9.28744C153.841 9.8582 153.314 10.4304 152.626 10.9085C150.824 12.1251 148.7 12.6414 146.513 12.6238C144.164 12.5855 141.817 12.2178 139.469 11.9971C138.983 11.9603 138.498 11.9044 137.91 12.0883C138.882 12.4576 139.853 12.8077 140.784 13.1578C138.74 16.0881 135.745 15.2952 132.809 14.798C132.789 14.926 132.749 15.0554 132.728 15.1658C133.416 15.4614 134.085 15.7557 134.935 16.1058C132.587 16.9354 130.948 19.295 127.931 17.8563C127.891 18.0049 127.85 18.1697 127.81 18.3182Z" fill="white"/>
<path d="M110.807 18.963C111.131 18.5761 111.292 18.3923 111.434 18.2069C108.458 19.2587 106.799 16.9918 104.451 16.0886C105.322 15.7561 106.01 15.4987 106.718 15.2221C106.739 15.0927 106.739 14.9647 106.758 14.8529C103.803 15.1486 100.625 16.2533 98.662 13.1583C99.5328 12.8258 100.504 12.4757 101.456 12.1256C96.0913 12.5125 90.6463 13.9879 85.909 10.172C86.0722 9.8778 86.0916 9.71157 86.1934 9.65714C91.3944 6.57823 96.6778 3.63024 102.73 2.10034C103.986 1.78701 105.382 1.584 106.657 1.71346C109.39 2.00767 110.544 3.87002 110.24 6.67091C110.079 8.12725 110.079 9.63802 110.321 11.0752C110.727 13.4525 112.69 15.0383 115.301 15.3884C117.85 15.7385 118.66 16.4755 119.127 18.963C116.414 18.963 113.701 18.963 110.807 18.963Z" fill="white"/>
<path d="M112.486 43.6946C111.677 44.1374 110.848 44.5243 110.119 45.0406C107.385 46.9942 107.608 49.7951 110.584 51.3618C113.074 52.6695 115.847 53.1123 118.681 53.1491C121.838 53.1859 124.976 53.3153 127.871 54.7158C131.595 56.5222 133.559 60.0601 132.809 63.8378C132.668 64.5748 132.344 65.3132 131.919 65.9399C130.421 68.1141 129.611 68.2612 127.223 67.0638C126.495 66.6946 125.745 66.3444 124.834 65.9208C125.28 65.7369 125.583 65.6074 125.906 65.478C127.202 64.9631 128.539 64.3909 128.64 62.9345C128.761 61.3502 128.194 59.8939 126.697 58.9171C124.976 57.7932 122.972 57.499 120.948 57.5167C117.487 57.5358 114.045 57.4799 110.746 56.3928C109.775 56.0794 108.802 55.7293 107.912 55.2865C102.629 52.6695 101.435 46.7544 105.261 42.5531C105.766 42 106.172 41.8338 106.981 42.1103C108.762 42.7179 110.604 43.1606 112.486 43.6946Z" fill="white"/>
<mask id="mask2_575_515" style="mask-type:luminance" maskUnits="userSpaceOnUse" x="55" y="10" width="39" height="11">
<path d="M55 10.2056H93.0021V20.3735H55V10.2056Z" fill="white"/>
</mask>
<g mask="url(#mask2_575_515)">
<path d="M55 16.1092C65.2018 14.9853 74.9786 13.142 84.5744 10.3779C86.2936 13.4745 89.5929 13.3083 92.9746 13.5848C92.3671 13.8614 91.9826 14.0644 91.5576 14.2291C84.3708 16.8285 77.0435 19.0027 69.3316 19.8692C65.6073 20.2928 61.8427 20.3855 58.2994 18.91C56.9438 18.3216 55.8709 17.5096 55 16.1092Z" fill="white"/>
</g>
<path d="M184.344 16.0889C182.158 18.4838 179.568 19.6268 176.552 19.9401C172.483 20.3638 168.515 19.6268 164.569 18.853C158.415 17.6556 152.464 15.8491 146.31 13.619C149.671 13.288 152.991 13.5455 154.833 10.4121C164.346 13.085 174.102 15.0018 184.344 16.0889Z" fill="white"/>
<path d="M126.939 37.283C128.66 36.6372 130.563 36.1208 132.222 35.2367C135.704 33.4303 136.089 29.1186 133.153 26.6487C131.859 25.5439 130.421 25.1188 128.7 25.7646C126.737 26.5016 124.834 26.225 122.972 25.488C121.029 24.7143 120.907 23.9773 122.386 22.6504C124.309 20.9175 126.554 20.5865 129.186 20.991C132.932 21.5633 136.514 22.4106 138.842 25.3409C142.566 30.0027 141.695 36.8769 134.47 40.1765C134.185 40.3045 133.72 40.231 133.416 40.103C131.23 39.1806 129.065 38.223 126.939 37.283Z" fill="white"/>
<path d="M109.006 56.7622C110.563 57.2594 112.123 57.7566 113.863 58.2906C112.305 59.2865 111.252 60.4663 111.09 62.1801C110.988 63.3408 111.373 64.2072 112.426 64.7971C114.288 65.8474 116.353 66.1416 118.519 66.0872C121.05 66.0137 123.518 66.3447 125.785 67.4877C130.623 69.9208 131.351 76.1124 127.183 79.0428C126.414 79.5768 125.785 79.6871 124.935 79.2267C124.187 78.8207 123.336 78.6191 122.365 78.269C123.072 77.9189 123.72 77.6423 124.308 77.2922C127.344 75.5226 127.283 72.095 124.105 70.5651C123.072 70.0679 121.778 69.9943 120.584 69.8649C118.014 69.5692 115.32 69.6619 112.871 69.0352C106.395 67.3773 104.634 61.4975 109.006 56.7622Z" fill="white"/>
<path d="M99.9983 15.8677C92.448 22.5022 72.4291 25.8385 66.5995 21.2503C68.1571 21.0105 69.5741 20.7884 70.9717 20.5486C79.0891 19.0938 87.003 17.0107 94.4919 13.7126C95.7473 13.1595 96.88 13.4905 97.9124 14.2466C98.6217 14.7806 99.31 15.3337 99.9983 15.8677Z" fill="white"/>
<path d="M139.084 16.1267C140.198 15.2794 140.947 14.6895 141.716 14.1364C142.728 13.3994 143.841 13.2331 145.016 13.7495C153.679 17.508 162.808 19.8676 172.301 21.1386C172.341 21.1386 172.362 21.1945 172.685 21.4887C170.884 22.005 169.305 22.5582 167.646 22.9083C160.843 24.3646 154.468 22.7612 148.294 20.3648C145.197 19.1306 142.263 17.6007 139.084 16.1267Z" fill="white"/>
<path d="M131.919 18.9458C132.89 18.3368 133.478 17.9322 134.105 17.563C135.968 16.4759 137.627 16.217 139.792 17.4159C145.664 20.6404 151.959 23.0368 158.982 24.1048C157.404 25.3949 155.581 25.7274 153.699 25.8745C149.246 26.2246 145.097 25.2478 141.169 23.4237C138.133 22.0409 135.178 20.5301 131.919 18.9458Z" fill="white"/>
<path d="M107.041 19.0196C102.284 21.5439 97.6699 24.3272 92.1845 25.4687C89.1276 26.1145 86.0318 26.2616 82.9942 25.3952C82.125 25.1554 81.3349 24.7141 80.1004 24.2169C87.9335 22.9635 94.5936 20.2538 100.969 16.8263C101.435 16.5865 102.184 16.4026 102.629 16.5674C104.188 17.1396 105.686 17.8575 107.204 18.5401C107.143 18.6872 107.103 18.8534 107.041 19.0196Z" fill="white"/>
<path d="M111.354 69.5513C112.609 69.9573 113.763 70.3442 114.916 70.7119C111.921 74.3616 113.094 77.1802 117.993 78.2864C119.471 78.6188 121.009 78.71 122.467 79.0793C126.656 80.1473 128.356 84.0912 126.15 87.3907C124.834 89.3443 123.661 89.6385 121.273 88.4411C121.798 88.1469 122.284 87.9071 122.73 87.6482C124.228 86.7641 124.855 85.4548 124.47 83.8161C124.145 82.3774 122.932 81.7698 121.534 81.5124C120.037 81.2358 118.498 81.2358 117.022 80.9225C113.599 80.1664 110.807 78.6733 109.875 75.2648C109.329 73.1995 110.119 71.4122 111.354 69.5513Z" fill="white"/>
<mask id="mask3_575_515" style="mask-type:luminance" maskUnits="userSpaceOnUse" x="112" y="81" width="13" height="23">
<path d="M112.442 81.0044H124.851V103.131H112.442V81.0044Z" fill="white"/>
</mask>
<g mask="url(#mask3_575_515)">
<path d="M116.718 81.8431C114.228 83.9261 114.532 86.4695 117.447 87.9068C118.439 88.3848 119.552 88.6614 120.584 89.0483C123.782 90.2281 125.158 92.8083 124.228 95.7945C123.661 97.6187 122.405 98.6131 120.2 98.6131C120.077 100.199 119.977 101.729 119.856 103.276C119.754 103.276 119.652 103.276 119.552 103.276C119.49 102.557 119.429 101.839 119.369 101.12C119.248 99.8488 119.429 98.6866 117.406 98.1526C115.28 97.5819 114.532 94.0425 115.705 91.8507C115.968 91.3711 116.333 90.9474 116.718 90.412C117.264 90.6341 117.77 90.8547 118.296 91.0754C115.584 94.0808 115.949 97.3421 119.045 98.135C119.045 97.0288 119.066 95.9225 119.045 94.8178C119.025 93.7483 118.944 92.6789 118.883 91.5373C119.429 91.5373 119.856 91.5373 120.24 91.5373C120.3 91.5917 120.361 91.6285 120.361 91.6653C120.361 93.8219 120.361 95.9593 120.361 98.1718C121.757 98.0055 122.567 97.2685 122.892 96.1623C123.336 94.6324 123.376 93.029 121.98 91.8874C121.15 91.2049 119.977 90.8547 118.944 90.3752C117.385 89.6573 115.624 89.1601 114.309 88.1642C112.548 86.8373 112.305 84.8102 112.83 82.839C113.378 80.7736 113.803 80.7001 116.718 81.8431Z" fill="white"/>
</g>
<path d="M119.733 8.6617C117.223 8.6617 115.057 6.67136 115.016 4.36769C114.997 1.97135 117.162 -0.0189872 119.773 0.000136674C122.324 0.000136674 124.449 1.93457 124.489 4.27502C124.53 6.61546 122.303 8.6617 119.733 8.6617Z" fill="white"/>
<path d="M121.676 36.4893C120.3 36.4893 119.288 36.4893 117.993 36.4893C117.993 35.6419 117.993 34.8123 117.993 34.0017C117.993 32.6557 118.094 31.3112 117.972 29.9651C117.75 27.6438 118.356 25.5432 119.733 23.5337C122.871 27.5335 120.969 32.0658 121.676 36.4893Z" fill="white"/>
<path d="M119.208 11.223C117.931 10.7449 116.616 10.3212 116.474 8.82812C118.681 8.82812 120.806 8.82812 122.911 8.82812C122.871 10.0079 122.83 10.0623 120.34 11.3157C122.284 12.366 122.082 14.5961 119.835 17.4706C117.547 15.2404 117.285 12.7161 119.208 11.223Z" fill="white"/>
<path d="M121.211 52.3197C120.442 52.3197 119.815 52.3197 119.187 52.3197C118.904 52.3197 118.62 52.2653 118.195 52.2285C118.195 49.4085 118.195 46.6444 118.195 43.7876C119.127 43.7876 120.138 43.7876 121.231 43.7876C121.211 46.5885 121.211 49.3526 121.211 52.3197Z" fill="white"/>
<path d="M124.672 19.9963C126.858 19.7565 129.044 19.4799 131.23 19.296C131.574 19.2593 131.959 19.5167 132.303 19.6829C136.575 21.7277 140.824 23.7739 145.481 26.0217C143.822 26.1879 142.424 26.3909 141.028 26.4453C140.744 26.4645 140.359 26.004 140.117 25.7084C136.514 21.3408 131.655 19.8477 125.866 20.4567C125.481 20.4935 125.078 20.4199 124.693 20.4008C124.672 20.236 124.672 20.1066 124.672 19.9963Z" fill="white"/>
<path d="M114.774 20.3098C114.511 20.3466 114.247 20.4201 113.984 20.3833C107.872 19.8111 102.751 21.4337 98.9657 26.0042C98.7638 26.244 98.3178 26.4455 98.0141 26.4279C96.7586 26.3352 95.5048 26.169 94.2284 25.7644C97.7911 24.1051 101.394 22.5384 104.876 20.7879C106.96 19.7375 108.944 19.0373 111.354 19.6463C112.446 19.9229 113.641 19.8479 114.795 19.9229C114.795 20.0509 114.795 20.1803 114.774 20.3098Z" fill="white"/>
<path d="M118.377 58.3652C119.288 58.3652 120.117 58.3652 120.988 58.3652C120.988 60.8528 120.988 63.2477 120.988 65.7543C120.077 65.7543 119.288 65.7543 118.377 65.7543C118.377 63.3036 118.377 60.9072 118.377 58.3652Z" fill="white"/>
<path d="M118.62 70.1597C119.369 70.1597 120.037 70.1597 120.765 70.1597C120.765 72.5192 120.827 74.8406 120.685 77.1442C120.665 77.4399 119.531 77.6606 118.62 78.0298C118.62 75.173 118.62 72.7399 118.62 70.1597Z" fill="white"/>
<path d="M120.523 87.9976C119.835 87.9976 119.429 87.9976 118.904 87.9976C118.802 86.0263 118.721 84.1272 118.62 82.1001C119.268 82.1001 119.856 82.1001 120.523 82.1001C120.523 84.0169 120.523 85.9528 120.523 87.9976Z" fill="white"/>
<path d="M120.361 19.4795C121.657 19.8296 122.932 20.1797 124.47 20.6034C123.013 21.6728 121.94 22.4643 120.563 23.4969C120.321 22.2068 120.117 21.0638 119.915 19.9032C120.058 19.7561 120.219 19.6089 120.361 19.4795Z" fill="white"/>
<path d="M119.633 19.3877C119.369 20.8999 119.208 21.9135 119.025 23.0742C117.77 22.1886 116.737 21.4516 115.301 20.4204C116.778 20.0703 117.972 19.7746 119.633 19.3877Z" fill="white"/>
<mask id="mask4_575_515" style="mask-type:luminance" maskUnits="userSpaceOnUse" x="0" y="156" width="239" height="20">
<path d="M0 156.64H238.339V175.864H0V156.64Z" fill="white"/>
</mask>
<g mask="url(#mask4_575_515)">
<path d="M139.221 170.953C121.238 171.43 103.256 171.907 85.275 172.382C81.423 172.482 77.5691 172.547 73.7171 172.679C82.049 172.073 90.3887 171.616 98.7343 171.308C112.223 170.812 125.726 170.692 139.221 170.953ZM237.506 157.703C206.885 156.577 176.254 156.368 145.623 157.171C114.898 157.975 84.1334 159.545 53.5183 162.344C35.7542 163.968 18.0237 165.769 0.356106 168.233C-0.376106 168.335 0.241944 169.018 0.730086 168.982C16.1243 167.765 31.4968 166.267 46.9008 165.124C62.1414 163.995 77.3959 163.024 92.6582 162.282C122.01 160.857 151.4 160.275 180.785 160.463C175.089 160.816 169.393 161.185 163.697 161.567C139.122 163.21 114.573 165.247 90.062 167.674C76.2995 169.038 62.5509 170.529 48.814 172.14C47.6232 172.281 46.2591 175.219 47.9145 175.034C51.115 174.683 54.3174 174.351 57.5238 174.045C57.3624 174.192 57.2226 174.362 57.1163 174.552C56.8998 174.944 56.7817 175.796 57.4824 175.778C61.3994 175.67 65.3478 175.86 69.2707 175.828C73.2171 175.796 77.1616 175.645 81.1042 175.534C88.9774 175.315 96.8487 175.097 104.722 174.878C120.72 174.435 136.719 173.993 152.717 173.55C161.533 173.306 170.349 173.063 179.167 172.819C180.207 172.79 181.669 169.973 180.307 169.873C163.271 168.627 146.194 167.982 129.111 167.934C126.202 167.925 123.293 167.937 120.382 167.964C120.776 167.932 121.169 167.898 121.563 167.866C146.129 165.885 170.719 164.316 195.341 163.196C209.163 162.568 222.994 162.086 236.825 161.631C238.195 161.586 238.929 157.755 237.506 157.703Z" fill="white"/>
</g>
<path d="M46.6536 131.064C48.4428 131.179 50.0784 131.62 51.5586 132.383C53.0388 133.148 54.2139 134.189 55.0858 135.508C55.9558 136.824 56.3298 138.34 56.2038 140.06L48.4172 147.917C47.6495 148.71 46.6575 149.456 45.4411 150.153C44.2227 150.852 42.9964 151.243 41.7643 151.329C40.9612 151.391 40.1306 151.332 39.2763 151.149C38.4201 150.963 37.5226 150.798 36.5837 150.655C35.6487 150.508 34.6823 150.501 33.6863 150.633C32.6884 150.762 31.6806 151.169 30.663 151.852L30.3953 152.146L28.8915 151.149C29.2694 150.486 29.5942 149.786 29.8678 149.049C30.1394 148.309 30.2477 147.42 30.1906 146.383L28.6868 129C28.5293 127.609 28.0904 126.742 27.372 126.398C26.6535 126.05 25.5966 126.355 24.1991 127.315L23.2307 125.96L31.655 118.426C33.2651 118.796 34.3575 119.495 34.9303 120.527C35.507 121.559 35.8869 122.756 36.0719 124.118L44.3231 117.516C45.5927 117.426 46.7953 117.631 47.929 118.133C49.0667 118.631 50.043 119.322 50.8579 120.211C51.6708 121.1 52.2357 122.1 52.5506 123.208C52.8656 124.312 52.836 125.428 52.464 126.555L46.6536 131.064ZM40.9376 131.888C42.9 130.154 44.1105 128.645 44.5672 127.358C45.0277 126.068 44.8683 125.079 44.0869 124.39C43.3094 123.699 42.0182 123.416 40.2133 123.545L36.3317 126.484L37.0797 135.143L40.9376 131.888ZM49.1573 144.196C49.6297 143.456 49.7281 142.684 49.4565 141.881C49.1888 141.075 48.6613 140.324 47.8739 139.63C47.0905 138.933 46.1261 138.358 44.9766 137.903C43.831 137.449 42.6008 137.196 41.284 137.143C39.9712 137.085 38.6465 137.304 37.308 137.795L37.804 143.451C39.0736 143.39 40.2762 143.526 41.41 143.859C42.5477 144.189 43.6106 144.517 44.5987 144.841C45.5848 145.168 46.4646 145.325 47.2362 145.315C48.0078 145.306 48.6475 144.933 49.1573 144.196Z" fill="white"/>
<path d="M57.8802 146.753L61.8799 143.198L65.0134 146.552L61.0138 150.115L57.8802 146.753Z" fill="white"/>
<path d="M74.4877 122.397C74.8282 123.268 75.5033 124.121 76.5111 124.956C77.5228 125.787 78.7156 126.605 80.0855 127.407C81.4594 128.207 82.8806 128.999 84.345 129.787C85.8094 130.572 87.1754 131.37 88.4469 132.181C89.7224 132.99 90.7636 133.807 91.5726 134.633C92.3855 135.456 92.8107 136.307 92.8481 137.185C92.8953 138.165 92.5902 139.203 91.9348 140.296C91.2774 141.385 90.37 142.464 89.2106 143.529C88.0493 144.595 86.7503 145.575 85.3134 146.468C83.8745 147.362 82.3885 148.081 80.8571 148.625C79.3297 149.17 77.8614 149.469 76.456 149.521C75.3478 149.561 74.1924 149.475 72.9917 149.263C71.7891 149.048 70.6573 148.702 69.5984 148.224C68.5434 147.742 67.6714 147.133 66.9845 146.396C66.3015 145.661 65.9373 144.789 65.8901 143.78L72.9288 137.242L74.4798 138.002C74.0074 138.667 73.9602 139.291 74.3381 139.873C74.716 140.452 75.3931 140.982 76.3694 141.464C77.3457 141.948 78.503 142.357 79.8415 142.69C81.1799 143.02 82.5735 143.267 84.0222 143.428C84.1639 142.841 84.2387 142.28 84.2505 141.744C84.2603 141.21 84.156 140.703 83.9356 140.224C83.3569 139.298 82.4357 138.432 81.1721 137.629C79.9123 136.823 78.5109 136.042 76.9677 135.285C75.4246 134.531 73.9228 133.792 72.4642 133.07C71.0097 132.344 69.7873 131.586 68.7953 130.798C67.8072 130.009 67.262 129.196 67.1577 128.354C67.0474 127.318 67.3171 126.23 67.9686 125.092C68.6241 123.95 69.4803 122.848 70.5353 121.787C71.5942 120.723 72.6689 119.759 73.7555 118.899C74.842 118.038 75.7572 117.357 76.5032 116.856C77.2531 116.354 77.6291 116.103 77.6291 116.103C78.2786 115.802 79.1368 115.594 80.2036 115.479C81.2744 115.361 82.4318 115.332 83.6757 115.393C84.9197 115.456 86.1165 115.619 87.266 115.881C88.4154 116.144 89.4193 116.495 90.2814 116.935C91.1416 117.375 91.7183 117.909 92.0135 118.54L84.1796 126.712L82.6286 125.708C83.1679 125.112 83.2427 124.545 82.8491 124.01C82.4593 123.476 81.796 123.035 80.8571 122.691C79.9163 122.343 78.8672 122.13 77.7078 122.053C76.5524 121.972 75.4797 122.087 74.4877 122.397Z" fill="white"/>
<path d="M93.6157 145.31L97.7492 141.884L100.757 145.346L96.6154 148.772L93.6157 145.31Z" fill="white"/>
<path d="M132.632 123.172C133.439 125.093 133.752 127.236 133.569 129.602C133.39 131.967 132.665 134.361 131.396 136.784C130.13 139.207 128.225 141.506 125.68 143.68C124.105 144.961 122.438 146.092 120.68 147.071C118.927 148.046 117.161 148.537 115.382 148.54C114.447 148.54 113.526 148.418 112.618 148.175C111.715 147.931 110.811 147.712 109.91 147.515C109.006 147.32 108.119 147.268 107.249 147.357C106.377 147.449 105.505 147.845 104.635 148.547L103.43 147.501C103.865 146.895 104.229 146.293 104.524 145.694C104.824 145.098 104.991 144.28 105.028 143.243L104.95 125.401C104.881 123.996 104.526 123.098 103.887 122.706C103.251 122.31 102.196 122.525 100.722 123.351L99.8714 121.932L108.855 115.014C110.429 115.498 111.469 116.274 111.973 117.344C112.48 118.41 112.768 119.615 112.831 120.957L120.46 115C122.07 115.086 123.68 115.48 125.286 116.183C126.892 116.885 128.349 117.831 129.656 119.021C130.967 120.208 131.959 121.591 132.632 123.172ZM124.318 141.666C125.089 140.935 125.597 139.937 125.845 138.67C126.097 137.404 126.137 136.001 125.963 134.462C125.794 132.919 125.432 131.37 124.877 129.817C124.326 128.259 123.637 126.826 122.814 125.516C121.989 124.208 121.039 123.157 119.964 122.369C118.893 121.577 117.755 121.179 116.555 121.179L112.839 123.975L112.917 140.949C114.155 140.888 115.295 141.006 116.334 141.307C117.374 141.609 118.336 141.92 119.224 142.239C120.11 142.56 120.972 142.712 121.806 142.698C122.645 142.68 123.483 142.336 124.318 141.666Z" fill="white"/>
<path d="M135.249 145.129L139.54 141.86L142.374 145.437L138.083 148.698L135.249 145.129Z" fill="white"/>
<path d="M159.525 115.726C161.666 115.803 163.589 116.269 165.296 117.123C167.006 117.98 168.469 119.109 169.681 120.514C170.894 121.915 171.815 123.465 172.445 125.166C173.075 126.863 173.368 128.605 173.326 130.392C173.283 132.18 172.874 133.89 172.098 135.524C171.321 137.155 170.134 138.599 168.54 139.861L154.816 149.115C153.525 148.671 152.23 147.931 150.935 146.893C149.638 145.852 148.451 144.612 147.376 143.173C146.3 141.73 145.402 140.18 144.684 138.521C143.969 136.858 143.53 135.171 143.369 133.46C143.211 131.745 143.408 130.096 143.959 128.514C144.514 126.928 145.526 125.523 146.99 124.299L159.525 115.726ZM162.241 141.417C163.028 140.255 163.556 138.879 163.823 137.288C164.095 135.696 164.101 134.058 163.839 132.37C163.575 130.679 163.048 129.094 162.257 127.618C161.463 126.137 160.393 124.922 159.044 123.976C157.694 123.026 156.064 122.517 154.155 122.449C153.289 123.215 152.693 124.209 152.368 125.431C152.041 126.655 151.966 127.973 152.14 129.381C152.317 130.791 152.695 132.195 153.273 133.589C153.85 134.979 154.59 136.255 155.494 137.417C156.401 138.578 157.424 139.524 158.564 140.255C159.708 140.986 160.934 141.374 162.241 141.417Z" fill="white"/>
<path d="M173.627 146.381L178.051 143.27L180.728 146.94L176.304 150.044L173.627 146.381Z" fill="white"/>
<path d="M192.915 121.776C194.348 120.743 195.609 119.953 196.702 119.403C197.792 118.854 198.839 118.489 199.843 118.306C200.851 118.12 201.906 118.066 203.008 118.141C204.315 118.238 205.358 118.596 206.142 119.216C206.929 119.838 207.579 120.55 208.094 121.353C208.614 122.155 209.102 122.912 209.559 123.618C210.019 124.32 210.574 124.835 211.22 125.159C211.866 125.48 212.726 125.435 213.802 125.023L214.676 126.55L206.606 130.786C205.65 130.901 204.805 130.75 204.071 130.334C203.335 129.915 202.679 129.356 202.103 128.657C201.524 127.955 200.963 127.234 200.418 126.492C199.877 125.747 199.327 125.094 198.772 124.535C198.215 123.976 197.609 123.621 196.954 123.467C196.296 123.315 195.523 123.496 194.631 124.012C193.296 124.74 192.304 126.119 191.655 128.155C191.009 130.191 190.997 132.655 191.623 135.546C191.954 136.761 192.491 138.012 193.237 139.302C193.981 140.592 194.907 141.753 196.009 142.786C197.115 143.814 198.379 144.585 199.796 145.101C201.213 145.614 202.756 145.716 204.425 145.409C206.098 145.105 207.87 144.237 209.74 142.807L210.999 143.997C209.356 145.474 207.779 146.786 206.268 147.932C204.76 149.076 203.166 149.952 201.481 150.563C199.8 151.18 197.875 151.409 195.702 151.251C193.497 151.094 191.501 150.452 189.718 149.33C187.939 148.208 186.443 146.685 185.23 144.764C184.018 142.843 183.187 140.578 182.742 137.969C182.573 136.073 182.758 134.333 183.293 132.75C183.833 131.164 184.616 129.704 185.64 128.37C186.663 127.037 187.809 125.829 189.08 124.743C190.35 123.654 191.627 122.664 192.915 121.776Z" fill="white"/>
</svg>
