<svg width="243" height="127" viewBox="0 0 243 127" fill="none" xmlns="http://www.w3.org/2000/svg">
<g clip-path="url(#clip0_45_1284)">
<path d="M128.814 64.0966C129.997 63.602 131.527 63.1092 132.906 62.3673C136.31 60.5502 136.506 57.07 133.351 54.846C130.564 52.8945 127.259 52.468 123.882 52.1759C118.53 51.6813 113.105 51.4124 107.854 50.425C105.165 49.9304 102.502 48.4036 100.333 46.7871C92.6386 41.04 94.6364 30.3539 104.008 27.0082C106.793 26.0207 109.924 25.5709 112.934 25.3684C115.621 25.1892 117.618 26.829 119.221 28.6694C120.059 29.612 119.171 30.2643 118.408 30.6442C116.188 31.7231 113.796 32.4184 111.33 31.5439C107.212 30.0833 104.895 31.8342 103.834 34.1244C101.961 38.1655 102.478 40.6135 105.659 42.5668C109.259 44.789 113.377 45.4628 117.618 45.6653C122.279 45.9108 126.99 45.8893 131.477 47.3032C136.705 48.9645 140.65 51.7261 141.76 57.0252C142.598 61.0215 140.256 65.3762 136.186 67.1055C135.792 67.2614 135.15 67.2399 134.757 67.0607C132.684 66.0948 130.688 65.0393 128.814 64.0966Z" fill="white"/>
<path d="M131.107 22.2715C131.353 22.406 131.576 22.5619 132.316 22.9884C128.517 22.9884 125.214 22.9884 121.736 22.9884C122.181 22.0905 122.65 21.1712 123.069 20.2501C123.512 19.329 124.177 18.881 125.385 18.7914C131.847 18.3201 133.178 14.4134 133.03 9.99055C133.005 8.91352 132.834 7.8132 132.857 6.73438C132.906 3.5463 134.757 1.77395 138.258 1.99796C140.502 2.13236 142.868 2.49257 144.866 3.36709C150.464 5.83655 155.888 8.62142 161.388 11.2701C162.817 11.9654 162.177 12.6625 161.339 13.2449C159.144 14.727 156.554 15.356 153.891 15.3345C151.031 15.2879 148.171 14.8399 145.311 14.5711C144.718 14.5263 144.126 14.4582 143.411 14.6822C144.594 15.132 145.779 15.5585 146.913 15.985C144.423 19.5548 140.774 18.5889 137.197 17.9831C137.174 18.1391 137.123 18.2968 137.099 18.4312C137.937 18.7914 138.75 19.1498 139.786 19.5763C136.926 20.587 134.93 23.4615 131.255 21.7088C131.206 21.8898 131.157 22.0905 131.107 22.2715Z" fill="white"/>
<path d="M110.393 23.0566C110.788 22.5853 110.985 22.3613 111.159 22.1355C107.533 23.4168 105.511 20.6552 102.651 19.5549C103.71 19.1499 104.549 18.8363 105.413 18.4994C105.437 18.3417 105.437 18.1858 105.462 18.0496C101.862 18.4098 97.9905 19.7556 95.599 15.9851C96.658 15.5801 97.8429 15.1536 99.0002 14.7271C92.4674 15.1984 85.8342 16.9959 80.0631 12.3473C80.2599 11.9888 80.2855 11.7863 80.4076 11.72C86.7455 7.96925 93.1819 4.37796 100.555 2.51422C102.083 2.13251 103.785 1.8852 105.338 2.0429C108.667 2.40132 110.072 4.67007 109.704 8.08215C109.505 9.85629 109.505 11.6967 109.802 13.4476C110.294 16.3436 112.686 18.2754 115.867 18.7019C118.975 19.1284 119.961 20.0262 120.528 23.0566C117.225 23.0566 113.92 23.0566 110.393 23.0566Z" fill="white"/>
<path d="M112.44 53.1847C111.454 53.7241 110.442 54.1955 109.554 54.8245C106.226 57.2043 106.498 60.6164 110.123 62.525C113.154 64.1181 116.534 64.6575 119.986 64.7023C123.832 64.7471 127.655 64.9048 131.18 66.6109C135.717 68.8115 138.111 73.1214 137.197 77.7234C137.024 78.6212 136.63 79.5209 136.113 80.2843C134.288 82.9329 133.302 83.1122 130.391 81.6534C129.503 81.2036 128.592 80.7771 127.482 80.261C128.025 80.037 128.395 79.8793 128.789 79.7216C130.367 79.0944 131.995 78.3972 132.117 76.6231C132.265 74.6931 131.576 72.9189 129.751 71.729C127.655 70.3598 125.214 70.0014 122.748 70.0229C118.53 70.0462 114.339 69.9781 110.32 68.6538C109.135 68.2721 107.952 67.8456 106.868 67.3062C100.431 64.1181 98.9766 56.9122 103.638 51.7941C104.254 51.1203 104.746 50.9178 105.734 51.2547C107.903 51.9948 110.147 52.5342 112.44 53.1847Z" fill="white"/>
<mask id="mask0_45_1284" style="mask-type:luminance" maskUnits="userSpaceOnUse" x="42" y="12" width="47" height="13">
<path d="M42.4092 12.3867H88.6843V24.7734H42.4092V12.3867Z" fill="white"/>
</mask>
<g mask="url(#mask0_45_1284)">
<path d="M42.4092 19.5766C54.8372 18.2075 66.7474 15.962 78.4353 12.5947C80.5315 16.367 84.5508 16.1645 88.6685 16.5014C87.9284 16.8383 87.46 17.0856 86.9423 17.2863C78.1892 20.4529 69.2629 23.1016 59.8682 24.1571C55.3312 24.6732 50.7431 24.7861 46.4285 22.9887C44.7771 22.2719 43.4702 21.2826 42.4092 19.5766Z" fill="white"/>
</g>
<path d="M199.979 19.5552C197.315 22.4727 194.158 23.8651 190.485 24.2468C185.529 24.7629 180.695 23.8651 175.886 22.9225C168.391 21.4638 161.142 19.2631 153.645 16.5463C157.739 16.1431 161.782 16.4567 164.025 12.6396C175.615 15.8958 187.501 18.2309 199.979 19.5552Z" fill="white"/>
<path d="M130.046 45.3734C132.143 44.5867 134.459 43.9577 136.483 42.8807C140.725 40.68 141.193 35.4275 137.617 32.4186C136.038 31.0728 134.288 30.5549 132.192 31.3416C129.8 32.2394 127.482 31.9025 125.214 31.0047C122.846 30.0621 122.699 29.1642 124.498 27.5478C126.84 25.4367 129.578 25.0335 132.784 25.5263C137.345 26.2235 141.711 27.2557 144.545 30.8255C149.082 36.5045 148.023 44.8788 139.219 48.8984C138.874 49.0543 138.307 48.9647 137.937 48.8088C135.274 47.6852 132.635 46.5186 130.046 45.3734Z" fill="white"/>
<path d="M108.198 69.1035C110.098 69.7092 111.997 70.3149 114.117 70.9655C112.217 72.1787 110.936 73.6159 110.739 75.7037C110.615 77.1176 111.084 78.1731 112.367 78.8918C114.635 80.1713 117.15 80.5297 119.788 80.4634C122.87 80.3738 125.88 80.777 128.641 82.1694C134.534 85.1335 135.422 92.6763 130.342 96.2461C129.405 96.8966 128.641 97.031 127.606 96.4701C126.692 95.9755 125.657 95.73 124.474 95.3034C125.336 94.8769 126.126 94.54 126.84 94.1135C130.54 91.9577 130.466 87.7822 126.594 85.9184C125.336 85.3127 123.758 85.2231 122.303 85.0654C119.172 84.7052 115.892 84.8181 112.908 84.0547C105.017 82.035 102.872 74.8722 108.198 69.1035Z" fill="white"/>
<path d="M97.2248 19.2844C88.0289 27.3666 63.6415 31.431 56.5398 25.8415C58.4372 25.5494 60.1635 25.2788 61.866 24.9867C71.7529 23.2144 81.3956 20.6768 90.5188 16.659C92.0482 15.9852 93.4279 16.3884 94.6857 17.3095C95.5498 17.9601 96.3883 18.6339 97.2248 19.2844Z" fill="white"/>
<path d="M144.842 19.5999C146.198 18.5677 147.11 17.8491 148.047 17.1753C149.281 16.2775 150.637 16.0749 152.066 16.704C162.62 21.2827 173.741 24.1571 185.307 25.7055C185.356 25.7055 185.38 25.7736 185.775 26.132C183.581 26.761 181.658 27.4348 179.634 27.8613C171.349 29.6355 163.583 27.6821 156.062 24.7629C152.288 23.2593 148.714 21.3956 144.842 19.5999Z" fill="white"/>
<path d="M136.113 23.0351C137.296 22.2932 138.01 21.8004 138.776 21.3506C141.043 20.0263 143.067 19.7109 145.704 21.1714C152.855 25.0996 160.524 28.0189 169.082 29.3199C167.157 30.8915 164.939 31.2965 162.646 31.4757C157.221 31.9022 152.164 30.7123 147.381 28.4902C143.683 26.8056 140.083 24.9652 136.113 23.0351Z" fill="white"/>
<path d="M105.807 23.1246C100.012 26.1998 94.3904 29.5904 87.708 30.981C83.984 31.7677 80.2107 31.947 76.5122 30.8914C75.4513 30.5993 74.4908 30.0617 72.987 29.456C82.5294 27.9292 90.6428 24.6282 98.4097 20.4527C98.9766 20.1606 99.8879 19.9366 100.431 20.1373C102.331 20.8344 104.155 21.7089 106.003 22.5404C105.931 22.7196 105.881 22.9221 105.807 23.1246Z" fill="white"/>
<path d="M111.06 84.6841C112.588 85.1787 113.993 85.65 115.398 86.098C111.749 90.5441 113.18 93.9777 119.148 95.3253C120.947 95.7303 122.821 95.8415 124.596 96.2913C129.702 97.5923 131.773 102.397 129.084 106.416C127.482 108.796 126.051 109.155 123.142 107.696C123.783 107.338 124.376 107.045 124.917 106.73C126.742 105.653 127.507 104.058 127.039 102.062C126.643 100.309 125.163 99.5689 123.462 99.2553C121.638 98.9184 119.764 98.9184 117.963 98.5367C113.796 97.6156 110.393 95.7967 109.259 91.6444C108.594 89.1284 109.554 86.951 111.06 84.6841Z" fill="white"/>
<mask id="mask1_45_1284" style="mask-type:luminance" maskUnits="userSpaceOnUse" x="112" y="98" width="16" height="28">
<path d="M112.367 98.6353H127.484V125.59H112.367V98.6353Z" fill="white"/>
</mask>
<g mask="url(#mask1_45_1284)">
<path d="M117.593 99.6586C114.562 102.196 114.93 105.295 118.481 107.046C119.689 107.628 121.045 107.965 122.303 108.436C126.2 109.873 127.877 113.017 126.742 116.655C126.051 118.877 124.523 120.088 121.835 120.088C121.687 122.02 121.563 123.884 121.415 125.769C121.293 125.769 121.169 125.769 121.045 125.769C120.973 124.893 120.898 124.018 120.825 123.142C120.675 121.593 120.898 120.178 118.431 119.527C115.843 118.832 114.93 114.52 116.361 111.85C116.682 111.266 117.124 110.75 117.593 110.097C118.26 110.368 118.876 110.637 119.518 110.906C116.213 114.567 116.656 118.54 120.429 119.506C120.429 118.158 120.455 116.81 120.429 115.465C120.406 114.162 120.307 112.859 120.232 111.468C120.898 111.468 121.415 111.468 121.884 111.468C121.959 111.535 122.031 111.579 122.031 111.624C122.031 114.251 122.031 116.855 122.031 119.551C123.734 119.348 124.72 118.45 125.114 117.103C125.657 115.239 125.706 113.285 124.006 111.895C122.994 111.063 121.563 110.637 120.307 110.053C118.408 109.178 116.262 108.572 114.66 107.359C112.515 105.743 112.217 103.273 112.859 100.872C113.524 98.3558 114.042 98.2662 117.593 99.6586Z" fill="white"/>
</g>
<path d="M121.268 10.5069C118.211 10.5069 115.571 8.08224 115.522 5.27587C115.499 2.35661 118.136 -0.0680524 121.317 -0.0447554C124.425 -0.0447554 127.013 2.3118 127.062 5.16297C127.112 8.01414 124.399 10.5069 121.268 10.5069Z" fill="white"/>
<path d="M123.636 44.4072C121.959 44.4072 120.724 44.4072 119.148 44.4072C119.148 43.375 119.148 42.3642 119.148 41.3768C119.148 39.7371 119.27 38.0991 119.122 36.4594C118.851 33.6315 119.591 31.0725 121.268 28.6245C125.09 33.4971 122.772 39.0185 123.636 44.4072Z" fill="white"/>
<path d="M120.626 13.6269C119.073 13.0445 117.471 12.5284 117.298 10.7095C119.986 10.7095 122.575 10.7095 125.139 10.7095C125.09 12.1467 125.041 12.213 122.008 13.7398C124.376 15.0194 124.128 17.7361 121.392 21.2378C118.605 18.5211 118.284 15.4459 120.626 13.6269Z" fill="white"/>
<path d="M123.069 63.6918C122.132 63.6918 121.366 63.6918 120.602 63.6918C120.256 63.6918 119.912 63.6255 119.394 63.5807C119.394 60.1453 119.394 56.778 119.394 53.2979C120.528 53.2979 121.762 53.2979 123.092 53.2979C123.069 56.7099 123.069 60.0772 123.069 63.6918Z" fill="white"/>
<path d="M127.285 24.3149C129.948 24.0228 132.611 23.6858 135.274 23.4618C135.693 23.417 136.162 23.7307 136.581 23.9332C141.783 26.4241 146.962 28.9169 152.633 31.6551C150.611 31.8576 148.911 32.105 147.208 32.1713C146.864 32.1946 146.395 31.6336 146.1 31.2734C141.711 25.9528 135.792 24.1339 128.739 24.8758C128.271 24.9206 127.777 24.831 127.308 24.8077C127.285 24.607 127.285 24.4493 127.285 24.3149Z" fill="white"/>
<path d="M115.227 24.6963C114.906 24.7411 114.585 24.8307 114.264 24.7859C106.818 24.0888 100.579 26.0655 95.969 31.6334C95.721 31.9255 95.1797 32.171 94.8097 32.1495C93.2803 32.0366 91.7509 31.8341 90.1979 31.3413C94.5381 29.3199 98.9274 27.4113 103.169 25.2788C105.708 23.9992 108.125 23.1462 111.06 23.8881C112.391 24.225 113.845 24.1336 115.251 24.225C115.251 24.3809 115.251 24.5386 115.227 24.6963Z" fill="white"/>
<path d="M119.616 71.0571C120.724 71.0571 121.736 71.0571 122.797 71.0571C122.797 74.0875 122.797 77.005 122.797 80.0587C121.687 80.0587 120.724 80.0587 119.616 80.0587C119.616 77.0731 119.616 74.1538 119.616 71.0571Z" fill="white"/>
<path d="M119.912 85.4238C120.825 85.4238 121.638 85.4238 122.525 85.4238C122.525 88.2983 122.6 91.1262 122.427 93.9325C122.401 94.2927 121.022 94.5615 119.912 95.0114C119.912 91.5312 119.912 88.5671 119.912 85.4238Z" fill="white"/>
<path d="M122.23 107.156C121.392 107.156 120.898 107.156 120.256 107.156C120.134 104.755 120.036 102.441 119.912 99.9717C120.701 99.9717 121.415 99.9717 122.23 99.9717C122.23 102.307 122.23 104.665 122.23 107.156Z" fill="white"/>
<path d="M122.031 23.6855C123.61 24.1121 125.163 24.5386 127.039 25.0547C125.263 26.3575 123.956 27.3216 122.279 28.5797C121.982 27.008 121.736 25.6156 121.49 24.2017C121.663 24.0225 121.86 23.8432 122.031 23.6855Z" fill="white"/>
<path d="M121.144 23.5728C120.825 25.415 120.626 26.6497 120.406 28.0637C118.876 26.9848 117.618 26.087 115.867 24.8308C117.668 24.4043 119.122 24.0441 121.144 23.5728Z" fill="white"/>
<path d="M125.771 64.0966C126.954 63.602 128.484 63.1092 129.865 62.3673C133.267 60.5502 133.465 57.07 130.308 54.846C127.521 52.8945 124.218 52.468 120.839 52.1759C115.489 51.6813 110.064 51.4124 104.811 50.425C102.124 49.9304 99.4608 48.4036 97.2898 46.7871C89.5976 41.04 91.5935 30.3539 100.965 27.0082C103.752 26.0207 106.883 25.5709 109.891 25.3684C112.58 25.1892 114.576 26.829 116.18 28.6694C117.018 29.612 116.13 30.2643 115.365 30.6442C113.147 31.7231 110.753 32.4184 108.289 31.5439C104.171 30.0833 101.852 31.8342 100.791 34.1244C98.9176 38.1655 99.4353 40.6135 102.616 42.5668C106.216 44.789 110.334 45.4628 114.576 45.6653C119.236 45.9108 123.947 45.8893 128.434 47.3032C133.662 48.9645 137.607 51.7261 138.717 57.0252C139.555 61.0215 137.213 65.3762 133.145 67.1055C132.749 67.2614 132.109 67.2399 131.714 67.0607C129.643 66.0948 127.645 65.0393 125.771 64.0966Z" fill="black"/>
<path d="M128.064 22.2715C128.31 22.406 128.533 22.5619 129.273 22.9884C125.476 22.9884 122.171 22.9884 118.693 22.9884C119.138 22.0905 119.606 21.1712 120.026 20.2501C120.469 19.329 121.136 18.881 122.344 18.7914C128.804 18.3201 130.135 14.4134 129.987 9.99055C129.964 8.91352 129.791 7.8132 129.814 6.73438C129.865 3.5463 131.714 1.77395 135.215 1.99796C137.459 2.13236 139.827 2.49257 141.825 3.36709C147.421 5.83655 152.845 8.62142 158.345 11.2701C159.776 11.9654 159.134 12.6625 158.296 13.2449C156.101 14.727 153.513 15.356 150.85 15.3345C147.988 15.2879 145.128 14.8399 142.268 14.5711C141.675 14.5263 141.085 14.4582 140.368 14.6822C141.553 15.132 142.736 15.5585 143.87 15.985C141.38 19.5548 137.731 18.5889 134.154 17.9831C134.131 18.1391 134.081 18.2968 134.056 18.4312C134.894 18.7914 135.709 19.1498 136.745 19.5763C133.885 20.587 131.887 23.4615 128.212 21.7088C128.163 21.8898 128.114 22.0905 128.064 22.2715Z" fill="black"/>
<path d="M107.352 23.0566C107.745 22.5853 107.942 22.3613 108.115 22.1355C104.49 23.4168 102.468 20.6552 99.6084 19.5549C100.669 19.1499 101.508 18.8363 102.37 18.4994C102.396 18.3417 102.396 18.1858 102.419 18.0496C98.8191 18.4098 94.9475 19.7556 92.556 15.9851C93.6169 15.5801 94.7998 15.1536 95.9592 14.7271C89.4244 15.1984 82.7912 16.9959 77.0201 12.3473C77.2189 11.9888 77.2425 11.7863 77.3665 11.72C83.7025 7.96925 90.1389 4.37796 97.5122 2.51422C99.0416 2.13251 100.742 1.8852 102.295 2.0429C105.626 2.40132 107.031 4.67007 106.661 8.08215C106.464 9.85629 106.464 11.6967 106.759 13.4476C107.253 16.3436 109.645 18.2754 112.826 18.7019C115.932 19.1284 116.918 20.0262 117.487 23.0566C114.182 23.0566 110.877 23.0566 107.352 23.0566Z" fill="black"/>
<path d="M109.397 53.1847C108.411 53.7241 107.401 54.1955 106.513 54.8245C103.183 57.2043 103.454 60.6164 107.08 62.525C110.113 64.1181 113.491 64.6575 116.943 64.7023C120.789 64.7471 124.612 64.9048 128.139 66.6109C132.676 68.8115 135.068 73.1214 134.154 77.7234C133.983 78.6212 133.587 79.5209 133.07 80.2843C131.245 82.9329 130.259 83.1122 127.35 81.6534C126.462 81.2036 125.549 80.7771 124.439 80.261C124.982 80.037 125.352 79.8793 125.746 79.7216C127.324 79.0944 128.952 78.3972 129.076 76.6231C129.224 74.6931 128.533 72.9189 126.708 71.729C124.612 70.3598 122.171 70.0014 119.705 70.0229C115.489 70.0462 111.296 69.9781 107.277 68.6538C106.094 68.2721 104.909 67.8456 103.825 67.3062C97.3882 64.1181 95.9336 56.9122 100.595 51.7941C101.211 51.1203 101.705 50.9178 102.691 51.2547C104.86 51.9948 107.104 52.5342 109.397 53.1847Z" fill="black"/>
<mask id="mask2_45_1284" style="mask-type:luminance" maskUnits="userSpaceOnUse" x="39" y="12" width="47" height="13">
<path d="M39.3663 12.3867H85.661V24.7734H39.3663V12.3867Z" fill="white"/>
</mask>
<g mask="url(#mask2_45_1284)">
<path d="M39.3663 19.5766C51.7942 18.2075 63.7045 15.962 75.3943 12.5947C77.4885 16.367 81.5078 16.1645 85.6275 16.5014C84.8874 16.8383 84.419 17.0856 83.9013 17.2863C75.1463 20.4529 66.22 23.1016 56.8252 24.1571C52.2882 24.6732 47.7021 24.7861 43.3856 22.9887C41.7342 22.2719 40.4272 21.2826 39.3663 19.5766Z" fill="black"/>
</g>
<path d="M196.936 19.5552C194.272 22.4727 191.117 23.8651 187.442 24.2468C182.486 24.7629 177.652 23.8651 172.845 22.9225C165.348 21.4638 158.099 19.2631 150.602 16.5463C154.696 16.1431 158.74 16.4567 160.984 12.6396C172.574 15.8958 184.458 18.2309 196.936 19.5552Z" fill="black"/>
<path d="M127.003 45.3734C129.1 44.5867 131.418 43.9577 133.44 42.8807C137.682 40.68 138.15 35.4275 134.574 32.4186C132.997 31.0728 131.245 30.5549 129.149 31.3416C126.757 32.2394 124.439 31.9025 122.171 31.0047C119.803 30.0621 119.656 29.1642 121.457 27.5478C123.799 25.4367 126.535 25.0335 129.741 25.5263C134.304 26.2235 138.668 27.2557 141.504 30.8255C146.041 36.5045 144.98 44.8788 136.178 48.8984C135.831 49.0543 135.264 48.9647 134.894 48.8088C132.231 47.6852 129.594 46.5186 127.003 45.3734Z" fill="black"/>
<path d="M105.157 69.1035C107.055 69.7092 108.954 70.3149 111.074 70.9655C109.176 72.1787 107.893 73.6159 107.696 75.7037C107.572 77.1176 108.041 78.1731 109.324 78.8918C111.592 80.1713 114.107 80.5297 116.747 80.4634C119.829 80.3738 122.837 80.777 125.598 82.1694C131.491 85.1335 132.379 92.6763 127.301 96.2461C126.364 96.8966 125.598 97.031 124.563 96.4701C123.651 95.9755 122.614 95.73 121.431 95.3034C122.293 94.8769 123.083 94.54 123.799 94.1135C127.497 91.9577 127.423 87.7822 123.551 85.9184C122.293 85.3127 120.717 85.2231 119.262 85.0654C116.13 84.7052 112.849 84.8181 109.865 84.0547C101.976 82.035 99.8309 74.8722 105.157 69.1035Z" fill="black"/>
<path d="M94.1838 19.2844C84.9858 27.3666 60.5984 31.431 53.4968 25.8415C55.3942 25.5494 57.1204 25.2788 58.823 24.9867C68.7118 23.2144 78.3526 20.6768 87.4757 16.659C89.0051 15.9852 90.3849 16.3884 91.6427 17.3095C92.5068 17.9601 93.3453 18.6339 94.1838 19.2844Z" fill="black"/>
<path d="M141.799 19.5999C143.155 18.5677 144.069 17.8491 145.006 17.1753C146.238 16.2775 147.594 16.0749 149.025 16.704C159.579 21.2827 170.7 24.1571 182.264 25.7055C182.313 25.7055 182.339 25.7736 182.732 26.132C180.538 26.761 178.615 27.4348 176.593 27.8613C168.306 29.6355 160.539 27.6821 153.019 24.7629C149.245 23.2593 145.671 21.3956 141.799 19.5999Z" fill="black"/>
<path d="M133.07 23.0351C134.253 22.2932 134.969 21.8004 135.733 21.3506C138.002 20.0263 140.024 19.7109 142.661 21.1714C149.814 25.0996 157.483 28.0189 166.039 29.3199C164.116 30.8915 161.896 31.2965 159.603 31.4757C154.178 31.9022 149.123 30.7123 144.338 28.4902C140.64 26.8056 137.04 24.9652 133.07 23.0351Z" fill="black"/>
<path d="M102.764 23.1246C96.9689 26.1998 91.3474 29.5904 84.665 30.981C80.9409 31.7677 77.1696 31.947 73.4692 30.8914C72.4103 30.5993 71.4478 30.0617 69.944 29.456C79.4863 27.9292 87.5997 24.6282 95.3667 20.4527C95.9336 20.1606 96.8469 19.9366 97.3882 20.1373C99.2876 20.8344 101.112 21.7089 102.962 22.5404C102.888 22.7196 102.838 22.9221 102.764 23.1246Z" fill="black"/>
<path d="M108.017 84.6841C109.546 85.1787 110.952 85.65 112.357 86.098C108.708 90.5441 110.137 93.9777 116.105 95.3253C117.906 95.7303 119.78 95.8415 121.555 96.2913C126.659 97.5923 128.73 102.397 126.043 106.416C124.439 108.796 123.01 109.155 120.1 107.696C120.74 107.338 121.333 107.045 121.876 106.73C123.701 105.653 124.464 104.058 123.996 102.062C123.6 100.309 122.122 99.5689 120.419 99.2553C118.595 98.9184 116.721 98.9184 114.922 98.5367C110.753 97.6156 107.352 95.7967 106.216 91.6444C105.551 89.1284 106.513 86.951 108.017 84.6841Z" fill="black"/>
<mask id="mask3_45_1284" style="mask-type:luminance" maskUnits="userSpaceOnUse" x="109" y="98" width="16" height="28">
<path d="M109.344 98.6353H124.46V125.59H109.344V98.6353Z" fill="white"/>
</mask>
<g mask="url(#mask3_45_1284)">
<path d="M114.552 99.6586C111.519 102.196 111.889 105.295 115.44 107.046C116.648 107.628 118.004 107.965 119.262 108.436C123.157 109.873 124.834 113.017 123.701 116.655C123.01 118.877 121.48 120.088 118.794 120.088C118.644 122.02 118.522 123.884 118.374 125.769C118.25 125.769 118.126 125.769 118.004 125.769C117.929 124.893 117.855 124.018 117.782 123.142C117.634 121.593 117.855 120.178 115.39 119.527C112.8 118.832 111.889 114.52 113.318 111.85C113.639 111.266 114.083 110.75 114.552 110.097C115.217 110.368 115.833 110.637 116.475 110.906C113.17 114.567 113.615 118.54 117.386 119.506C117.386 118.158 117.412 116.81 117.386 115.465C117.363 114.162 117.264 112.859 117.189 111.468C117.855 111.468 118.374 111.468 118.843 111.468C118.916 111.535 118.99 111.579 118.99 111.624C118.99 114.251 118.99 116.855 118.99 119.551C120.691 119.348 121.677 118.45 122.073 117.103C122.614 115.239 122.663 113.285 120.963 111.895C119.951 111.063 118.522 110.637 117.264 110.053C115.365 109.178 113.219 108.572 111.617 107.359C109.472 105.743 109.176 103.273 109.816 100.872C110.483 98.3558 111.001 98.2662 114.552 99.6586Z" fill="black"/>
</g>
<path d="M118.225 10.5069C115.168 10.5069 112.528 8.08224 112.479 5.27587C112.456 2.35661 115.093 -0.0680524 118.274 -0.0447554C121.382 -0.0447554 123.97 2.3118 124.019 5.16297C124.069 8.01414 121.356 10.5069 118.225 10.5069Z" fill="black"/>
<path d="M120.593 44.4072C118.916 44.4072 117.683 44.4072 116.105 44.4072C116.105 43.375 116.105 42.3642 116.105 41.3768C116.105 39.7371 116.229 38.0991 116.079 36.4594C115.81 33.6315 116.548 31.0725 118.225 28.6245C122.047 33.4971 119.73 39.0185 120.593 44.4072Z" fill="black"/>
<path d="M117.585 13.6269C116.03 13.0445 114.428 12.5284 114.255 10.7095C116.943 10.7095 119.532 10.7095 122.096 10.7095C122.047 12.1467 121.998 12.213 118.965 13.7398C121.333 15.0194 121.087 17.7361 118.349 21.2378C115.562 18.5211 115.243 15.4459 117.585 13.6269Z" fill="black"/>
<path d="M120.026 63.6918C119.089 63.6918 118.325 63.6918 117.559 63.6918C117.215 63.6918 116.869 63.6255 116.351 63.5807C116.351 60.1453 116.351 56.778 116.351 53.2979C117.487 53.2979 118.719 53.2979 120.049 53.2979C120.026 56.7099 120.026 60.0772 120.026 63.6918Z" fill="black"/>
<path d="M124.242 24.3149C126.905 24.0228 129.568 23.6858 132.231 23.4618C132.651 23.417 133.119 23.7307 133.538 23.9332C138.742 26.4241 143.919 28.9169 149.592 31.6551C147.57 31.8576 145.868 32.105 144.167 32.1713C143.821 32.1946 143.352 31.6336 143.057 31.2734C138.668 25.9528 132.749 24.1339 125.696 24.8758C125.228 24.9206 124.736 24.831 124.267 24.8077C124.242 24.607 124.242 24.4493 124.242 24.3149Z" fill="black"/>
<path d="M112.184 24.6963C111.863 24.7411 111.542 24.8307 111.221 24.7859C103.775 24.0888 97.5378 26.0655 92.926 31.6334C92.68 31.9255 92.1367 32.171 91.7667 32.1495C90.2373 32.0366 88.7099 31.8341 87.1549 31.3413C91.495 29.3199 95.8844 27.4113 100.126 25.2788C102.665 23.9992 105.082 23.1462 108.017 23.8881C109.348 24.225 110.804 24.1336 112.21 24.225C112.21 24.3809 112.21 24.5386 112.184 24.6963Z" fill="black"/>
<path d="M116.573 71.0571C117.683 71.0571 118.693 71.0571 119.754 71.0571C119.754 74.0875 119.754 77.005 119.754 80.0587C118.644 80.0587 117.683 80.0587 116.573 80.0587C116.573 77.0731 116.573 74.1538 116.573 71.0571Z" fill="black"/>
<path d="M116.869 85.4238C117.782 85.4238 118.595 85.4238 119.482 85.4238C119.482 88.2983 119.557 91.1262 119.384 93.9325C119.36 94.2927 117.979 94.5615 116.869 95.0114C116.869 91.5312 116.869 88.5671 116.869 85.4238Z" fill="black"/>
<path d="M119.187 107.156C118.349 107.156 117.855 107.156 117.215 107.156C117.091 104.755 116.993 102.441 116.869 99.9717C117.658 99.9717 118.374 99.9717 119.187 99.9717C119.187 102.307 119.187 104.665 119.187 107.156Z" fill="black"/>
<path d="M118.99 23.6855C120.569 24.1121 122.122 24.5386 123.996 25.0547C122.22 26.3575 120.913 27.3216 119.236 28.5797C118.941 27.008 118.693 25.6156 118.447 24.2017C118.62 24.0225 118.817 23.8432 118.99 23.6855Z" fill="black"/>
<path d="M118.103 23.5728C117.782 25.415 117.585 26.6497 117.363 28.0637C115.833 26.9848 114.575 26.087 112.826 24.8308C114.625 24.4043 116.079 24.0441 118.103 23.5728Z" fill="black"/>
<mask id="mask4_45_1284" style="mask-type:luminance" maskUnits="userSpaceOnUse" x="3" y="99" width="239" height="20">
<path d="M3.02332 99.1367H241.866V118.695H3.02332V99.1367Z" fill="white"/>
</mask>
<g mask="url(#mask4_45_1284)">
<path d="M142.522 113.787C124.539 114.264 106.557 114.738 88.576 115.213C84.724 115.316 80.8701 115.38 77.0181 115.513C85.3499 114.907 93.6897 114.45 102.035 114.142C115.524 113.645 129.027 113.523 142.522 113.787ZM240.807 100.536C210.186 99.411 179.555 99.2013 148.924 100.004C118.199 100.809 87.4344 102.379 56.8192 105.178C39.0552 106.801 21.3247 108.601 3.65709 111.067C2.92487 111.169 3.54292 111.851 4.03107 111.814C19.4252 110.597 34.7978 109.099 50.1998 107.957C65.4424 106.828 80.6968 105.857 95.9591 105.115C125.311 103.69 154.701 103.106 184.084 103.294C178.39 103.649 172.694 104.018 166.998 104.4C142.423 106.042 117.874 108.081 93.3629 110.507C79.6005 111.869 65.8518 113.362 52.115 114.973C50.9222 115.113 49.5601 118.05 51.2155 117.867C54.4159 117.514 57.6184 117.185 60.8228 116.878C60.6634 117.025 60.5236 117.195 60.4173 117.385C60.2008 117.778 60.0827 118.629 60.7834 118.609C64.7004 118.504 68.6488 118.694 72.5717 118.661C76.5181 118.629 80.4607 118.479 84.4052 118.367C92.2784 118.149 100.15 117.93 108.023 117.712C124.021 117.267 140.018 116.826 156.018 116.384C164.834 116.14 173.65 115.894 182.468 115.652C183.508 115.624 184.97 112.805 183.606 112.706C166.572 111.461 149.495 110.814 132.412 110.767C129.503 110.758 126.594 110.771 123.683 110.798C124.076 110.765 124.47 110.731 124.864 110.699C149.43 108.717 174.02 107.149 198.642 106.029C212.464 105.402 226.295 104.92 240.126 104.465C241.496 104.418 242.23 100.588 240.807 100.536Z" fill="black"/>
</g>
<mask id="mask5_45_1284" style="mask-type:luminance" maskUnits="userSpaceOnUse" x="0" y="98" width="239" height="20">
<path d="M0.503906 98.1763H238.843V117.4H0.503906V98.1763Z" fill="white"/>
</mask>
<g mask="url(#mask5_45_1284)">
<path d="M139.724 112.49C121.742 112.966 103.759 113.443 85.7789 113.918C81.927 114.018 78.073 114.083 74.221 114.215C82.5529 113.61 90.8926 113.153 99.2383 112.844C112.727 112.348 126.23 112.228 139.724 112.49ZM238.01 99.239C207.389 98.1136 176.758 97.904 146.127 98.7068C115.402 99.5114 84.6373 101.081 54.0222 103.88C36.2582 105.504 18.5276 107.305 0.860028 109.769C0.127816 109.871 0.745866 110.554 1.23401 110.518C16.6282 109.301 32.0007 107.803 47.4047 106.66C62.6454 105.531 77.8998 104.56 93.1621 103.818C122.514 102.393 151.904 101.811 181.289 101.999C175.593 102.352 169.897 102.721 164.2 103.103C139.626 104.746 115.077 106.784 90.5659 109.21C76.8034 110.574 63.0548 112.065 49.3179 113.676C48.1271 113.817 46.7631 116.755 48.4184 116.57C51.6189 116.219 54.8213 115.887 58.0277 115.581C57.8663 115.728 57.7266 115.898 57.6203 116.088C57.4038 116.48 57.2857 117.332 57.9864 117.314C61.9033 117.206 65.8517 117.396 69.7746 117.364C73.7211 117.332 77.6656 117.181 81.6081 117.07C89.4813 116.851 97.3526 116.633 105.226 116.414C121.224 115.972 137.223 115.529 153.221 115.086C162.037 114.843 170.853 114.599 179.671 114.355C180.711 114.326 182.173 111.509 180.811 111.409C163.775 110.163 146.698 109.518 129.615 109.47C126.706 109.461 123.797 109.473 120.886 109.5C121.279 109.468 121.673 109.434 122.067 109.402C146.633 107.422 171.223 105.852 195.845 104.732C209.667 104.104 223.498 103.622 237.329 103.167C238.699 103.122 239.433 99.291 238.01 99.239Z" fill="#00909A"/>
</g>
<path d="M49.1361 73.8971C50.9253 74.0118 52.5609 74.4526 54.0411 75.216C55.5213 75.9812 56.6963 77.0224 57.5683 78.3414C58.4383 79.6568 58.8123 81.1728 58.6863 82.8932L50.8997 90.7496C50.132 91.5435 49.14 92.289 47.9236 92.9861C46.7052 93.685 45.4789 94.0757 44.2468 94.1617C43.4437 94.2244 42.6131 94.1653 41.7588 93.9825C40.9026 93.7961 40.0051 93.6312 39.0662 93.4879C38.1312 93.3409 37.1648 93.3338 36.1688 93.4664C35.1709 93.5954 34.1631 94.0022 33.1455 94.685L32.8778 94.9789L31.374 93.9825C31.7519 93.3194 32.0767 92.6187 32.3503 91.8822C32.6219 91.1421 32.7302 90.2532 32.6731 89.2156L31.1693 71.8326C31.0118 70.442 30.5729 69.5746 29.8545 69.2305C29.136 68.8829 28.079 69.1875 26.6815 70.1481L25.7131 68.7933L34.1375 61.2595C35.7476 61.6286 36.84 62.3275 37.4128 63.3598C37.9895 64.392 38.3694 65.5891 38.5544 66.951L46.8056 60.3491C48.0751 60.2595 49.2778 60.4638 50.4115 60.9656C51.5492 61.4638 52.5255 62.1555 53.3404 63.0443C54.1533 63.9332 54.7182 64.9332 55.0331 66.0407C55.3481 67.1446 55.3185 68.261 54.9465 69.3882L49.1361 73.8971ZM43.4201 74.7214C45.3825 72.9867 46.593 71.4778 47.0496 70.1911C47.5102 68.9008 47.3508 67.9116 46.5694 67.2234C45.7919 66.5317 44.5007 66.2486 42.6957 66.3776L38.8142 69.3166L39.5622 77.9758L43.4201 74.7214ZM51.6398 87.0293C52.1121 86.2892 52.2106 85.5168 51.9389 84.7139C51.6712 83.9075 51.1437 83.1566 50.3564 82.4631C49.573 81.766 48.6085 81.1908 47.4591 80.7356C46.3135 80.2822 45.0833 80.0295 43.7665 79.9757C42.4536 79.9184 41.129 80.137 39.7905 80.628L40.2865 86.2838C41.5561 86.2229 42.7587 86.3591 43.8925 86.6924C45.0302 87.0221 46.093 87.3501 47.0811 87.6744C48.0673 88.0006 48.9471 88.1583 49.7187 88.1475C50.4903 88.1386 51.13 87.7658 51.6398 87.0293Z" fill="black"/>
<path d="M60.3627 89.5862L64.3623 86.0308L67.4959 89.3855L63.4963 92.9481L60.3627 89.5862Z" fill="black"/>
<path d="M76.9701 65.2298C77.3107 66.1007 77.9858 66.9537 78.9936 67.7888C80.0053 68.6203 81.1981 69.4375 82.568 70.2404C83.9419 71.0396 85.363 71.8317 86.8275 72.6202C88.2919 73.4051 89.6579 74.2026 90.9294 75.0144C92.2049 75.8226 93.2461 76.6398 94.0551 77.466C94.868 78.2885 95.2932 79.1397 95.3306 80.0178C95.3778 80.9981 95.0727 82.0357 94.4173 83.1289C93.7599 84.2184 92.8525 85.2973 91.6931 86.3617C90.5318 87.428 89.2327 88.4083 87.7959 89.3007C86.357 90.195 84.871 90.9136 83.3396 91.4584C81.8122 92.0032 80.3438 92.3024 78.9385 92.3544C77.8303 92.3938 76.6749 92.3078 75.4742 92.0963C74.2716 91.8813 73.1398 91.5354 72.0809 91.0569C71.0258 90.5749 70.1539 89.9656 69.4669 89.229C68.7839 88.4943 68.4198 87.6216 68.3726 86.6126L75.4112 80.0752L76.9623 80.835C76.4899 81.4999 76.4426 82.1235 76.8206 82.7059C77.1985 83.2848 77.8756 83.8152 78.8519 84.2973C79.8281 84.7811 80.9855 85.1897 82.324 85.5231C83.6624 85.8528 85.056 86.1001 86.5047 86.2614C86.6464 85.6736 86.7212 85.1127 86.733 84.5769C86.7428 84.0428 86.6385 83.5357 86.4181 83.0572C85.8394 82.1307 84.9182 81.2651 83.6545 80.4623C82.3948 79.6559 80.9934 78.8745 79.4502 78.1183C77.9071 77.3638 76.4052 76.6255 74.9467 75.9033C73.4921 75.1775 72.2698 74.4195 71.2778 73.6309C70.2897 72.8424 69.7445 72.0288 69.6402 71.1866C69.5299 70.1508 69.7996 69.063 70.4511 67.925C71.1065 66.7835 71.9628 65.6814 73.0178 64.6205C74.0767 63.556 75.1514 62.5918 76.2379 61.7317C77.3244 60.8715 78.2397 60.1905 78.9857 59.6887C79.7356 59.1869 80.1116 58.936 80.1116 58.936C80.7611 58.635 81.6193 58.4271 82.6861 58.3124C83.7569 58.1941 84.9143 58.1655 86.1582 58.2264C87.4022 58.2891 88.5989 58.4522 89.7484 58.7138C90.8979 58.9773 91.9018 59.3285 92.7639 59.7676C93.624 60.2084 94.2008 60.7424 94.496 61.3732L86.6621 69.545L85.1111 68.5415C85.6504 67.9447 85.7252 67.3784 85.3315 66.8426C84.9418 66.3086 84.2785 65.8677 83.3396 65.5237C82.3988 65.176 81.3496 64.9627 80.1903 64.8857C79.0349 64.805 77.9622 64.9197 76.9701 65.2298Z" fill="black"/>
<path d="M96.0982 88.1432L100.232 84.7168L103.239 88.1791L99.0979 91.6055L96.0982 88.1432Z" fill="black"/>
<path d="M135.114 66.0048C135.921 67.9259 136.234 70.0692 136.051 72.4347C135.872 74.8002 135.148 77.1944 133.878 79.6173C132.613 82.0402 130.707 84.3394 128.162 86.5131C126.588 87.7945 124.921 88.9253 123.163 89.9037C121.409 90.8786 119.644 91.3696 117.864 91.3732C116.929 91.3732 116.008 91.2514 115.101 91.0076C114.197 90.7639 113.294 90.5453 112.392 90.3482C111.489 90.1528 110.601 90.1009 109.731 90.1905C108.859 90.2819 107.987 90.6779 107.117 91.3804L105.913 90.3338C106.348 89.7281 106.712 89.126 107.007 88.5274C107.306 87.9307 107.473 87.1135 107.511 86.0759L107.432 68.2341C107.363 66.8292 107.009 65.9313 106.369 65.5389C105.733 65.1428 104.678 65.3579 103.204 66.184L102.354 64.7647L111.337 57.8473C112.912 58.3312 113.951 59.1072 114.455 60.177C114.963 61.2433 115.25 62.4476 115.313 63.7898L122.942 57.833C124.553 57.919 126.163 58.3133 127.769 59.0158C129.375 59.7183 130.831 60.6645 132.138 61.8544C133.449 63.0407 134.441 64.4242 135.114 66.0048ZM126.8 84.4989C127.572 83.7677 128.08 82.7695 128.328 81.5025C128.58 80.2374 128.619 78.8342 128.446 77.2948C128.277 75.7518 127.914 74.2035 127.359 72.6498C126.808 71.0925 126.119 69.6588 125.297 68.3488C124.472 67.0406 123.521 65.9905 122.446 65.202C121.376 64.4099 120.238 64.012 119.037 64.012L115.321 66.8076L115.4 83.782C116.638 83.7211 117.778 83.8394 118.817 84.1405C119.856 84.4415 120.819 84.7533 121.706 85.0723C122.592 85.3931 123.454 85.5454 124.289 85.5311C125.127 85.5132 125.966 85.1691 126.8 84.4989Z" fill="black"/>
<path d="M137.731 87.9616L142.022 84.6929L144.856 88.2698L140.565 91.5314L137.731 87.9616Z" fill="black"/>
<path d="M162.007 58.5586C164.149 58.6357 166.072 59.1016 167.778 59.9564C169.489 60.813 170.951 61.942 172.164 63.347C173.376 64.7484 174.297 66.2985 174.927 67.9992C175.557 69.6963 175.85 71.4381 175.809 73.2248C175.766 75.0133 175.356 76.7229 174.581 78.3573C173.803 79.9881 172.616 81.4325 171.022 82.6941L157.299 91.9483C156.008 91.5038 154.713 90.7637 153.417 89.7261C152.12 88.6849 150.933 87.4448 149.859 86.0058C148.782 84.5632 147.884 83.0131 147.166 81.3536C146.452 79.6906 146.013 78.0042 145.851 76.2928C145.694 74.5778 145.891 72.9291 146.442 71.3467C146.997 69.7608 148.008 68.3558 149.473 67.1318L162.007 58.5586ZM164.723 84.2496C165.511 83.0883 166.038 81.712 166.306 80.1207C166.578 78.5293 166.583 76.8914 166.322 75.2033C166.058 73.5115 165.53 71.9274 164.739 70.4507C163.946 68.9705 162.875 67.7555 161.527 66.8092C160.177 65.8595 158.547 65.3505 156.638 65.2824C155.771 66.0476 155.175 67.0422 154.85 68.2644C154.524 69.4884 154.449 70.8055 154.622 72.2141C154.799 73.6244 155.177 75.0276 155.756 76.4219C156.332 77.8125 157.073 79.0884 157.976 80.2497C158.883 81.411 159.907 82.3572 161.047 83.0883C162.19 83.8195 163.416 84.2066 164.723 84.2496Z" fill="black"/>
<path d="M176.109 89.2136L180.534 86.1025L183.211 89.7727L178.786 92.8765L176.109 89.2136Z" fill="black"/>
<path d="M195.397 64.6085C196.83 63.5763 198.092 62.786 199.184 62.2359C200.275 61.6875 201.322 61.3219 202.326 61.1391C203.333 60.9527 204.388 60.899 205.491 60.9742C206.798 61.071 207.841 61.4294 208.624 62.0495C209.411 62.6713 210.061 63.3828 210.577 64.1856C211.096 64.9885 211.584 65.7447 212.041 66.4508C212.502 67.1533 213.057 67.6676 213.702 67.992C214.348 68.3127 215.208 68.2679 216.285 67.8558L217.159 69.3826L209.089 73.619C208.132 73.7337 207.288 73.5832 206.553 73.1674C205.817 72.7481 205.162 72.189 204.585 71.4901C204.006 70.7876 203.446 70.0672 202.9 69.3253C202.359 68.5798 201.81 67.9274 201.255 67.3683C200.698 66.8092 200.091 66.4544 199.436 66.3003C198.779 66.1479 198.005 66.3289 197.113 66.845C195.779 67.5726 194.787 68.9525 194.137 70.9883C193.492 73.0241 193.48 75.4881 194.106 78.3787C194.437 79.5938 194.974 80.8446 195.72 82.1349C196.464 83.4252 197.389 84.5864 198.491 85.6187C199.597 86.6473 200.861 87.4179 202.278 87.934C203.695 88.4465 205.239 88.5487 206.908 88.2422C208.581 87.9376 210.352 87.0702 212.222 85.6402L213.482 86.8301C211.838 88.3068 210.262 89.6185 208.75 90.7655C207.242 91.9088 205.648 92.7851 203.963 93.3962C202.282 94.0127 200.357 94.2421 198.184 94.0844C195.98 93.9267 193.984 93.2851 192.201 92.1633C190.421 91.0414 188.925 89.5182 187.713 87.5971C186.5 85.676 185.67 83.4108 185.225 80.8016C185.056 78.9056 185.241 77.1655 185.776 75.5831C186.315 73.9972 187.099 72.5366 188.122 71.2033C189.146 69.87 190.291 68.6622 191.563 67.5762C192.832 66.4866 194.11 65.4974 195.397 64.6085Z" fill="black"/>
<path d="M47.1575 72.6002C48.9467 72.7149 50.5823 73.1557 52.0625 73.9192C53.5427 74.6844 54.7178 75.7255 55.5897 77.0445C56.4597 78.3599 56.8337 79.876 56.7077 81.5963L48.9211 89.4527C48.1534 90.2466 47.1614 90.9921 45.945 91.6892C44.7266 92.3881 43.5004 92.7788 42.2682 92.8648C41.4651 92.9275 40.6345 92.8684 39.7802 92.6856C38.924 92.4992 38.0265 92.3344 37.0876 92.191C36.1526 92.0441 35.1862 92.0369 34.1902 92.1695C33.1923 92.2985 32.1845 92.7053 31.1669 93.3881L30.8992 93.682L29.3954 92.6856C29.7733 92.0226 30.0981 91.3219 30.3717 90.5853C30.6433 89.8452 30.7516 88.9563 30.6945 87.9187L29.1907 70.5357C29.0333 69.1451 28.5943 68.2777 27.8759 67.9337C27.1575 67.586 26.1005 67.8907 24.703 68.8512L23.7346 67.4964L32.1589 59.9626C33.769 60.3317 34.8614 61.0306 35.4342 62.0629C36.0109 63.0951 36.3908 64.2922 36.5758 65.6542L44.827 59.0522C46.0966 58.9626 47.2992 59.1669 48.4329 59.6687C49.5706 60.1669 50.5469 60.8586 51.3618 61.7475C52.1747 62.6363 52.7396 63.6363 53.0545 64.7438C53.3695 65.8477 53.34 66.9642 52.9679 68.0914L47.1575 72.6002ZM41.4415 73.4245C43.4039 71.6898 44.6144 70.1809 45.0711 68.8942C45.5317 67.6039 45.3722 66.6147 44.5908 65.9266C43.8133 65.2348 42.5221 64.9517 40.7172 65.0807L36.8356 68.0197L37.5836 76.6789L41.4415 73.4245ZM49.6612 85.7324C50.1336 84.9923 50.232 84.2199 49.9604 83.4171C49.6927 82.6106 49.1652 81.8598 48.3778 81.1662C47.5944 80.4691 46.63 79.8939 45.4805 79.4387C44.3349 78.9853 43.1047 78.7326 41.7879 78.6789C40.4751 78.6215 39.1504 78.8402 37.8119 79.3312L38.3079 84.9869C39.5775 84.926 40.7801 85.0622 41.9139 85.3955C43.0516 85.7252 44.1145 86.0532 45.1026 86.3776C46.0887 86.7037 46.9685 86.8614 47.7401 86.8507C48.5117 86.8417 49.1514 86.469 49.6612 85.7324Z" fill="#00909A"/>
<path d="M58.3842 88.2893L62.3838 84.7339L65.5173 88.0886L61.5177 91.6512L58.3842 88.2893Z" fill="#00909A"/>
<path d="M74.9916 63.9329C75.3321 64.8038 76.0072 65.6568 77.015 66.4919C78.0267 67.3235 79.2195 68.1406 80.5895 68.9435C81.9633 69.7427 83.3845 70.5348 84.8489 71.3233C86.3133 72.1083 87.6793 72.9057 88.9508 73.7175C90.2263 74.5258 91.2675 75.3429 92.0765 76.1691C92.8894 76.9916 93.3146 77.8429 93.352 78.721C93.3992 79.7012 93.0941 80.7388 92.4387 81.832C91.7813 82.9216 90.8739 84.0004 89.7146 85.0649C88.5532 86.1311 87.2542 87.1114 85.8173 88.0038C84.3785 88.8981 82.8924 89.6167 81.361 90.1615C79.8336 90.7063 78.3653 91.0056 76.9599 91.0575C75.8517 91.0969 74.6963 91.0109 73.4957 90.7995C72.293 90.5844 71.1612 90.2385 70.1023 89.7601C69.0473 89.278 68.1753 88.6687 67.4884 87.9322C66.8054 87.1974 66.4412 86.3247 66.394 85.3158L73.4327 78.7783L74.9837 79.5382C74.5113 80.203 74.4641 80.8266 74.842 81.4091C75.2199 81.9879 75.897 82.5184 76.8733 83.0004C77.8496 83.4843 79.0069 83.8929 80.3454 84.2262C81.6838 84.5559 83.0774 84.8032 84.5261 84.9645C84.6678 84.3767 84.7426 83.8158 84.7544 83.28C84.7642 82.7459 84.6599 82.2388 84.4395 81.7603C83.8608 80.8338 82.9396 79.9682 81.676 79.1654C80.4162 78.359 79.0148 77.5776 77.4716 76.8214C75.9285 76.0669 74.4267 75.3286 72.9681 74.6064C71.5136 73.8806 70.2912 73.1226 69.2992 72.3341C68.3111 71.5456 67.7659 70.732 67.6616 69.8897C67.5513 68.8539 67.821 67.7661 68.4725 66.6281C69.128 65.4866 69.9842 64.3845 71.0392 63.3236C72.0982 62.2591 73.1729 61.295 74.2594 60.4348C75.3459 59.5746 76.2611 58.8936 77.0071 58.3918C77.7571 57.8901 78.133 57.6392 78.133 57.6392C78.7825 57.3381 79.6407 57.1302 80.7076 57.0155C81.7783 56.8973 82.9357 56.8686 84.1797 56.9295C85.4236 56.9922 86.6204 57.1553 87.7699 57.417C88.9194 57.6804 89.9232 58.0316 90.7853 58.4707C91.6455 58.9115 92.2222 59.4456 92.5174 60.0764L84.6835 68.2482L83.1325 67.2446C83.6718 66.6479 83.7466 66.0816 83.353 65.5457C82.9632 65.0117 82.2999 64.5709 81.361 64.2268C80.4202 63.8791 79.3711 63.6659 78.2117 63.5888C77.0563 63.5082 75.9836 63.6229 74.9916 63.9329Z" fill="#00909A"/>
<path d="M94.1196 86.8463L98.2531 83.4199L101.261 86.8822L97.1193 90.3086L94.1196 86.8463Z" fill="#00909A"/>
<path d="M133.136 64.7079C133.943 66.629 134.256 68.7723 134.073 71.1378C133.894 73.5034 133.169 75.8976 131.9 78.3204C130.634 80.7433 128.729 83.0425 126.184 85.2163C124.609 86.4976 122.942 87.6284 121.184 88.6069C119.431 89.5817 117.665 90.0728 115.886 90.0763C114.951 90.0763 114.029 89.9545 113.122 89.7108C112.219 89.467 111.315 89.2484 110.414 89.0513C109.51 88.8559 108.623 88.804 107.753 88.8936C106.881 88.985 106.009 89.381 105.139 90.0835L103.934 89.0369C104.369 88.4312 104.733 87.8291 105.028 87.2306C105.328 86.6338 105.495 85.8166 105.532 84.779L105.454 66.9373C105.385 65.5323 105.03 64.6345 104.391 64.242C103.755 63.8459 102.7 64.061 101.226 64.8871L100.375 63.4678L109.359 56.5505C110.933 57.0343 111.973 57.8103 112.476 58.8801C112.984 59.9464 113.272 61.1507 113.335 62.4929L120.964 56.5361C122.574 56.6222 124.184 57.0164 125.79 57.7189C127.396 58.4214 128.853 59.3676 130.16 60.5575C131.471 61.7439 132.463 63.1273 133.136 64.7079ZM124.822 83.202C125.593 82.4708 126.101 81.4727 126.349 80.2057C126.601 78.9405 126.64 77.5373 126.467 75.9979C126.298 74.4549 125.936 72.9066 125.381 71.3529C124.83 69.7956 124.141 68.3619 123.318 67.0519C122.493 65.7437 121.543 64.6936 120.468 63.9051C119.397 63.113 118.259 62.7152 117.059 62.7152L113.343 65.5108L113.421 82.4852C114.659 82.4242 115.799 82.5425 116.838 82.8436C117.878 83.1447 118.84 83.4565 119.728 83.7755C120.613 84.0962 121.476 84.2486 122.31 84.2342C123.149 84.2163 123.987 83.8722 124.822 83.202Z" fill="#00909A"/>
<path d="M135.753 86.6647L140.043 83.396L142.878 86.9729L138.587 90.2345L135.753 86.6647Z" fill="#00909A"/>
<path d="M160.029 57.2617C162.17 57.3388 164.093 57.8047 165.8 58.6595C167.51 59.5161 168.973 60.6451 170.185 62.0501C171.398 63.4515 172.319 65.0016 172.949 66.7023C173.578 68.3994 173.872 70.1413 173.83 71.9279C173.787 73.7164 173.378 75.426 172.602 77.0604C171.825 78.6912 170.638 80.1356 169.043 81.3972L155.32 90.6514C154.029 90.207 152.734 89.4668 151.439 88.4292C150.142 87.3881 148.955 86.1479 147.88 84.7089C146.803 83.2663 145.906 81.7162 145.188 80.0567C144.473 78.3937 144.034 76.7074 143.873 74.996C143.715 73.281 143.912 71.6323 144.463 70.0499C145.018 68.4639 146.03 67.0589 147.494 65.8349L160.029 57.2617ZM162.745 82.9527C163.532 81.7914 164.06 80.4151 164.327 78.8238C164.599 77.2324 164.605 75.5945 164.343 73.9064C164.079 72.2147 163.552 70.6305 162.761 69.1538C161.967 67.6736 160.897 66.4586 159.548 65.5124C158.198 64.5626 156.568 64.0536 154.659 63.9855C153.793 64.7507 153.197 65.7453 152.872 66.9675C152.545 68.1915 152.47 69.5087 152.643 70.9172C152.821 72.3276 153.199 73.7308 153.777 75.125C154.354 76.5156 155.094 77.7916 155.997 78.9528C156.905 80.1141 157.928 81.0603 159.068 81.7914C160.212 82.5226 161.438 82.9097 162.745 82.9527Z" fill="#00909A"/>
<path d="M174.131 87.9167L178.555 84.8057L181.232 88.4758L176.808 91.5797L174.131 87.9167Z" fill="#00909A"/>
<path d="M193.418 63.3117C194.851 62.2794 196.113 61.4891 197.206 60.939C198.296 60.3906 199.343 60.025 200.347 59.8422C201.355 59.6559 202.41 59.6021 203.512 59.6774C204.819 59.7741 205.862 60.1326 206.646 60.7526C207.433 61.3745 208.082 62.0859 208.598 62.8887C209.118 63.6916 209.606 64.4478 210.063 65.1539C210.523 65.8564 211.078 66.3707 211.724 66.6951C212.369 67.0159 213.23 66.9711 214.306 66.5589L215.18 68.0857L207.11 72.3222C206.153 72.4368 205.309 72.2863 204.575 71.8706C203.839 71.4512 203.183 70.8921 202.607 70.1932C202.028 69.4907 201.467 68.7703 200.922 68.0284C200.38 67.2829 199.831 66.6306 199.276 66.0714C198.719 65.5123 198.113 65.1575 197.457 65.0034C196.8 64.8511 196.027 65.032 195.135 65.5482C193.8 66.2757 192.808 67.6556 192.159 69.6914C191.513 71.7272 191.501 74.1913 192.127 77.0819C192.458 78.2969 192.995 79.5477 193.741 80.838C194.485 82.1283 195.41 83.2896 196.513 84.3218C197.619 85.3504 198.883 86.121 200.3 86.6371C201.717 87.1497 203.26 87.2518 204.929 86.9454C206.602 86.6407 208.374 85.7734 210.244 84.3433L211.503 85.5332C209.86 87.0099 208.283 88.3217 206.772 89.4686C205.264 90.6119 203.669 91.4882 201.985 92.0993C200.304 92.7158 198.379 92.9452 196.206 92.7875C194.001 92.6298 192.005 91.9882 190.222 90.8664C188.443 89.7446 186.947 88.2213 185.734 86.3002C184.522 84.3791 183.691 82.114 183.246 79.5047C183.077 77.6087 183.262 75.8686 183.797 74.2863C184.337 72.7003 185.12 71.2397 186.144 69.9065C187.167 68.5732 188.313 67.3653 189.584 66.2793C190.854 65.1898 192.131 64.2005 193.418 63.3117Z" fill="#00909A"/>
</g>
<defs>
<clipPath id="clip0_45_1284">
<rect width="243" height="126.276" fill="white"/>
</clipPath>
</defs>
</svg>
