<?xml version="1.0" encoding="utf-8"?>
<!-- Generator: Adobe Illustrator 27.5.0, SVG Export Plug-In . SVG Version: 6.00 Build 0)  -->
<svg version="1.1" xmlns="http://www.w3.org/2000/svg" xmlns:xlink="http://www.w3.org/1999/xlink" x="0px" y="0px"
	 viewBox="0 0 500 500" style="enable-background:new 0 0 500 500;" xml:space="preserve">
<g id="Floor">
	<ellipse id="Floor_6_" style="fill:#F0F0F0;" cx="250" cy="341.528" rx="238.147" ry="137.494"/>
</g>
<g id="Shadows">
	<ellipse id="Shadow_8_" style="fill:#E0E0E0;" cx="106.147" cy="328.294" rx="74.657" ry="41.336"/>
	<path id="Shadow_7_" style="fill:#E0E0E0;" d="M60.501,396.496l117.014,67.53c1.064,0.615,2.791,0.615,3.855,0L388.275,344.57
		c1.065-0.615,1.065-1.611,0-2.226l-117.014-67.53c-1.065-0.615-2.791-0.615-3.856,0L60.501,394.271
		C59.436,394.885,59.436,395.882,60.501,396.496z"/>
	<ellipse id="Shadow_6_" style="fill:#E0E0E0;" cx="384.73" cy="393.4" rx="63.826" ry="36.85"/>
</g>
<g id="Chair_1_">
	<g id="Chair">
		<g id="XMLID_1192_">
			<g id="XMLID_5579_">
				<path id="XMLID_5580_" style="fill:#455A64;" d="M113.286,362.135c-0.918,0-1.661-0.743-1.661-1.661V253.702
					c0-0.918,0.743-1.661,1.661-1.661c0.918,0,1.661,0.743,1.661,1.661v106.772C114.947,361.393,114.204,362.135,113.286,362.135z"
					/>
			</g>
			<g id="XMLID_1244_">
				<path id="XMLID_5578_" style="fill:#455A64;" d="M179.347,323.272c-0.662,0-1.286-0.397-1.544-1.051l-32.741-82.871
					c-0.337-0.853,0.081-1.818,0.934-2.154c0.85-0.341,1.816,0.079,2.154,0.934l32.741,82.87c0.337,0.853-0.081,1.818-0.934,2.154
					C179.757,323.234,179.55,323.272,179.347,323.272z"/>
			</g>
			<g id="XMLID_1241_">
				<path id="XMLID_1243_" style="fill:#455A64;" d="M175.414,313.318c-0.441,0-0.881-0.175-1.207-0.521l-60.923-64.469
					l-60.813,64.196c-0.631,0.668-1.682,0.696-2.347,0.063c-0.667-0.631-0.694-1.682-0.063-2.347l62.02-65.471
					c0.313-0.331,0.749-0.519,1.205-0.519h0.002c0.456,0,0.892,0.188,1.205,0.521l62.128,65.745c0.631,0.667,0.6,1.718-0.066,2.347
					C176.233,313.167,175.824,313.318,175.414,313.318z"/>
			</g>
			<g id="XMLID_1238_">
				<path id="XMLID_1240_" style="fill:#455A64;" d="M47.226,323.272c-0.203,0-0.41-0.037-0.61-0.117
					c-0.853-0.336-1.272-1.301-0.934-2.154l32.741-82.87c0.337-0.855,1.302-1.275,2.154-0.934c0.853,0.336,1.272,1.301,0.934,2.154
					L48.77,322.221C48.512,322.874,47.888,323.272,47.226,323.272z"/>
			</g>
			<g id="XMLID_1236_">
				<path id="XMLID_1237_" style="fill:#27DEBF;" d="M177.09,310.758l4.329,11.423c0.026,0.097,0.039,0.195,0.039,0.292
					c0.007,0.065,0.007,0.136,0,0.208c-0.039,0.234-0.334,0.532-0.652,0.72c-0.727,0.422-1.908,0.422-2.635,0
					c-0.266-0.156-0.435-0.344-0.513-0.539c0-0.007,0-0.013-0.006-0.019l-0.032-0.156l-4.013-10.709L177.09,310.758z"/>
			</g>
			<g id="XMLID_1196_">
				<path id="XMLID_1235_" style="fill:#27DEBF;" d="M49.483,310.758l-4.329,11.423c-0.026,0.097-0.039,0.195-0.039,0.292
					c-0.007,0.065-0.007,0.136,0,0.208c0.039,0.234,0.334,0.532,0.652,0.72c0.727,0.422,1.908,0.422,2.634,0
					c0.266-0.156,0.435-0.344,0.513-0.539c0-0.007,0-0.013,0.006-0.019l0.032-0.156l4.013-10.709L49.483,310.758z"/>
			</g>
			<g id="XMLID_1193_">
				<path id="XMLID_1195_" style="fill:#27DEBF;" d="M115.201,352.208l0,9.449c0,0.283-0.187,0.566-0.561,0.781
					c-0.748,0.432-1.96,0.432-2.708,0c-0.374-0.216-0.561-0.499-0.561-0.781v-9.449
					C112.648,351.568,113.925,351.568,115.201,352.208z"/>
			</g>
		</g>
		<g id="XMLID_329_">
			<path id="XMLID_1191_" style="fill:#27DEBF;" d="M175.796,243.236c-0.005-2.502-2.196-5.17-6.834-8.179
				c-8.57-5.56-27.715-16.719-39.705-23.363c-0.025-0.09-0.1-0.098-0.1-0.098c-9.227-5.6-17.832-32.266-24.219-52.531
				c-2.177-6.906-4.842-10.816-8.002-12.651c-0.75-0.436-3.514-1.959-4.133-2.329c-6.265-3.755-14.489,0.756-24.734,6.363
				c-9.437,5.165-16.809,11.777-18.292,29.32c-0.903,10.682-0.043,31.096,2.126,46.566c-0.001-0.002-0.006-0.013-0.006-0.013
				c3.141,25.846,6.997,25.891,12.595,30.215c9.634,7.443,31.333,17.907,40.475,21.503c16.587,6.524,30.141-3.535,40.243-8.525
				c10.102-4.989,22.52-12.772,26.771-15.86c2.529-1.837,3.837-3.692,3.81-5.65C175.781,247.227,175.798,244.046,175.796,243.236z"
				/>
			<path id="XMLID_339_" style="opacity:0.25;" d="M175.796,243.236c-0.005-2.502-2.196-5.17-6.834-8.179
				c-8.57-5.56-27.715-16.719-39.705-23.363c-0.025-0.09-0.1-0.098-0.1-0.098c-9.227-5.6-17.832-32.266-24.219-52.531
				c-2.177-6.906-4.842-10.816-8.002-12.651c-0.75-0.436-3.514-1.959-4.133-2.329c-6.265-3.755-14.489,0.756-24.734,6.363
				c-9.437,5.165-16.809,11.777-18.292,29.32c-0.903,10.682-0.043,31.096,2.126,46.566c-0.001-0.002-0.006-0.013-0.006-0.013
				c3.141,25.846,6.997,25.891,12.595,30.215c9.634,7.443,31.333,17.907,40.475,21.503c16.587,6.524,30.141-3.535,40.243-8.525
				c10.102-4.989,22.52-12.772,26.771-15.86c2.529-1.837,3.837-3.692,3.81-5.65C175.781,247.227,175.798,244.046,175.796,243.236z"
				/>
			<path id="XMLID_341_" style="fill:#27DEBF;" d="M96.569,146.203c-6.208-3.258-14.276,1.172-24.256,6.64
				c-6.393,3.505-11.84,7.657-15.15,15.427l-4.214-2.436c3.31-7.739,8.747-11.892,15.119-15.386
				c10.247-5.612,18.469-10.114,24.739-6.362C93.352,144.404,95.531,145.617,96.569,146.203z"/>
			<g>
				<path style="fill:#27DEBF;" d="M168.962,235.057c-5.558-3.606-5.682-4.527-39.98-23.536c0.091,0.025,0.14,0.052,0.161,0.066
					c-9.222-5.618-17.822-32.266-24.205-52.521c-6.484-20.574-17.296-14.611-32.629-6.219c-9.437,5.165-16.809,11.777-18.292,29.321
					c-1.478,17.48,1.758,61.038,7.744,66.299c6.532,7.223,32.737,20.646,43.206,24.764c16.587,6.525,30.141-3.535,40.243-8.525
					c10.102-4.989,22.519-12.772,26.771-15.86C177.729,244.671,177.2,240.401,168.962,235.057z"/>
				<path style="fill:#27DEBF;" d="M129.143,211.587c0.005,0.003,0.009,0.007,0.014,0.009
					C129.157,211.596,129.152,211.592,129.143,211.587z"/>
			</g>
			<g id="XMLID_330_" style="opacity:0.1;">
				<path id="XMLID_337_" d="M72.309,152.846c15.333-8.392,26.145-14.354,32.629,6.219c6.387,20.265,14.992,46.931,24.219,52.531
					c0,0-15.822-0.012-38.753,12.371c-23.842,12.875-27.484,25.466-28.577,24.56c-6.029-4.998-9.293-48.817-7.81-66.36
					C55.5,164.623,62.872,158.011,72.309,152.846z"/>
			</g>
		</g>
	</g>
</g>
<g id="Desk_1_">
	<g id="Desk_3_">
		<g id="XMLID_288_">
			<g id="XMLID_297_">
				<polygon id="XMLID_298_" style="fill:#455A64;" points="179.54,328.098 74.521,267.466 249.926,166.25 354.944,226.882 				"/>
			</g>
			<g id="XMLID_295_">
				<polygon id="XMLID_296_" style="fill:#263238;" points="74.521,267.466 74.522,388.73 80.049,391.921 80.049,308.951 
					174.013,363.201 174.013,446.171 179.54,449.362 179.54,328.098 				"/>
			</g>
			<g id="XMLID_293_">
				<polygon id="XMLID_294_" points="80.049,391.921 85.577,388.73 85.577,312.142 80.049,308.951 				"/>
			</g>
			<g id="XMLID_291_">
				<polygon id="XMLID_292_" style="fill:#37474F;" points="179.54,449.362 185.068,446.171 185.067,363.201 349.418,268.367 
					349.418,351.338 354.945,348.147 354.944,226.882 179.54,328.098 				"/>
			</g>
			<g id="XMLID_289_">
				<polygon id="XMLID_290_" style="fill:#263238;" points="349.418,351.338 343.891,348.147 343.89,271.559 349.418,268.367 				
					"/>
			</g>
		</g>
		<g id="XMLID_286_" style="opacity:0.2;">
			<path id="XMLID_287_" d="M170.016,304.177c-5.362,3.096-5.362,8.114,0,11.21c5.362,3.095,14.054,3.095,19.416,0
				c5.361-3.095,5.361-8.114,0-11.21C184.07,301.081,175.378,301.081,170.016,304.177z"/>
		</g>
		<g id="XMLID_284_" style="opacity:0.2;">
			<path id="XMLID_285_" d="M92.459,267.399l38.581,22.275c0.6,0.346,1.572,0.346,2.172,0l28.392-16.392
				c0.6-0.346,0.6-0.908,0-1.254l-38.581-22.275c-0.6-0.346-1.572-0.346-2.172,0l-28.392,16.392
				C91.859,266.491,91.859,267.053,92.459,267.399z"/>
		</g>
		<g id="XMLID_282_" style="opacity:0.2;">
			<path id="XMLID_283_" d="M92.459,271.379l38.581,22.275c0.6,0.346,1.572,0.346,2.172,0l28.392-16.392
				c0.6-0.346,0.6-0.908,0-1.254l-38.581-22.275c-0.6-0.346-1.572-0.346-2.172,0l-28.392,16.392
				C91.859,270.471,91.859,271.032,92.459,271.379z"/>
		</g>
		<g id="XMLID_275_">
			<g id="XMLID_280_">
				<path id="XMLID_281_" style="fill:#EBEBEB;" d="M92.458,270.078l38.581,22.275c0.6,0.346,1.572,0.346,2.172,0l28.392-16.392
					c0.6-0.346,0.6-0.908,0-1.254l-38.581-22.274c-0.6-0.346-1.572-0.346-2.172,0l-28.392,16.392
					C91.858,269.171,91.858,269.732,92.458,270.078z"/>
			</g>
			<g id="XMLID_278_">
				<path id="XMLID_279_" style="fill:#E0E0E0;" d="M120.851,252.432L93.89,267.998l37.149,21.448c0.6,0.346,1.572,0.346,2.172,0
					l26.961-15.566l-37.149-21.448C122.423,252.086,121.45,252.086,120.851,252.432z"/>
			</g>
			<g id="XMLID_276_">
				<path id="XMLID_277_" style="fill:#FAFAFA;" d="M92.459,266.156l38.581,22.275c0.6,0.346,1.572,0.346,2.172,0l28.392-16.392
					c0.6-0.346,0.6-0.908,0-1.254l-38.581-22.274c-0.6-0.346-1.572-0.346-2.172,0l-28.392,16.392
					C91.859,265.249,91.859,265.81,92.459,266.156z"/>
			</g>
		</g>
		<g id="XMLID_267_">
			<g id="XMLID_268_">
				<g id="XMLID_273_" style="opacity:0.2;">
					<path id="XMLID_274_" d="M136.019,247.6l20.846,12.068c0.709,0.409,1.857,0.409,2.566,0l67.27-38.868
						c0.709-0.409,0.709-1.072,0-1.482l-20.846-12.07c-0.709-0.409-1.857-0.409-2.566,0l-67.271,38.87
						C135.311,246.528,135.311,247.191,136.019,247.6z"/>
				</g>
				<g id="XMLID_271_">
					<path id="XMLID_272_" style="fill:#E0E0E0;" d="M136.72,244.765v-0.469c0-0.752,0.528-1.665,1.178-2.041l61.782-35.699
						c0.651-0.376,1.706-0.376,2.357,0l19.145,11.085c0.651,0.376,1.178,1.29,1.178,2.041v0.468c0,0.752-0.527,1.665-1.178,2.041
						l-61.781,35.699c-0.651,0.376-1.706,0.376-2.357,0l-19.146-11.084C137.248,246.43,136.72,245.517,136.72,244.765z"/>
				</g>
				<g id="XMLID_269_">
					<path id="XMLID_270_" style="fill:#FAFAFA;" d="M137.898,243.616l19.145,11.083c0.651,0.376,1.706,0.376,2.357,0l61.782-35.697
						c0.651-0.376,0.651-0.985,0-1.361l-19.145-11.085c-0.651-0.376-1.706-0.376-2.357,0l-61.782,35.699
						C137.248,242.631,137.248,243.24,137.898,243.616z"/>
				</g>
			</g>
		</g>
		<g id="XMLID_254_">
			<g id="XMLID_257_">
				<g id="XMLID_258_">
					<g id="XMLID_265_">
						<path id="XMLID_266_" style="fill:#EBEBEB;" d="M188.576,310.579c4.735-4.832,7.516-16.895,2.898-20.727h-23.498
							c-4.617,3.831-1.839,15.888,2.893,20.723c0.04,0.045,0.087,0.089,0.13,0.133c0.054,0.053,0.108,0.108,0.163,0.159
							c0.134,0.129,0.276,0.256,0.428,0.38c0.037,0.031,0.076,0.059,0.113,0.089c0.116,0.091,0.23,0.182,0.357,0.27
							c0.202,0.143,0.405,0.276,0.612,0.391c3.895,2.249,10.21,2.249,14.104,0h0h0.001c0.208-0.115,0.413-0.25,0.616-0.394
							c0.118-0.082,0.224-0.167,0.333-0.251c0.047-0.037,0.094-0.071,0.14-0.11c0.147-0.12,0.284-0.242,0.413-0.367
							c0.063-0.06,0.126-0.122,0.188-0.184C188.502,310.653,188.542,310.616,188.576,310.579z"/>
					</g>
					<g id="XMLID_263_">
						<path id="XMLID_264_" style="fill:#FAFAFA;" d="M170.016,288.308c-5.362,3.096-5.362,8.114,0,11.21
							c5.362,3.095,14.054,3.096,19.416,0c5.361-3.095,5.361-8.114,0-11.21S175.378,285.213,170.016,288.308z"/>
					</g>
					<g id="XMLID_261_">
						<path id="XMLID_262_" style="fill:#EBEBEB;" d="M173.818,290.503c-3.262,1.883-3.262,4.937,0,6.82
							c3.262,1.883,8.551,1.883,11.813,0c3.262-1.883,3.262-4.937,0-6.82C182.368,288.62,177.08,288.62,173.818,290.503z"/>
					</g>
					<g id="XMLID_259_">
						<path id="XMLID_260_" style="fill:#E0E0E0;" d="M185.63,293.74c-3.262-1.883-8.551-1.883-11.813,0
							c-0.906,0.523-1.551,1.138-1.954,1.792c0.403,0.654,1.048,1.268,1.954,1.792c3.262,1.883,8.551,1.883,11.813,0
							c0.906-0.523,1.551-1.138,1.954-1.792C187.182,294.878,186.537,294.263,185.63,293.74z"/>
					</g>
				</g>
			</g>
			<g id="XMLID_255_">
				<path id="XMLID_256_" style="fill:#27DEBF;" d="M174.538,295.531c0,0-2.3-2.191-4.273-5.68c-1.973-3.489-2.337-8.163-1.317-8.74
					c1.02-0.577,5.172,4.085,5.172,4.085s-0.611-2.848-0.437-5.955c0.174-3.107,0.932-5.931,1.821-6.501
					c0.89-0.57,2.881,3.351,3.735,6.192c0.854,2.841,1.364,5.176,1.364,5.176s0.583-3.84,1.531-6.538
					c1.036-2.949,1.975-3.616,2.704-3.324c0.729,0.291,1.209,1.668,1.422,5.596c0.149,2.75-0.176,5.622-0.176,5.622
					s1.464-1.609,3.089-3.171c1.785-1.714,2.549-1.951,3.059-1.624c0.51,0.327,0.651,2.994-2.113,7.994
					c-2.439,4.412-5.218,6.868-5.218,6.868S181.075,297.998,174.538,295.531z"/>
			</g>
		</g>
		<g id="XMLID_224_">
			<g id="XMLID_242_">
				<g id="XMLID_251_">
					<path id="XMLID_253_" style="fill:#27DEBF;" d="M276.971,238.397l4.968-60.234c0.154-1.872-0.958-4.105-2.484-4.986
						c-1.526-0.881-4.083-0.834-5.71,0.105l-65.962,38.083c-1.627,0.939-3.071,3.219-3.226,5.091l-4.968,60.234
						c-0.154,1.872,0.958,4.105,2.484,4.986c1.526,0.881,4.083,0.834,5.71-0.105l65.963-38.083
						C275.373,242.549,276.817,240.27,276.971,238.397z"/>
					<path id="XMLID_252_" style="opacity:0.5;fill:#FFFFFF;" d="M276.971,238.397l4.968-60.234
						c0.154-1.872-0.958-4.105-2.484-4.986c-1.526-0.881-4.083-0.834-5.71,0.105l-65.962,38.083
						c-1.627,0.939-3.071,3.219-3.226,5.091l-4.968,60.234c-0.154,1.872,0.958,4.105,2.484,4.986
						c1.526,0.881,4.083,0.834,5.71-0.105l65.963-38.083C275.373,242.549,276.817,240.27,276.971,238.397z"/>
				</g>
				<g id="XMLID_248_">
					<path id="XMLID_250_" style="fill:#27DEBF;" d="M276.971,238.397l4.968-60.234c0.154-1.872-0.958-4.105-2.484-4.986
						c-1.526-0.881-4.082-0.834-5.71,0.105l-65.962,38.083c-0.804,0.464-1.562,1.257-2.143,2.165l10.252,5.919l0,57.441
						l57.853-33.401C275.373,242.549,276.817,240.27,276.971,238.397z"/>
					<path id="XMLID_249_" style="opacity:0.8;fill:#FFFFFF;" d="M276.971,238.397l4.968-60.234
						c0.154-1.872-0.958-4.105-2.484-4.986c-1.526-0.881-4.082-0.834-5.71,0.105l-65.962,38.083
						c-0.804,0.464-1.562,1.257-2.143,2.165l10.252,5.919l0,57.441l57.853-33.401C275.373,242.549,276.817,240.27,276.971,238.397z"
						/>
				</g>
				<g id="XMLID_245_">
					<path id="XMLID_247_" style="fill:#27DEBF;" d="M205.117,279.882l4.968-60.234c0.154-1.872,1.599-4.152,3.226-5.091
						l65.962-38.083c1.627-0.939,2.821-0.183,2.667,1.689l-4.968,60.234c-0.154,1.872-1.598,4.152-3.226,5.091l-65.963,38.083
						C206.156,282.511,204.962,281.755,205.117,279.882z"/>
					<path id="XMLID_246_" style="opacity:0.65;fill:#FFFFFF;" d="M205.117,279.882l4.968-60.234
						c0.154-1.872,1.599-4.152,3.226-5.091l65.962-38.083c1.627-0.939,2.821-0.183,2.667,1.689l-4.968,60.234
						c-0.154,1.872-1.598,4.152-3.226,5.091l-65.963,38.083C206.156,282.511,204.962,281.755,205.117,279.882z"/>
				</g>
				<g id="XMLID_243_">
					<path id="XMLID_244_" style="fill:#27DEBF;" d="M239.161,231.553c0.255-3.084,2.416-6.717,4.827-8.114
						c2.412-1.397,4.16-0.03,3.906,3.054c-0.255,3.084-2.416,6.717-4.827,8.114C240.656,236.004,238.907,234.636,239.161,231.553z"
						/>
				</g>
			</g>
			<g id="XMLID_225_">
				<g id="XMLID_240_">
					<polygon id="XMLID_241_" style="fill:#27DEBF;" points="240.712,249.764 256.93,240.342 254.167,238.747 237.959,248.173 					
						"/>
				</g>
				<g id="XMLID_238_" style="opacity:0.85;">
					<polygon id="XMLID_239_" style="fill:#FFFFFF;" points="240.712,249.764 256.93,240.342 254.167,238.747 237.959,248.173 					
						"/>
				</g>
				<g id="XMLID_236_">
					<path id="XMLID_237_" style="fill:#27DEBF;" d="M264.452,267.991l-19.744,11.403c-0.354,0.204-0.816,0.299-1.265,0.286
						c-0.381-0.014-0.776-0.109-1.075-0.272c-0.014,0-0.014-0.014-0.027-0.014l-8.695-5.021c-0.014-0.014-0.027-0.014-0.041-0.027
						c-0.64-0.381-1.13-1.265-1.13-2.014v-0.462c0-0.749,0.517-1.061,1.17-0.68l5.253,3.021l1.17,0.68l-0.259-1.334l-1.851-25.383
						l2.755,1.595l16.221-9.421l8.443,25.63C265.513,266.712,265.105,267.624,264.452,267.991z"/>
				</g>
				<g id="XMLID_234_" style="opacity:0.5;">
					<path id="XMLID_235_" style="fill:#FFFFFF;" d="M264.452,267.991l-19.744,11.403c-0.354,0.204-0.816,0.299-1.265,0.286
						c-0.381-0.014-0.776-0.109-1.075-0.272c-0.014,0-0.014-0.014-0.027-0.014l-8.695-5.021c-0.014-0.014-0.027-0.014-0.041-0.027
						c-0.64-0.381-1.13-1.265-1.13-2.014v-0.462c0-0.749,0.517-1.061,1.17-0.68l5.253,3.021l1.17,0.68l-0.259-1.334l-1.851-25.383
						l2.755,1.595l16.221-9.421l8.443,25.63C265.513,266.712,265.105,267.624,264.452,267.991z"/>
				</g>
				<g id="XMLID_232_">
					<polygon id="XMLID_233_" style="fill:#27DEBF;" points="232.839,271.093 239.574,267.205 240.941,276.267 					"/>
				</g>
				<g id="XMLID_230_" style="opacity:0.25;">
					<polygon id="XMLID_231_" points="232.839,271.093 239.574,267.205 240.941,276.267 					"/>
				</g>
				<g id="XMLID_228_">
					<path id="XMLID_229_" style="fill:#27DEBF;" d="M240.713,249.768l-2.755-1.595l1.851,25.383
						c0.15,0.735-0.272,1.034-0.911,0.653l-5.253-3.021c-0.653-0.381-1.17-0.068-1.17,0.68v0.462c0,0.749,0.49,1.633,1.13,2.014
						c0.014,0.014,0.027,0.014,0.041,0.027l8.695,5.021c0.014,0,0.014,0.014,0.027,0.014c0.299,0.163,0.694,0.258,1.075,0.272
						L240.713,249.768z"/>
				</g>
				<g id="XMLID_226_" style="opacity:0.25;">
					<path id="XMLID_227_" style="fill:#FFFFFF;" d="M240.713,249.768l-2.755-1.595l1.851,25.383
						c0.15,0.735-0.272,1.034-0.911,0.653l-5.253-3.021c-0.653-0.381-1.17-0.068-1.17,0.68v0.462c0,0.749,0.49,1.633,1.13,2.014
						c0.014,0.014,0.027,0.014,0.041,0.027l8.695,5.021c0.014,0,0.014,0.014,0.027,0.014c0.299,0.163,0.694,0.258,1.075,0.272
						L240.713,249.768z"/>
				</g>
			</g>
		</g>
		<g id="Pencil_2_">
			<polygon id="Shadow_5_" style="opacity:0.2;" points="166.851,266.415 169.891,268.17 193.869,254.13 196.517,251.011 
				191,252.473 			"/>
			<g id="XMLID_213_">
				<g id="XMLID_215_">
					<path id="XMLID_223_" style="fill:#FFA8A7;" d="M191.22,250.337l5.109-1.001c0.149-0.029,0.249,0.147,0.149,0.26l-3.466,3.924
						L191.22,250.337z"/>
					<path id="XMLID_222_" style="fill:#263238;" d="M196.477,249.596c0.1-0.113,0-0.289-0.149-0.26l-0.997,0.195l0,0
						c0.279,0.173,0.439,0.488,0.412,0.815l-0.007,0.089L196.477,249.596z"/>
					<path id="XMLID_221_" style="fill:#27DEBF;" d="M173.963,264.445l0.418-0.24l0.505-0.287l18.126-10.396
						c0.189-0.555,0.097-1.163-0.142-1.694c-0.362-0.811-1.066-1.451-1.649-1.488l-18.114,10.39l-0.964,0.553
						C172.786,260.959,174.604,264.112,173.963,264.445z"/>
					<path id="XMLID_220_" style="fill:#EBEBEB;" d="M175.557,263.537l0.932-0.537c0.275-0.147,0.118-0.823-0.205-1.522
						c-0.426-0.93-1.264-1.831-1.63-1.637l-0.688,0.395l-0.244,0.145c0.365-0.194,1.205,0.707,1.631,1.637
						c0.308,0.671,0.464,1.323,0.231,1.5l-0.003,0.002C175.575,263.528,175.567,263.533,175.557,263.537z"/>
					<path id="XMLID_219_" style="fill:#27DEBF;" d="M175.788,263.401c0.64-0.339-1.193-3.497-1.833-3.157l-0.935,0.535
						c0.64-0.34,2.473,2.818,1.833,3.157L175.788,263.401z"/>
					<path id="XMLID_218_" style="fill:#EBEBEB;" d="M173.963,264.445l0.923-0.527c0.631-0.329-1.112-3.39-1.78-3.188
						c-0.012,0.002-0.025,0.008-0.038,0.015l-0.926,0.538C172.786,260.959,174.604,264.112,173.963,264.445z"/>
					<path id="XMLID_217_" style="opacity:0.15;" d="M196.501,249.424l-0.173-0.088l-3.707,2.027l-19.166,10.998
						c-0.036-0.057-0.065-0.061-0.089-0.022c0.545,0.849,0.956,1.919,0.597,2.105l0.418-0.24l0.505-0.287l18.126-10.396l0-0.001
						l3.466-3.924C196.524,249.543,196.526,249.477,196.501,249.424z"/>
					<path id="XMLID_216_" style="fill:#F28F8F;" d="M170.047,266.685l3.916-2.241c0.275-0.142,0.122-0.812-0.194-1.508
						c-0.423-0.932-1.258-1.841-1.626-1.654c-0.002-0.001-0.002-0.001-0.005,0.001l-3.928,2.249c-0.78,0.45-0.063,2.145,0.808,2.902
						C169.341,266.72,169.703,266.847,170.047,266.685z"/>
				</g>
				<path id="XMLID_214_" style="opacity:0.1;" d="M170.281,265.471c-0.225-0.883-0.94-1.748-1.597-1.933
					c-0.241-0.068-0.441-0.034-0.586,0.079c-0.589,0.547,0.097,2.102,0.92,2.818c0.317,0.28,0.672,0.406,1.01,0.258
					C170.32,266.521,170.433,266.069,170.281,265.471z"/>
			</g>
		</g>
	</g>
</g>
<g id="Speech_Bubble">
	<g id="Speach_Bubble_11_">
		<g id="XMLID_617_">
			<path style="fill:#455A64;" d="M309.06,79.804c-0.179-0.104-0.39-0.165-0.626-0.165l-11.416,0l-4.715,2.722v16.333l4.715-2.722
				l4.075-4.705l0,11.535l4.715-2.722l12.358-13.304c0.546-0.63,0.316-1.533-0.319-1.899
				C317.669,84.773,309.693,80.171,309.06,79.804z"/>
			<path style="fill:#37474F;" d="M301.093,102.801l4.715-2.722l12.358-13.304c0.699-0.807,0.126-2.062-0.942-2.062l-11.416,0
				l-4.715,2.722V102.801z"/>
			<path id="XMLID_622_" style="fill:#37474F;" d="M305.845,71.234c0-2.889-2.028-6.401-4.53-7.846l0.004,0.007
				c-2.501-1.444-6.558-1.444-9.06,0l-34.412,19.699c-2.502,1.445-4.53,4.957-4.53,7.846v37.147c0,2.889,2.029,6.402,4.53,7.846
				l-0.004-0.007c2.502,1.445,6.558,1.445,9.06,0l34.834-20.007c4.07-2.32,4.107-4.649,4.107-7.538L305.845,71.234z"/>
			<path id="XMLID_619_" style="fill:#263238;" d="M253.318,128.087c0,2.889,2.029,6.402,4.53,7.846l-0.004-0.007
				c2.261,1.306,5.78,1.434,8.286,0.38c-2.132,0.806-3.756-0.411-3.756-2.995l0-37.147c0-1.445,0.507-3.045,1.327-4.465
				l-9.056-5.223c-0.82,1.42-1.327,3.02-1.327,4.465V128.087z"/>
			<path id="XMLID_618_" style="fill:#455A64;" d="M305.697,69.947c-0.528-1.923-2.282-2.536-4.374-1.331l-34.421,19.707
				c-1.247,0.719-2.388,1.944-3.191,3.382l-9.051-5.218c0.824-1.437,1.944-2.663,3.191-3.381l34.4-19.707
				c2.515-1.437,6.573-1.437,9.067,0l0.006-0.002C303.457,64.621,305.253,67.368,305.697,69.947z"/>
		</g>
		<g>
			<polygon style="fill:#27DEBF;" points="288.624,116.054 280.5,120.745 280.5,88.249 288.624,83.559 			"/>
			<polygon style="fill:#27DEBF;" points="296.748,89.701 296.748,100.533 272.376,114.604 272.376,103.771 			"/>
		</g>
	</g>
</g>
<g id="Character">
	<g id="Character_2_">
		<path style="fill:#E6E6E6;" d="M379.354,116.686c7.996,0.224,10.265,3.428,15.089,10.317c4.824,6.889,21.216,32.973,21.216,32.973
			l23.23,8.921l-3.058,13.554c0,0-31.051-5.259-33.076-6.45c-2.025-1.192-17.158-26.104-17.158-26.104L379.354,116.686z"/>
		<path style="fill:#F0F0F0;" d="M373.227,116.907c7.565-1.892,10.901,2.331,13.419,6.951
			c11.45,21.011,16.108,147.037,16.108,147.037s-25.544,10.197-44.493-1.769L373.227,116.907z"/>
		<g>
			<g>
				<path style="fill:#B16668;" d="M397.577,333.475l-4.772,18.199c0,0-5.513,3.247-10.269,0.043
					c-3.765-2.536-3.539-5.546-3.539-5.546l0.225-2.742l0.539-21.149L397.577,333.475z"/>
				<g id="XMLID_192_">
					<g id="XMLID_193_">
						<path id="XMLID_196_" style="fill:#263238;" d="M374.577,356.041c-1.304,2.913-2.052,11.411-2.052,11.411
							s0.794,3.124,5.148,5.9l4.229-11.241L374.577,356.041z"/>
						<polygon id="XMLID_195_" points="377.673,373.352 388.663,371.837 392.837,363.09 380.114,366.865 						"/>
						<path id="XMLID_194_" style="fill:#263238;" d="M393.633,348.517l0.582-2.221c1.671,0.095,1.521,3.396,1.649,4.358
							c0.366,2.744,0.65,5.497,1.069,8.233c0.469,3.057,1.107,6.026,2.108,8.932c0.954,2.77,1.579,5.723,3.264,8.174
							c1.664,2.422,4.669,3.895,7.063,5.55c0.6,0.414,1.227,0.861,1.526,1.526c0.546,1.216-0.221,2.628-1.171,3.563
							c-1.632,1.607-3.839,2.543-6.096,2.937c-2.256,0.394-4.572,0.276-6.846,0.003c-3.958-0.476-7.986-1.83-11.244-4.159
							c-3.219-2.302-3.924-6.852-4.44-10.533c-0.42-2.994-0.158-6.492-1.396-9.306c-1.251-2.841-4.788-6.497-5.126-9.535
							c-0.186-1.669,0.189-4.744,1.586-7.441c1.282-2.474,2.217-5.62,3.059-5.171l-0.148,1.801c-0.009-0.135,0.83,3.462,5.982,4.743
							C387.495,350.581,392.093,350.559,393.633,348.517z"/>
					</g>
				</g>
			</g>
			<g>
				<g>
					<path id="XMLID_191_" style="fill:#B16668;" d="M385.802,368.219c0.138,3.366-0.043,4.751,0.037,6.272
						c0.145,2.777,0.884,4.706,1.509,7.405c0.277,1.195,0.637,2.039,1.147,3.229c0.511,1.192,1.49,2.815,0.918,3.979
						c-0.268,0.545-0.686,1.003-1.139,1.408c-2.017,1.805-4.798,2.652-7.503,2.545c-1.431-0.057-2.883-0.38-4.08-1.165
						c-2.411-1.582-3.358-4.462-4.653-6.889c-1.405-2.634-0.586-4.018-0.816-6.891c-0.257-3.21-0.806-8.244-1.49-11.392
						C374.897,360.777,379.277,366.564,385.802,368.219z"/>
				</g>
			</g>
			<path style="fill:#27DEBF;" d="M393.78,201.955c7.814,27.215,21.034,73.479,17.297,87.876
				c-2.799,10.786-14.96,50.189-14.96,50.189c-4.711,0.665-14.332,1.716-18.086-6.539c-0.954-13.392-4.247-104.308-4.247-104.308
				L393.78,201.955z"/>
			<path style="opacity:0.4;fill:#FFFFFF;" d="M393.78,201.955c7.814,27.215,21.034,73.479,17.297,87.876
				c-2.799,10.786-14.96,50.189-14.96,50.189c-4.711,0.665-14.332,1.716-18.086-6.539c-0.954-13.392-4.247-104.308-4.247-104.308
				L393.78,201.955z"/>
			<path style="opacity:0.25;" d="M373.784,229.172c0,0,7.284-6.724,13.786-15.079c0,0-0.997,6.444-9.891,15.338
				c0,0,14.899,57.39,14.815,66.543c-0.083,9.154-4.977,42.035-4.977,42.035L373.784,229.172z"/>
			<g id="XMLID_190_">
				<path style="fill:#27DEBF;" d="M393.78,201.955c-6.368,13.204-8.875,18.49-19.996,27.217c0,0,13.603,56.559,14.205,67.534
					c1.003,18.256-1.347,59.107-2.187,71.513c-2.108,2.76-12.388,3.227-15.629,0.879c-1.483-5.734-6.455-25.94-8.785-44.059
					c-1.722-13.39,0.478-25.37,0.764-28.881c-7.212-18.389-23.4-45.232-29.325-64.457c-1.213-3.935-1.505-7.13-1.831-10.158
					c-1.313-12.189,3.671-21.507,6.601-28.018L393.78,201.955"/>
			</g>
			<g id="XMLID_189_" style="opacity:0.5;">
				<path style="fill:#FFFFFF;" d="M393.78,201.955c-6.368,13.204-8.875,18.49-19.996,27.217c0,0,13.603,56.559,14.205,67.534
					c1.003,18.256-1.347,59.107-2.187,71.513c-2.108,2.76-12.388,3.227-15.629,0.879c-1.483-5.734-6.455-25.94-8.785-44.059
					c-1.722-13.39,0.478-25.37,0.764-28.881c-7.212-18.389-23.4-45.232-29.325-64.457c-1.213-3.935-1.505-7.13-1.831-10.158
					c-1.313-12.189,3.671-21.507,6.601-28.018L393.78,201.955"/>
			</g>
			<g id="XMLID_184_">
				<g id="XMLID_185_">
					<path id="XMLID_188_" style="fill:#263238;" d="M368.59,387.345c-0.786,3.087-0.074,11.574-0.074,11.574
						s1.313,2.937,6.069,4.926l2.245-11.777L368.59,387.345z"/>
					<polygon id="XMLID_187_" points="374.585,403.845 385.137,400.483 387.752,391.168 375.88,397.048 					"/>
					<path id="XMLID_186_" style="fill:#37474F;" d="M385.764,376.7l0.074-2.209c1.422,0.707,4.467,12.244,8.65,20.175
						c3.819,7.242,11.479,11.326,13.949,14.485c3.306,4.224-3.238,9.576-13.645,7.255c-5.165-1.152-12.972-4.531-15.065-8.042
						c-2.093-3.51-2.756-9.931-4.471-12.513c-1.715-2.582-5.817-5.575-6.667-8.506c-0.467-1.61-0.822-5.176,0.093-8.067
						c0.84-2.652,0.795-5.363,2.123-5.59l0.206,2.084c0.686,1.429,3.389,3.072,8.652,3.403
						C382.167,379.333,384.598,378.97,385.764,376.7z"/>
				</g>
			</g>
		</g>
		<g id="XMLID_91_">
			<g id="XMLID_182_">
				<path id="XMLID_183_" style="fill:#263238;" d="M367.345,94.145l-5.251,17.747c-14.6,0-23.622-14.218-23.622-28.818v0
					c0-14.663,9.337-26.916,24-26.916h4.759c14.663,0,26.55,9.736,26.55,24.399l0,0C393.78,90.112,381.944,94.145,367.345,94.145z"
					/>
			</g>
			<path style="fill:#263238;" d="M396.52,66.98c1.07-1.843,1.722-3.978,1.547-6.102c-0.174-2.124-1.247-4.22-3.043-5.367
				c-2.735-1.746-6.511-0.927-9.056,1.086c-0.199-1.886-1.158-3.681-2.615-4.895c-1.457-1.214-3.395-1.834-5.286-1.691
				c-2.427,0.184-4.585,1.535-6.687,2.762c-2.397,1.399-7.392,3.025-11.367,3.502l4.461,1.761c-1.132,1.848-1.621,4.292-0.779,6.39
				c0.177,0.44,0.432,0.842,0.696,1.236c2.953,4.409,7.098,8.012,11.875,10.323c4.778,2.311,10.175,3.324,15.465,2.902
				c1.481-0.118,3.009-0.367,4.241-1.198c0.762-0.514,1.372-1.228,1.87-2c0.903-1.4,1.467-3.068,1.31-4.726
				C398.994,69.305,398.031,67.681,396.52,66.98z"/>
			<path id="XMLID_181_" style="fill:#455A64;" d="M355.943,118.979l-9.571,1.017c-6.35,1.554-9.218,4.354-9.871,9.983
				c-0.304,2.622-1.888,9.605,0.334,18.347c2.014,7.921,7.373,27.315,7.373,27.315s-6.943,17.448-10.233,26.314
				c22.58,14.725,50.444,8.907,59.806,0c-0.791-8.429-3.775-16.27-4.445-23.787c0,0,0.487-11.735,1.419-16.827
				c7.142-7.796,6.231-15.253,3.026-21.265c-5.918-11.102-14.851-20.857-17.735-20.844L355.943,118.979z"/>
			<path style="fill:#E0E0E0;" d="M373.096,112.691c2.866,0.7,5.095,1.863,6.258,3.995c1.163,2.132,10.206,16.39,10.206,16.39
				s-7.303-9.603-12.804-12.513c-2.245-1.187-3.66-1.22-3.66-1.22V112.691z"/>
			<path style="fill:#FAFAFA;" d="M355.943,118.979c0,0,9.982,20.856,11.775,34.918c1.793,14.061-2.039,62.069-2.039,77.302
				c0,18.361,0.059,48.661,0.059,48.661s-11.408,0-19.251-2.234c-5.726-1.631-12.514-4.569-16.628-9.478
				c0,0-1.115-37.58,1.237-55.474c2.231-16.977,11.287-37.938,11.287-37.938l-11.604-44.225c0,0,0.537-7.604,7.692-9.728
				C345.284,118.759,355.943,118.979,355.943,118.979z"/>
			<path style="fill:#EBEBEB;" d="M346.528,128.104l-11.834,17.326l7.689,29.305c0,0-7.145,15.07-9.773,29.66
				c7.13-20.178,13.576-26.227,13.576-26.227l-4.19-17.059c0,0,1.476-5.367,3.521-14.526
				C347.56,137.422,347.233,132.106,346.528,128.104z"/>
			<g>
				<path style="fill:#27DEBF;" d="M352.971,144.442c0.038-0.874-0.081-2.751-0.233-5.128c-0.739-11.615-1.078-22.11,2.845-22.955
					l0.345,1.601c-2.869,0.618-1.915,15.607-1.556,21.25c0.154,2.426,0.276,4.342,0.234,5.303L352.971,144.442z"/>
			</g>
			<path style="fill:#EBEBEB;" d="M355.943,112.691c-1.564,0.188-2.598,0.564-3.537,2.161c-0.939,1.597-2.914,4.286-2.914,4.286
				s-0.067,10.659,0.998,13.431c0.924,2.404,12.216,11.293,12.216,11.293s-1.093,9.414-1.187,12.702
				c-0.094,3.288,5.707,15.215,6.424,21.605c0,0,1.2-15.521,0.253-22.732c-1.648-12.55-9.476-31.314-12.252-36.457V112.691z"/>
			<g>
				<g>
					<path style="fill:#455A64;" d="M350.629,183.266c-0.047,0-0.093-0.001-0.138-0.003l0.044-1.145
						c1.018,0.031,2.423-0.535,3.758-1.398c-1.246-0.847-2.365-1.85-3.126-2.832c-1.846-2.386-5.888-19.438-4.641-23.411
						c1.046-3.33,4.317-10.673,7.23-10.797c0.025-0.001,0.05-0.002,0.076-0.002c2.906,0,6.732,6.945,8.044,10.146
						c1.58,3.854-1,21.188-2.637,23.72c-0.674,1.042-1.703,2.137-2.873,3.087c1.401,0.747,2.808,1.202,3.863,1.074l0.139,1.138
						c-1.41,0.172-3.268-0.456-5.01-1.456C353.761,182.495,352.027,183.266,350.629,183.266z M353.84,144.825
						c-0.012,0-0.024,0-0.036,0.001c-1.71,0.073-4.782,5.527-6.183,9.995c-1.146,3.649,2.741,20.151,4.454,22.366
						c0.753,0.972,1.937,1.993,3.226,2.82c1.213-0.933,2.307-2.051,2.975-3.084c1.52-2.35,3.991-19.121,2.539-22.663
						C359.051,149.957,355.565,144.825,353.84,144.825z"/>
				</g>
				<g>
					<path style="fill:#263238;" d="M361.981,182.203c0.039,0.929-0.681,1.714-1.611,1.754c-0.929,0.039-1.714-0.682-1.754-1.611
						c-0.04-0.929,0.682-1.714,1.611-1.754C361.156,180.553,361.941,181.274,361.981,182.203z"/>
				</g>
				<g>
					<path style="fill:#263238;" d="M352.194,182.619c0.04,0.929-0.682,1.714-1.611,1.754c-0.929,0.04-1.714-0.682-1.754-1.611
						c-0.04-0.929,0.681-1.714,1.611-1.754C351.37,180.969,352.155,181.69,352.194,182.619z"/>
				</g>
				<g>
					<g>
						<path style="fill:#27DEBF;" d="M362.16,161.339l-0.966-0.065c-0.206-0.014-0.36-0.197-0.347-0.403
							c0.196-3.201,0.089-5.559-0.298-6.502c-1.694-4.135-5.204-9.322-6.733-9.257c-1.528,0.065-4.586,5.531-5.924,9.795
							c-0.305,0.974-0.211,3.333,0.255,6.504c0.03,0.204-0.108,0.4-0.312,0.431l-0.957,0.147c-0.206,0.032-0.401-0.119-0.432-0.325
							c-0.526-3.561-0.592-6.006-0.195-7.271c0.717-2.287,4.091-10.854,7.491-10.999c3.402-0.145,7.489,8.105,8.397,10.323
							c0.503,1.224,0.646,3.666,0.423,7.261C362.55,161.186,362.368,161.353,362.16,161.339z"/>
					</g>
				</g>
			</g>
			<g>
				<path style="fill:#B16668;" d="M322.736,248.496c1.747,1.638,2.697,3.827,4.479,7.062c1.783,3.235,10.621,3.554,11.326-5.558
					c0.531-6.86-1.869-9.179-6.682-14.523c-5.055-5.613-7.04-6.537-6.773-11.752c0.131-2.561,3.988-39.768,3.988-39.768
					l12.736-35.064c0,0,4.598-16.397,2.289-27.814c0,0-8.248-0.667-14.079,5.151c-6.813,6.798-14.525,40.422-16.225,47.206
					c-1.343,5.36-3.644,13.659-3.171,26.479c0.403,10.913,0.446,33.715,1.896,38.744
					C313.973,243.688,318.053,244.107,322.736,248.496z"/>
			</g>
			<path style="fill:#F0F0F0;" d="M344.682,119.57c0,0-8.772-0.552-13.903,3.649c-5.131,4.202-8.319,15.937-12.086,27.672
				c-3.767,11.735-7.134,23.154-8.374,31.383c-1.036,6.877,1.004,43.197,1.004,43.197s5.838,2.116,13.763-1.746l4.896-39.767
				l14.699-39.876C344.682,144.082,349.229,132.727,344.682,119.57z"/>
			<g id="XMLID_92_">
				<g id="XMLID_179_">
					<path id="XMLID_180_" style="fill:#B16668;" d="M378.853,69.56c6.676,0.686,12.256,7.789,11.884,23.901
						c-0.316,13.655-4.742,17.028-6.965,18c-2.222,0.973-6.509,1.125-10.676,0.431v7.451c0,0,4.802,10.579,2.764,14.355
						c-11.417-4.682-19.917-14.719-19.917-14.719v-16.862c0,0-2.813,3.336-7.414,0.281c-4.601-3.056-4.776-10.618-2.101-13.334
						c2.675-2.716,8.441-1.856,9.516,1.896c0,0,4.007-0.102,11.367-5.348C374.597,80.416,377.664,74.005,378.853,69.56z"/>
				</g>
				<g id="XMLID_177_">
					<path id="XMLID_178_" style="fill:#263238;" d="M372.194,88.225c0.053,1.042-0.719,1.925-1.721,1.973
						c-1.003,0.048-1.859-0.758-1.911-1.8c-0.052-1.042,0.718-1.925,1.721-1.973C371.287,86.377,372.142,87.183,372.194,88.225z"/>
				</g>
				<g id="XMLID_175_">
					<path id="XMLID_176_" style="fill:#9A4A4D;" d="M374.111,101.012l5.419,1.728c-0.45,1.551-2.027,2.421-3.524,1.944
						C374.51,104.207,373.662,102.563,374.111,101.012z"/>
				</g>
				<g id="XMLID_173_">
					<path id="XMLID_174_" style="fill:#263238;" d="M388.304,84.025l-3.679-2.55c0.671-1.051,2.039-1.332,3.056-0.627
						C388.697,81.552,388.976,82.974,388.304,84.025z"/>
				</g>
				<g id="XMLID_171_">
					<path id="XMLID_172_" style="fill:#263238;" d="M386.951,87.868c0.052,1.042-0.718,1.925-1.721,1.973
						c-1.003,0.048-1.858-0.758-1.911-1.8c-0.052-1.042,0.719-1.925,1.721-1.973C386.043,86.019,386.899,86.825,386.951,87.868z"/>
				</g>
				<g id="XMLID_169_">
					<polygon id="XMLID_170_" style="fill:#9A4A4D;" points="377.766,86.826 378.055,97.773 383.817,95.988 					"/>
				</g>
				<g id="XMLID_167_">
					<path id="XMLID_168_" style="fill:#9A4A4D;" d="M373.096,111.892c-4.392-0.576-13.426-3.915-14.834-7.487
						c0,0,0.469,2.245,3.168,4.558c2.698,2.313,11.666,4.919,11.666,4.919V111.892z"/>
				</g>
			</g>
		</g>
		<g id="XMLID_77_">
			<polygon style="fill:#27DEBF;" points="446.55,155.482 403.075,176.174 391.108,227.907 392.078,228.94 433.412,208.15 
				447.521,156.515 			"/>
			<polygon style="opacity:0.35;" points="404.045,177.207 392.078,228.94 391.108,227.907 403.075,176.174 			"/>
			<polygon id="XMLID_90_" style="opacity:0.25;" points="447.521,156.515 404.045,177.207 392.078,228.94 433.412,208.15 			"/>
			<g id="XMLID_88_" style="opacity:0.2;">
				<path id="XMLID_89_" d="M426.948,197.634c0.403,1.017,3.733,3.254,8.558,2.852l0.816-2.987L426.948,197.634z"/>
			</g>
			<g id="XMLID_86_" style="opacity:0.1;">
				<path id="XMLID_87_" d="M434.424,167.112c0,0,0.161-0.777,0.359-1.734c0.198-0.958-2.353-0.455-5.699,1.124l-6.405,3.023
					c-3.345,1.578-6.218,3.635-6.416,4.593l-0.359,1.734L434.424,167.112z"/>
			</g>
			<g id="XMLID_84_">
				<path id="XMLID_85_" style="fill:#37474F;" d="M437.062,159.003c0.126-0.599-0.908-0.529-2.309,0.155l-2.537,1.24
					c0,0,0.757-3.747-4.872-1.297c-5.628,2.45-6.859,6.783-6.859,6.783s-1.212,0.602-2.708,1.345
					c-1.495,0.743-2.851,1.837-3.028,2.444l-0.32,1.1l22.395-10.657C436.824,160.117,436.936,159.602,437.062,159.003z"/>
			</g>
			<g id="XMLID_82_">
				<path id="XMLID_83_" style="fill:#37474F;" d="M434.679,162.593c-2.052,0.931-2.905,1.385-3.211,2.862
					c-0.35,1.687-0.493,2.9-0.493,2.9l-9.912,4.726c0,0,0.479-2.143,0.632-2.972c0.153-0.829-0.184-1.236-1.762-0.483l-0.619-1.733
					l16.017-7.461L434.679,162.593z"/>
			</g>
			<g id="XMLID_80_">
				<path id="XMLID_81_" style="fill:#37474F;" d="M435.02,167.141c0,0,0.16-0.776,0.359-1.735c0.198-0.958-2.353-0.455-5.699,1.124
					l-6.405,3.023c-3.345,1.579-6.218,3.635-6.416,4.593l-0.358,1.735L435.02,167.141z"/>
			</g>
			<g id="XMLID_78_">
				<path id="XMLID_79_" style="fill:#B16668;" d="M442.685,174.213c0,0-1.54,5.673-1.943,7.11
					c-0.403,1.437-7.526,4.72-11.091,5.164c-6.816,0.85-7.591,2.328-5.951,7.171c1.512,4.466,5.952,6.146,12.105,5.422
					c2.885-0.34,6.875-2.9,8.44-7.371c1.996-5.704,0.921-11.795,1.714-15.126C446.753,173.252,444.421,172.227,442.685,174.213z"/>
			</g>
		</g>
	</g>
</g>
<g id="Diploma_2_">
	<g id="Diploma_1_">
		<g id="Window_1_">
			<polygon id="XMLID_678_" style="fill:#455A64;" points="50.956,115.69 52.986,116.862 103.74,87.559 101.71,86.386 			"/>
			<g id="XMLID_670_">
				<g id="XMLID_671_">
					<g id="XMLID_672_">
						<polygon id="XMLID_673_" style="fill:#27DEBF;" points="101.71,86.386 52.986,114.518 52.986,72.287 101.71,44.156 						"/>
					</g>
				</g>
			</g>
			<g id="XMLID_666_" style="opacity:0.8;">
				<g id="XMLID_667_">
					<g id="XMLID_668_">
						<polygon id="XMLID_669_" style="fill:#FFFFFF;" points="101.71,86.386 52.986,114.518 52.986,72.287 101.71,44.156 						"/>
					</g>
				</g>
			</g>
			<path id="XMLID_628_" style="fill:#37474F;" d="M105.77,39.467L50.956,71.115l0,49.263l54.815-31.647L105.77,39.467z
				 M103.74,87.559l-50.754,29.303l0-44.575l50.753-29.302V87.559z"/>
			<polygon id="XMLID_616_" style="fill:#263238;" points="103.74,87.559 101.71,86.386 101.71,44.156 103.74,42.984 			"/>
			<polygon id="XMLID_615_" style="fill:#455A64;" points="105.77,39.467 103.74,38.295 48.925,69.943 50.956,71.115 			"/>
			<polygon id="XMLID_614_" style="fill:#263238;" points="48.925,69.943 50.956,71.115 50.956,120.378 48.926,119.206 			"/>
		</g>
		<path style="fill:#27DEBF;" d="M92.154,79.287c1.893-1.093,3.427-0.207,3.427,1.979c0,2.185-1.534,4.843-3.427,5.935
			s-3.427,0.207-3.427-1.979S90.261,80.379,92.154,79.287z"/>
		<path style="opacity:0.2;" d="M64.463,70.364l25.801-14.909c0.717-0.415,1.299-0.079,1.299,0.75v0.074
			c0,0.828-0.581,1.836-1.299,2.251L64.463,73.452c-0.717,0.415-1.299,0.079-1.299-0.749v-0.088
			C63.164,71.786,63.746,70.779,64.463,70.364z"/>
		<g style="opacity:0.2;">
			<path d="M60.378,82.105l33.96-19.607c0.717-0.414,1.299-0.225,1.299,0.423c0,0.648-0.582,1.508-1.299,1.923L60.353,84.464
				c-0.717,0.414-1.293,0.222-1.286-0.43C59.073,83.383,59.661,82.519,60.378,82.105z"/>
			<path d="M60.378,86.788l33.96-19.607c0.717-0.414,1.299-0.225,1.299,0.423c0,0.648-0.582,1.508-1.299,1.923L60.353,89.147
				c-0.717,0.414-1.293,0.222-1.286-0.429C59.073,88.067,59.661,87.203,60.378,86.788z"/>
			<path d="M60.378,91.472l33.96-19.607c0.717-0.414,1.299-0.225,1.299,0.423c0,0.648-0.582,1.508-1.299,1.923L60.353,93.831
				c-0.717,0.414-1.293,0.222-1.286-0.429C59.073,92.75,59.661,91.886,60.378,91.472z"/>
		</g>
		<path style="opacity:0.3;" d="M86.058,89.312c-0.269,0.136-0.544,0.219-0.848,0.224c-0.726,0.011-0.659-0.739-0.636-1.249
			c0.01-0.231-0.311-0.583-0.479-0.28c-0.439,0.794-0.999,1.53-1.473,2.304c-0.289,0.472-0.84,1.541-1.538,1.388
			c-0.29-0.064-0.386-0.373-0.386-0.762c0.329-0.66,0.533-1.36,0.454-2.118c-0.023-0.221-0.399-0.491-0.515-0.192
			c-0.175,0.451-0.406,1.223-0.441,1.949c-0.306,0.589-0.723,1.138-1.096,1.633c-0.237,0.315-0.444,0.663-0.705,0.958
			c-0.062,0.07-0.183,0.25-0.284,0.267c-0.238,0.041-0.215-0.101-0.246-0.26c-0.04-0.205,0.058-0.495,0.116-0.696
			c0-0.001,0-0.002,0-0.002c0.004-0.019,0.013-0.037,0.017-0.057c-0.004-0.002-0.008-0.004-0.012-0.007
			c-0.002-0.232-0.293-0.571-0.414-0.285c-0.475,1.118-1.101,2.461-1.993,3.321c-0.042,0.04-0.088,0.074-0.133,0.108
			c-0.008-0.134-0.036-0.272-0.049-0.406c-0.03-0.313-0.049-0.627-0.161-0.924c-0.055-0.146-0.316-0.375-0.452-0.178
			c-0.719,1.041-1.296,2.278-2.26,3.125c-0.069,0.061-0.458,0.339-0.475,0.329c-0.154-0.088,0.085-0.911,0.117-1.036
			c0.092-0.369,0.214-0.73,0.334-1.09c0.12-0.287,0.221-0.583,0.272-0.9c0.045-0.278-0.437-0.708-0.524-0.332
			c-0.036,0.152-0.169,0.527-0.312,0.984c-0.462,1.021-1.281,2.312-1.907,3.227c-0.727,1.062-1.48,1.929-2.651,2.556
			c-0.303,0.162-0.866,0.399-1.198,0.16c-0.273-0.196-0.295-0.656-0.309-0.961c-0.036-0.785,0.124-1.589,0.317-2.351
			c1.053-0.53,2.03-1.27,2.944-2.078c0.812-0.718,1.692-1.508,2.226-2.466c0.303-0.544,0.483-1.441-0.25-1.751
			c-0.505-0.214-1.159,0.14-1.587,0.381c-0.593,0.333-1.149,0.766-1.618,1.258c-0.971,1.019-1.617,2.366-2.024,3.703
			c-0.064,0.209-0.148,0.489-0.232,0.807c-1.128,0.547-2.359,0.827-3.738,0.626c-0.07-0.01-0.098,0.146-0.029,0.161
			c1.325,0.286,2.535,0.099,3.659-0.349c-0.328,1.421-0.513,3.297,0.812,3.662c1.409,0.389,2.918-1.289,3.627-2.24
			c0.547-0.734,1-1.458,1.421-2.291c0.031-0.062,0.081-0.113,0.122-0.17c-0.039,0.658,0.129,1.138,0.774,1.03
			c0.677-0.114,1.249-1.038,1.609-1.539c0.342-0.474,0.649-0.97,0.964-1.462c0.058,0.592,0.166,1.266,0.731,1.153
			c0.544-0.109,1.034-1.097,1.301-1.498c0.229-0.344,0.453-0.696,0.644-1.063c0.033,0.068,0.073,0.133,0.128,0.193
			c0.471,0.506,1.029-0.034,1.333-0.434c0.432-0.568,0.918-1.167,1.324-1.804c0.108,0.275,0.283,0.502,0.562,0.633
			c0.725,0.341,1.407-0.259,1.826-0.794c0.526-0.673,0.955-1.436,1.365-2.196c0.059,0.269,0.195,0.51,0.5,0.695
			c0.53,0.321,1.207,0.197,1.71-0.112C86.514,89.679,86.297,89.192,86.058,89.312z M70.167,92.149
			c0.338-0.171,1.04-0.458,1.077,0.11c0.021,0.33-0.282,0.738-0.459,0.994c-0.546,0.787-1.265,1.463-1.974,2.101
			c-0.779,0.7-1.598,1.36-2.474,1.883C66.956,95.126,68.15,93.17,70.167,92.149z"/>
	</g>
	<g id="Diploma">
		<g id="Window_3_">
			<polygon id="XMLID_689_" style="fill:#455A64;" points="130.957,115.69 132.987,116.862 183.741,87.559 181.711,86.386 			"/>
			<g id="XMLID_685_">
				<g id="XMLID_686_">
					<g id="XMLID_687_">
						<polygon id="XMLID_688_" style="fill:#27DEBF;" points="181.711,86.386 132.987,114.518 132.988,72.287 181.711,44.156 						
							"/>
					</g>
				</g>
			</g>
			<g id="XMLID_680_" style="opacity:0.8;">
				<g id="XMLID_681_">
					<g id="XMLID_682_">
						<polygon id="XMLID_684_" style="fill:#FFFFFF;" points="181.711,86.386 132.987,114.518 132.988,72.287 181.711,44.156 						
							"/>
					</g>
				</g>
			</g>
			<path id="XMLID_635_" style="fill:#37474F;" d="M185.771,39.467l-54.815,31.647l0.001,49.263l54.814-31.647L185.771,39.467z
				 M183.741,87.559l-50.753,29.303l0-44.575l50.753-29.302V87.559z"/>
			<polygon id="XMLID_634_" style="fill:#263238;" points="183.741,87.559 181.711,86.386 181.711,44.156 183.741,42.984 			"/>
			<polygon id="XMLID_613_" style="fill:#455A64;" points="185.771,39.467 183.741,38.295 128.927,69.943 130.957,71.115 			"/>
			<polygon id="XMLID_611_" style="fill:#263238;" points="128.927,69.943 130.957,71.115 130.957,120.378 128.927,119.206 			"/>
		</g>
		<path style="fill:#27DEBF;" d="M172.155,79.287c1.893-1.093,3.427-0.207,3.427,1.979c0,2.185-1.534,4.843-3.427,5.935
			c-1.893,1.093-3.427,0.207-3.427-1.979S170.262,80.379,172.155,79.287z"/>
		<path style="opacity:0.2;" d="M144.464,70.364l25.801-14.909c0.717-0.415,1.299-0.079,1.299,0.75v0.074
			c0,0.828-0.581,1.836-1.298,2.251l-25.801,14.921c-0.717,0.415-1.299,0.079-1.299-0.749v-0.088
			C143.165,71.786,143.747,70.779,144.464,70.364z"/>
		<g style="opacity:0.2;">
			<path d="M140.379,82.105l33.96-19.607c0.717-0.414,1.299-0.225,1.299,0.423c0,0.648-0.581,1.508-1.299,1.923l-33.985,19.621
				c-0.717,0.414-1.293,0.222-1.286-0.43C139.074,83.383,139.662,82.519,140.379,82.105z"/>
			<path d="M140.379,86.788l33.96-19.607c0.717-0.414,1.299-0.225,1.299,0.423c0,0.648-0.581,1.508-1.299,1.923l-33.985,19.621
				c-0.717,0.414-1.293,0.222-1.286-0.429C139.074,88.067,139.662,87.203,140.379,86.788z"/>
			<path d="M140.379,91.472l33.96-19.607c0.717-0.414,1.299-0.225,1.299,0.423c0,0.648-0.581,1.508-1.299,1.923l-33.985,19.621
				c-0.717,0.414-1.293,0.222-1.286-0.429C139.074,92.75,139.662,91.886,140.379,91.472z"/>
		</g>
		<path style="opacity:0.3;" d="M166.059,89.312c-0.269,0.136-0.544,0.219-0.848,0.224c-0.726,0.011-0.658-0.739-0.636-1.249
			c0.01-0.231-0.311-0.583-0.479-0.28c-0.439,0.794-0.999,1.53-1.473,2.304c-0.289,0.472-0.84,1.541-1.538,1.388
			c-0.29-0.064-0.386-0.373-0.386-0.762c0.329-0.66,0.533-1.36,0.454-2.118c-0.023-0.221-0.398-0.491-0.515-0.192
			c-0.175,0.451-0.406,1.223-0.441,1.949c-0.306,0.589-0.723,1.138-1.095,1.633c-0.237,0.315-0.444,0.663-0.705,0.958
			c-0.061,0.07-0.183,0.25-0.284,0.267c-0.238,0.041-0.215-0.101-0.246-0.26c-0.041-0.205,0.057-0.495,0.116-0.696
			c0-0.001,0-0.002,0-0.002c0.004-0.019,0.013-0.037,0.017-0.057c-0.004-0.002-0.008-0.004-0.012-0.007
			c-0.002-0.232-0.292-0.571-0.414-0.285c-0.475,1.118-1.101,2.461-1.993,3.321c-0.042,0.04-0.088,0.074-0.133,0.108
			c-0.008-0.134-0.036-0.272-0.049-0.406c-0.03-0.313-0.049-0.627-0.161-0.924c-0.055-0.146-0.316-0.375-0.452-0.178
			c-0.719,1.041-1.296,2.278-2.26,3.125c-0.069,0.061-0.457,0.339-0.475,0.329c-0.154-0.088,0.085-0.911,0.117-1.036
			c0.092-0.369,0.214-0.73,0.334-1.09c0.12-0.287,0.221-0.583,0.272-0.9c0.045-0.278-0.437-0.708-0.525-0.332
			c-0.036,0.152-0.168,0.527-0.311,0.984c-0.462,1.021-1.281,2.312-1.907,3.227c-0.727,1.062-1.48,1.929-2.651,2.556
			c-0.303,0.162-0.867,0.399-1.198,0.16c-0.273-0.196-0.295-0.656-0.309-0.961c-0.036-0.785,0.124-1.589,0.317-2.351
			c1.053-0.53,2.03-1.27,2.944-2.078c0.812-0.718,1.692-1.508,2.226-2.466c0.303-0.544,0.483-1.441-0.25-1.751
			c-0.505-0.214-1.159,0.14-1.587,0.381c-0.593,0.333-1.149,0.766-1.618,1.258c-0.971,1.019-1.617,2.366-2.024,3.703
			c-0.064,0.209-0.148,0.489-0.232,0.807c-1.128,0.547-2.359,0.827-3.738,0.626c-0.07-0.01-0.098,0.146-0.029,0.161
			c1.325,0.286,2.535,0.099,3.659-0.349c-0.328,1.421-0.513,3.297,0.812,3.662c1.409,0.389,2.918-1.289,3.627-2.24
			c0.547-0.734,1-1.458,1.421-2.291c0.031-0.062,0.081-0.113,0.122-0.17c-0.039,0.658,0.129,1.138,0.774,1.03
			c0.677-0.114,1.249-1.038,1.609-1.539c0.342-0.474,0.649-0.97,0.964-1.462c0.058,0.592,0.166,1.266,0.731,1.153
			c0.544-0.109,1.034-1.097,1.301-1.498c0.229-0.344,0.453-0.696,0.644-1.063c0.033,0.068,0.074,0.133,0.128,0.193
			c0.471,0.506,1.029-0.034,1.333-0.434c0.432-0.568,0.919-1.167,1.324-1.804c0.108,0.275,0.282,0.502,0.562,0.633
			c0.725,0.341,1.407-0.259,1.826-0.794c0.526-0.673,0.955-1.436,1.365-2.196c0.059,0.269,0.195,0.51,0.499,0.695
			c0.53,0.321,1.207,0.197,1.71-0.112C166.516,89.679,166.298,89.192,166.059,89.312z M150.168,92.149
			c0.338-0.171,1.04-0.458,1.077,0.11c0.021,0.33-0.282,0.738-0.459,0.994c-0.546,0.787-1.264,1.463-1.974,2.101
			c-0.779,0.7-1.598,1.36-2.474,1.883C146.957,95.126,148.151,93.17,150.168,92.149z"/>
	</g>
</g>
</svg>
