<svg width="226" height="248" viewBox="0 0 226 248" fill="none" xmlns="http://www.w3.org/2000/svg">
<path fill-rule="evenodd" clip-rule="evenodd" d="M142.385 0.0221088C145.653 -0.184423 149.383 1.09195 152.231 2.35179C160.614 6.06524 168.651 10.5015 176.3 14.8263C178.81 16.2473 181.386 17.8417 184.098 19.2131C189.53 21.9682 194.665 24.1533 200.097 27.5735C203.023 29.4158 206.188 31.638 207.346 34.5625C209.531 40.0687 206.84 46.9214 204.886 50.8786C202.557 55.5834 200.126 59.9866 197.913 64.3073C193.235 73.4277 188.755 81.7014 183.826 91.0367C178.876 100.422 174.511 109.269 170.151 118.179C166.907 124.801 163.136 131.678 159.621 138.328C157.642 142.058 156.031 145.722 152.095 147.238C151.304 147.54 149.713 147.8 148.266 147.647C145.076 147.321 141.973 145.437 139.104 144.087C136.219 142.723 133.372 141.15 130.763 139.696C120.303 133.88 107.905 128.254 97.5278 122.012C92.5244 119.005 86.5278 115.387 83.989 110.224C81.0711 104.288 84.904 95.9645 87.2738 91.1689C89.6147 86.4269 91.9021 82.3706 94.2472 78.4176C96.7777 74.1589 99.2258 69.7721 101.497 65.8109C106.121 57.7313 111.264 48.743 115.171 39.9035C117.1 35.5374 119.462 30.6591 121.601 26.6069C124.849 20.4647 128.508 13.6821 132.407 7.69271C133.747 5.62739 135.263 3.47946 136.784 2.20722C138 1.19521 139.805 0.179073 142.389 0.0138476L142.385 0.0221088Z" fill="#C1D5E8"/>
<path d="M172.43 22.2162C172.55 22.2493 172.727 22.2203 172.731 22.3566C174.771 21.956 175.736 19.7543 176.622 18.1888C177.05 17.4371 177.532 16.6192 177.916 15.7559C177.372 15.4378 176.832 15.128 176.3 14.8265C176.008 14.6613 175.715 14.496 175.422 14.3308C174.891 15.1363 174.392 16.0202 173.93 16.8918C173.106 18.4656 171.701 20.3244 172.434 22.2162H172.43Z" fill="white"/>
<path d="M167.493 30.7004C166.327 32.489 164.645 34.8558 163.751 36.884C163.091 38.3958 162.992 39.9778 164.352 40.0481C165.387 40.1059 166.306 38.276 166.743 37.6027C167.472 36.4792 168.222 35.525 168.692 34.7278C170.007 32.4642 171.379 30.6963 171.235 27.9659C169.372 26.5863 168.321 29.4282 167.493 30.6963V30.7004Z" fill="white"/>
<path d="M158.813 47.3883C156.913 49.5445 154.754 53.1258 153.575 56.0214C153.204 56.926 152.673 58.2106 153.724 58.8963C155.018 58.9748 155.718 57.7108 156.271 56.8805C156.926 55.8851 157.408 54.807 157.915 53.8569C158.978 51.8701 160.507 49.718 160.462 47.3842C160.141 47.095 159.085 46.8968 158.813 47.3842V47.3883Z" fill="white"/>
<path d="M147.587 66.8064C146.659 67.7936 145.942 69.512 144.895 71.4079C144.417 72.2712 141.957 75.4188 143.399 76.2986C144.232 76.8108 145.546 75.394 145.942 74.8611C146.729 73.812 147.141 72.8495 147.591 72.1267C148.79 70.1894 150.068 68.4917 149.985 66.2281C149.128 65.5672 148.139 66.2198 147.591 66.8064H147.587Z" fill="white"/>
<path d="M139.056 84.9317C139.056 85.1217 138.792 85.0639 138.755 85.2167C137.119 86.4931 136.142 88.0586 135.012 90.2478C134.46 91.3218 131.876 95.3905 133.368 96.1464C134.464 96.704 135.383 95.155 135.911 94.4198C137.271 92.5238 138.24 90.6278 139.204 88.6699C139.694 87.6703 140.568 86.6128 140.251 85.3571C139.921 85.1465 139.608 84.9234 139.051 84.9275L139.056 84.9317Z" fill="white"/>
<path d="M128.278 104.49C127.215 105.915 126.218 107.316 124.985 109.526C124.499 110.393 121.766 114.511 123.786 114.846C124.771 115.011 125.583 113.615 126.032 112.975C126.663 112.078 127.244 111.071 127.676 110.385C128.876 108.485 130.1 106.787 129.923 104.49C129.601 104.201 128.546 104.003 128.274 104.49H128.278Z" fill="white"/>
<path d="M119.45 123.479C119.128 123.186 118.073 122.991 117.801 123.479C116.758 124.619 115.926 125.631 114.961 127.791C114.759 128.237 113.98 129.6 113.663 130.782C114.364 131.141 115.064 131.496 115.761 131.856C116.659 130.831 117.43 129.196 117.653 128.799C118.646 127.039 119.619 125.453 119.45 123.479Z" fill="white"/>
<path opacity="0.38" fill-rule="evenodd" clip-rule="evenodd" d="M144.561 110.624C144.306 111.64 143.065 111.516 142.394 111.711C137.497 113.115 132.914 116.283 132.791 122.731C132.663 129.571 138.305 134.611 145.18 133.905C148.168 133.599 150.418 132.095 151.992 130.336C152.557 129.704 153.023 128.324 154.469 128.939C155.656 131.232 153.068 132.992 151.527 134.061C142.509 140.303 129.337 133.574 130.462 121.492C130.973 115.994 135.503 110.637 141.149 110.005C142.476 109.856 143.778 109.905 144.553 110.628L144.561 110.624Z" fill="#334F70"/>
<path fill-rule="evenodd" clip-rule="evenodd" d="M143.169 115.123C144.574 114.966 146.973 115.168 148.279 115.899C150.876 117.345 153.138 121.133 152.149 124.9C151.242 128.357 145.46 132.826 140.378 130.336C138.891 129.605 137.007 127.486 136.504 125.523C135.284 120.761 138.219 116.581 141.153 115.436C141.726 115.209 142.402 115.213 143.164 115.127L143.169 115.123Z" fill="white"/>
<path opacity="0.38" fill-rule="evenodd" clip-rule="evenodd" d="M143.325 116.209C144.92 118.468 145.863 122.075 146.424 125.519C146.589 126.54 147.195 127.895 146.267 128.783C144.953 129.072 144.631 127.622 144.252 126.61C143.91 125.689 143.588 124.495 143.321 123.504C142.752 121.372 141.878 118.233 142.237 116.676C142.232 116.407 142.352 116.271 142.55 116.209H143.325Z" fill="#334F70"/>
<path opacity="0.38" fill-rule="evenodd" clip-rule="evenodd" d="M160.928 83.709C160.672 84.7251 159.432 84.6012 158.76 84.7953C153.864 86.1997 149.281 89.3679 149.157 95.8159C149.029 102.652 154.671 107.696 161.546 106.993C164.534 106.688 166.784 105.184 168.359 103.425C168.923 102.793 169.389 101.417 170.835 102.028C172.022 104.321 169.434 106.085 167.893 107.15C158.875 113.388 145.707 106.667 146.828 94.5808C147.339 89.0788 151.869 83.7255 157.515 83.0894C158.842 82.9407 160.149 82.9944 160.924 83.7131L160.928 83.709Z" fill="#334F70"/>
<path fill-rule="evenodd" clip-rule="evenodd" d="M159.534 88.2073C160.936 88.0503 163.338 88.2568 164.645 88.988C167.237 90.4296 169.504 94.2174 168.515 97.9886C167.608 101.446 161.826 105.915 156.744 103.425C155.26 102.693 153.377 100.574 152.874 98.6124C151.654 93.8497 154.593 89.6737 157.519 88.5212C158.092 88.2982 158.768 88.2982 159.534 88.2114V88.2073Z" fill="white"/>
<path opacity="0.38" fill-rule="evenodd" clip-rule="evenodd" d="M159.687 89.2937C161.282 91.5573 162.23 95.1633 162.786 98.6083C162.951 99.6286 163.553 100.983 162.629 101.867C161.319 102.161 160.993 100.707 160.614 99.6947C160.272 98.7777 159.951 97.588 159.687 96.5925C159.118 94.4653 158.244 91.3218 158.603 89.7646C158.599 89.4961 158.718 89.3598 158.912 89.2978H159.687V89.2937Z" fill="#334F70"/>
<path opacity="0.38" fill-rule="evenodd" clip-rule="evenodd" d="M174.825 57.0705C174.569 58.0907 173.329 57.9627 172.657 58.161C167.761 59.5612 163.178 62.7336 163.054 69.1815C162.926 76.0177 168.568 81.0612 175.443 80.3549C178.431 80.0492 180.681 78.5457 182.255 76.7819C182.82 76.154 183.286 74.7744 184.732 75.3857C185.919 77.6782 183.331 79.442 181.79 80.5077C172.772 86.745 159.604 80.0245 160.725 67.9341C161.236 62.4362 165.766 57.0829 171.412 56.4509C172.739 56.298 174.042 56.3559 174.816 57.0705H174.825Z" fill="#334F70"/>
<path fill-rule="evenodd" clip-rule="evenodd" d="M173.432 61.5728C174.837 61.4158 177.236 61.6224 178.542 62.3494C181.135 63.791 183.401 67.5787 182.412 71.35C181.506 74.8074 175.723 79.2726 170.646 76.7818C169.158 76.0548 167.274 73.9358 166.772 71.9738C165.552 67.207 168.49 63.0309 171.42 61.8867C171.993 61.6637 172.665 61.6637 173.432 61.5769V61.5728Z" fill="white"/>
<path opacity="0.38" fill-rule="evenodd" clip-rule="evenodd" d="M173.589 62.655C175.179 64.9186 176.127 68.5247 176.684 71.9696C176.849 72.9899 177.454 74.3447 176.527 75.2287C175.217 75.5179 174.891 74.068 174.516 73.056C174.174 72.139 173.852 70.9452 173.589 69.9539C173.02 67.8225 172.146 64.6832 172.501 63.1259C172.496 62.8616 172.616 62.7253 172.814 62.6592H173.589V62.655Z" fill="#334F70"/>
<path opacity="0.38" fill-rule="evenodd" clip-rule="evenodd" d="M189.571 28.284C189.316 29.3042 188.075 29.1803 187.404 29.3703C182.512 30.7747 177.924 33.9429 177.801 40.3909C177.673 47.2312 183.315 52.2747 190.19 51.5684C193.178 51.2627 195.428 49.7592 197.002 47.9995C197.571 47.3634 198.033 45.992 199.479 46.6034C200.67 48.8959 198.082 50.6596 196.541 51.7295C187.523 57.9626 174.355 51.2462 175.476 39.1558C175.987 33.6579 180.517 28.3046 186.163 27.6726C187.49 27.5198 188.793 27.5735 189.567 28.2881L189.571 28.284Z" fill="#334F70"/>
<path fill-rule="evenodd" clip-rule="evenodd" d="M188.178 32.7907C189.584 32.6296 191.982 32.8361 193.289 33.5672C195.885 35.0088 198.152 38.7966 197.159 42.5679C196.252 46.0252 190.47 50.4905 185.388 47.9997C183.9 47.2727 182.021 45.1537 181.518 43.1875C180.298 38.4249 183.237 34.2488 186.167 33.1005C186.736 32.8774 187.412 32.8774 188.178 32.7907Z" fill="white"/>
<path opacity="0.38" fill-rule="evenodd" clip-rule="evenodd" d="M188.335 33.8728C189.926 36.1364 190.873 39.7383 191.434 43.1874C191.599 44.2077 192.205 45.5625 191.277 46.4465C189.967 46.7356 189.641 45.2858 189.266 44.2738C188.924 43.3526 188.603 42.163 188.335 41.1716C187.766 39.0402 186.892 35.9009 187.251 34.3396C187.247 34.0752 187.37 33.9389 187.564 33.8728H188.339H188.335Z" fill="#334F70"/>
<path opacity="0.38" fill-rule="evenodd" clip-rule="evenodd" d="M105.968 90.1238C105.709 91.14 104.472 91.0202 103.801 91.2143C98.9044 92.6146 94.3214 95.7869 94.1977 102.235C94.07 109.071 99.7163 114.115 106.587 113.408C109.575 113.103 111.825 111.599 113.399 109.835C113.968 109.203 114.426 107.828 115.876 108.439C117.063 110.732 114.475 112.491 112.934 113.557C103.916 119.798 90.7481 113.074 91.8733 100.987C92.3843 95.4895 96.9096 90.1321 102.556 89.5001C103.883 89.3514 105.185 89.4051 105.964 90.1197L105.968 90.1238Z" fill="#334F70"/>
<path fill-rule="evenodd" clip-rule="evenodd" d="M104.571 94.6303C105.977 94.4692 108.375 94.6799 109.682 95.4069C112.274 96.8526 114.541 100.636 113.552 104.408C112.645 107.865 106.859 112.334 101.781 109.839C100.293 109.112 98.4097 106.989 97.911 105.027C96.6911 100.265 99.6255 96.0843 102.556 94.9401C103.129 94.7129 103.805 94.7129 104.571 94.6303Z" fill="white"/>
<path opacity="0.38" fill-rule="evenodd" clip-rule="evenodd" d="M104.728 95.7126C106.319 97.9762 107.267 101.578 107.827 105.027C107.992 106.048 108.598 107.402 107.67 108.286C106.356 108.575 106.03 107.126 105.655 106.114C105.313 105.197 104.992 104.003 104.728 103.007C104.159 100.88 103.285 97.7367 103.644 96.1794C103.636 95.915 103.759 95.7787 103.953 95.7126H104.728Z" fill="#334F70"/>
<path opacity="0.38" fill-rule="evenodd" clip-rule="evenodd" d="M122.33 63.2126C122.075 64.2287 120.834 64.1048 120.163 64.2989C115.271 65.6992 110.683 68.8716 110.56 75.3154C110.428 82.1557 116.078 87.1992 122.949 86.4929C125.937 86.1872 128.187 84.6837 129.761 82.924C130.326 82.2879 130.788 80.9124 132.238 81.5237C133.429 83.8162 130.841 85.5759 129.296 86.6457C120.278 92.883 107.11 86.1583 108.231 74.0721C108.742 68.5742 113.272 63.2167 118.918 62.5847C120.245 62.436 121.552 62.4897 122.326 63.2085L122.33 63.2126Z" fill="#334F70"/>
<path fill-rule="evenodd" clip-rule="evenodd" d="M120.937 67.7148C122.343 67.5537 124.746 67.7644 126.048 68.4914C128.64 69.9371 130.907 73.7207 129.918 77.492C129.011 80.9494 123.229 85.4187 118.147 82.9279C116.663 82.1968 114.78 80.0778 114.277 78.1158C113.057 73.3573 115.992 69.1729 118.922 68.0287C119.495 67.8057 120.171 67.8057 120.933 67.7189L120.937 67.7148Z" fill="white"/>
<path opacity="0.38" fill-rule="evenodd" clip-rule="evenodd" d="M121.09 68.8013C122.685 71.0607 123.628 74.6668 124.189 78.1117C124.354 79.132 124.955 80.4869 124.032 81.3708C122.718 81.6641 122.396 80.2101 122.021 79.1981C121.679 78.2811 121.357 77.0915 121.09 76.096C120.521 73.9646 119.647 70.8253 120.006 69.268C119.997 69.0037 120.121 68.8674 120.319 68.8013H121.09Z" fill="#334F70"/>
<path opacity="0.38" fill-rule="evenodd" clip-rule="evenodd" d="M136.232 36.5784C135.972 37.5945 134.736 37.4706 134.064 37.6647C129.168 39.0691 124.585 42.2415 124.461 48.6853C124.33 55.5256 129.976 60.565 136.85 59.8628C139.838 59.553 142.089 58.0536 143.663 56.2898C144.228 55.6578 144.693 54.2823 146.14 54.8936C147.327 57.1861 144.739 58.9458 143.197 60.0156C134.18 66.257 121.012 59.5323 122.137 47.4461C122.648 41.9482 127.173 36.5949 132.82 35.9588C134.147 35.8101 135.453 35.8637 136.228 36.5825L136.232 36.5784Z" fill="#334F70"/>
<path fill-rule="evenodd" clip-rule="evenodd" d="M134.834 41.0807C136.24 40.9196 138.638 41.1262 139.945 41.8532C142.541 43.2989 144.804 47.0867 143.815 50.858C142.908 54.3153 137.126 58.7805 132.044 56.2898C130.556 55.5628 128.677 53.4437 128.174 51.4776C126.954 46.7149 129.889 42.5389 132.819 41.3864C133.392 41.1633 134.068 41.1633 134.834 41.0766V41.0807Z" fill="white"/>
<path opacity="0.38" fill-rule="evenodd" clip-rule="evenodd" d="M134.991 42.1631C136.586 44.4267 137.53 48.0286 138.09 51.4777C138.255 52.498 138.861 53.8528 137.934 54.7368C136.619 55.0259 136.297 53.5761 135.922 52.564C135.58 51.647 135.259 50.4533 134.991 49.4619C134.422 47.3305 133.548 44.1912 133.907 42.634C133.899 42.3696 134.022 42.2292 134.22 42.1631H134.991Z" fill="#334F70"/>
<path opacity="0.38" fill-rule="evenodd" clip-rule="evenodd" d="M150.974 7.79182C150.719 8.80796 149.478 8.68817 148.806 8.87818C143.914 10.2826 139.327 13.4508 139.207 19.8987C139.076 26.7349 144.722 31.7785 151.592 31.0721C154.58 30.7665 156.831 29.2629 158.405 27.5032C158.974 26.8713 159.435 25.4958 160.882 26.1071C162.069 28.3996 159.481 30.1592 157.939 31.2291C148.922 37.4705 135.754 30.7458 136.875 18.6595C137.386 13.1575 141.915 7.80421 147.562 7.17222C148.889 7.02352 150.191 7.07722 150.966 7.79182H150.974Z" fill="#334F70"/>
<path fill-rule="evenodd" clip-rule="evenodd" d="M149.581 12.2944C150.987 12.1333 153.389 12.3439 154.692 13.0709C157.284 14.5125 159.551 18.3003 158.566 22.0716C157.659 25.529 151.873 29.9942 146.795 27.5034C145.307 26.7764 143.424 24.6533 142.925 22.6912C141.705 17.9327 144.64 13.7525 147.574 12.6042C148.143 12.3811 148.819 12.3811 149.585 12.2944H149.581Z" fill="white"/>
<path opacity="0.38" fill-rule="evenodd" clip-rule="evenodd" d="M149.738 13.3809C151.328 15.6403 152.276 19.2464 152.837 22.6913C153.002 23.7116 153.603 25.0706 152.684 25.9545C151.37 26.2437 151.044 24.7938 150.669 23.7777C150.327 22.8607 150.005 21.6711 149.738 20.6756C149.169 18.5483 148.295 15.4049 148.654 13.8476C148.645 13.5833 148.769 13.447 148.967 13.385H149.742L149.738 13.3809Z" fill="#334F70"/>
<path fill-rule="evenodd" clip-rule="evenodd" d="M6.06982 92.7303L10.4303 98.2571C12.5775 100.979 18.772 99.6532 24.2617 95.2995C29.7555 90.95 32.4674 85.2125 30.316 82.4904L25.9556 76.9636L6.06982 92.7303Z" fill="#E8BD54"/>
<path opacity="0.14" fill-rule="evenodd" clip-rule="evenodd" d="M6.06982 92.7303L10.4303 98.2571C12.5775 100.979 18.772 99.6532 24.2617 95.2995C29.7555 90.95 32.4674 85.2125 30.316 82.4904L25.9556 76.9636L6.06982 92.7303Z" fill="#334F70"/>
<path fill-rule="evenodd" clip-rule="evenodd" d="M25.9556 76.9636C28.107 79.6857 25.3951 85.4232 19.9013 89.7728C14.4116 94.1265 8.2171 95.4524 6.06985 92.7303C3.9226 90.0082 6.63448 84.2749 12.1242 79.9212C17.618 75.5675 23.8083 74.2416 25.9556 76.9636Z" fill="#E8BD54"/>
<path d="M24.4595 75.8937C23.9443 75.6954 23.3632 75.588 22.7244 75.5591C21.6034 76.5876 20.301 78.0044 19.0316 79.3675C16.8844 81.6724 14.4115 84.3739 12.4333 86.6705C10.5498 88.8598 7.93683 91.681 6.93945 93.4902C7.32686 93.7298 7.7761 93.9033 8.27479 94.0107C12.1118 90.8796 17.5314 84.4234 21.8012 79.1899C22.6049 78.2027 23.7506 76.98 24.4636 75.8978L24.4595 75.8937Z" fill="white"/>
<path fill-rule="evenodd" clip-rule="evenodd" d="M79.0146 58.7971L79.4556 65.8275C79.67 69.2889 85.51 71.7425 92.4999 71.3047C99.4897 70.8627 104.979 67.7028 104.765 64.2413L104.328 57.2109L79.0188 58.7971H79.0146Z" fill="#E8BD54"/>
<path opacity="0.14" fill-rule="evenodd" clip-rule="evenodd" d="M79.0146 58.7971L79.4556 65.8275C79.6823 69.2889 85.5058 71.7425 92.4999 71.3047C99.4897 70.8627 104.979 67.7028 104.765 64.2413L104.328 57.2109L79.0188 58.7971H79.0146Z" fill="#334F70"/>
<path fill-rule="evenodd" clip-rule="evenodd" d="M104.328 57.2109C104.543 60.6765 99.0529 63.8365 92.063 64.2743C85.0731 64.7122 79.2331 62.2586 79.0188 58.7971C78.8045 55.3315 84.2942 52.1715 91.284 51.7337C98.2739 51.2958 104.114 53.7494 104.328 57.2109Z" fill="#E8BD54"/>
<path d="M103.702 55.4761C103.393 55.0217 102.98 54.6004 102.469 54.208C100.969 54.4104 99.0898 54.8276 97.2722 55.2241C94.1936 55.8851 90.6285 56.6947 87.6941 57.4506C84.9039 58.1693 81.1493 58.9954 79.2988 59.9083C79.4843 60.3296 79.7522 60.722 80.0984 61.0979C85.0317 60.7179 93.1591 58.5163 99.642 56.6533C100.866 56.3022 102.502 55.9594 103.702 55.472V55.4761Z" fill="white"/>
<path fill-rule="evenodd" clip-rule="evenodd" d="M41.4972 77.1125C40.809 76.6086 39.2346 75.5966 38.2125 74.6424C35.105 71.7427 32.7764 66.5298 37.5283 63.8945C39.2552 62.9362 42.0701 63.056 44.1308 63.7582C46.9911 64.7371 51.2073 67.2775 54.7146 69.8137C58.2713 72.3912 62.7925 75.8114 63.9259 78.4591C65.084 81.1771 64.3463 85.0805 60.7277 86.6089C57.4388 88.0009 53.8202 85.4771 49.8225 82.9285C46.8839 81.0532 44.3245 79.1696 41.5055 77.1125H41.4972Z" fill="#334F70"/>
<path d="M38.2123 74.6427C39.2344 75.5968 40.8087 76.6089 41.497 77.1128C42.9807 78.195 44.3943 79.2277 45.8245 80.2397C45.5607 75.9934 46.6199 70.4583 53.4697 68.9424C50.2509 66.716 46.657 64.6259 44.1306 63.7626C42.0699 63.0604 39.255 62.9406 37.5281 63.8989C32.7761 66.5342 35.1006 71.7471 38.2123 74.6468V74.6427Z" fill="#C64F69"/>
<path fill-rule="evenodd" clip-rule="evenodd" d="M49.9874 79.6158C49.431 78.4716 47.6217 77.315 45.7753 76.2865C44.984 75.8445 43.6981 75.1547 43.2241 75.8197C42.6554 76.6128 43.9948 77.6331 44.4771 77.9966C45.9978 79.1407 48.0668 80.2147 49.3362 80.4667C49.6288 80.3923 49.9338 79.9586 49.9874 79.6116V79.6158Z" fill="white"/>
<path fill-rule="evenodd" clip-rule="evenodd" d="M46.8798 74.5597C48.3677 73.1471 44.7779 70.4539 43.9165 71.9244C43.5415 72.5605 44.7944 74.5184 45.8454 74.853C46.2286 74.9728 46.6202 74.8076 46.8798 74.5597Z" fill="white"/>
<path d="M75.7047 21.0141C74.4477 24.2732 73.3844 27.6107 72.9475 31.539C72.5065 35.459 73.8954 38.5239 76.5043 39.3542C79.3892 40.267 82.0517 37.7515 83.6178 35.7894C85.7238 33.1417 87.2817 29.358 88.5841 25.5743C85.1427 19.779 79.2738 20.1219 75.7088 21.01L75.7047 21.0141Z" fill="#FF8C9B"/>
<path d="M86.4867 5.22271C86.0457 5.28054 85.1554 5.42511 84.7103 5.63164C81.1742 7.31694 78.9156 13.1577 77.3248 17.0116C76.7684 18.354 76.2244 19.68 75.7051 21.01C79.2701 20.1178 85.139 19.775 88.5803 25.5744C89.0996 24.0667 89.5818 22.5549 90.0393 21.1216C90.9089 18.4036 92.0176 15.5576 92.2278 12.7611C92.6028 7.80849 90.4267 4.70225 86.4825 5.22271H86.4867Z" fill="#25364F"/>
<path fill-rule="evenodd" clip-rule="evenodd" d="M83.5605 11.1626C83.5935 12.5752 82.3983 14.6406 81.1 16.5944C80.5437 17.4287 79.6246 18.7671 78.825 18.3581C77.8606 17.8625 78.6643 16.173 78.9528 15.57C79.8719 13.6616 81.3638 11.5426 82.489 10.6545C82.8146 10.576 83.338 10.8486 83.5605 11.1626Z" fill="white"/>
<path fill-rule="evenodd" clip-rule="evenodd" d="M83.0621 17.7344C85.2506 18.3664 83.0786 22.8564 81.4795 21.8444C80.7871 21.4065 81.0303 18.8455 81.8958 17.9698C82.209 17.66 82.683 17.6229 83.0621 17.7344Z" fill="white"/>
<path fill-rule="evenodd" clip-rule="evenodd" d="M75.6599 28.3253C76.4512 28.4699 76.7067 29.6141 76.5254 30.7748C76.3811 31.7042 75.6723 33.4184 74.712 32.9186C74.2875 32.6996 73.966 31.8116 74.0938 30.8409C74.2421 29.7091 74.6378 28.1435 75.664 28.3253H75.6599Z" fill="white"/>
<path fill-rule="evenodd" clip-rule="evenodd" d="M197.414 60.3831L191.092 63.4563C187.98 64.9681 187.93 71.3169 190.989 77.6326C194.047 83.9442 199.05 87.8353 202.162 86.3235L208.484 83.2462L197.414 60.3831Z" fill="#E8BD54"/>
<path opacity="0.14" fill-rule="evenodd" clip-rule="evenodd" d="M197.414 60.3831L191.092 63.4563C187.98 64.9681 187.93 71.3169 190.989 77.6326C194.047 83.9442 199.05 87.8353 202.162 86.3235L208.484 83.2462L197.414 60.3831Z" fill="#334F70"/>
<path fill-rule="evenodd" clip-rule="evenodd" d="M208.484 83.2462C205.368 84.7621 200.365 80.8711 197.311 74.5594C194.253 68.2437 194.298 61.899 197.414 60.3831C200.526 58.8712 205.533 62.7582 208.591 69.0739C211.649 75.3897 211.6 81.7344 208.488 83.2462H208.484Z" fill="#E8BD54"/>
<path d="M209.848 82.0112C210.149 81.5527 210.384 81.0033 210.549 80.3837C209.791 79.066 208.69 77.4881 207.635 75.9515C205.855 73.3534 203.753 70.3462 201.944 67.9174C200.217 65.6043 198.032 62.4402 196.487 61.0647C196.169 61.3951 195.906 61.7958 195.691 62.2626C197.913 66.6906 203.036 73.3905 207.215 78.6901C208.002 79.6939 208.946 81.0777 209.844 82.0112H209.848Z" fill="white"/>
<path fill-rule="evenodd" clip-rule="evenodd" d="M166.248 149.175L170.209 154.996C172.158 157.858 178.427 156.978 184.213 153.025C190 149.068 193.107 143.545 191.162 140.679L187.201 134.859L166.248 149.18V149.175Z" fill="#E8BD54"/>
<path opacity="0.14" fill-rule="evenodd" clip-rule="evenodd" d="M166.248 149.175L170.209 154.996C172.166 157.858 178.423 156.986 184.213 153.025C190 149.068 193.107 143.545 191.162 140.679L187.201 134.859L166.248 149.18V149.175Z" fill="#334F70"/>
<path fill-rule="evenodd" clip-rule="evenodd" d="M187.201 134.859C189.151 137.725 186.043 143.256 180.257 147.209C174.47 151.162 168.201 152.046 166.248 149.175C164.299 146.309 167.406 140.778 173.192 136.825C178.979 132.868 185.252 131.992 187.201 134.854V134.859Z" fill="#E8BD54"/>
<path d="M185.779 133.686C185.28 133.454 184.708 133.301 184.069 133.227C182.882 134.173 181.481 135.491 180.116 136.763C177.808 138.911 175.154 141.431 173.019 143.583C170.992 145.631 168.185 148.258 167.056 149.997C167.431 150.262 167.863 150.468 168.354 150.605C172.401 147.75 178.262 141.695 182.89 136.779C183.76 135.85 184.992 134.71 185.779 133.686Z" fill="white"/>
<path fill-rule="evenodd" clip-rule="evenodd" d="M168.8 116.713C168.107 117.212 166.525 118.216 165.502 119.162C162.374 122.045 160.017 127.242 164.752 129.906C166.471 130.877 169.29 130.773 171.351 130.079C174.215 129.117 178.452 126.601 181.967 124.086C185.541 121.533 190.082 118.142 191.228 115.498C192.403 112.788 191.686 108.881 188.075 107.332C184.799 105.919 181.164 108.418 177.145 110.946C174.194 112.801 171.627 114.672 168.791 116.713H168.8Z" fill="#334F70"/>
<path d="M165.498 119.158C166.52 118.216 168.102 117.208 168.795 116.708C170.287 115.634 171.705 114.61 173.139 113.61C172.846 117.848 173.877 123.396 180.714 124.953C177.483 127.159 173.877 129.228 171.342 130.075C169.281 130.769 166.462 130.868 164.744 129.902C160.008 127.233 162.365 122.041 165.494 119.158H165.498Z" fill="#C64F69"/>
<path fill-rule="evenodd" clip-rule="evenodd" d="M177.302 114.259C176.737 115.403 174.924 116.543 173.073 117.563C172.282 117.997 170.988 118.679 170.522 118.014C169.957 117.216 171.305 116.209 171.787 115.849C173.316 114.709 175.394 113.648 176.659 113.408C176.947 113.482 177.256 113.916 177.302 114.263V114.259Z" fill="white"/>
<path fill-rule="evenodd" clip-rule="evenodd" d="M174.165 119.298C175.641 120.719 172.035 123.392 171.186 121.913C170.819 121.273 172.08 119.331 173.135 118.997C173.514 118.877 173.91 119.046 174.165 119.298Z" fill="white"/>
<path d="M150.422 147.172C153.331 149.105 156.113 151.216 158.739 154.169C161.352 157.115 161.991 160.419 160.338 162.608C158.512 165.025 154.889 164.513 152.482 163.814C149.235 162.877 145.781 160.683 142.542 158.354C142.01 151.629 147.001 148.51 150.422 147.176V147.172Z" fill="#FF8C9B"/>
<path d="M132.523 140.522C132.914 140.311 133.726 139.914 134.212 139.832C138.07 139.163 143.279 142.624 146.795 144.846C148.023 145.623 149.235 146.387 150.422 147.176C146.997 148.514 142.006 151.629 142.542 158.354C141.243 157.42 139.986 156.466 138.783 155.561C136.508 153.847 133.965 152.166 132.18 150.005C129.019 146.176 129.007 142.38 132.523 140.522Z" fill="#25364F"/>
<path fill-rule="evenodd" clip-rule="evenodd" d="M138.334 143.673C139.121 144.846 141.285 145.838 143.469 146.685C144.405 147.044 145.925 147.606 146.342 146.808C146.84 145.846 145.212 144.933 144.631 144.607C142.785 143.582 140.345 142.715 138.911 142.641C138.602 142.765 138.33 143.289 138.33 143.673H138.334Z" fill="white"/>
<path fill-rule="evenodd" clip-rule="evenodd" d="M142.521 148.754C141.104 150.538 145.464 152.942 146.185 151.199C146.494 150.435 144.821 148.486 143.609 148.275C143.173 148.205 142.769 148.448 142.521 148.758V148.754Z" fill="white"/>
<path fill-rule="evenodd" clip-rule="evenodd" d="M154.667 153.116C154.102 153.694 154.556 154.776 155.376 155.611C156.031 156.288 157.593 157.279 158.092 156.313C158.314 155.892 158.063 154.975 157.404 154.26C156.629 153.421 155.401 152.372 154.671 153.116H154.667Z" fill="white"/>
<path fill-rule="evenodd" clip-rule="evenodd" d="M50.0943 16.1937C54.1868 17.9451 55.6705 21.2207 53.7541 25.3554C51.6645 29.8537 47.2299 32.6212 44.2295 34.5296C35.451 40.1142 26.8084 43.1172 17.1231 44.4514C15.0294 44.7364 13.0182 45.1453 11.2872 44.6579C9.27185 44.1003 7.73869 42.5265 7.08751 41.5434C5.24525 38.7676 6.02419 34.6246 9.13585 30.5022C10.1744 29.1226 11.8477 27.8916 13.4427 26.6855C17.4858 23.6288 22.7735 20.8572 27.0845 19.1471C33.1677 16.7389 40.2565 14.3886 46.9661 15.3015C47.9305 15.4336 48.9815 15.7145 50.0943 16.1937Z" fill="#C1D5E8"/>
<path d="M58.7822 38.7675C59.7961 36.5783 59.8497 34.6327 59.0749 33.0259H59.0831L54.4053 20.5762C54.768 21.9765 54.5743 23.5874 53.7583 25.3553C51.6687 29.8536 47.2341 32.6211 44.2337 34.5295C35.4551 40.1141 26.8126 43.1171 17.1273 44.4513C15.0336 44.7363 13.0224 45.1452 11.2914 44.6578C9.27604 44.1002 7.74288 42.5264 7.0917 41.5433C6.8609 41.1963 6.67132 40.8287 6.52295 40.4446L11.345 53.2041C11.5057 53.832 11.7612 54.4185 12.1198 54.9514C12.7751 55.9386 14.3041 57.5082 16.3195 58.0741C18.0546 58.5533 20.0617 58.1485 22.1595 57.8635C31.8448 56.5334 40.4874 53.5263 49.2659 47.9417C52.2663 46.0333 56.7051 43.2658 58.7864 38.7717L58.7822 38.7675Z" fill="#334F70"/>
<path d="M58.7824 38.7676C58.8731 38.5693 58.9472 38.3793 59.0255 38.181C57.3687 34.3354 55.8892 29.7339 53.3504 26.1567C52.8476 27.0696 52.2458 27.904 51.5864 28.6764C51.6565 28.8334 51.7307 28.9945 51.7925 29.1473C53.2103 32.4808 54.6898 35.4796 56.5239 38.6106C56.8824 39.2178 57.2575 39.9655 57.7067 40.6512C58.1065 40.0605 58.4733 39.4326 58.7824 38.7676Z" fill="#C1D5E8"/>
<path d="M47.7493 32.1667C47.2012 32.5716 46.653 32.9516 46.1255 33.3027C46.447 33.6827 46.8302 34.0586 47.0899 34.484C48.3881 36.57 49.2948 39.1351 50.5848 41.4029C51.2195 42.5223 52.0644 43.6582 52.8598 44.7735C52.967 44.9222 53.0783 45.0957 53.1937 45.2691C53.7913 44.8106 54.3889 44.3232 54.9659 43.7945C54.9123 43.6912 54.8505 43.5921 54.801 43.4888C53.0577 40.1843 50.5148 35.0582 47.7534 32.1667H47.7493Z" fill="#C1D5E8"/>
<path d="M46.958 43.0139C45.7051 40.172 44.4605 37.1277 42.8243 35.397C42.272 35.7316 41.7197 36.0579 41.1675 36.3718C41.2169 37.4953 42.0783 38.528 42.5275 39.5565C43.7475 42.3571 44.5759 45.0627 46.0142 47.7104C46.278 48.1978 46.5706 48.8009 46.9292 49.3544C47.6587 48.929 48.3882 48.487 49.1135 48.0243C48.9693 47.665 48.8086 47.3056 48.6725 46.9628C48.1615 45.6781 47.5227 44.2902 46.958 43.0097V43.0139Z" fill="#C1D5E8"/>
<path d="M41.5055 49.2761C40.3804 46.8349 39.3995 44.3358 38.2455 42.0681C37.7015 40.9983 37.108 39.631 36.2919 38.9041C35.682 39.1891 35.0679 39.4658 34.4497 39.7302C34.4332 40.6761 34.8701 41.6798 35.208 42.5349C36.3084 45.3231 37.6067 47.6569 39.1975 50.1766C39.6385 50.8788 40.063 51.9486 40.7307 52.5806C41.353 52.2997 41.9753 52.0106 42.5936 51.7008C42.4452 50.9077 41.8682 50.0733 41.5014 49.2761H41.5055Z" fill="#C1D5E8"/>
<path d="M32.8219 48.5491C31.7833 46.2153 30.7942 43.5345 29.4959 41.6138C28.7293 41.8699 27.9586 42.1053 27.1797 42.3325C27.3693 43.1999 27.7072 44.1169 27.9009 44.6828C29.0508 48.07 30.0152 50.5483 31.3918 53.4398C31.7297 54.1544 32.0924 54.9475 32.5375 55.6497C33.4483 55.3812 34.3509 55.0838 35.2494 54.774C35.0103 54.1172 34.66 53.4522 34.4169 52.8243C33.877 51.4406 33.436 49.9246 32.8219 48.5491Z" fill="#C1D5E8"/>
<path d="M24.2901 46.9877C23.7584 45.8352 23.1897 44.2821 22.3613 43.5427C21.8214 43.6584 21.2774 43.7658 20.7333 43.869C20.688 45.0752 21.1908 46.3268 21.6153 47.5123C22.6374 50.3665 23.8656 52.9358 25.2339 55.5959C25.4771 56.071 25.7285 56.6658 26.0499 57.2234C26.8124 57.0788 27.5707 56.9177 28.3249 56.7443C28.0941 56.1123 27.7397 55.4596 27.5007 54.8359C26.4868 52.151 25.51 49.6478 24.2901 46.9877Z" fill="#C1D5E8"/>
<path d="M18.7099 55.6165C17.6919 52.9357 16.7069 50.3004 15.7177 47.6774C15.3592 46.7232 15.0006 45.6369 14.5143 44.7983C13.8136 44.8727 13.1336 44.9016 12.4824 44.8562C12.6225 45.7071 13.2284 46.6489 13.5128 47.4543C14.5184 50.2962 15.2932 52.9605 16.4637 55.7198C16.8058 56.5252 17.1231 57.5083 17.6465 58.2808C18.2812 58.3179 18.9448 58.2766 19.6248 58.2023C19.5712 57.3885 19.0231 56.4261 18.714 55.6165H18.7099Z" fill="#C1D5E8"/>
<path fill-rule="evenodd" clip-rule="evenodd" d="M11.0069 39.7629C11.2789 41.4399 7.07506 40.147 8.22081 38.9285C8.81429 38.2924 10.4216 39.1805 11.0069 39.7629Z" fill="white"/>
<path fill-rule="evenodd" clip-rule="evenodd" d="M12.8985 42.043C12.6182 41.8158 12.1731 41.1962 12.6677 40.6757C13.3189 39.9859 15.1652 40.4196 15.9277 40.4527C16.855 40.494 18.6231 40.147 19.1053 41.0805C19.7894 42.4106 17.0858 42.5015 16.1544 42.4932C15.6598 42.4932 15.1735 42.4354 14.7572 42.4106C14.036 42.3734 13.4343 42.4808 12.9026 42.043H12.8985Z" fill="white"/>
<path fill-rule="evenodd" clip-rule="evenodd" d="M40.5737 17.7508C41.5876 16.999 46.6528 17.6516 46.3231 19.37C46.0552 20.7662 41.5917 20.0846 40.6397 18.9487C40.3924 18.6554 40.3306 18.3952 40.5696 17.7508H40.5737Z" fill="white"/>
<path fill-rule="evenodd" clip-rule="evenodd" d="M45.5193 22.724C45.3132 21.0428 47.8355 21.4724 47.9385 22.4761C48.0787 23.831 45.7006 24.2027 45.5193 22.724Z" fill="white"/>
<path fill-rule="evenodd" clip-rule="evenodd" d="M48.5528 19.432C48.6723 17.8334 52.5052 18.515 52.2044 19.9566C52.0807 20.5638 51.6356 20.6423 50.8484 20.696C49.6821 20.7703 48.4704 20.5514 48.5528 19.4361V19.432Z" fill="white"/>
<path fill-rule="evenodd" clip-rule="evenodd" d="M77.6953 91.9951C79.2944 94.5148 80.2959 96.8651 82.7564 98.0259C86.1854 99.6409 92.0213 98.5587 95.1988 100.356C97.5316 101.673 99.3038 105.081 100.944 107.894C102.667 110.852 104.287 113.71 105.729 116.391C108.898 122.289 112.171 128.035 115.303 133.392C117.063 136.4 118.312 139.398 119.68 142.298C122.507 148.279 124.976 154.211 127.61 160.94C128.9 164.219 130.94 169.688 129.526 173.551C128.059 177.557 122.672 180.16 118.584 182.188C107.118 187.871 97.2101 192.787 85.3528 197.95C82.2371 199.305 78.2929 200.966 74.5506 199.458C73.1288 198.888 71.0846 196.984 69.8976 195.484C68.1749 193.295 66.8395 190.47 65.3847 187.809C59.7177 177.425 54.5248 166.694 48.6971 155.735C45.8657 150.411 43.4794 145.057 40.8995 139.146C39.4487 135.817 38.1381 132.31 38.8511 128.593C39.3498 125.986 41.0107 123.731 42.4079 121.74C43.7803 119.774 45.672 117.461 45.8286 114.747C45.9811 112.107 44.8642 110.281 44.1883 108.171C52.2044 103.962 60.6245 100.095 68.9456 95.9688C71.8017 94.552 74.9752 92.9039 77.6994 91.9951H77.6953Z" fill="#3890A7"/>
<path d="M89.1819 177.119C92.343 175.612 95.6896 173.93 97.9316 171.638C98.6529 170.903 99.6667 169.469 99.9841 168.623C101.031 165.81 99.9552 162.402 99.0238 159.713C98.3149 157.656 97.4164 155.657 96.6993 153.955C93.2786 145.842 90.3276 139.605 86.8533 131.748C84.9987 127.552 82.4104 122.215 76.8713 122.293C72.9518 122.347 69.2797 124.458 66.065 125.718C62.6689 127.052 59.3718 128.374 55.9428 129.968C51.4175 132.075 46.0432 134.52 41.8559 137.37C41.4479 137.647 40.9904 137.957 40.5288 138.283C40.6525 138.576 40.7761 138.865 40.8997 139.155C43.4797 145.066 45.866 150.415 48.6974 155.743C54.5251 166.702 59.718 177.433 65.3849 187.818C65.4962 188.016 65.5993 188.218 65.7105 188.421C70.3553 186.199 75.3381 183.468 79.476 181.514C82.8267 179.928 85.9177 178.689 89.186 177.128L89.1819 177.119Z" fill="#C1D5E8"/>
<path fill-rule="evenodd" clip-rule="evenodd" d="M65.574 141.517C67.3009 141.055 70.2147 139.274 72.8153 139.117C74.6658 139.01 76.9903 144.562 76.5905 147.122C76.3762 148.519 72.2095 149.799 70.1776 151.245C70.9277 153.182 73.0626 156.536 71.9869 157.507C70.4702 158.874 67.5564 160.233 66.2334 160.477C64.9064 160.716 63.3072 156.631 61.9595 154.706C59.9936 155.756 57.3601 157.647 55.3818 156.685C54.3144 156.169 52.3979 152.616 52.0929 151.08C51.5201 148.184 55.2746 146.792 57.356 145.474C56.8531 143.727 55.6579 142.707 55.8764 140.691C56.0783 138.841 59.1075 136.779 61.3042 136.569C64.2634 136.292 64.5972 139.468 65.5781 141.513L65.574 141.517Z" fill="white"/>
<path fill-rule="evenodd" clip-rule="evenodd" d="M84.2153 158.618C79.6612 160.655 73.0175 163.934 68.2573 166.33C67.058 166.937 65.2858 167.763 64.2266 168.668C64.9231 169.92 65.599 171.184 66.2749 172.431C68.113 172.34 70.6395 170.341 71.9954 169.61C76.2033 167.342 80.1516 165.525 83.9186 163.513C84.5986 163.149 85.3776 162.786 86.0906 162.352C85.4559 161.117 84.8294 159.866 84.2071 158.618H84.2153Z" fill="#334F70"/>
<path fill-rule="evenodd" clip-rule="evenodd" d="M89.6184 168.742C89.1156 167.92 88.6416 167.086 88.1759 166.252C86.3378 166.727 84.615 168.193 83.2261 168.912C79.9826 170.581 75.2224 172.952 72.0035 174.538C71.1133 174.976 69.6008 175.562 68.4468 176.223C68.4797 176.277 68.5127 176.33 68.5416 176.384C69.1474 177.363 69.7491 178.342 70.355 179.325C70.7177 179.135 71.101 178.933 71.5337 178.755C77.0481 176.483 81.1819 173.976 86.2677 171.258C87.1373 170.791 88.7611 170.073 89.9028 169.218C89.808 169.061 89.7132 168.904 89.6225 168.751L89.6184 168.742Z" fill="#334F70"/>
<path fill-rule="evenodd" clip-rule="evenodd" d="M105.662 128.725C103.861 127.419 102.419 123.95 101.207 120.459C100.684 118.964 99.8843 116.531 101.166 115.911C102.703 115.168 104.051 117.787 104.529 118.724C106.046 121.694 107.274 125.594 107.323 127.857C107.109 128.341 106.264 128.745 105.662 128.721V128.725Z" fill="white"/>
<path fill-rule="evenodd" clip-rule="evenodd" d="M93.8058 116.581C90.9291 118.725 87.3805 111.715 90.1666 110.67C91.3742 110.215 94.3539 112.958 94.6218 114.887C94.7166 115.573 94.3086 116.205 93.8099 116.577L93.8058 116.581Z" fill="white"/>
<path fill-rule="evenodd" clip-rule="evenodd" d="M93.0554 107.097C92.1198 107.96 90.4424 107.188 89.1648 105.854C88.1385 104.78 86.6631 102.26 88.2004 101.529C88.8804 101.198 90.3105 101.636 91.3944 102.722C92.6762 103.986 94.2547 105.982 93.0512 107.093L93.0554 107.097Z" fill="white"/>
<path fill-rule="evenodd" clip-rule="evenodd" d="M78.6597 192.853C76.2816 194.233 82.2041 198.198 82.5585 195.509C82.744 194.109 79.9909 192.998 78.6597 192.853Z" fill="white"/>
<path fill-rule="evenodd" clip-rule="evenodd" d="M73.8664 192.816C74.4351 192.932 75.6633 192.866 75.8158 191.701C76.0095 190.176 73.5779 188.301 72.7536 187.372C71.7562 186.244 70.3714 183.667 68.7146 184.022C66.349 184.526 69.0031 188.02 69.9675 189.181C70.4786 189.801 71.0432 190.354 71.5007 190.858C72.2838 191.713 72.7701 192.585 73.8664 192.812V192.816Z" fill="white"/>
<path fill-rule="evenodd" clip-rule="evenodd" d="M78.0702 84.184C77.3449 82.8581 76.8791 81.7387 75.9848 80.3632C75.1523 79.0786 73.7221 77.3396 72.3703 76.7489C70.6229 75.9888 68.5086 76.6456 66.5097 77.4552C62.6603 79.0207 49.5254 86.0552 49.5213 86.0593C46.047 87.6744 42.8034 89.1945 39.5187 91.107C37.6558 92.1892 35.9866 93.4243 35.3726 95.312C34.2639 98.7322 36.914 103.375 37.5157 104.763C38.748 107.597 40.3306 111.388 44.7941 110.897C46.5539 110.703 48.458 109.724 50.1478 108.894C53.1028 107.44 71.0968 98.2076 74.0312 96.766C75.721 95.9357 77.654 95.0311 78.8904 93.7506C82.0103 90.5204 79.5498 86.8896 78.0702 84.1799V84.184Z" fill="#284981"/>
<path d="M37.6806 97.9515C42.2554 95.6011 46.657 93.5688 51.2112 91.3135C52.4105 90.7187 53.9354 89.8389 55.3779 88.9549C55.8725 88.6534 57.8466 87.8479 57.3562 86.9805C57.1419 86.6046 56.3423 86.6541 55.7818 86.7946C54.8462 87.0259 55.0399 87.092 54.1827 87.3935C48.7878 89.3225 43.2981 91.8877 38.134 94.4693C37.1861 94.9443 36.1969 95.4194 35.2243 95.9316C35.0264 96.9394 35.113 98.0217 35.3356 99.0832C36.2134 98.6743 37.013 98.2902 37.6806 97.9473V97.9515Z" fill="#1C2B5B"/>
<path d="M70.7382 79.0744C68.5786 80.1567 66.1923 81.2306 64.2882 82.8044C63.9297 83.0977 63.6329 83.5025 63.6 83.5727C63.4186 83.9279 63.3156 84.3534 63.6247 84.6962C64.2553 85.386 65.9203 84.6095 66.9342 84.1551C68.2077 83.581 69.3658 83.0316 70.2807 82.5607C72.0941 81.6272 73.8787 80.7515 75.6592 79.8882C75.1193 79.124 74.4186 78.2855 73.6768 77.637C72.6917 78.1161 71.7067 78.5994 70.7382 79.0827V79.0744Z" fill="#1C2B5B"/>
<path d="M45.7708 99.8268C46.8589 99.2485 49.4471 97.9969 48.7011 96.9642C48.1242 96.1629 46.2654 97.0468 45.062 97.559C42.4902 98.6537 39.8401 100.07 37.5569 101.248C37.1942 101.434 36.7079 101.644 36.2051 101.88C36.5142 102.644 36.8315 103.325 37.0953 103.867C40.038 102.681 42.7993 101.405 45.7708 99.8268Z" fill="#1C2B5B"/>
<path d="M76.0259 87.6868C73.7055 88.7855 70.973 90.033 68.5414 91.4167C67.4039 92.0611 65.5699 92.9988 65.8543 93.9488C66.2211 95.1715 68.7846 93.8703 69.9056 93.3581C73.384 91.7596 76.3885 90.1404 79.5126 88.232C79.6568 88.1411 79.8093 88.0544 79.9577 87.9718C79.7434 87.3687 79.4713 86.778 79.1787 86.2039C78.1072 86.5095 76.8419 87.2985 76.0217 87.6868H76.0259Z" fill="#1C2B5B"/>
<path d="M58.3655 99.2856C58.8642 99.0048 61.1228 97.7697 60.7518 96.9312C60.2408 95.7829 58.3491 96.8197 57.7885 97.0221C54.5986 98.1745 51.6848 99.645 48.7544 101.12C45.6964 102.66 42.7331 104.069 39.6956 106.002C39.3329 106.238 38.8919 106.506 38.4551 106.795C38.8837 107.646 39.3906 108.468 40.0253 109.162C41.1793 108.526 42.3209 107.848 43.4667 107.196C48.5154 104.329 53.2179 102.189 58.3655 99.2856Z" fill="#1C2B5B"/>
<path d="M59.3052 90.5617C57.6978 91.3424 55.192 92.2553 55.905 93.4903C57.7596 93.7423 71.3479 86.8731 77.7237 83.5231C77.4063 82.9118 77.1178 82.3252 76.7922 81.718C71.7806 84.1964 60.2572 90.0991 59.3052 90.5617Z" fill="#1C2B5B"/>
<g filter="url(#filter0_f_395_219)">
<rect width="217.463" height="17.2353" rx="8.61765" transform="matrix(1 0 0 -1 4 243.878)" fill="url(#paint0_radial_395_219)"/>
</g>
<defs>
<filter id="filter0_f_395_219" x="0" y="222.643" width="225.462" height="25.2354" filterUnits="userSpaceOnUse" color-interpolation-filters="sRGB">
<feFlood flood-opacity="0" result="BackgroundImageFix"/>
<feBlend mode="normal" in="SourceGraphic" in2="BackgroundImageFix" result="shape"/>
<feGaussianBlur stdDeviation="2" result="effect1_foregroundBlur_395_219"/>
</filter>
<radialGradient id="paint0_radial_395_219" cx="0" cy="0" r="1" gradientUnits="userSpaceOnUse" gradientTransform="translate(108.731 8.61765) rotate(180) scale(108.731 8.61765)">
<stop stop-color="#D2D2D2"/>
<stop offset="1" stop-color="white"/>
</radialGradient>
</defs>
</svg>
