<svg width="500" height="500" viewBox="0 0 500 500" fill="none" xmlns="http://www.w3.org/2000/svg">
<path d="M82.794 241.406C87.445 231.06 93.643 221.261 96.74 209.654C103.243 185.279 90.5531 160.224 98.0301 135.918C102.426 121.631 111.437 108.26 124.756 100.965C133.422 96.218 143.194 93.973 152.792 91.628C169.979 87.429 187.128 82.719 203.285 75.51C217.315 69.25 230.514 61.142 244.896 55.739C259.278 50.337 275.5 47.8 289.933 53.064C305.577 58.769 316.653 72.547 330.348 82.021C341.709 89.88 354.402 92.462 366.756 97.851C378.535 102.989 389.014 111.144 396.755 121.413C404.78 132.06 409.808 144.907 411.319 158.144C412.913 172.11 408.281 186.189 411.811 200.018C414.52 210.635 421.268 219.601 425.776 229.448C434.807 249.171 433.683 274.139 422.187 292.669C406.978 317.184 373.527 329.266 347.171 336.77C316.877 345.395 285.202 348.339 253.794 348.522C217.168 348.735 180.133 345.232 145.01 334.411C129.875 329.748 110.241 324.38 99.003 312.864C87.2541 300.824 78.4391 286.648 77.0561 269.475C77.0321 269.145 77.0081 268.815 76.9841 268.485C76.3441 258.304 79.074 249.68 82.794 241.406Z" fill="#DEF9F6"/>
<path d="M390.667 216.188H116V228.312H390.667V216.188Z" fill="#B5E6E3"/>
<path d="M390.667 151.746H116V163.87H390.667V151.746Z" fill="#B5E6E3"/>
<path d="M143.729 216.188H126.396V193.667C126.396 192.01 127.739 190.667 129.396 190.667H140.729C142.386 190.667 143.729 192.01 143.729 193.667V216.188Z" fill="#BDBEC2"/>
<path d="M138.063 182.5H132.063V190.833H138.063V182.5Z" fill="#CACBCD"/>
<path d="M140.599 197.891H129.526V208.964H140.599V197.891Z" fill="#CACBCD"/>
<path d="M165.667 216.188H148.334V193.667C148.334 192.01 149.677 190.667 151.334 190.667H162.667C164.324 190.667 165.667 192.01 165.667 193.667V216.188Z" fill="#BDBEC2"/>
<path d="M160 182.5H154V190.833H160V182.5Z" fill="#CACBCD"/>
<path d="M162.537 197.891H151.464V208.964H162.537V197.891Z" fill="#CACBCD"/>
<path d="M187.604 216.188H170.271V193.667C170.271 192.01 171.614 190.667 173.271 190.667H184.604C186.261 190.667 187.604 192.01 187.604 193.667V216.188Z" fill="#BDBEC2"/>
<path d="M181.938 182.5H175.938V190.833H181.938V182.5Z" fill="#CACBCD"/>
<path d="M184.474 197.891H173.401V208.964H184.474V197.891Z" fill="#CACBCD"/>
<path d="M197.354 146.049H168.521V151.862H197.354V146.049Z" fill="#CACBCD"/>
<path d="M177.584 146.049H171.771V151.862H177.584V146.049Z" fill="#FF7775"/>
<path opacity="0.1" d="M197.354 146.049H168.521V147.674H197.354V146.049Z" fill="#231F20"/>
<path d="M197.354 140.236H168.521V146.049H197.354V140.236Z" fill="#CACBCD"/>
<path d="M177.584 140.236H171.771V146.049H177.584V140.236Z" fill="#FF7775"/>
<path opacity="0.1" d="M197.354 140.236H168.521V141.861H197.354V140.236Z" fill="#231F20"/>
<path d="M197.354 134.423H168.521V140.236H197.354V134.423Z" fill="#CACBCD"/>
<path d="M177.584 134.423H171.771V140.236H177.584V134.423Z" fill="#FF7775"/>
<path opacity="0.1" d="M197.354 134.423H168.521V136.048H197.354V134.423Z" fill="#231F20"/>
<path d="M197.354 128.61H168.521V134.423H197.354V128.61Z" fill="#CACBCD"/>
<path d="M177.584 128.61H171.771V134.423H177.584V128.61Z" fill="#FF7775"/>
<path opacity="0.1" d="M197.354 128.61H168.521V130.235H197.354V128.61Z" fill="#231F20"/>
<path d="M197.354 122.797H168.521V128.61H197.354V122.797Z" fill="#CACBCD"/>
<path d="M177.584 122.797H171.771V128.61H177.584V122.797Z" fill="#FF7775"/>
<path opacity="0.1" d="M197.354 122.797H168.521V124.422H197.354V122.797Z" fill="#231F20"/>
<path d="M133.748 151.747V122.914H127.935V151.747H133.748Z" fill="#CACBCD"/>
<path d="M133.748 131.976V126.163H127.935V131.976H133.748Z" fill="#FF7775"/>
<path opacity="0.1" d="M133.748 151.746V122.913H132.123V151.746H133.748Z" fill="#231F20"/>
<path d="M139.561 151.746V122.913H133.748V151.746H139.561Z" fill="#CACBCD"/>
<path d="M139.561 131.976V126.163H133.748V131.976H139.561Z" fill="#FF7775"/>
<path opacity="0.1" d="M139.561 151.746V122.913H137.936V151.746H139.561Z" fill="#231F20"/>
<path d="M145.374 151.746V122.913H139.561V151.746H145.374Z" fill="#CACBCD"/>
<path d="M145.374 131.976V126.163H139.561V131.976H145.374Z" fill="#FF7775"/>
<path opacity="0.1" d="M145.374 151.746V122.913H143.749V151.746H145.374Z" fill="#231F20"/>
<path d="M151.187 151.746V122.913H145.374V151.746H151.187Z" fill="#CACBCD"/>
<path d="M151.187 131.976V126.163H145.374V131.976H151.187Z" fill="#FF7775"/>
<path opacity="0.1" d="M151.187 151.746V122.913H149.562V151.746H151.187Z" fill="#231F20"/>
<path d="M157 151.746V122.913H151.187V151.746H157Z" fill="#CACBCD"/>
<path d="M157 131.976V126.163H151.187V131.976H157Z" fill="#FF7775"/>
<path opacity="0.1" d="M157 151.746V122.913H155.375V151.746H157Z" fill="#231F20"/>
<path d="M338.77 204.562H332.645C332.093 204.562 331.645 205.01 331.645 205.562V216.188H339.77V205.562C339.77 205.01 339.322 204.562 338.77 204.562Z" fill="#CACBCD"/>
<path d="M337.77 198.686H333.645V204.625H337.77V198.686Z" fill="#FF7775"/>
<path d="M335.707 213.282C337.313 213.282 338.614 211.981 338.614 210.375C338.614 208.77 337.313 207.468 335.707 207.468C334.102 207.468 332.8 208.77 332.8 210.375C332.8 211.981 334.102 213.282 335.707 213.282Z" fill="#BDBEC2"/>
<path d="M349.543 204.562H343.418C342.866 204.562 342.418 205.01 342.418 205.562V216.188H350.543V205.562C350.543 205.01 350.096 204.562 349.543 204.562Z" fill="#CACBCD"/>
<path d="M348.543 198.686H344.418V204.625H348.543V198.686Z" fill="#FF7775"/>
<path d="M349.387 210.375C349.387 211.98 348.086 213.281 346.481 213.281C344.876 213.281 343.574 211.98 343.574 210.375C343.574 208.77 344.875 207.469 346.481 207.469C348.086 207.469 349.387 208.77 349.387 210.375Z" fill="#BDBEC2"/>
<path d="M360.317 204.562H354.192C353.64 204.562 353.192 205.01 353.192 205.562V216.188H361.317V205.562C361.317 205.01 360.869 204.562 360.317 204.562Z" fill="#CACBCD"/>
<path d="M359.317 198.686H355.192V204.625H359.317V198.686Z" fill="#FF7775"/>
<path d="M360.161 210.375C360.161 211.98 358.86 213.281 357.254 213.281C355.649 213.281 354.347 211.98 354.347 210.375C354.347 208.77 355.648 207.469 357.254 207.469C358.859 207.469 360.161 208.77 360.161 210.375Z" fill="#BDBEC2"/>
<path d="M371.09 204.562H364.965C364.413 204.562 363.965 205.01 363.965 205.562V216.188H372.09V205.562C372.09 205.01 371.642 204.562 371.09 204.562Z" fill="#CACBCD"/>
<path d="M370.09 198.686H365.965V204.625H370.09V198.686Z" fill="#FF7775"/>
<path d="M368.028 213.282C369.634 213.282 370.935 211.981 370.935 210.375C370.935 208.77 369.634 207.468 368.028 207.468C366.423 207.468 365.121 208.77 365.121 210.375C365.121 211.981 366.423 213.282 368.028 213.282Z" fill="#BDBEC2"/>
<path d="M381.863 204.562H375.738C375.186 204.562 374.738 205.01 374.738 205.562V216.188H382.863V205.562C382.863 205.01 382.416 204.562 381.863 204.562Z" fill="#CACBCD"/>
<path d="M380.863 198.686H376.738V204.625H380.863V198.686Z" fill="#FF7775"/>
<path d="M381.707 210.375C381.707 211.98 380.406 213.281 378.801 213.281C377.196 213.281 375.894 211.98 375.894 210.375C375.894 208.77 377.195 207.469 378.801 207.469C380.406 207.469 381.707 208.77 381.707 210.375Z" fill="#BDBEC2"/>
<path d="M332.08 151.746H320C319.448 151.746 319 151.298 319 150.746V138.666C319 138.114 319.448 137.666 320 137.666H332.08C332.632 137.666 333.08 138.114 333.08 138.666V150.746C333.08 151.299 332.632 151.746 332.08 151.746Z" fill="#047D76"/>
<path d="M329.103 131.54H322.976V137.667H329.103V131.54Z" fill="#CACBCD"/>
<path d="M333.08 141.123H319V148.29H333.08V141.123Z" fill="#B5E6E3"/>
<path d="M349.219 151.746H337.139C336.587 151.746 336.139 151.298 336.139 150.746V138.666C336.139 138.114 336.587 137.666 337.139 137.666H349.219C349.771 137.666 350.219 138.114 350.219 138.666V150.746C350.219 151.299 349.771 151.746 349.219 151.746Z" fill="#047D76"/>
<path d="M346.242 131.54H340.115V137.667H346.242V131.54Z" fill="#CACBCD"/>
<path d="M350.219 141.123H336.139V148.29H350.219V141.123Z" fill="#B5E6E3"/>
<path d="M366.358 151.746H354.278C353.726 151.746 353.278 151.298 353.278 150.746V138.666C353.278 138.114 353.726 137.666 354.278 137.666H366.358C366.91 137.666 367.358 138.114 367.358 138.666V150.746C367.358 151.299 366.91 151.746 366.358 151.746Z" fill="#047D76"/>
<path d="M363.381 131.54H357.254V137.667H363.381V131.54Z" fill="#CACBCD"/>
<path d="M367.358 141.123H353.278V148.29H367.358V141.123Z" fill="#B5E6E3"/>
<path d="M383.496 151.746H371.416C370.864 151.746 370.416 151.298 370.416 150.746V138.666C370.416 138.114 370.864 137.666 371.416 137.666H383.496C384.048 137.666 384.496 138.114 384.496 138.666V150.746C384.496 151.299 384.049 151.746 383.496 151.746Z" fill="#047D76"/>
<path d="M380.52 131.54H374.393V137.667H380.52V131.54Z" fill="#CACBCD"/>
<path d="M384.497 141.123H370.417V148.29H384.497V141.123Z" fill="#B5E6E3"/>
<path d="M275.249 303.169C275.231 295.152 274.794 286.75 273.419 278.858C273.103 277.047 272.564 275.05 270.987 274.105C270.043 273.539 268.894 273.465 267.794 273.413C258.533 272.97 249.256 273.018 239.984 273.065C236.623 273.082 233.262 273.1 229.902 273.117C227.819 273.128 225.495 273.236 224.047 274.733C223.06 275.754 222.704 277.212 222.386 278.596C220.169 288.266 220.05 298.718 220.527 308.597C220.537 308.798 220.548 309.004 220.619 309.192C220.864 309.841 221.676 310.03 222.365 310.114C227.303 310.715 232.291 310.726 237.265 310.727C246.871 310.727 256.478 310.69 266.084 310.616C268.458 310.598 270.85 310.575 273.174 310.089C273.511 310.018 273.859 309.932 274.128 309.717C274.479 309.436 274.638 308.984 274.754 308.549C275.218 306.803 275.253 304.975 275.249 303.169Z" fill="#42BBA8"/>
<path d="M222.769 231.01C213.06 228.472 204.385 223.588 199.098 214.605C194.584 206.935 193.62 198.422 192.813 189.721C191.256 172.926 192.179 156.086 193.063 139.287C193.238 136.972 193.452 134.661 193.715 132.354C194.348 126.79 195.269 121.223 197.13 115.941C200.578 106.159 207.328 98.651 217.231 95.211C222.636 93.333 229.241 92.1421 234.927 93.0931C240.021 93.9451 244.789 91.8241 249.63 90.6371C254.833 89.3621 260.159 88.592 265.511 88.347C285.508 87.431 303.127 103.661 308.614 122.156C311.727 132.648 310.849 144.062 310.472 154.864C310.076 166.22 309.258 177.587 307.868 188.866C306.732 198.08 304.319 207.888 298.441 215.312C294.445 220.404 288.97 224.208 283.069 226.867C274.027 230.942 263.963 232.773 254.106 233.264C244.343 233.751 232.984 233.679 222.769 231.01Z" fill="#754E2F"/>
<path d="M273.741 228.919C273.976 233.535 273.919 238.162 273.759 242.782C273.4 253.159 273.045 263.537 272.787 273.917C272.755 275.207 273.376 276.81 272.499 277.948C271.966 278.639 271.038 278.887 270.169 278.967C267.901 279.176 265.678 279.637 263.412 279.91C258.469 280.505 253.488 280.784 248.509 280.749C240.562 280.693 231.27 280.511 223.764 277.664C223.414 277.531 223.051 277.379 222.812 277.091C222.579 276.81 222.494 276.437 222.421 276.079C221.435 271.296 221.547 266.203 221.256 261.304C220.93 255.832 220.764 250.351 220.762 244.87C220.759 238.087 220.794 231.303 221.604 224.556C222.156 219.954 223.12 214.454 227.409 211.894C229.568 210.605 232.018 210.271 234.438 209.805C237.36 209.242 240.239 208.703 243.214 208.494C248.379 208.131 253.613 208.315 258.681 209.436C263.283 210.454 268.717 212.006 271.394 216.231C273.602 219.715 273.504 224.551 273.721 228.536C273.728 228.664 273.735 228.791 273.741 228.919Z" fill="#71E3D9"/>
<mask id="mask0_171_1150" style="mask-type:luminance" maskUnits="userSpaceOnUse" x="220" y="208" width="54" height="73">
<path d="M273.741 228.919C273.976 233.535 273.919 238.162 273.759 242.782C273.4 253.159 273.045 263.537 272.787 273.917C272.755 275.207 273.376 276.81 272.499 277.948C271.966 278.639 271.038 278.887 270.169 278.967C267.901 279.176 265.678 279.637 263.412 279.91C258.469 280.505 253.488 280.784 248.509 280.749C240.562 280.693 231.27 280.511 223.764 277.664C223.414 277.531 223.051 277.379 222.812 277.091C222.579 276.81 222.494 276.437 222.421 276.079C221.435 271.296 221.547 266.203 221.256 261.304C220.93 255.832 220.764 250.351 220.762 244.87C220.759 238.087 220.794 231.303 221.604 224.556C222.156 219.954 223.12 214.454 227.409 211.894C229.568 210.605 232.018 210.271 234.438 209.805C237.36 209.242 240.239 208.703 243.214 208.494C248.379 208.131 253.613 208.315 258.681 209.436C263.283 210.454 268.717 212.006 271.394 216.231C273.602 219.715 273.504 224.551 273.721 228.536C273.728 228.664 273.735 228.791 273.741 228.919Z" fill="white"/>
</mask>
<g mask="url(#mask0_171_1150)">
<path d="M246.326 220.78L233.765 206.07L260.64 207.598L246.326 220.78Z" fill="#F89C6D"/>
</g>
<path d="M250.551 213.811C247.209 217.982 241.24 216.419 241.185 209.01C241.172 207.201 241.158 205.392 241.145 203.583C241.126 201.043 240.702 197.587 242.446 195.962C243.522 194.96 244.876 194.8 246.166 194.769C247.824 194.728 249.491 194.851 251.113 195.337C251.988 195.599 252.946 196.082 253.321 197.225C253.515 197.815 253.517 198.489 253.516 199.14C253.507 203.584 253.279 209.904 250.882 213.367C250.774 213.522 250.664 213.67 250.551 213.811Z" fill="#F89C6D"/>
<path d="M274.577 189.089C282.245 181.928 283.156 172.96 281.455 163.406C280.465 157.845 280.203 152.406 280.238 146.842C280.298 137.227 274.588 128.977 267.38 123.097C261.684 118.45 254.708 114.527 247.468 112.981C240.53 111.5 233.671 113.118 228.238 117.687C224.54 120.797 221.127 124.339 218.628 128.499C215.933 132.984 215.22 137.578 214.179 142.592C213.292 146.864 212.302 151.114 211.261 155.35C209.049 164.344 207.972 171.81 213.044 180.243C218.016 188.51 225.395 194.638 233.836 199.808C236.504 201.442 239.372 202.984 242.542 203.329C245.227 203.621 247.933 203.026 250.469 202.178C254.93 200.686 258.929 198.38 263.146 196.422C267.481 194.409 271.404 192.052 274.577 189.089Z" fill="#FAC39A"/>
<path d="M255.449 149.556C256.251 147.999 257.892 146.878 259.61 146.359C261.343 145.829 263.179 145.734 264.951 145.973C266.72 146.231 268.46 146.804 269.988 147.833C271.501 148.832 272.738 150.556 272.659 152.343C271.897 150.78 270.598 149.823 269.207 149.183C267.795 148.551 266.231 148.188 264.674 147.952C261.542 147.567 258.302 147.596 255.449 149.556Z" fill="#754E2F"/>
<path d="M233.265 148.87C231.761 148.179 230.265 147.836 228.745 147.626C227.228 147.428 225.698 147.391 224.197 147.488C222.701 147.596 221.212 147.855 219.759 148.31C218.306 148.771 216.9 149.401 215.501 150.292C216.293 148.82 217.648 147.664 219.151 146.873C220.661 146.077 222.35 145.605 224.061 145.494C225.769 145.38 227.48 145.591 229.098 146.113C230.698 146.629 232.272 147.514 233.265 148.87Z" fill="#754E2F"/>
<path d="M274.924 173.082C275.123 175.239 272.971 177.2 270.118 177.463C267.266 177.725 264.792 176.19 264.594 174.033C264.395 171.876 266.547 169.915 269.4 169.652C272.252 169.389 274.726 170.925 274.924 173.082Z" fill="#FDAA9C"/>
<path d="M214.308 170.587C213.933 172.72 216.029 174.872 218.989 175.392C221.949 175.912 224.652 174.605 225.027 172.471C225.402 170.338 223.307 168.187 220.347 167.666C217.387 167.147 214.684 168.454 214.308 170.587Z" fill="#FDAA9C"/>
<path d="M278.792 157.637C281.371 162.951 282.881 168.787 283.09 174.694C284.408 173.348 286.056 172.107 287.15 170.569C291.97 163.62 294.517 155.642 294.707 147.245C294.92 137.829 294.28 127.999 290.468 119.261C287.876 113.319 283.74 108.204 278.287 104.661C267.625 97.732 253.471 96.289 241.072 97.464C235.306 98.01 229.626 99.472 224.259 101.636C215.361 105.225 208.692 112.181 205.279 121.12C203.609 125.493 202.697 130.132 202.285 134.786C201.818 140.05 201.369 145.154 202.311 150.408C203.415 156.562 205.828 162.485 209.388 167.627C208.618 166.511 210.333 163.558 210.767 162.542C211.745 160.257 212.565 157.901 213.486 155.584C215.525 150.455 217.732 145.346 220.788 140.727C224.028 135.83 228.424 132.148 232.433 127.926C236.211 123.95 239.397 119.414 241.857 114.512C246.647 123.488 253.96 130.714 261.325 137.589C266.796 142.696 272.629 147.247 276.622 153.695C277.412 154.97 278.137 156.287 278.792 157.637Z" fill="#754E2F"/>
<path d="M203.346 157.218C198.465 162.017 199.071 175.235 207.136 176.507C215.329 177.799 214.747 166.864 213.38 161.748C212.669 159.085 211.463 156.412 208.478 155.763C206.373 155.305 204.623 155.962 203.346 157.218Z" fill="#FAC39A"/>
<path d="M268.018 160.687C267.63 164.355 265.591 167.147 263.462 166.922C261.333 166.697 259.922 163.541 260.31 159.873C260.698 156.205 262.737 153.413 264.866 153.638C266.995 153.863 268.406 157.019 268.018 160.687Z" fill="#231F20"/>
<path d="M220.896 159.695C221.284 163.363 223.323 166.155 225.452 165.93C227.58 165.705 228.992 162.549 228.604 158.881C228.216 155.213 226.177 152.421 224.048 152.646C221.919 152.871 220.508 156.027 220.896 159.695Z" fill="#231F20"/>
<path d="M289.454 161.254C294.01 166.538 292.288 179.913 283.988 180.53C275.558 181.156 277.065 170.098 278.881 165.016C279.826 162.371 281.275 159.756 284.361 159.347C286.54 159.058 288.262 159.871 289.454 161.254Z" fill="#FAC39A"/>
<path d="M240.182 176.278C241.669 176.754 243.736 176.724 245.138 175.968C246.364 175.306 246.528 173.725 245.062 173.227C243.509 172.699 241.576 172.308 239.954 172.708C237.37 173.344 237.947 175.562 240.182 176.278Z" fill="#F89C6D"/>
<path d="M169.25 298.078C171.04 296.655 172.83 295.232 174.62 293.809C175.624 293.011 176.539 292.215 177.646 291.557C178.785 290.88 179.983 290.303 181.223 289.836C182.003 289.542 182.801 289.386 183.563 289.067C184.366 288.731 185.206 288.467 186.077 288.396C186.22 288.384 186.382 288.385 186.48 288.489C186.591 288.606 186.566 288.792 186.533 288.951C186.278 290.179 186.022 291.406 185.767 292.634C185.603 293.421 185.664 294.169 185.364 294.934C185.047 295.741 184.553 296.464 184.116 297.207C183.384 298.45 182.801 299.781 182.383 301.161C182.152 301.921 181.928 302.761 181.281 303.222C181.104 303.348 180.872 303.44 180.672 303.355C180.582 303.317 180.51 303.248 180.444 303.176C179.879 302.558 179.674 301.686 179.654 300.848C179.634 300.011 179.777 299.178 179.806 298.341C179.812 298.525 178.907 299.103 178.761 299.26C178.5 299.54 178.283 299.823 177.99 300.086C177.283 300.718 176.561 301.335 175.802 301.905C174.287 303.041 172.24 304.296 170.333 304.556C169.312 304.695 168.705 304.264 169.08 303.236C168.78 303.394 168.468 303.555 168.13 303.575C167.792 303.595 167.418 303.434 167.298 303.117C167.106 302.606 167.637 302.126 167.779 301.599C167.404 301.634 167.083 301.269 167.047 300.895C167.01 300.521 167.186 300.158 167.395 299.845C167.874 299.126 168.581 298.609 169.25 298.078Z" fill="#FAC39A"/>
<path d="M227.128 181.068C229.325 182.755 231.688 184.235 234.218 185.242C234.852 185.483 235.499 185.687 236.146 185.81C236.81 185.919 237.485 185.997 238.164 186.052C239.53 186.15 240.893 186.2 242.26 186.153C244.989 186.066 247.716 185.722 250.368 185.052C251.697 184.729 253.012 184.328 254.278 183.798C255.561 183.303 256.793 182.686 258.003 181.998C256.927 182.881 255.728 183.612 254.489 184.265C253.237 184.895 251.923 185.4 250.585 185.827C247.901 186.664 245.092 187.073 242.284 187.14C240.88 187.17 239.468 187.116 238.076 186.941C236.689 186.796 235.25 186.451 233.964 185.856C231.386 184.691 229.118 182.999 227.128 181.068Z" fill="#E0896D"/>
<path d="M233.17 186.08C233.916 187.375 235.118 188.369 236.458 189.03C237.798 189.691 239.275 190.034 240.758 190.222C241.955 190.374 243.177 190.427 244.365 190.216C245.09 190.087 245.793 189.861 246.494 189.636C248.647 188.945 250.425 187.42 251.31 185.339C249.147 184.83 246.974 184.32 244.759 184.142C243.496 184.04 242.227 184.047 240.96 184.054C239.732 184.061 238.503 184.068 237.275 184.074C236.642 184.077 236.004 184.081 235.381 184.198C234.585 184.347 233.837 184.677 233.096 185.004C233.02 185.038 232.939 185.076 232.9 185.149C232.869 185.208 232.872 185.279 232.878 185.346C232.901 185.596 233.044 185.863 233.17 186.08Z" fill="#F06B71"/>
<path d="M247.876 183.648C249.467 184.268 251.074 184.801 252.842 184.66C252.472 184.965 252.001 185.113 251.543 185.255C249.792 185.796 247.98 186.378 246.149 186.708C244.255 187.049 242.352 187.042 240.439 186.881C239.234 186.78 238.041 186.605 236.848 186.415C235.748 186.239 234.6 186.096 233.607 185.554C233.246 185.357 232.915 185.111 232.592 184.859C232.415 184.721 231.859 184.099 231.647 184.102C233.962 184.078 235.907 182.886 238.109 182.365C239.756 181.976 241.475 181.897 243.151 182.13C244.8 182.36 246.33 183.045 247.876 183.648Z" fill="#E03239"/>
<path d="M257.159 179.963C257.343 180.359 257.438 180.737 257.559 181.061C257.683 181.386 257.804 181.642 257.991 181.852C258.157 182.077 258.415 182.273 258.687 182.492C258.966 182.703 259.293 182.91 259.617 183.204C259.196 183.314 258.778 183.313 258.359 183.2C257.942 183.087 257.532 182.86 257.216 182.483C256.908 182.101 256.762 181.602 256.789 181.168C256.802 180.727 256.931 180.333 257.159 179.963Z" fill="#E0896D"/>
<path d="M227.908 179.107C228.135 179.477 228.264 179.872 228.278 180.311C228.305 180.745 228.159 181.244 227.851 181.626C227.535 182.004 227.124 182.23 226.708 182.343C226.289 182.456 225.871 182.456 225.45 182.347C225.774 182.053 226.101 181.846 226.38 181.635C226.651 181.416 226.909 181.22 227.076 180.995C227.263 180.785 227.384 180.529 227.508 180.204C227.629 179.881 227.724 179.502 227.908 179.107Z" fill="#E0896D"/>
<path d="M281.257 172.196C281.485 174.853 282.555 176.923 284.969 175.872C286.092 175.383 286.822 174.264 287.236 173.111C287.871 171.342 288.332 169.167 288.131 167.292C287.845 164.63 284.922 162.444 282.753 164.808C281.711 165.944 281.016 169.396 281.257 172.196Z" fill="#F89C6D"/>
<path d="M204.988 169.885C205.691 172.457 207.117 174.301 209.302 172.832C210.318 172.148 210.835 170.916 211.034 169.708C211.34 167.854 211.401 165.631 210.865 163.823C210.104 161.257 206.835 159.633 205.127 162.349C204.308 163.653 204.247 167.173 204.988 169.885Z" fill="#F89C6D"/>
<path d="M230.994 213.016C227.2 212.258 223.201 213.328 219.893 215.335C214.55 218.576 211.075 223.87 208.164 229.252C204.542 235.949 200.693 242.345 197.404 249.24C191.298 262.038 186.494 275.529 178.478 287.32C178.137 287.822 177.777 288.36 177.767 288.967C177.752 289.846 178.462 290.553 179.154 291.095C181.067 292.595 183.263 293.733 185.592 294.431C186.093 294.581 186.654 294.706 187.12 294.47C187.469 294.293 187.695 293.946 187.904 293.615C195.629 281.364 203.071 268.76 209.799 255.818C211.126 253.266 213.193 250.919 214.768 248.5C218.35 242.999 221.413 237.343 224.313 231.53C227.264 225.615 230.127 219.904 231.173 213.289" fill="white"/>
<path d="M233.495 209.891C234.006 214.587 239.727 248.898 239.727 248.898L241.085 314.449C241.085 314.449 216.81 320.241 216.644 311.407C216.477 302.574 220.879 245.557 220.762 237.482C220.644 229.407 221.646 217.813 225.04 213.949C228.434 210.086 233.495 209.891 233.495 209.891Z" fill="white"/>
<path d="M239.727 248.898L231.395 228.557L233.977 226.074L230.138 225.49L224.75 212.335L233.415 209.387L239.727 248.898Z" fill="#EAEAEA"/>
<path d="M325.351 298.078C323.561 296.655 321.771 295.232 319.981 293.809C318.977 293.011 318.062 292.215 316.955 291.557C315.816 290.88 314.618 290.303 313.378 289.836C312.598 289.542 311.8 289.386 311.038 289.067C310.235 288.731 309.395 288.467 308.524 288.396C308.382 288.384 308.219 288.385 308.121 288.489C308.01 288.606 308.035 288.792 308.068 288.951C308.323 290.179 308.579 291.406 308.834 292.634C308.998 293.421 308.937 294.169 309.237 294.934C309.554 295.741 310.048 296.464 310.485 297.207C311.217 298.45 311.8 299.781 312.218 301.161C312.449 301.921 312.673 302.761 313.32 303.222C313.497 303.348 313.729 303.44 313.929 303.355C314.019 303.317 314.091 303.248 314.157 303.176C314.722 302.558 314.927 301.686 314.947 300.848C314.967 300.011 314.824 299.178 314.795 298.341C314.789 298.525 315.694 299.103 315.84 299.26C316.101 299.54 316.318 299.823 316.612 300.086C317.319 300.718 318.041 301.335 318.8 301.905C320.315 303.041 322.362 304.296 324.269 304.556C325.29 304.695 325.897 304.264 325.522 303.236C325.822 303.394 326.134 303.555 326.472 303.575C326.81 303.595 327.184 303.434 327.304 303.117C327.496 302.606 326.965 302.126 326.823 301.599C327.198 301.634 327.519 301.269 327.555 300.895C327.592 300.521 327.417 300.158 327.207 299.845C326.726 299.126 326.019 298.609 325.351 298.078Z" fill="#FAC39A"/>
<path d="M263.607 213.016C267.401 212.258 271.4 213.328 274.708 215.335C280.051 218.576 283.526 223.87 286.437 229.252C290.059 235.949 293.908 242.345 297.197 249.24C303.303 262.038 308.107 275.529 316.123 287.32C316.464 287.822 316.824 288.36 316.834 288.967C316.849 289.846 316.139 290.553 315.447 291.095C313.534 292.595 311.338 293.733 309.009 294.431C308.508 294.581 307.947 294.706 307.481 294.47C307.132 294.293 306.906 293.946 306.697 293.615C298.972 281.364 291.53 268.76 284.801 255.818C283.474 253.266 281.407 250.919 279.832 248.5C276.25 242.999 273.187 237.343 270.287 231.53C267.336 225.615 264.473 219.904 263.427 213.289" fill="white"/>
<path d="M261.105 209.891C260.594 214.587 254.873 248.898 254.873 248.898L253.515 314.449C253.515 314.449 277.79 320.241 277.956 311.407C278.123 302.574 273.721 245.557 273.839 237.482C273.956 229.407 272.955 217.813 269.561 213.949C266.167 210.086 261.105 209.891 261.105 209.891Z" fill="white"/>
<path d="M254.873 248.898L263.206 228.557L260.623 226.074L264.462 225.49L269.851 212.335L261.186 209.387L254.873 248.898Z" fill="#EAEAEA"/>
<path d="M401.667 439.667H107.845L97.845 315.646H411.667L401.667 439.667Z" fill="#5BC2C1"/>
<path d="M423 303.521H83.667V315.645H423V303.521Z" fill="#047D76"/>
<path opacity="0.1" d="M107.845 439.667L411.667 315.646H97.845L107.845 439.667Z" fill="#231F20"/>
<path d="M253.333 404.143C267.961 404.143 279.82 392.284 279.82 377.656C279.82 363.028 267.961 351.169 253.333 351.169C238.705 351.169 226.846 363.028 226.846 377.656C226.846 392.284 238.705 404.143 253.333 404.143Z" fill="#FF7775"/>
<path d="M257.882 362.323H248.785V392.99H257.882V362.323Z" fill="white"/>
<path d="M238 373.107V382.204H268.667V373.107H238Z" fill="white"/>
<path d="M388.749 262.654H346.005V287.196H388.749V262.654Z" fill="#CACBCD"/>
<path d="M399.666 291.138H335.087V303.521H399.666V291.138Z" fill="#8D8D8E"/>
<path d="M374.375 287.022H360.379V291.138H374.375V287.022Z" fill="#8D8D8E"/>
<path d="M388.749 260.782H346.005V262.654H388.749V260.782Z" fill="#EAEAEA"/>
<path d="M399.666 291.138H335.087V293.214H399.666V291.138Z" fill="#CACBCD"/>
</svg>
