<svg width="301" height="293" viewBox="0 0 301 293" fill="none" xmlns="http://www.w3.org/2000/svg">
<g clip-path="url(#clip0_165_883)">
<path fill-rule="evenodd" clip-rule="evenodd" d="M184.795 46.4923C188.064 46.2858 191.794 47.5622 194.641 48.822C203.024 52.5355 211.061 56.9718 218.71 61.2965C221.22 62.7175 223.796 64.3119 226.508 65.6833C231.94 68.4384 237.075 70.6235 242.507 74.0437C245.434 75.886 248.599 78.1083 249.757 81.0328C251.941 86.5389 249.25 93.3916 247.296 97.3488C244.968 102.054 242.536 106.457 240.323 110.778C235.645 119.898 231.165 128.172 226.236 137.507C221.286 146.892 216.922 155.74 212.561 164.649C209.318 171.271 205.547 178.148 202.031 184.799C200.053 188.529 198.441 192.192 194.505 193.708C193.714 194.01 192.123 194.27 190.677 194.117C187.487 193.791 184.383 191.907 181.515 190.557C178.63 189.194 175.782 187.62 173.173 186.166C162.713 180.35 150.316 174.724 139.938 168.483C134.935 165.475 128.938 161.857 126.399 156.694C123.481 150.758 127.314 142.435 129.684 137.639C132.025 132.897 134.312 128.841 136.658 124.888C139.188 120.629 141.636 116.242 143.907 112.281C148.531 104.202 153.675 95.2133 157.582 86.3737C159.511 82.0076 161.872 77.1293 164.011 73.0771C167.259 66.9349 170.919 60.1524 174.818 54.1629C176.157 52.0976 177.674 49.9497 179.195 48.6774C180.41 47.6654 182.215 46.6493 184.8 46.4841L184.795 46.4923Z" fill="#C1D5E8"/>
<path d="M214.84 68.6864C214.96 68.7194 215.137 68.6905 215.141 68.8268C217.181 68.4261 218.146 66.2245 219.032 64.659C219.46 63.9072 219.943 63.0893 220.326 62.226C219.782 61.908 219.242 61.5982 218.71 61.2966C218.418 61.1314 218.125 60.9662 217.833 60.801C217.301 61.6064 216.802 62.4904 216.341 63.362C215.516 64.9357 214.111 66.7945 214.844 68.6864H214.84Z" fill="white"/>
<path d="M209.903 77.1706C208.736 78.9592 207.055 81.3261 206.161 83.3542C205.501 84.866 205.402 86.4481 206.762 86.5183C207.797 86.5761 208.716 84.7462 209.153 84.0729C209.882 82.9494 210.632 81.9952 211.102 81.198C212.417 78.9344 213.789 77.1665 213.645 74.4361C211.782 73.0565 210.731 75.8984 209.903 77.1665V77.1706Z" fill="white"/>
<path d="M201.224 93.8584C199.324 96.0146 197.164 99.5959 195.985 102.491C195.614 103.396 195.083 104.681 196.134 105.366C197.428 105.445 198.128 104.181 198.681 103.351C199.336 102.355 199.818 101.277 200.325 100.327C201.388 98.3402 202.918 96.1881 202.872 93.8543C202.551 93.5651 201.496 93.3669 201.224 93.8543V93.8584Z" fill="white"/>
<path d="M189.997 113.277C189.07 114.264 188.353 115.982 187.306 117.878C186.828 118.741 184.367 121.889 185.81 122.769C186.642 123.281 187.957 121.864 188.353 121.331C189.14 120.282 189.552 119.32 190.001 118.597C191.2 116.66 192.478 114.962 192.396 112.698C191.538 112.037 190.549 112.69 190.001 113.277H189.997Z" fill="white"/>
<path d="M181.465 131.402C181.465 131.592 181.202 131.534 181.165 131.687C179.528 132.963 178.552 134.529 177.422 136.718C176.87 137.792 174.286 141.861 175.778 142.617C176.874 143.174 177.793 141.625 178.321 140.89C179.681 138.994 180.649 137.098 181.614 135.14C182.104 134.14 182.978 133.083 182.661 131.827C182.331 131.617 182.018 131.394 181.461 131.398L181.465 131.402Z" fill="white"/>
<path d="M170.688 150.96C169.625 152.386 168.627 153.786 167.395 155.996C166.909 156.863 164.176 160.981 166.196 161.316C167.181 161.481 167.993 160.085 168.442 159.445C169.073 158.548 169.654 157.541 170.086 156.855C171.286 154.955 172.51 153.257 172.333 150.96C172.011 150.671 170.956 150.473 170.684 150.96H170.688Z" fill="white"/>
<path d="M161.86 169.949C161.538 169.656 160.483 169.462 160.211 169.949C159.168 171.089 158.336 172.101 157.371 174.261C157.17 174.708 156.391 176.071 156.073 177.252C156.774 177.611 157.475 177.967 158.171 178.326C159.069 177.302 159.84 175.666 160.063 175.269C161.056 173.51 162.029 171.923 161.86 169.949Z" fill="white"/>
<path opacity="0.38" fill-rule="evenodd" clip-rule="evenodd" d="M186.972 157.095C186.716 158.111 185.475 157.987 184.804 158.181C179.907 159.585 175.325 162.754 175.201 169.201C175.073 176.042 180.715 181.081 187.59 180.375C190.578 180.069 192.828 178.566 194.402 176.806C194.967 176.174 195.433 174.794 196.879 175.41C198.066 177.702 195.478 179.462 193.937 180.532C184.919 186.773 171.747 180.044 172.872 167.962C173.383 162.464 177.913 157.107 183.559 156.475C184.886 156.326 186.188 156.376 186.963 157.099L186.972 157.095Z" fill="#334F70"/>
<path fill-rule="evenodd" clip-rule="evenodd" d="M185.579 161.593C186.984 161.436 189.383 161.638 190.689 162.369C193.286 163.815 195.548 167.603 194.559 171.37C193.653 174.827 187.87 179.297 182.789 176.806C181.301 176.075 179.417 173.956 178.914 171.994C177.694 167.231 180.629 163.051 183.563 161.907C184.136 161.679 184.812 161.684 185.575 161.597L185.579 161.593Z" fill="white"/>
<path opacity="0.38" fill-rule="evenodd" clip-rule="evenodd" d="M185.735 162.679C187.33 164.939 188.274 168.545 188.834 171.99C188.999 173.01 189.605 174.365 188.678 175.253C187.363 175.542 187.042 174.092 186.662 173.08C186.32 172.159 185.999 170.965 185.731 169.974C185.162 167.842 184.288 164.703 184.647 163.146C184.643 162.877 184.762 162.741 184.96 162.679H185.735Z" fill="#334F70"/>
<path opacity="0.38" fill-rule="evenodd" clip-rule="evenodd" d="M203.338 130.179C203.082 131.195 201.842 131.072 201.17 131.266C196.274 132.67 191.691 135.838 191.567 142.286C191.439 149.122 197.082 154.166 203.956 153.464C206.944 153.158 209.194 151.655 210.769 149.895C211.333 149.263 211.799 147.887 213.246 148.499C214.433 150.791 211.844 152.555 210.303 153.621C201.285 159.858 188.117 153.137 189.239 141.051C189.75 135.549 194.279 130.196 199.925 129.56C201.252 129.411 202.559 129.465 203.334 130.183L203.338 130.179Z" fill="#334F70"/>
<path fill-rule="evenodd" clip-rule="evenodd" d="M201.944 134.678C203.346 134.521 205.748 134.727 207.055 135.458C209.647 136.9 211.914 140.688 210.925 144.459C210.018 147.916 204.236 152.386 199.154 149.895C197.671 149.164 195.787 147.045 195.284 145.083C194.064 140.32 197.003 136.144 199.929 134.992C200.502 134.768 201.178 134.768 201.944 134.682V134.678Z" fill="white"/>
<path opacity="0.38" fill-rule="evenodd" clip-rule="evenodd" d="M202.097 135.764C203.692 138.028 204.64 141.634 205.196 145.079C205.361 146.099 205.963 147.454 205.04 148.338C203.729 148.631 203.403 147.177 203.024 146.165C202.682 145.248 202.361 144.058 202.097 143.063C201.528 140.936 200.654 137.792 201.013 136.235C201.009 135.966 201.128 135.83 201.322 135.768H202.097V135.764Z" fill="#334F70"/>
<path opacity="0.38" fill-rule="evenodd" clip-rule="evenodd" d="M217.235 103.541C216.979 104.561 215.738 104.433 215.067 104.631C210.17 106.032 205.587 109.204 205.464 115.652C205.336 122.488 210.978 127.532 217.853 126.825C220.841 126.52 223.091 125.016 224.665 123.252C225.23 122.624 225.696 121.245 227.142 121.856C228.329 124.149 225.741 125.912 224.2 126.978C215.182 133.215 202.014 126.495 203.135 114.404C203.646 108.907 208.176 103.553 213.822 102.921C215.149 102.768 216.451 102.826 217.226 103.541H217.235Z" fill="#334F70"/>
<path fill-rule="evenodd" clip-rule="evenodd" d="M215.842 108.043C217.247 107.886 219.646 108.093 220.952 108.82C223.545 110.261 225.811 114.049 224.822 117.82C223.915 121.278 218.133 125.743 213.056 123.252C211.568 122.525 209.684 120.406 209.181 118.444C207.962 113.677 210.9 109.501 213.83 108.357C214.403 108.134 215.075 108.134 215.842 108.047V108.043Z" fill="white"/>
<path opacity="0.38" fill-rule="evenodd" clip-rule="evenodd" d="M215.999 109.125C217.589 111.389 218.537 114.995 219.094 118.44C219.259 119.46 219.864 120.815 218.937 121.699C217.626 121.988 217.301 120.538 216.926 119.526C216.584 118.609 216.262 117.416 215.999 116.424C215.43 114.293 214.556 111.154 214.91 109.596C214.906 109.332 215.026 109.196 215.224 109.13H215.999V109.125Z" fill="#334F70"/>
<path opacity="0.38" fill-rule="evenodd" clip-rule="evenodd" d="M231.982 74.7544C231.726 75.7746 230.486 75.6507 229.814 75.8407C224.922 77.2451 220.335 80.4133 220.211 86.8613C220.083 93.7016 225.725 98.7451 232.6 98.0388C235.588 97.7331 237.838 96.2296 239.413 94.4699C239.981 93.8338 240.443 92.4624 241.889 93.0738C243.081 95.3663 240.492 97.13 238.951 98.1999C229.933 104.433 216.765 97.7166 217.886 85.6262C218.398 80.1283 222.927 74.775 228.573 74.143C229.9 73.9902 231.203 74.0439 231.978 74.7585L231.982 74.7544Z" fill="#334F70"/>
<path fill-rule="evenodd" clip-rule="evenodd" d="M230.588 79.2609C231.994 79.0998 234.393 79.3064 235.699 80.0375C238.295 81.4791 240.562 85.2669 239.569 89.0382C238.662 92.4955 232.88 96.9607 227.798 94.47C226.31 93.743 224.431 91.6239 223.928 89.6578C222.708 84.8951 225.647 80.719 228.577 79.5707C229.146 79.3477 229.822 79.3477 230.588 79.2609Z" fill="white"/>
<path opacity="0.38" fill-rule="evenodd" clip-rule="evenodd" d="M230.745 80.3432C232.336 82.6068 233.284 86.2087 233.844 89.6578C234.009 90.6781 234.615 92.0329 233.688 92.9169C232.377 93.206 232.052 91.7562 231.677 90.7442C231.334 89.823 231.013 88.6334 230.745 87.642C230.176 85.5106 229.303 82.3713 229.661 80.81C229.657 80.5456 229.781 80.4093 229.974 80.3432H230.749H230.745Z" fill="#334F70"/>
<path opacity="0.38" fill-rule="evenodd" clip-rule="evenodd" d="M148.379 136.594C148.119 137.61 146.883 137.491 146.211 137.685C141.315 139.085 136.732 142.257 136.608 148.705C136.48 155.541 142.127 160.585 148.997 159.879C151.985 159.573 154.235 158.069 155.81 156.306C156.378 155.674 156.836 154.298 158.287 154.909C159.474 157.202 156.885 158.962 155.344 160.027C146.326 166.269 133.159 159.544 134.284 147.458C134.795 141.96 139.32 136.602 144.966 135.97C146.293 135.822 147.596 135.875 148.375 136.59L148.379 136.594Z" fill="#334F70"/>
<path fill-rule="evenodd" clip-rule="evenodd" d="M146.982 141.101C148.387 140.94 150.786 141.15 152.092 141.877C154.684 143.323 156.951 147.107 155.962 150.878C155.055 154.335 149.269 158.805 144.191 156.31C142.704 155.583 140.82 153.46 140.321 151.498C139.101 146.735 142.036 142.555 144.966 141.411C145.539 141.183 146.215 141.183 146.982 141.101Z" fill="white"/>
<path opacity="0.38" fill-rule="evenodd" clip-rule="evenodd" d="M147.138 142.183C148.729 144.447 149.677 148.048 150.237 151.498C150.402 152.518 151.008 153.873 150.081 154.757C148.766 155.046 148.441 153.596 148.065 152.584C147.723 151.667 147.402 150.473 147.138 149.478C146.569 147.35 145.696 144.207 146.054 142.65C146.046 142.385 146.17 142.249 146.363 142.183H147.138Z" fill="#334F70"/>
<path opacity="0.38" fill-rule="evenodd" clip-rule="evenodd" d="M164.741 109.683C164.485 110.699 163.245 110.575 162.573 110.769C157.681 112.17 153.094 115.342 152.97 121.786C152.838 128.626 158.488 133.67 165.359 132.963C168.347 132.658 170.597 131.154 172.172 129.394C172.736 128.758 173.198 127.383 174.648 127.994C175.84 130.287 173.251 132.046 171.706 133.116C162.688 139.353 149.52 132.629 150.641 120.542C151.152 115.045 155.682 109.687 161.328 109.055C162.655 108.906 163.962 108.96 164.737 109.679L164.741 109.683Z" fill="#334F70"/>
<path fill-rule="evenodd" clip-rule="evenodd" d="M163.348 114.185C164.753 114.024 167.156 114.235 168.458 114.962C171.05 116.408 173.317 120.191 172.328 123.963C171.421 127.42 165.639 131.889 160.557 129.398C159.074 128.667 157.19 126.548 156.687 124.586C155.467 119.828 158.402 115.643 161.332 114.499C161.905 114.276 162.581 114.276 163.343 114.189L163.348 114.185Z" fill="white"/>
<path opacity="0.38" fill-rule="evenodd" clip-rule="evenodd" d="M163.5 115.272C165.095 117.531 166.039 121.137 166.599 124.582C166.764 125.602 167.366 126.957 166.442 127.841C165.128 128.134 164.806 126.681 164.431 125.668C164.089 124.751 163.768 123.562 163.5 122.566C162.931 120.435 162.057 117.296 162.416 115.738C162.408 115.474 162.531 115.338 162.729 115.272H163.5Z" fill="#334F70"/>
<path opacity="0.38" fill-rule="evenodd" clip-rule="evenodd" d="M178.642 83.0486C178.383 84.0648 177.146 83.9408 176.475 84.135C171.578 85.5394 166.995 88.7117 166.872 95.1555C166.74 101.996 172.386 107.035 179.261 106.333C182.249 106.023 184.499 104.524 186.073 102.76C186.638 102.128 187.104 100.753 188.55 101.364C189.737 103.656 187.149 105.416 185.608 106.486C176.59 112.727 163.422 106.003 164.547 93.9163C165.058 88.4185 169.584 83.0651 175.23 82.429C176.557 82.2803 177.864 82.334 178.638 83.0528L178.642 83.0486Z" fill="#334F70"/>
<path fill-rule="evenodd" clip-rule="evenodd" d="M177.245 87.551C178.65 87.3899 181.049 87.5964 182.355 88.3234C184.952 89.7692 187.214 93.557 186.225 97.3282C185.319 100.786 179.536 105.251 174.455 102.76C172.967 102.033 171.087 99.914 170.585 97.9478C169.365 93.1852 172.299 89.0091 175.229 87.8567C175.802 87.6336 176.478 87.6336 177.245 87.5469V87.551Z" fill="white"/>
<path opacity="0.38" fill-rule="evenodd" clip-rule="evenodd" d="M177.401 88.6333C178.996 90.8969 179.94 94.4988 180.501 97.9479C180.665 98.9682 181.271 100.323 180.344 101.207C179.029 101.496 178.708 100.046 178.333 99.0343C177.991 98.1173 177.669 96.9235 177.401 95.9321C176.833 93.8007 175.959 90.6614 176.317 89.1042C176.309 88.8398 176.433 88.6994 176.631 88.6333H177.401Z" fill="#334F70"/>
<path opacity="0.38" fill-rule="evenodd" clip-rule="evenodd" d="M193.384 54.2621C193.129 55.2782 191.888 55.1584 191.217 55.3485C186.324 56.7529 181.737 59.9211 181.618 66.369C181.486 73.2052 187.132 78.2487 194.003 77.5424C196.991 77.2367 199.241 75.7332 200.815 73.9735C201.384 73.3415 201.846 71.966 203.292 72.5774C204.479 74.8699 201.891 76.6295 200.35 77.6994C191.332 83.9408 178.164 77.2161 179.285 65.1298C179.796 59.6278 184.326 54.2745 189.972 53.6425C191.299 53.4938 192.601 53.5475 193.376 54.2621H193.384Z" fill="#334F70"/>
<path fill-rule="evenodd" clip-rule="evenodd" d="M191.992 58.7645C193.397 58.6034 195.8 58.8141 197.102 59.5411C199.694 60.9827 201.961 64.7705 200.976 68.5418C200.07 71.9991 194.283 76.4643 189.206 73.9736C187.718 73.2466 185.834 71.1234 185.336 69.1614C184.116 64.4029 187.05 60.2226 189.984 59.0743C190.553 58.8513 191.229 58.8513 191.996 58.7645H191.992Z" fill="white"/>
<path opacity="0.38" fill-rule="evenodd" clip-rule="evenodd" d="M192.148 59.8509C193.739 62.1104 194.686 65.7164 195.247 69.1614C195.412 70.1816 196.014 71.5406 195.094 72.4246C193.78 72.7137 193.454 71.2639 193.079 70.2477C192.737 69.3307 192.416 68.1411 192.148 67.1456C191.579 65.0183 190.705 61.8749 191.064 60.3177C191.056 60.0533 191.179 59.917 191.377 59.855H192.152L192.148 59.8509Z" fill="#334F70"/>
<path fill-rule="evenodd" clip-rule="evenodd" d="M48.4802 139.2L52.8407 144.727C54.9879 147.449 61.1824 146.123 66.6721 141.77C72.1659 137.42 74.8778 131.683 72.7264 128.961L68.366 123.434L48.4802 139.2Z" fill="#E8BD54"/>
<path opacity="0.14" fill-rule="evenodd" clip-rule="evenodd" d="M48.4802 139.2L52.8407 144.727C54.9879 147.449 61.1824 146.123 66.6721 141.77C72.1659 137.42 74.8778 131.683 72.7264 128.961L68.366 123.434L48.4802 139.2Z" fill="#334F70"/>
<path fill-rule="evenodd" clip-rule="evenodd" d="M68.366 123.434C70.5174 126.156 67.8055 131.893 62.3117 136.243C56.822 140.597 50.6275 141.923 48.4802 139.201C46.333 136.478 49.0449 130.745 54.5346 126.391C60.0284 122.038 66.2187 120.712 68.366 123.434Z" fill="#E8BD54"/>
<path d="M66.8697 122.364C66.3545 122.166 65.7734 122.058 65.1346 122.029C64.0135 123.058 62.7112 124.475 61.4418 125.838C59.2945 128.143 56.8217 130.844 54.8434 133.141C52.96 135.33 50.347 138.151 49.3496 139.96C49.737 140.2 50.1863 140.374 50.6849 140.481C54.522 137.35 59.9416 130.894 64.2114 125.66C65.015 124.673 66.1608 123.45 66.8738 122.368L66.8697 122.364Z" fill="white"/>
<path fill-rule="evenodd" clip-rule="evenodd" d="M121.425 105.267L121.866 112.298C122.08 115.759 127.92 118.213 134.91 117.775C141.9 117.333 147.39 114.173 147.176 110.711L146.739 103.681L121.429 105.267H121.425Z" fill="#E8BD54"/>
<path opacity="0.14" fill-rule="evenodd" clip-rule="evenodd" d="M121.425 105.267L121.866 112.298C122.093 115.759 127.916 118.213 134.91 117.775C141.9 117.333 147.39 114.173 147.176 110.711L146.739 103.681L121.429 105.267H121.425Z" fill="#334F70"/>
<path fill-rule="evenodd" clip-rule="evenodd" d="M146.739 103.681C146.953 107.147 141.463 110.307 134.473 110.745C127.483 111.182 121.643 108.729 121.429 105.267C121.215 101.802 126.705 98.6417 133.694 98.2039C140.684 97.766 146.524 100.22 146.739 103.681Z" fill="#E8BD54"/>
<path d="M146.112 101.946C145.803 101.492 145.391 101.071 144.879 100.678C143.379 100.881 141.5 101.298 139.682 101.694C136.604 102.355 133.039 103.165 130.104 103.921C127.314 104.639 123.559 105.466 121.709 106.378C121.894 106.8 122.162 107.192 122.509 107.568C127.442 107.188 135.569 104.986 142.052 103.124C143.276 102.772 144.912 102.43 146.112 101.942V101.946Z" fill="white"/>
<path fill-rule="evenodd" clip-rule="evenodd" d="M83.9081 123.583C83.2199 123.079 81.6455 122.067 80.6234 121.112C77.5158 118.213 75.1873 113 79.9392 110.365C81.6661 109.406 84.481 109.526 86.5417 110.228C89.402 111.207 93.6181 113.748 97.1254 116.284C100.682 118.861 105.203 122.281 106.337 124.929C107.495 127.647 106.757 131.551 103.139 133.079C99.8497 134.471 96.2311 131.947 92.2333 129.399C89.2948 127.523 86.7354 125.64 83.9164 123.583H83.9081Z" fill="#334F70"/>
<path d="M80.6231 121.113C81.6452 122.067 83.2196 123.079 83.9079 123.583C85.3916 124.665 86.8052 125.698 88.2354 126.71C87.9716 122.463 89.0308 116.928 95.8806 115.412C92.6617 113.186 89.0679 111.096 86.5415 110.233C84.4808 109.53 81.6659 109.411 79.939 110.369C75.187 113.004 77.5115 118.217 80.6231 121.117V121.113Z" fill="#C64F69"/>
<path fill-rule="evenodd" clip-rule="evenodd" d="M92.398 126.086C91.8416 124.942 90.0323 123.785 88.1859 122.756C87.3946 122.315 86.1088 121.625 85.6348 122.29C85.066 123.083 86.4055 124.103 86.8877 124.467C88.4085 125.611 90.4774 126.685 91.7468 126.937C92.0394 126.862 92.3444 126.429 92.398 126.082V126.086Z" fill="white"/>
<path fill-rule="evenodd" clip-rule="evenodd" d="M89.2907 121.03C90.7785 119.617 87.1888 116.924 86.3274 118.394C85.9524 119.031 87.2053 120.989 88.2562 121.323C88.6395 121.443 89.0311 121.278 89.2907 121.03Z" fill="white"/>
<path d="M118.115 67.4843C116.858 70.7434 115.795 74.081 115.358 78.0092C114.917 81.9292 116.306 84.9941 118.915 85.8244C121.8 86.7372 124.462 84.2217 126.028 82.2596C128.134 79.6119 129.692 75.8282 130.995 72.0445C127.553 66.2493 121.684 66.5921 118.119 67.4802L118.115 67.4843Z" fill="#FF8C9B"/>
<path d="M128.897 51.6928C128.456 51.7506 127.566 51.8952 127.121 52.1017C123.585 53.787 121.326 59.6278 119.735 63.4817C119.179 64.8241 118.635 66.15 118.115 67.4801C121.68 66.5879 127.549 66.2451 130.991 72.0445C131.51 70.5368 131.992 69.025 132.45 67.5916C133.319 64.8737 134.428 62.0277 134.638 59.2312C135.013 54.2786 132.837 51.1723 128.893 51.6928H128.897Z" fill="#25364F"/>
<path fill-rule="evenodd" clip-rule="evenodd" d="M125.971 57.6327C126.004 59.0454 124.809 61.1107 123.51 63.0645C122.954 63.8989 122.035 65.2372 121.235 64.8283C120.271 64.3326 121.075 62.6432 121.363 62.0401C122.282 60.1318 123.774 58.0127 124.899 57.1246C125.225 57.0462 125.748 57.3188 125.971 57.6327Z" fill="white"/>
<path fill-rule="evenodd" clip-rule="evenodd" d="M125.472 64.2045C127.661 64.8365 125.489 69.3265 123.89 68.3145C123.197 67.8767 123.44 65.3157 124.306 64.44C124.619 64.1302 125.093 64.093 125.472 64.2045Z" fill="white"/>
<path fill-rule="evenodd" clip-rule="evenodd" d="M118.07 74.7954C118.862 74.94 119.117 76.0842 118.936 77.2449C118.792 78.1743 118.083 79.8885 117.122 79.3887C116.698 79.1698 116.376 78.2817 116.504 77.311C116.653 76.1792 117.048 74.6137 118.074 74.7954H118.07Z" fill="white"/>
<path fill-rule="evenodd" clip-rule="evenodd" d="M239.825 106.853L233.502 109.927C230.391 111.438 230.341 117.787 233.399 124.103C236.458 130.415 241.461 134.306 244.573 132.794L250.895 129.716L239.825 106.853Z" fill="#E8BD54"/>
<path opacity="0.14" fill-rule="evenodd" clip-rule="evenodd" d="M239.825 106.853L233.502 109.927C230.391 111.438 230.341 117.787 233.399 124.103C236.458 130.415 241.461 134.306 244.573 132.794L250.895 129.716L239.825 106.853Z" fill="#334F70"/>
<path fill-rule="evenodd" clip-rule="evenodd" d="M250.895 129.716C247.779 131.232 242.776 127.341 239.722 121.03C236.664 114.714 236.709 108.369 239.825 106.853C242.936 105.342 247.944 109.228 251.002 115.544C254.06 121.86 254.011 128.205 250.899 129.716H250.895Z" fill="#E8BD54"/>
<path d="M252.259 128.481C252.56 128.023 252.795 127.473 252.96 126.854C252.201 125.536 251.101 123.958 250.046 122.422C248.265 119.824 246.163 116.816 244.354 114.388C242.627 112.074 240.443 108.91 238.897 107.535C238.58 107.865 238.316 108.266 238.102 108.733C240.323 113.161 245.446 119.861 249.625 125.16C250.413 126.164 251.356 127.548 252.255 128.481H252.259Z" fill="white"/>
<path fill-rule="evenodd" clip-rule="evenodd" d="M208.659 195.646L212.62 201.466C214.569 204.328 220.838 203.448 226.624 199.495C232.411 195.538 235.518 190.015 233.573 187.149L229.612 181.329L208.659 195.65V195.646Z" fill="#E8BD54"/>
<path opacity="0.14" fill-rule="evenodd" clip-rule="evenodd" d="M208.659 195.646L212.62 201.466C214.577 204.328 220.834 203.457 226.624 199.495C232.411 195.538 235.518 190.015 233.573 187.149L229.612 181.329L208.659 195.65V195.646Z" fill="#334F70"/>
<path fill-rule="evenodd" clip-rule="evenodd" d="M229.612 181.329C231.561 184.195 228.454 189.726 222.667 193.679C216.881 197.632 210.612 198.516 208.659 195.646C206.709 192.779 209.817 187.248 215.603 183.295C221.39 179.338 227.663 178.462 229.612 181.325V181.329Z" fill="#E8BD54"/>
<path d="M228.19 180.156C227.691 179.924 227.118 179.772 226.479 179.697C225.292 180.643 223.891 181.961 222.527 183.233C220.219 185.381 217.565 187.901 215.43 190.053C213.402 192.102 210.596 194.729 209.466 196.468C209.841 196.732 210.274 196.939 210.765 197.075C214.812 194.221 220.672 188.165 225.301 183.25C226.17 182.32 227.403 181.18 228.19 180.156Z" fill="white"/>
<path fill-rule="evenodd" clip-rule="evenodd" d="M211.21 163.183C210.518 163.683 208.935 164.686 207.913 165.632C204.785 168.516 202.428 173.712 207.163 176.376C208.882 177.347 211.701 177.244 213.762 176.55C216.626 175.587 220.863 173.072 224.378 170.556C227.952 168.003 232.493 164.612 233.639 161.968C234.814 159.259 234.097 155.351 230.486 153.802C227.21 152.39 223.575 154.889 219.556 157.417C216.605 159.271 214.038 161.142 211.202 163.183H211.21Z" fill="#334F70"/>
<path d="M207.909 165.628C208.931 164.686 210.513 163.679 211.206 163.179C212.698 162.105 214.115 161.08 215.55 160.081C215.257 164.319 216.287 169.866 223.125 171.423C219.894 173.629 216.287 175.699 213.753 176.545C211.692 177.239 208.873 177.339 207.154 176.372C202.419 173.704 204.776 168.511 207.905 165.628H207.909Z" fill="#C64F69"/>
<path fill-rule="evenodd" clip-rule="evenodd" d="M219.712 160.729C219.148 161.873 217.334 163.013 215.484 164.034C214.693 164.467 213.398 165.149 212.933 164.484C212.368 163.687 213.716 162.679 214.198 162.32C215.727 161.179 217.804 160.118 219.069 159.878C219.358 159.953 219.667 160.386 219.712 160.733V160.729Z" fill="white"/>
<path fill-rule="evenodd" clip-rule="evenodd" d="M216.576 165.769C218.051 167.19 214.445 169.862 213.596 168.383C213.229 167.743 214.49 165.802 215.546 165.467C215.925 165.347 216.32 165.517 216.576 165.769Z" fill="white"/>
<path d="M192.833 193.642C195.743 195.575 198.525 197.686 201.15 200.64C203.763 203.585 204.402 206.889 202.749 209.078C200.923 211.495 197.3 210.983 194.894 210.285C191.646 209.347 188.192 207.154 184.953 204.824C184.421 198.099 189.412 194.981 192.833 193.646V193.642Z" fill="#FF8C9B"/>
<path d="M174.934 186.992C175.325 186.781 176.137 186.385 176.623 186.302C180.481 185.633 185.69 189.094 189.206 191.317C190.434 192.093 191.646 192.857 192.833 193.646C189.408 194.985 184.417 198.099 184.953 204.824C183.655 203.89 182.397 202.936 181.194 202.031C178.919 200.317 176.376 198.636 174.592 196.476C171.43 192.647 171.418 188.851 174.934 186.992Z" fill="#25364F"/>
<path fill-rule="evenodd" clip-rule="evenodd" d="M180.745 190.144C181.532 191.317 183.696 192.308 185.88 193.155C186.816 193.514 188.336 194.076 188.753 193.279C189.251 192.316 187.623 191.403 187.042 191.077C185.196 190.053 182.756 189.185 181.322 189.111C181.013 189.235 180.741 189.759 180.741 190.144H180.745Z" fill="white"/>
<path fill-rule="evenodd" clip-rule="evenodd" d="M184.932 195.224C183.515 197.009 187.875 199.413 188.596 197.67C188.905 196.905 187.232 194.956 186.021 194.745C185.584 194.675 185.18 194.919 184.932 195.228V195.224Z" fill="white"/>
<path fill-rule="evenodd" clip-rule="evenodd" d="M197.078 199.586C196.513 200.164 196.967 201.247 197.787 202.081C198.442 202.759 200.004 203.75 200.503 202.783C200.725 202.362 200.474 201.445 199.815 200.73C199.04 199.892 197.812 198.843 197.082 199.586H197.078Z" fill="white"/>
<path fill-rule="evenodd" clip-rule="evenodd" d="M92.5049 62.6638C96.5975 64.4152 98.0812 67.6908 96.1647 71.8256C94.0752 76.3239 89.6405 79.0914 86.6402 80.9997C77.8616 86.5844 69.219 89.5873 59.5338 90.9215C57.4401 91.2066 55.4288 91.6155 53.6979 91.1281C51.6825 90.5704 50.1493 88.9967 49.4982 88.0136C47.6559 85.2378 48.4348 81.0947 51.5465 76.9724C52.5851 75.5927 54.2584 74.3618 55.8533 73.1557C59.8964 70.099 65.1842 67.3273 69.4952 65.6172C75.5783 63.2091 82.6671 60.8587 89.3768 61.7716C90.3412 61.9038 91.3921 62.1847 92.5049 62.6638Z" fill="#C1D5E8"/>
<path d="M101.193 85.2377C102.207 83.0485 102.26 81.103 101.486 79.4961H101.494L96.816 67.0464C97.1787 68.4467 96.9849 70.0576 96.1689 71.8255C94.0794 76.3238 89.6447 79.0913 86.6444 80.9997C77.8658 86.5843 69.2232 89.5873 59.5379 90.9215C57.4443 91.2065 55.433 91.6154 53.702 91.128C51.6867 90.5704 50.1535 88.9966 49.5023 88.0135C49.2715 87.6666 49.082 87.2989 48.9336 86.9148L53.7556 99.6743C53.9164 100.302 54.1719 100.889 54.5304 101.422C55.1858 102.409 56.7148 103.978 58.7302 104.544C60.4653 105.024 62.4724 104.619 64.5702 104.334C74.2555 103.004 82.898 99.9965 91.6766 94.4119C94.677 92.5035 99.1157 89.736 101.197 85.2419L101.193 85.2377Z" fill="#334F70"/>
<path d="M101.193 85.2377C101.283 85.0395 101.358 84.8495 101.436 84.6512C99.7791 80.8056 98.2996 76.204 95.7608 72.6269C95.258 73.5398 94.6562 74.3742 93.9968 75.1466C94.0669 75.3035 94.1411 75.4646 94.2029 75.6175C95.6207 78.9509 97.1002 81.9498 98.9343 85.0808C99.2928 85.688 99.6679 86.4356 100.117 87.1213C100.517 86.5306 100.884 85.9028 101.193 85.2377Z" fill="#C1D5E8"/>
<path d="M90.1597 78.6369C89.6116 79.0417 89.0634 79.4217 88.5359 79.7728C88.8574 80.1528 89.2406 80.5287 89.5003 80.9542C90.7985 83.0402 91.7052 85.6053 92.9952 87.873C93.6299 88.9924 94.4748 90.1283 95.2702 91.2436C95.3774 91.3923 95.4887 91.5658 95.6041 91.7393C96.2017 91.2808 96.7993 90.7934 97.3763 90.2647C97.3227 90.1614 97.2609 90.0623 97.2114 89.959C95.4681 86.6545 92.9252 81.5284 90.1638 78.6369H90.1597Z" fill="#C1D5E8"/>
<path d="M89.3684 89.484C88.1155 86.6421 86.8709 83.5979 85.2347 81.8671C84.6824 82.2017 84.1301 82.528 83.5779 82.842C83.6273 83.9655 84.4887 84.9982 84.9379 86.0267C86.1579 88.8273 86.9863 91.5328 88.4246 94.1806C88.6884 94.668 88.981 95.2711 89.3396 95.8246C90.0691 95.3991 90.7986 94.9571 91.5239 94.4945C91.3797 94.1351 91.219 93.7758 91.0829 93.4329C90.5719 92.1483 89.9331 90.7604 89.3684 89.4799V89.484Z" fill="#C1D5E8"/>
<path d="M83.9161 95.7461C82.791 93.3049 81.8101 90.8059 80.6561 88.5382C80.1121 87.4683 79.5186 86.1011 78.7026 85.3741C78.0926 85.6591 77.4785 85.9359 76.8603 86.2002C76.8438 87.1461 77.2807 88.1499 77.6187 89.0049C78.7191 91.7931 80.0173 94.1269 81.6082 96.6466C82.0492 97.3488 82.4737 98.4187 83.1413 99.0506C83.7637 98.7698 84.386 98.4806 85.0042 98.1708C84.8558 97.3777 84.2788 96.5433 83.912 95.7461H83.9161Z" fill="#C1D5E8"/>
<path d="M75.232 95.0191C74.1934 92.6853 73.2043 90.0045 71.9061 88.0838C71.1395 88.3399 70.3688 88.5753 69.5898 88.8025C69.7794 89.67 70.1174 90.587 70.3111 91.1529C71.461 94.54 72.4254 97.0184 73.8019 99.9098C74.1399 100.624 74.5025 101.418 74.9477 102.12C75.8585 101.851 76.7611 101.554 77.6595 101.244C77.4205 100.587 77.0702 99.9222 76.827 99.2944C76.2871 97.9106 75.8461 96.3947 75.232 95.0191Z" fill="#C1D5E8"/>
<path d="M66.7007 93.4576C66.1691 92.3052 65.6003 90.7521 64.7719 90.0127C64.232 90.1284 63.688 90.2357 63.144 90.339C63.0986 91.5452 63.6014 92.7967 64.0259 93.9822C65.0481 96.8365 66.2762 99.4058 67.6445 102.066C67.8877 102.541 68.1391 103.136 68.4606 103.693C69.223 103.549 69.9814 103.388 70.7356 103.214C70.5048 102.582 70.1503 101.93 69.9113 101.306C68.8974 98.621 67.9207 96.1178 66.7007 93.4576Z" fill="#C1D5E8"/>
<path d="M61.1203 102.087C60.1023 99.4058 59.1173 96.7704 58.1281 94.1475C57.7696 93.1933 57.411 92.107 56.9247 91.2684C56.224 91.3428 55.544 91.3717 54.8928 91.3263C55.0329 92.1772 55.6388 93.119 55.9232 93.9244C56.9288 96.7663 57.7036 99.4306 58.8741 102.19C59.2162 102.995 59.5335 103.978 60.0569 104.751C60.6916 104.788 61.3552 104.747 62.0352 104.672C61.9816 103.859 61.4335 102.896 61.1244 102.087H61.1203Z" fill="#C1D5E8"/>
<path fill-rule="evenodd" clip-rule="evenodd" d="M53.4178 86.2331C53.6898 87.9102 49.4859 86.6173 50.6317 85.3988C51.2252 84.7626 52.8325 85.6507 53.4178 86.2331Z" fill="white"/>
<path fill-rule="evenodd" clip-rule="evenodd" d="M55.3096 88.5134C55.0293 88.2862 54.5842 87.6666 55.0788 87.1461C55.73 86.4563 57.5764 86.89 58.3388 86.9231C59.2661 86.9644 61.0342 86.6174 61.5164 87.5509C62.2006 88.881 59.4969 88.9719 58.5655 88.9636C58.0709 88.9636 57.5846 88.9058 57.1684 88.881C56.4471 88.8438 55.8454 88.9512 55.3137 88.5134H55.3096Z" fill="white"/>
<path fill-rule="evenodd" clip-rule="evenodd" d="M82.9846 64.221C83.9985 63.4692 89.0637 64.1219 88.734 65.8402C88.4661 67.2364 84.0026 66.5548 83.0506 65.4189C82.8033 65.1256 82.7415 64.8654 82.9805 64.221H82.9846Z" fill="white"/>
<path fill-rule="evenodd" clip-rule="evenodd" d="M87.9304 69.1943C87.7244 67.5131 90.2466 67.9427 90.3497 68.9464C90.4898 70.3013 88.1118 70.6731 87.9304 69.1943Z" fill="white"/>
<path fill-rule="evenodd" clip-rule="evenodd" d="M90.9639 65.9022C91.0835 64.3036 94.9164 64.9852 94.6155 66.4268C94.4919 67.034 94.0467 67.1125 93.2596 67.1662C92.0932 67.2405 90.8815 67.0216 90.9639 65.9063V65.9022Z" fill="white"/>
<path fill-rule="evenodd" clip-rule="evenodd" d="M120.106 138.465C121.705 140.985 122.706 143.335 125.167 144.496C128.596 146.111 134.432 145.029 137.609 146.826C139.942 148.143 141.714 151.551 143.354 154.364C145.077 157.322 146.697 160.18 148.139 162.861C151.309 168.759 154.581 174.505 157.713 179.862C159.473 182.87 160.722 185.868 162.09 188.768C164.918 194.749 167.386 200.681 170.02 207.41C171.31 210.689 173.35 216.158 171.936 220.021C170.469 224.027 165.082 226.63 160.994 228.658C149.528 234.342 139.62 239.257 127.763 244.42C124.647 245.775 120.703 247.436 116.961 245.928C115.539 245.358 113.495 243.454 112.308 241.954C110.585 239.765 109.25 236.94 107.795 234.28C102.128 223.895 96.9352 213.164 91.1075 202.205C88.2761 196.881 85.8898 191.527 83.3099 185.616C81.8591 182.287 80.5485 178.78 81.2615 175.063C81.7602 172.456 83.4211 170.201 84.8183 168.21C86.1907 166.244 88.0824 163.931 88.239 161.217C88.3915 158.577 87.2746 156.752 86.5987 154.641C94.6148 150.432 103.035 146.565 111.356 142.439C114.212 141.022 117.386 139.374 120.11 138.465H120.106Z" fill="#3890A7"/>
<path d="M131.592 223.59C134.753 222.082 138.1 220.401 140.342 218.108C141.063 217.373 142.077 215.94 142.394 215.093C143.441 212.28 142.365 208.872 141.434 206.183C140.725 204.126 139.827 202.127 139.109 200.425C135.689 192.312 132.738 186.075 129.263 178.219C127.409 174.022 124.821 168.685 119.281 168.763C115.362 168.817 111.69 170.928 108.475 172.188C105.079 173.522 101.782 174.844 98.353 176.438C93.8277 178.545 88.4534 180.99 84.2661 183.84C83.858 184.117 83.4006 184.427 82.939 184.753C83.0626 185.046 83.1862 185.336 83.3099 185.625C85.8899 191.536 88.2762 196.885 91.1076 202.213C96.9352 213.172 102.128 223.903 107.795 234.288C107.906 234.486 108.009 234.689 108.121 234.891C112.766 232.669 117.748 229.938 121.886 227.985C125.237 226.398 128.328 225.159 131.596 223.598L131.592 223.59Z" fill="#C1D5E8"/>
<path fill-rule="evenodd" clip-rule="evenodd" d="M107.984 187.987C109.711 187.525 112.625 185.745 115.225 185.588C117.076 185.48 119.4 191.032 119.001 193.593C118.786 194.989 114.62 196.269 112.588 197.715C113.338 199.652 115.473 203.007 114.397 203.977C112.88 205.344 109.967 206.703 108.644 206.947C107.317 207.187 105.717 203.102 104.37 201.177C102.404 202.226 99.7702 204.118 97.792 203.155C96.7245 202.639 94.8081 199.087 94.5031 197.55C93.9302 194.654 97.6848 193.262 99.7661 191.945C99.2633 190.197 98.0681 189.177 98.2865 187.161C98.4885 185.311 101.518 183.25 103.714 183.039C106.674 182.762 107.007 185.939 107.988 187.983L107.984 187.987Z" fill="white"/>
<path fill-rule="evenodd" clip-rule="evenodd" d="M126.625 205.088C122.071 207.125 115.428 210.405 110.667 212.8C109.468 213.407 107.696 214.234 106.637 215.138C107.333 216.39 108.009 217.654 108.685 218.901C110.523 218.81 113.05 216.811 114.406 216.08C118.613 213.812 122.562 211.995 126.329 209.983C127.009 209.62 127.788 209.256 128.501 208.822C127.866 207.587 127.24 206.336 126.617 205.088H126.625Z" fill="#334F70"/>
<path fill-rule="evenodd" clip-rule="evenodd" d="M132.028 215.213C131.525 214.391 131.052 213.556 130.586 212.722C128.748 213.197 127.025 214.663 125.636 215.382C122.392 217.051 117.632 219.422 114.413 221.008C113.523 221.446 112.011 222.032 110.857 222.693C110.89 222.747 110.923 222.801 110.951 222.854C111.557 223.833 112.159 224.812 112.765 225.795C113.128 225.605 113.511 225.403 113.944 225.225C119.458 222.953 123.592 220.446 128.678 217.728C129.547 217.261 131.171 216.543 132.313 215.688C132.218 215.531 132.123 215.374 132.032 215.221L132.028 215.213Z" fill="#334F70"/>
<path fill-rule="evenodd" clip-rule="evenodd" d="M148.073 175.195C146.272 173.89 144.83 170.42 143.618 166.929C143.095 165.434 142.295 163.001 143.577 162.382C145.114 161.638 146.462 164.257 146.94 165.195C148.457 168.165 149.685 172.064 149.734 174.327C149.52 174.811 148.675 175.216 148.073 175.191V175.195Z" fill="white"/>
<path fill-rule="evenodd" clip-rule="evenodd" d="M136.216 163.051C133.339 165.195 129.791 158.185 132.577 157.14C133.785 156.686 136.764 159.428 137.032 161.357C137.127 162.043 136.719 162.675 136.22 163.047L136.216 163.051Z" fill="white"/>
<path fill-rule="evenodd" clip-rule="evenodd" d="M135.466 153.567C134.53 154.43 132.853 153.658 131.575 152.324C130.549 151.25 129.074 148.73 130.611 147.999C131.291 147.668 132.721 148.106 133.805 149.193C135.087 150.457 136.665 152.452 135.462 153.563L135.466 153.567Z" fill="white"/>
<path fill-rule="evenodd" clip-rule="evenodd" d="M121.07 239.323C118.692 240.703 124.614 244.668 124.969 241.979C125.154 240.579 122.401 239.468 121.07 239.323Z" fill="white"/>
<path fill-rule="evenodd" clip-rule="evenodd" d="M116.277 239.286C116.846 239.402 118.074 239.336 118.226 238.171C118.42 236.646 115.989 234.771 115.164 233.842C114.167 232.714 112.782 230.137 111.125 230.492C108.76 230.996 111.414 234.49 112.378 235.651C112.889 236.271 113.454 236.824 113.911 237.328C114.694 238.183 115.181 239.055 116.277 239.282V239.286Z" fill="white"/>
<path fill-rule="evenodd" clip-rule="evenodd" d="M120.481 130.654C119.755 129.328 119.29 128.209 118.395 126.833C117.563 125.549 116.133 123.81 114.781 123.219C113.033 122.459 110.919 123.116 108.92 123.925C105.071 125.491 91.9361 132.525 91.932 132.529C88.4576 134.145 85.2141 135.665 81.9293 137.577C80.0665 138.659 78.3973 139.894 77.7832 141.782C76.6745 145.202 79.3246 149.845 79.9263 151.233C81.1586 154.067 82.7412 157.859 87.2047 157.367C88.9645 157.173 90.8686 156.194 92.5584 155.364C95.5134 153.91 113.507 144.678 116.442 143.236C118.132 142.406 120.065 141.501 121.301 140.221C124.421 136.991 121.96 133.36 120.481 130.65V130.654Z" fill="#284981"/>
<path d="M80.0915 144.422C84.6663 142.071 89.0679 140.039 93.6221 137.784C94.8214 137.189 96.3463 136.309 97.7888 135.425C98.2834 135.124 100.258 134.318 99.7671 133.451C99.5527 133.075 98.7532 133.124 98.1927 133.265C97.2571 133.496 97.4508 133.562 96.5936 133.864C91.1987 135.793 85.709 138.358 80.5449 140.939C79.5969 141.414 78.6078 141.89 77.6352 142.402C77.4373 143.41 77.5239 144.492 77.7464 145.553C78.6243 145.144 79.4238 144.76 80.0915 144.417V144.422Z" fill="#1C2B5B"/>
<path d="M113.149 125.545C110.989 126.627 108.603 127.701 106.699 129.274C106.341 129.568 106.044 129.973 106.011 130.043C105.829 130.398 105.726 130.823 106.036 131.166C106.666 131.856 108.331 131.08 109.345 130.625C110.619 130.051 111.777 129.502 112.692 129.031C114.505 128.097 116.29 127.222 118.07 126.358C117.53 125.594 116.83 124.756 116.088 124.107C115.103 124.586 114.118 125.069 113.149 125.553V125.545Z" fill="#1C2B5B"/>
<path d="M88.1817 146.297C89.2698 145.719 91.858 144.467 91.112 143.434C90.535 142.633 88.6763 143.517 87.4728 144.029C84.9011 145.124 82.251 146.541 79.9678 147.718C79.6051 147.904 79.1188 148.114 78.616 148.35C78.9251 149.114 79.2424 149.796 79.5062 150.337C82.4489 149.151 85.2102 147.875 88.1817 146.297Z" fill="#1C2B5B"/>
<path d="M118.436 134.157C116.116 135.256 113.384 136.503 110.952 137.887C109.815 138.531 107.981 139.469 108.265 140.419C108.632 141.642 111.195 140.341 112.316 139.828C115.795 138.23 118.799 136.611 121.923 134.702C122.067 134.611 122.22 134.525 122.368 134.442C122.154 133.839 121.882 133.248 121.589 132.674C120.518 132.98 119.253 133.769 118.432 134.157H118.436Z" fill="#1C2B5B"/>
<path d="M100.776 145.756C101.275 145.475 103.534 144.24 103.163 143.401C102.652 142.253 100.76 143.29 100.199 143.492C97.0095 144.645 94.0956 146.115 91.1653 147.59C88.1073 149.131 85.144 150.539 82.1065 152.472C81.7438 152.708 81.3028 152.976 80.866 153.265C81.2946 154.116 81.8015 154.938 82.4362 155.632C83.5902 154.996 84.7318 154.319 85.8776 153.666C90.9263 150.799 95.6288 148.66 100.776 145.756Z" fill="#1C2B5B"/>
<path d="M101.716 137.032C100.109 137.813 97.6029 138.726 98.3159 139.961C100.171 140.213 113.759 133.343 120.135 129.993C119.817 129.382 119.529 128.795 119.203 128.188C114.192 130.667 102.668 136.569 101.716 137.032Z" fill="#1C2B5B"/>
<g filter="url(#filter0_f_165_883)">
<rect width="217.463" height="17.2353" rx="8.61765" transform="matrix(1 0 0 -1 46.4097 290.348)" fill="url(#paint0_radial_165_883)"/>
</g>
</g>
<defs>
<filter id="filter0_f_165_883" x="42.4097" y="269.113" width="225.463" height="25.2353" filterUnits="userSpaceOnUse" color-interpolation-filters="sRGB">
<feFlood flood-opacity="0" result="BackgroundImageFix"/>
<feBlend mode="normal" in="SourceGraphic" in2="BackgroundImageFix" result="shape"/>
<feGaussianBlur stdDeviation="2" result="effect1_foregroundBlur_165_883"/>
</filter>
<radialGradient id="paint0_radial_165_883" cx="0" cy="0" r="1" gradientUnits="userSpaceOnUse" gradientTransform="translate(108.731 8.61765) rotate(180) scale(108.731 8.61765)">
<stop stop-color="#D2D2D2"/>
<stop offset="1" stop-color="white"/>
</radialGradient>
<clipPath id="clip0_165_883">
<rect width="301" height="293" fill="white"/>
</clipPath>
</defs>
</svg>
