<svg width="267" height="222" viewBox="0 0 267 222" fill="none" xmlns="http://www.w3.org/2000/svg">
<path opacity="0.62" d="M100.9 221.746C156.626 221.746 201.8 219.052 201.8 215.73C201.8 212.407 156.626 209.714 100.9 209.714C45.1745 209.714 0 212.407 0 215.73C0 219.052 45.1745 221.746 100.9 221.746Z" fill="#55B7BE"/>
<path d="M2.47803 159.972V180.618C2.47803 182.595 4.09303 184.206 6.06703 184.206H195.734C197.71 184.206 199.323 182.595 199.323 180.618V159.972H2.47803Z" fill="#F0F0F0"/>
<path d="M199.323 45.9386C199.323 43.9636 197.711 42.3496 195.734 42.3496H6.06706C4.09206 42.3496 2.47705 43.9636 2.47705 45.9386V159.972H199.323V45.9386Z" fill="#534B62"/>
<path d="M135.169 184.206H67.4631V204.992H135.169V184.206Z" fill="#D6D6D6"/>
<path d="M150.51 204.992H51.1931V214.723H150.51V204.992Z" fill="#F0F0F0"/>
<path d="M135.169 184.206H67.4631V191.719H135.169V184.206Z" fill="#BDBDBD"/>
<path d="M189.185 52.5889H12.6541V149.452H189.185V52.5889Z" fill="#5AB3B1"/>
<path d="M82.19 71.5889L69.906 83.8739L57.622 71.5889L52.708 76.5029L64.992 88.7879L52.708 101.072L57.622 105.986L69.906 93.7029L82.19 105.986L87.104 101.072L74.82 88.7879L87.104 76.5029L82.19 71.5889Z" fill="#534B62"/>
<path d="M149.092 76.5029L144.178 71.5889L131.894 83.8739L119.61 71.5889L114.696 76.5029L126.98 88.7879L114.696 101.072L119.61 105.986L131.894 93.7029L144.178 105.986L149.092 101.072L136.808 88.7879L149.092 76.5029Z" fill="#534B62"/>
<path d="M127.215 135.996C101.22 118.047 74.8881 135.814 74.6231 135.996L71.2151 131.058C71.5111 130.853 101.262 110.783 130.623 131.058L127.215 135.996Z" fill="#534B62"/>
<path d="M262.185 0H173.185C170.976 0 169.185 1.791 169.185 4V61.478C169.185 63.687 170.976 65.478 173.185 65.478H183.49L173.35 84.7L207.57 65.478H262.185C264.394 65.478 266.185 63.687 266.185 61.478V4C266.185 1.791 264.394 0 262.185 0Z" fill="white"/>
<path d="M196.834 36.8741C196.568 36.8741 196.34 36.7781 196.148 36.5851C195.955 36.3941 195.859 36.1651 195.859 35.8991V31.5341H184.675C184.409 31.5341 184.181 31.4381 183.989 31.2461C183.796 31.0541 183.7 30.8251 183.7 30.5601V27.9981C183.7 27.6621 183.778 27.3671 183.934 27.1141C184.09 26.8611 184.276 26.5911 184.493 26.3021L195.534 12.5211C196.014 11.9191 196.507 11.6191 197.012 11.6191H199.754C200.018 11.6191 200.246 11.7151 200.439 11.9071C200.63 12.0991 200.728 12.3281 200.728 12.5931V27.0241H203.83C204.094 27.0241 204.322 27.1211 204.516 27.3131C204.707 27.5061 204.805 27.7341 204.805 27.9991V30.5611C204.805 30.8261 204.707 31.0541 204.516 31.2471C204.323 31.4391 204.094 31.5351 203.83 31.5351H200.728V35.9001C200.728 36.1661 200.63 36.3941 200.439 36.5861C200.246 36.7791 200.017 36.8751 199.754 36.8751L196.834 36.8741ZM195.859 27.0251V19.3041L189.689 27.0251H195.859Z" fill="#414042"/>
<path d="M227.425 21.0367C227.45 21.4937 227.462 21.9987 227.462 22.5527C227.462 23.1057 227.462 23.6707 227.462 24.2477C227.462 24.8247 227.462 25.3907 227.462 25.9427C227.462 26.4967 227.45 27.0017 227.425 27.4587C227.353 28.8537 227.142 30.1467 226.794 31.3367C226.444 32.5277 225.892 33.5627 225.134 34.4397C224.378 35.3187 223.39 36.0037 222.177 36.4967C220.962 36.9887 219.476 37.2367 217.722 37.2367C215.941 37.2367 214.45 36.9887 213.247 36.4967C212.044 36.0047 211.063 35.3187 210.308 34.4397C209.55 33.5627 208.995 32.5277 208.648 31.3367C208.298 30.1467 208.089 28.8537 208.017 27.4587C207.968 26.5447 207.945 25.5047 207.945 24.3377C207.945 23.1717 207.968 22.1317 208.017 21.2167C208.089 19.8217 208.298 18.5177 208.648 17.3027C208.996 16.0887 209.55 15.0357 210.308 14.1467C211.064 13.2567 212.044 12.5527 213.247 12.0357C214.45 11.5187 215.94 11.2607 217.722 11.2607C219.476 11.2607 220.962 11.5077 222.177 12.0007C223.39 12.4927 224.378 13.1787 225.134 14.0577C225.892 14.9347 226.444 15.9697 226.794 17.1597C227.142 18.3487 227.353 19.6417 227.425 21.0367ZM212.886 27.2777C213.007 29.0087 213.421 30.3507 214.132 31.2997C214.841 32.2507 216.036 32.7257 217.722 32.7257C219.404 32.7257 220.601 32.2507 221.31 31.2997C222.021 30.3507 222.435 29.0087 222.556 27.2777C222.603 26.3647 222.628 25.3537 222.628 24.2477C222.628 23.1427 222.603 22.1317 222.556 21.2167C222.435 19.4857 222.021 18.1447 221.31 17.1957C220.601 16.2457 219.404 15.7697 217.722 15.7697C216.036 15.7697 214.841 16.2457 214.132 17.1957C213.421 18.1447 213.007 19.4867 212.886 21.2167C212.837 22.1317 212.814 23.1427 212.814 24.2477C212.814 25.3537 212.838 26.3647 212.886 27.2777Z" fill="#414042"/>
<path d="M243.697 36.8741C243.431 36.8741 243.205 36.7781 243.011 36.5851C242.818 36.3941 242.722 36.1651 242.722 35.8991V31.5341H231.538C231.272 31.5341 231.046 31.4381 230.852 31.2461C230.659 31.0541 230.563 30.8251 230.563 30.5601V27.9981C230.563 27.6621 230.641 27.3671 230.797 27.1141C230.953 26.8611 231.141 26.5911 231.358 26.3021L242.397 12.5211C242.877 11.9191 243.372 11.6191 243.876 11.6191H246.618C246.884 11.6191 247.112 11.7151 247.304 11.9071C247.497 12.0991 247.593 12.3281 247.593 12.5931V27.0241H250.696C250.96 27.0241 251.188 27.1211 251.382 27.3131C251.573 27.5061 251.669 27.7341 251.669 27.9991V30.5611C251.669 30.8261 251.573 31.0541 251.382 31.2471C251.189 31.4391 250.96 31.5351 250.696 31.5351H247.593V35.9001C247.593 36.1661 247.497 36.3941 247.304 36.5861C247.113 36.7791 246.884 36.8751 246.618 36.8751L243.697 36.8741ZM242.722 27.0251V19.3041L236.554 27.0251H242.722Z" fill="#414042"/>
<path d="M198.779 51.8347C198.882 51.8347 198.97 51.8717 199.047 51.9477C199.123 52.0217 199.16 52.1117 199.16 52.2157V52.7237C199.16 52.8277 199.123 52.9167 199.047 52.9937C198.971 53.0677 198.883 53.1057 198.779 53.1057H193.074C192.97 53.1057 192.881 53.0677 192.804 52.9937C192.73 52.9177 192.693 52.8287 192.693 52.7237V43.6027C192.693 43.4987 192.73 43.4097 192.804 43.3327C192.88 43.2587 192.97 43.2207 193.074 43.2207H198.666C198.769 43.2207 198.859 43.2587 198.934 43.3327C199.01 43.4087 199.047 43.4987 199.047 43.6027V44.1107C199.047 44.2147 199.01 44.3037 198.934 44.3787C198.86 44.4547 198.77 44.4917 198.666 44.4917H194.033V47.4717H198.355C198.459 47.4717 198.548 47.5087 198.623 47.5837C198.699 47.6587 198.736 47.7487 198.736 47.8527V48.3607C198.736 48.4647 198.699 48.5537 198.623 48.6297C198.549 48.7047 198.459 48.7427 198.355 48.7427H194.033V51.8357L198.779 51.8347Z" fill="#414042"/>
<path d="M206.261 43.2207C206.724 43.2207 207.159 43.2767 207.568 43.3897C207.978 43.5027 208.338 43.6767 208.648 43.9127C208.959 44.1467 209.207 44.4487 209.39 44.8157C209.574 45.1827 209.665 45.6257 209.665 46.1427C209.665 46.9057 209.474 47.5127 209.093 47.9647C208.712 48.4157 208.224 48.7357 207.632 48.9247L209.763 52.6387C209.792 52.6957 209.806 52.7467 209.806 52.7937C209.806 52.8787 209.775 52.9507 209.714 53.0127C209.653 53.0747 209.579 53.1047 209.495 53.1047H208.888C208.7 53.1047 208.562 53.0577 208.472 52.9627C208.382 52.8687 208.32 52.7887 208.281 52.7227L206.234 49.1217H203.804V52.7227C203.804 52.8267 203.767 52.9157 203.693 52.9927C203.617 53.0667 203.527 53.1047 203.423 53.1047H202.845C202.742 53.1047 202.652 53.0667 202.575 52.9927C202.501 52.9167 202.464 52.8277 202.464 52.7227V43.6017C202.464 43.4977 202.501 43.4087 202.575 43.3317C202.651 43.2577 202.741 43.2197 202.845 43.2197L206.261 43.2207ZM203.804 47.8527H206.191C206.869 47.8527 207.394 47.7177 207.765 47.4507C208.138 47.1817 208.324 46.7467 208.324 46.1437C208.324 45.5417 208.138 45.1157 207.765 44.8667C207.394 44.6167 206.869 44.4917 206.191 44.4917H203.804V47.8527Z" fill="#414042"/>
<path d="M216.867 43.2207C217.33 43.2207 217.765 43.2767 218.174 43.3897C218.584 43.5027 218.944 43.6767 219.254 43.9127C219.565 44.1467 219.813 44.4487 219.996 44.8157C220.18 45.1827 220.271 45.6257 220.271 46.1427C220.271 46.9057 220.08 47.5127 219.699 47.9647C219.318 48.4157 218.83 48.7357 218.238 48.9247L220.369 52.6387C220.398 52.6957 220.412 52.7467 220.412 52.7937C220.412 52.8787 220.381 52.9507 220.32 53.0127C220.26 53.0747 220.185 53.1047 220.101 53.1047H219.494C219.306 53.1047 219.168 53.0577 219.078 52.9627C218.988 52.8687 218.926 52.7887 218.887 52.7227L216.84 49.1217H214.41V52.7227C214.41 52.8267 214.373 52.9157 214.299 52.9927C214.223 53.0667 214.133 53.1047 214.029 53.1047H213.451C213.348 53.1047 213.258 53.0667 213.181 52.9927C213.107 52.9167 213.07 52.8277 213.07 52.7227V43.6017C213.07 43.4977 213.107 43.4087 213.181 43.3317C213.257 43.2577 213.347 43.2197 213.451 43.2197L216.867 43.2207ZM214.41 47.8527H216.797C217.475 47.8527 218 47.7177 218.371 47.4507C218.744 47.1817 218.93 46.7467 218.93 46.1437C218.93 45.5417 218.744 45.1157 218.371 44.8667C218 44.6167 217.474 44.4917 216.797 44.4917H214.41V47.8527Z" fill="#414042"/>
<path d="M223.307 46.9071C223.317 46.3801 223.409 45.8831 223.582 45.4181C223.756 44.9511 224.008 44.5471 224.338 44.2031C224.668 43.8591 225.072 43.5861 225.553 43.3841C226.032 43.1821 226.581 43.0801 227.204 43.0801C227.825 43.0801 228.377 43.1821 228.855 43.3841C229.335 43.5861 229.74 43.8601 230.07 44.2031C230.4 44.5471 230.651 44.9511 230.825 45.4181C230.999 45.8831 231.092 46.3801 231.101 46.9071C231.13 47.7451 231.13 48.5831 231.101 49.4211C231.081 49.9481 230.986 50.4451 230.812 50.9101C230.638 51.3771 230.386 51.7831 230.056 52.1331C229.726 52.4811 229.324 52.7541 228.849 52.9511C228.372 53.1481 227.826 53.2481 227.204 53.2481C226.581 53.2481 226.034 53.1481 225.558 52.9511C225.083 52.7541 224.681 52.4801 224.351 52.1331C224.021 51.7831 223.769 51.3771 223.595 50.9101C223.421 50.4451 223.325 49.9481 223.306 49.4211C223.28 48.5821 223.28 47.7451 223.307 46.9071ZM229.76 46.9781C229.74 46.5351 229.668 46.1491 229.541 45.8201C229.414 45.4901 229.237 45.2171 229.011 45.0011C228.784 44.7841 228.52 44.6221 228.215 44.5141C227.908 44.4071 227.571 44.3521 227.204 44.3521C226.837 44.3521 226.5 44.4071 226.195 44.5141C225.888 44.6221 225.623 44.7851 225.396 45.0011C225.169 45.2181 224.992 45.4901 224.859 45.8201C224.728 46.1491 224.658 46.5351 224.648 46.9781C224.628 47.4011 224.618 47.7961 224.618 48.1641C224.618 48.5321 224.629 48.9271 224.648 49.3501C224.658 49.7931 224.728 50.1791 224.859 50.5081C224.992 50.8381 225.169 51.1111 225.396 51.3271C225.623 51.5441 225.888 51.7061 226.195 51.8141C226.5 51.9221 226.837 51.9761 227.204 51.9761C227.571 51.9761 227.908 51.9221 228.215 51.8141C228.52 51.7061 228.784 51.5431 229.011 51.3271C229.238 51.1111 229.414 50.8381 229.541 50.5081C229.668 50.1791 229.74 49.7931 229.76 49.3501C229.779 48.9271 229.789 48.5321 229.789 48.1641C229.789 47.7961 229.78 47.4011 229.76 46.9781Z" fill="#414042"/>
<path d="M238.373 43.2207C238.836 43.2207 239.271 43.2767 239.68 43.3897C240.09 43.5027 240.45 43.6767 240.76 43.9127C241.071 44.1467 241.319 44.4487 241.502 44.8157C241.686 45.1827 241.777 45.6257 241.777 46.1427C241.777 46.9057 241.585 47.5127 241.205 47.9647C240.824 48.4157 240.336 48.7357 239.744 48.9247L241.875 52.6387C241.904 52.6957 241.918 52.7467 241.918 52.7937C241.918 52.8787 241.887 52.9507 241.826 53.0127C241.765 53.0747 241.691 53.1047 241.607 53.1047H241C240.812 53.1047 240.674 53.0577 240.584 52.9627C240.494 52.8687 240.432 52.7887 240.393 52.7227L238.346 49.1217H235.916V52.7227C235.916 52.8267 235.879 52.9157 235.805 52.9927C235.729 53.0667 235.639 53.1047 235.535 53.1047H234.957C234.854 53.1047 234.764 53.0667 234.687 52.9927C234.613 52.9167 234.576 52.8277 234.576 52.7227V43.6017C234.576 43.4977 234.613 43.4087 234.687 43.3317C234.763 43.2577 234.853 43.2197 234.957 43.2197L238.373 43.2207ZM235.916 47.8527H238.303C238.981 47.8527 239.506 47.7177 239.877 47.4507C240.25 47.1817 240.436 46.7467 240.436 46.1437C240.436 45.5417 240.25 45.1157 239.877 44.8667C239.506 44.6167 238.98 44.4917 238.303 44.4917H235.916V47.8527Z" fill="#414042"/>
</svg>
