<?xml version="1.0" encoding="UTF-8"?>
<svg id="Illustration" xmlns="http://www.w3.org/2000/svg" xmlns:xlink="http://www.w3.org/1999/xlink" viewBox="0 0 3608.63 3689.27">
  <defs>
    <style>
      .cls-1, .cls-2, .cls-3 {
        opacity: .6;
      }

      .cls-2, .cls-4 {
        fill: #91b3fa;
      }

      .cls-5 {
        fill: url(#linear-gradient-15);
      }

      .cls-6 {
        fill: url(#linear-gradient-13);
      }

      .cls-7 {
        opacity: .39;
      }

      .cls-7, .cls-8, .cls-9, .cls-10, .cls-3 {
        fill: #fff;
      }

      .cls-11 {
        fill: #96b7e1;
      }

      .cls-12 {
        fill: url(#linear-gradient-2);
      }

      .cls-13 {
        fill: #e1eaf7;
      }

      .cls-14 {
        fill: url(#linear-gradient-10);
      }

      .cls-15 {
        fill: url(#linear-gradient-12);
      }

      .cls-16 {
        fill: #1d2855;
      }

      .cls-17 {
        fill: #199dae;
      }

      .cls-18 {
        fill: url(#linear-gradient-4);
      }

      .cls-19 {
        fill: url(#linear-gradient-3);
      }

      .cls-20 {
        fill: url(#linear-gradient-5);
      }

      .cls-9 {
        opacity: .28;
      }

      .cls-21 {
        fill: url(#linear-gradient-8);
      }

      .cls-22 {
        fill: url(#linear-gradient-14);
      }

      .cls-10 {
        opacity: .56;
      }

      .cls-23 {
        fill: url(#linear-gradient-17);
      }

      .cls-24 {
        fill: url(#linear-gradient-7);
      }

      .cls-25 {
        fill: url(#linear-gradient-9);
      }

      .cls-26 {
        fill: url(#linear-gradient-11);
      }

      .cls-27 {
        fill: url(#linear-gradient-19);
      }

      .cls-28 {
        fill: url(#linear-gradient-6);
      }

      .cls-29 {
        fill: #5fc0ca;
      }

      .cls-30 {
        fill: #368da6;
      }

      .cls-31 {
        fill: #8eafd5;
      }

      .cls-32 {
        fill: #284981;
      }

      .cls-33 {
        fill: #92a2b9;
      }

      .cls-34 {
        fill: url(#linear-gradient-16);
      }

      .cls-35 {
        fill: #3b98ad;
      }

      .cls-36 {
        fill: url(#linear-gradient);
      }

      .cls-37 {
        fill: url(#linear-gradient-18);
      }
    </style>
    <linearGradient id="linear-gradient" x1="-6106.49" y1="1222.55" x2="-5956.32" y2="1599.26" gradientTransform="translate(-5430.18) rotate(-180) scale(1 -1)" gradientUnits="userSpaceOnUse">
      <stop offset="0" stop-color="#09005d"/>
      <stop offset="1" stop-color="#1a0f91"/>
    </linearGradient>
    <linearGradient id="linear-gradient-2" x1="-6412.73" y1="289.82" x2="-6135.3" y2="921.03" gradientTransform="translate(-5178.63 -124.2) rotate(-167.84) scale(1 -1)" gradientUnits="userSpaceOnUse">
      <stop offset="0" stop-color="#febbba"/>
      <stop offset="1" stop-color="#ff928e"/>
    </linearGradient>
    <linearGradient id="linear-gradient-3" x1="-5557.52" y1="3634.26" x2="-5430.18" y2="3634.26" xlink:href="#linear-gradient"/>
    <linearGradient id="linear-gradient-4" x1="-6095.6" y1="4136.42" x2="-5912.35" y2="1994.66" gradientTransform="translate(-5430.18) rotate(-180) scale(1 -1)" xlink:href="#linear-gradient-2"/>
    <linearGradient id="linear-gradient-5" x1="-6149.14" y1="3611.01" x2="-5943.09" y2="3611.01" xlink:href="#linear-gradient"/>
    <linearGradient id="linear-gradient-6" x1="-5726.98" y1="4168.29" x2="-5543.68" y2="2025.96" gradientTransform="translate(-5430.18) rotate(-180) scale(1 -1)" xlink:href="#linear-gradient-2"/>
    <linearGradient id="linear-gradient-7" x1="2170.87" y1="140.19" x2="1077.07" y2="1500.76" gradientUnits="userSpaceOnUse">
      <stop offset="0" stop-color="#ff928e"/>
      <stop offset="1" stop-color="#fe7062"/>
    </linearGradient>
    <linearGradient id="linear-gradient-8" x1="-1960.69" y1="2124.75" x2="-4387.26" y2="3944.68" gradientTransform="translate(-2081.66) rotate(-180) scale(1 -1)" xlink:href="#linear-gradient"/>
    <linearGradient id="linear-gradient-9" x1="-6115.7" y1="2025.28" x2="-6081.28" y2="1773.45" gradientTransform="translate(-5430.18) rotate(-180) scale(1 -1)" xlink:href="#linear-gradient-2"/>
    <linearGradient id="linear-gradient-10" x1="-5973.82" y1="2148" x2="-5745.15" y2="2148" gradientTransform="translate(-5430.18) rotate(-180) scale(1 -1)" xlink:href="#linear-gradient-2"/>
    <linearGradient id="linear-gradient-11" x1="-6189.64" y1="640.68" x2="-5889.28" y2="106.14" gradientTransform="translate(-5200.13 -109.09) rotate(-168.8) scale(1 -1)" xlink:href="#linear-gradient-2"/>
    <linearGradient id="linear-gradient-12" x1="-6125.05" y1="175.18" x2="-5974.87" y2="551.9" gradientTransform="translate(-5200.13 -109.09) rotate(-168.8) scale(1 -1)" xlink:href="#linear-gradient"/>
    <linearGradient id="linear-gradient-13" x1="-6125.71" y1="676.61" x2="-5825.35" y2="142.07" gradientTransform="translate(-5200.13 -109.09) rotate(-168.8) scale(1 -1)" xlink:href="#linear-gradient-2"/>
    <linearGradient id="linear-gradient-14" x1="-6467.55" y1="313.91" x2="-6190.12" y2="945.13" xlink:href="#linear-gradient-2"/>
    <linearGradient id="linear-gradient-15" x1="5354.4" y1="1341.77" x2="5425.74" y2="1341.77" gradientTransform="translate(-4163.38)" gradientUnits="userSpaceOnUse">
      <stop offset="0" stop-color="#f9b776"/>
      <stop offset="1" stop-color="#f47960"/>
    </linearGradient>
    <linearGradient id="linear-gradient-16" x1="-3781.44" y1="1353.03" x2="-4435.94" y2="3083.82" gradientTransform="translate(7034.04 3935.53) scale(1 -1)" gradientUnits="userSpaceOnUse">
      <stop offset="0" stop-color="#485194"/>
      <stop offset="1" stop-color="#4042e2"/>
    </linearGradient>
    <linearGradient id="linear-gradient-17" x1="2740.55" y1="2122.72" x2="1633.31" y2="4857.48" gradientUnits="userSpaceOnUse">
      <stop offset="0" stop-color="#c2797c"/>
      <stop offset="1" stop-color="#b92044"/>
    </linearGradient>
    <linearGradient id="linear-gradient-18" x1="-3391.53" y1="1030.88" x2="-3467.09" y2="3250.66" gradientTransform="translate(5867.21 4396.28) scale(1 -1)" gradientUnits="userSpaceOnUse">
      <stop offset="0" stop-color="#9f3026"/>
      <stop offset="1" stop-color="#e9605a"/>
    </linearGradient>
    <linearGradient id="linear-gradient-19" x1="-3209.03" y1="2888.89" x2="-2164.73" y2="3903.68" gradientTransform="translate(-192.18 -171.92) rotate(-173.4) scale(1 -1)" gradientUnits="userSpaceOnUse">
      <stop offset="0" stop-color="#3e4581"/>
      <stop offset="1" stop-color="#4042e2"/>
    </linearGradient>
  </defs>
  <g>
    <g>
      <path class="cls-31" d="M1069.8,2299.84s11.87-498.88-217.91-632.4c-229.78-133.52-666.67-217-683.05-933.34-9.59-419.38-19.96-602.74-26.92-682.69-2.71-31.19,25-56.36,55.77-50.57,217.62,41,924.57,209.74,1072.79,692.27,175.71,572.04-200.68,1606.74-200.68,1606.74Z"/>
      <path class="cls-9" d="M365.99,200.14c238.88,213.05,515.1,590.1,662.33,967.15,18.9,62.14,74.18,194.29,98.19,429.08,21.44,195.82,10.78,402.75-15.22,539.72-1.64,8.66-10,14.35-18.66,12.7-14.89-2.82-12.91-18.84-12.78-18.33,29.69-234.02,17.37-525.3-50.67-788.12-86.92-322.71-280.79-635.59-481.32-900.96l-20.64-26.13c-155.36-199.52-188.06-200.99-173.54-214.89,3.43-3.28,8.8-3.31,12.29-.22Z"/>
    </g>
    <g>
      <path class="cls-17" d="M1439.06,3259.01c31.09,15.24-294.31-393.95-396.24-1036.62-48.03-302.84-48.66-682.28-221.17-828.5-143.58-121.69-632.15-44.86-792.01-15.67-19.98,3.65-26.7,28.88-11.15,41.94,76.66,64.38,240.66,216.25,283.39,369.3,56.32,201.73,248.11,330.04,419.81,364.77,171.7,34.73,267.21,68.43,350.86,343.01,83.65,274.59,278.18,718.45,366.52,761.76Z"/>
      <path class="cls-9" d="M254.47,1463.46c203.96,8.54,422.89,101.58,533.99,276.1l10.49,16.65c24.22,39.05,161.48,316.64,237.71,546.75.95,2.87-.61,5.96-3.47,6.92-4.87,1.61-7.31-3.75-6.85-3.27-53.11-129.99-129.4-294.8-190.16-418.05-65.16-134.49-110.75-225.57-259.37-312.81-165.42-93.95-323.45-103.63-322.97-103.53-2.41-.25-4.17-2.4-3.92-4.81.24-2.32,2.25-4.03,4.55-3.94Z"/>
    </g>
  </g>
  <g>
    <path class="cls-32" d="M864.17,668.93c0-126.52,102.56-229.08,229.08-229.08h1948.08c107.47,0,196.09,84.22,201.56,191.56l143.8,2824.35c4.28,83.99-61.84,154.84-145.93,156.37l-2232.74,40.58c-79.01,1.44-143.84-62.22-143.84-141.25V668.93Z"/>
    <path class="cls-4" d="M1334.32,3604.7h-.07l-249.83-3.23c-83.54-1.08-151.5-69.93-151.5-153.47v-377.2c0-2.95,2.39-5.33,5.33-5.33s5.33,2.39,5.33,5.33v377.2c0,77.73,63.24,141.79,140.97,142.8l249.83,3.23c2.95.04,5.3,2.46,5.27,5.4-.04,2.92-2.42,5.27-5.33,5.27Z"/>
    <path class="cls-4" d="M938.25,2959.29c-2.95,0-5.33-2.39-5.33-5.33v-61.09c0-2.95,2.39-5.33,5.33-5.33s5.33,2.39,5.33,5.33v61.09c0,2.95-2.39,5.33-5.33,5.33Z"/>
    <g>
      <path class="cls-30" d="M1023.76,483.33c-.24-40.48,35.36-71.81,75.47-66.37,266.03,36.08,1180.83,147.65,1937.17,89.59,34.49-2.65,64.43,23.49,66.26,58.03l150.78,2836.94c2.07,38.9-27.64,72.16-66.52,74.46-318.1,18.82-1628.16,91.6-2095.44,42.65-28.44-2.98-50.03-26.92-50.2-55.52l-17.53-2979.8Z"/>
      <path class="cls-33" d="M1055.1,554.42c-.23-38.95,34.03-69.1,72.63-63.87,256.01,34.72,1136.36,142.09,1864.23,86.22,33.19-2.55,62,22.6,63.77,55.85l145.1,2730.11c1.99,37.43-26.6,69.45-64.02,71.66-306.13,18.12-1566.85,88.15-2016.53,41.05-27.37-2.87-48.14-25.91-48.3-53.43l-16.87-2867.59Z"/>
      <path class="cls-8" d="M2913.37,815.86c2.49,0,4.47-2.04,4.4-4.53l-.88-30.22c-.07-2.49-2.17-4.56-4.66-4.61l-739.18-13.17c-2.49-.04-3.85,1.84-3.02,4.19l15.52,44.06c.83,2.35,3.54,4.27,6.03,4.27h721.8Z"/>
      <path class="cls-8" d="M2173.04,872.45c-2.49-.04-3.85,1.84-3.02,4.19l15.52,44.06c.83,2.35,3.54,4.27,6.03,4.27h721.8c2.49,0,4.47-2.04,4.4-4.53l-.88-30.22c-.07-2.49-2.17-4.56-4.66-4.61l-739.18-13.17Z"/>
      <path class="cls-8" d="M2173.04,983.15c-2.49-.04-3.85,1.84-3.02,4.19l15.52,44.06c.83,2.35,3.54,4.27,6.03,4.27h721.8c2.49,0,4.47-2.04,4.4-4.53l-.88-30.22c-.07-2.49-2.17-4.56-4.66-4.61l-739.18-13.17Z"/>
      <path class="cls-8" d="M2981.61,1569.54c2.49,0,4.39-2.03,4.23-4.52l-2-30.23c-.16-2.49-2.34-4.54-4.83-4.55l-1682.59-13.26c-2.49-.02-3.26,1.56-1.71,3.51l36.24,45.52c1.55,1.95,4.86,3.54,7.35,3.54h1643.29Z"/>
      <path class="cls-8" d="M1296.43,1689.2c-2.49-.02-3.26,1.56-1.71,3.51l36.24,45.52c1.55,1.95,4.86,3.54,7.35,3.54h1643.29c2.49,0,4.39-2.03,4.23-4.52l-2-30.23c-.16-2.49-2.34-4.54-4.83-4.55l-1682.59-13.26Z"/>
      <path class="cls-8" d="M1303.42,1905.21c-2.49-.02-3.26,1.56-1.71,3.51l36.24,45.52c1.55,1.95,4.86,3.54,7.35,3.54h1643.29c2.49,0,4.39-2.03,4.23-4.52l-2-30.23c-.16-2.49-2.34-4.54-4.83-4.55l-1682.59-13.26Z"/>
      <g>
        <path class="cls-8" d="M1519.71,2370.32h-.38l-138.92-1.33c-19.85-.19-36.23-13.85-38.11-31.76l-12.21-116.56c-.72-6.84,1.41-13.6,5.98-19.05,5.12-6.09,12.87-9.91,21.26-10.49h0c11.7-.8,28.19-2.2,45.63-3.69,36.74-3.13,82.47-7.02,108.2-7.34,18.67-.09,34.5,10.95,38.9,27.21,7.24,26.76,6.6,77.41,5.22,131.36-.45,17.53-16.37,31.65-35.58,31.65ZM1358.06,2201.78c-5.52.37-10.55,2.82-13.82,6.71-2.7,3.2-3.95,7.14-3.54,11.07l12.21,116.56c1.31,12.52,13.18,22.07,27.61,22.21l138.92,1.33h.28c13.46,0,24.61-9.48,24.91-21.26,1.35-53.14,2-102.93-4.86-128.31-3.08-11.37-14.91-19.28-28.47-19.32-25.35.32-70.86,4.19-107.43,7.31-17.5,1.49-34.02,2.9-45.81,3.7h0Z"/>
        <path class="cls-8" d="M1373,2213.81c29.18-1.99,92.61-8.43,122.7-8.81,12.75-.16,23.93,7.54,26.92,18.6,5.81,21.47,5.04,64.26,4.03,103.75-.3,11.83-11.17,21.27-24.43,21.14l-111.01-1.07c-13.65-.13-24.99-9.44-26.26-21.56l-9.76-93.14c-1.01-9.64,7-18.17,17.82-18.91Z"/>
        <path class="cls-8" d="M1641.73,2292.93c4.02,15.25,17.88,25.83,33.65,25.7l1285.35-10.96c14.54-.12,26.17-12.11,25.85-26.65-.31-14.13-11.82-25.45-25.96-25.51l-1285.38-5.86c-22.69-.1-39.3,21.35-33.51,43.29Z"/>
        <path class="cls-8" d="M1519.71,2668.06h-.38l-138.92-1.33c-19.85-.19-36.23-13.85-38.11-31.76l-12.21-116.56c-.72-6.84,1.41-13.6,5.98-19.05,5.12-6.09,12.87-9.91,21.26-10.49h0c11.7-.8,28.19-2.2,45.63-3.69,36.74-3.13,82.47-7.02,108.2-7.34.19,0,.37,0,.56,0,18.27,0,33.99,11.13,38.34,27.22,7.24,26.76,6.6,77.41,5.22,131.36-.45,17.53-16.37,31.65-35.58,31.65ZM1358.06,2499.52c-5.52.38-10.55,2.82-13.82,6.71-2.7,3.2-3.95,7.14-3.54,11.07l12.21,116.56c1.31,12.52,13.18,22.07,27.61,22.21l138.92,1.33h.28c13.46,0,24.61-9.48,24.91-21.26,1.35-53.14,2-102.93-4.86-128.31-3.08-11.36-15.08-19.54-28.47-19.32-25.34.32-70.86,4.19-107.42,7.31-17.5,1.49-34.02,2.9-45.81,3.7h0Z"/>
        <path class="cls-8" d="M1373,2511.55c29.18-1.99,92.61-8.43,122.7-8.81,12.75-.16,23.93,7.54,26.92,18.6,5.81,21.47,5.04,64.26,4.03,103.75-.3,11.83-11.17,21.27-24.43,21.14l-111.01-1.07c-13.65-.13-24.99-9.44-26.26-21.56l-9.76-93.14c-1.01-9.63,7-18.17,17.82-18.91Z"/>
        <path class="cls-8" d="M1641.73,2590.67c4.02,15.25,17.88,25.83,33.65,25.7l1285.35-10.96c14.54-.12,26.17-12.11,25.85-26.65-.31-14.13-11.82-25.45-25.96-25.51l-1285.38-5.86c-22.69-.1-39.3,21.35-33.51,43.29Z"/>
        <path class="cls-8" d="M1519.71,2965.8h-.38l-138.92-1.33c-19.85-.19-36.23-13.84-38.11-31.76l-12.21-116.56c-.72-6.84,1.41-13.61,5.98-19.05,5.12-6.09,12.87-9.91,21.25-10.49h0c11.7-.8,28.19-2.2,45.63-3.69,36.74-3.13,82.47-7.02,108.2-7.34.19,0,.37,0,.56,0,18.27,0,33.99,11.13,38.34,27.22,7.24,26.76,6.6,77.41,5.22,131.36-.45,17.53-16.37,31.65-35.58,31.65ZM1358.06,2797.26c-5.52.37-10.55,2.82-13.82,6.71-2.7,3.2-3.95,7.14-3.54,11.07l12.21,116.56c1.31,12.52,13.18,22.07,27.6,22.2l138.92,1.33h.28c13.46,0,24.61-9.49,24.91-21.26,1.35-53.14,2-102.93-4.86-128.31-3.08-11.37-15.08-19.58-28.47-19.32-25.34.32-70.86,4.19-107.42,7.31-17.5,1.49-34.02,2.9-45.81,3.7h0Z"/>
        <path class="cls-8" d="M1373,2809.29c29.18-1.99,92.61-8.43,122.7-8.81,12.75-.16,23.93,7.54,26.92,18.6,5.81,21.47,5.04,64.26,4.03,103.75-.3,11.83-11.17,21.27-24.43,21.14l-111.01-1.07c-13.65-.13-24.99-9.44-26.26-21.56l-9.76-93.14c-1.01-9.63,7-18.17,17.82-18.91Z"/>
        <path class="cls-8" d="M1641.73,2888.41c4.02,15.25,17.88,25.83,33.65,25.7l1285.35-10.96c14.54-.12,26.17-12.11,25.85-26.65-.31-14.13-11.82-25.45-25.96-25.51l-1285.38-5.86c-22.69-.1-39.3,21.35-33.51,43.29Z"/>
        <path class="cls-8" d="M1519.71,3263.54h-.38l-138.92-1.33c-19.85-.19-36.23-13.84-38.11-31.76l-12.21-116.56c-.72-6.84,1.41-13.61,5.98-19.05,5.12-6.09,12.87-9.91,21.25-10.49h0c11.7-.8,28.19-2.2,45.63-3.69,36.74-3.13,82.47-7.02,108.2-7.34.19,0,.37,0,.56,0,18.27,0,33.99,11.13,38.34,27.22,7.24,26.76,6.6,77.41,5.22,131.36-.45,17.53-16.37,31.65-35.58,31.65ZM1358.06,3095c-5.52.37-10.55,2.82-13.82,6.71-2.7,3.2-3.95,7.14-3.54,11.07l12.21,116.56c1.31,12.52,13.18,22.07,27.6,22.2l138.92,1.33h.28c13.46,0,24.61-9.48,24.91-21.26,1.35-53.14,2-102.93-4.86-128.31-3.08-11.37-15.08-19.62-28.47-19.32-25.34.32-70.86,4.19-107.42,7.31-17.5,1.49-34.02,2.9-45.81,3.7h0Z"/>
        <path class="cls-8" d="M1373,3107.03c29.18-1.99,92.61-8.43,122.7-8.81,12.75-.16,23.93,7.54,26.92,18.6,5.81,21.47,5.04,64.26,4.03,103.75-.3,11.83-11.17,21.27-24.43,21.14l-111.01-1.07c-13.65-.13-24.99-9.44-26.26-21.56l-9.76-93.14c-1.01-9.63,7-18.17,17.82-18.91Z"/>
        <g class="cls-1">
          <path class="cls-8" d="M1641.73,3186.15h0c4.02,15.25,17.88,25.83,33.65,25.7l1285.35-10.96c14.54-.12,26.17-12.11,25.85-26.65-.31-14.13-11.82-25.45-25.96-25.51l-1285.38-5.86c-22.69-.1-39.3,21.35-33.51,43.29Z"/>
        </g>
      </g>
    </g>
    <path class="cls-16" d="M2188.1,54.77c-70.37-48.95-131.55-47.98-174.62-35.27-39.29,11.59-64.76,49.53-61.02,90.32l18.57,202.74,221.03,19.62s134.04-181.4-3.96-277.41ZM2090.9,218.34c-30.44,0-55.11-24.67-55.11-55.11s24.68-55.11,55.11-55.11,55.11,24.68,55.11,55.11-24.68,55.11-55.11,55.11Z"/>
    <path class="cls-13" d="M1993.11,227.28c-2.73,0-5.05-2.08-5.3-4.85l-2.96-32.29c-.27-2.93,1.89-5.53,4.82-5.8,2.99-.28,5.53,1.89,5.8,4.83l2.96,32.29c.27,2.93-1.89,5.53-4.82,5.8-.17.02-.33.02-.49.02ZM1987.32,164c-2.73,0-5.05-2.08-5.3-4.85l-2.25-24.51c-3.56-38.86,20.89-75.05,58.14-86.04,26.38-7.79,53.56-8.9,80.78-3.32,2.89.59,4.74,3.41,4.15,6.3-.59,2.88-3.39,4.72-6.29,4.15-25.5-5.22-50.94-4.18-75.62,3.1-32.38,9.56-53.64,41.03-50.54,74.84l2.25,24.51c.27,2.93-1.89,5.53-4.82,5.8-.17.02-.33.02-.49.02Z"/>
    <path class="cls-32" d="M1669.36,443.59v-101.93c0-35.19,29.16-63.37,64.33-62.17l702.79,24.08c31.19,1.07,56.45,25.69,58.32,56.84l5.87,97.94-831.31-14.76Z"/>
    <path class="cls-13" d="M1931.41,317.9h-30.22c-2.95,0-5.33-2.39-5.33-5.33s2.39-5.33,5.33-5.33h30.22c2.95,0,5.33,2.39,5.33,5.33s-2.39,5.33-5.33,5.33Z"/>
    <path class="cls-13" d="M1707.4,411.58c-2.95,0-5.33-2.39-5.33-5.33v-41.24c0-31.86,25.92-57.78,57.78-57.78h111.12c2.95,0,5.33,2.39,5.33,5.33s-2.39,5.33-5.33,5.33h-111.12c-25.98,0-47.11,21.14-47.11,47.11v41.24c0,2.95-2.39,5.33-5.33,5.33Z"/>
    <path class="cls-35" d="M1383.01,469.33c1.7-35.3,30.81-63.04,66.15-63.05l1228.95-.03c44.19,0,81.97,31.8,89.51,75.34l1.04,6.01c8.26,47.69-28.46,91.31-76.87,91.31h-1260.83c-28.97,0-52.05-24.22-50.66-53.15l2.71-56.43Z"/>
    <g>
      <circle class="cls-29" cx="1671.8" cy="1067.62" r="318.84" transform="translate(-265.26 1494.84) rotate(-45)"/>
      <path class="cls-8" d="M1854.33,979.51h-105.95v-91.26c0-21.42-17.37-38.79-38.79-38.79h-77.64c-21.42,0-38.79,17.37-38.79,38.79v91.26h-105.95c-21.42,0-38.79,17.37-38.79,38.79v90.23c0,21.42,17.37,38.79,38.79,38.79h105.95v91.26c0,21.42,17.37,38.79,38.79,38.79h77.64c21.42,0,38.79-17.37,38.79-38.79v-91.26h105.95c21.42,0,38.79-17.37,38.79-38.79v-90.23c0-21.43-17.37-38.79-38.79-38.79Z"/>
    </g>
  </g>
  <g>
    <path class="cls-36" d="M587.26,1425.19s-50.63,24.63-59.94,52.91c-7.47,22.7-63.45,25.62-68.98,70.26-2.85,23.05-19.91,41.51-42.87,45.02-57.17,8.76-145.28,38.45-159.38,137.72-10.76,75.77,27.87,104.5,68.4,114.44,29.77,7.3,49.56,36.26,43.54,66.32-5.78,28.83,2.84,62.16,52.79,88.52,111.93,59.06,223.71-139.92,223.71-139.92l22.91-347.43-80.18-87.85Z"/>
    <path class="cls-12" d="M1196.3,1342.82s-223.48,353.49-489.23,421.76c0,0,51.78,147.48,91.75,164.36,0,0,326.94-272.8,410.96-535.9l-13.48-50.23Z"/>
    <path class="cls-19" d="M127.19,3603.72l-7.24,59.54c-1.37,11.3-10.27,20.23-21.57,21.52-19.09,2.18-49.72,4.42-79.69,1.25-13.15-1.39-21.69-14.71-17.69-27.32,7.31-22.99,20.67-57.49,39.94-77.8h66.05c12.21,0,21.67,10.68,20.2,22.81Z"/>
    <path class="cls-18" d="M644.53,2906.2l11.15,65.58s-37.33,378.17-43.98,529.43c-1.04,23.72,5.09,47.15,17.54,67.37l64.92,105.42-164.99-97.36-3.28-20.13,27.01-37.13-35.38-423.64c-2.08-24.89,3.06-49.85,14.79-71.89l34.13-64.11,78.09-53.53Z"/>
    <path class="cls-20" d="M705.03,3689.27h-52.65c-9.86,0-19.15-4.52-25.16-12.34-16.41-21.33-50.42-62.94-66.68-64.02-21.89-1.46-19.09,76.36-19.09,76.36h-12.27l-15.54-96.7c-3.91-24.33,8.19-48.43,30.04-59.83h0s5,37.01,32.14,53.37c27.13,16.37,110.41,74.99,110.41,74.99,0,0,10.2-1.45,21.4.57,16.61,3,14.29,27.6-2.59,27.6Z"/>
    <path class="cls-28" d="M418.55,2937.35s-218.72,414.88-253.48,509.61c-34.77,94.72-46.95,173.75-47.41,181.23-.73,11.69-15.27,22.91-55.36,22.91-20.69,0-30.82-8.29-35.78-16.32-4.23-6.85-4.45-15.42-.89-22.64,12.65-25.6,52.8-107.43,67.67-144.54,17.75-44.31,55.94-245.12,76.89-314.93,20.94-69.82,44.62-145.55,135.82-215.31,0,0,62.61-61.32,112.54,0Z"/>
    <path class="cls-24" d="M556.72,2257.54c56.42-239.07-86.51-374.28-86.51-374.28,90.18-86.57,254.5-125.96,254.5-125.96,0,0,156.79,114.63,138.19,204.35-10.9,52.59-110.21,314.98-110.21,314.98,0,0-91.83,43.46-195.97-19.09Z"/>
    <path class="cls-21" d="M431.63,2375.9c22.96-69.17,125.09-118.36,125.09-118.36,104.14,62.55,195.97,19.09,195.97,19.09,0,0,20.59,78.72,6.38,151.87-14.21,73.15-103.39,543.28-103.39,543.28-140.51,28.47-356.62-28.64-356.62-28.64,89.5-158.9,109.6-498.07,132.57-567.24Z"/>
    <path class="cls-25" d="M622.21,1599.32l-45.87,206.04c-4.39,18.15,12.15,15.18,30.5,11.72,30.05-5.67,68.78-17.33,81.72-40.71,1.32-2.38,1.98-5.07,2.35-7.76l19.71-142.87c1.56-11.34-4.56-22.34-15.02-26.97l-38.03-16.86c-14.64-6.49-31.59,1.86-35.36,17.43Z"/>
    <path class="cls-14" d="M470.21,1883.26s-320.15,229.05-40.94,469.73c0,0,10.65,12.04,31.59,18.3,10.57,3.16,41.85,26.82,57.71,39.16,5.1,3.97,12.46,2.62,15.89-2.86h0c2.69-4.29,3-9.65.84-14.23l-39.63-83.81c-11.01-10.27-27.85-11-39.71-1.72h0c-7.56,5.92-18.64,3.44-22.87-5.18-21.58-43.96-62.34-173.25,104.47-319.34,6.27-5.49,7.86-14.57,4.01-21.97-11.72-22.51-38.52-67.22-71.35-78.1Z"/>
    <g>
      <path class="cls-26" d="M710.07,1411.49s48.83,33.06,69.82,117.24c20.98,84.18-13.12,114.38-48.07,112.53-34.95-1.85-85.64-12.66-129.55-73.05-43.91-60.39,43.81-197.11,107.81-156.71Z"/>
      <path class="cls-15" d="M646.54,1534.25s-17.89-120.62,82.26-102.17l20.25,21.08s49.02-55.21-5.23-96.94c-54.25-41.73-129.53-31.04-171.18,44.93-41.65,75.97-56.76,129.36-21.86,176.56,34.91,47.21,61.17,6.72,61.17,6.72,0,0-16.01-40.86-2.73-58.39,13.28-17.53,30.42,10.2,30.42,10.2l6.89-1.99Z"/>
      <path class="cls-6" d="M632.86,1544.58s-8.83-62.06-40.53-44.32c-31.7,17.74,11.42,57.97,28.71,71.66l11.82-27.34Z"/>
    </g>
    <g>
      <path class="cls-22" d="M1194.77,1415.6c.68,7.29-26.44,12.33-35.07-18.75,2.37-13.5,6.59-72.6,16.93-81.78,55.11-48.9,153.39-103.91,153.39-103.91,10.99,16.78-3.42,27.83-3.42,27.83l-49.06,33.11c5.12,16.95,12.59,31.93,13.43,51.29.64,14.65-4.77,29-14.5,40.12-9.76,11.16-22.91,25.56-34.75,36.49-22.43,20.7-46.95,15.61-46.95,15.61Z"/>
      <path class="cls-5" d="M1219.73,1390.8l-4.12-1.68c.99-2.42,24.41-59.31,35.56-70.96,4.69-4.9,6.95-9.24,6.73-12.88-.16-2.48-1.47-4.84-4.02-7.19l-41.32,22.09-17.79,27.86-3.75-2.4,18.42-28.84.51-.28,44.48-23.78,1.15.93c4.29,3.5,6.5,7.2,6.75,11.32.31,5.01-2.29,10.32-7.95,16.24-10.57,11.05-34.42,68.99-34.65,69.57Z"/>
    </g>
  </g>
  <g>
    <rect class="cls-4" x="2685.04" y="2049.47" width="668.44" height="175.99" transform="translate(6038.53 4274.93) rotate(180)"/>
    <rect class="cls-11" x="2429.9" y="2148.49" width="1178.72" height="1483.2" rx="36.16" ry="36.16" transform="translate(6038.53 5780.19) rotate(180)"/>
    <rect class="cls-10" x="2579.1" y="2456.91" width="880.33" height="943.26" rx="12" ry="12" transform="translate(6038.53 5857.09) rotate(180)"/>
    <path class="cls-34" d="M2580.76,1829.49h877.01c3.5,0,6.34,2.84,6.34,6.34v258.24c0,6.61-5.37,11.98-11.98,11.98h-865.73c-6.61,0-11.98-5.37-11.98-11.98v-258.24c0-3.5,2.84-6.34,6.34-6.34Z" transform="translate(6038.53 3935.53) rotate(180)"/>
    <g>
      <rect class="cls-2" x="3364.74" y="1868.96" width="31.95" height="200.76" transform="translate(6761.42 3938.67) rotate(180)"/>
      <rect class="cls-2" x="3299.02" y="1868.96" width="31.95" height="200.76" transform="translate(6629.99 3938.67) rotate(180)"/>
      <rect class="cls-2" x="3233.3" y="1868.96" width="31.95" height="200.76" transform="translate(6498.55 3938.67) rotate(180)"/>
      <rect class="cls-2" x="3167.59" y="1868.96" width="31.95" height="200.76" transform="translate(6367.12 3938.67) rotate(180)"/>
      <rect class="cls-2" x="3101.87" y="1868.96" width="31.95" height="200.76" transform="translate(6235.68 3938.67) rotate(180)"/>
      <rect class="cls-2" x="3036.15" y="1868.96" width="31.95" height="200.76" transform="translate(6104.25 3938.67) rotate(180)"/>
      <rect class="cls-2" x="2970.43" y="1868.96" width="31.95" height="200.76" transform="translate(5972.81 3938.67) rotate(180)"/>
      <rect class="cls-2" x="2904.72" y="1868.96" width="31.95" height="200.76" transform="translate(5841.38 3938.67) rotate(180)"/>
      <rect class="cls-2" x="2839" y="1868.96" width="31.95" height="200.76" transform="translate(5709.94 3938.67) rotate(180)"/>
      <rect class="cls-2" x="2773.28" y="1868.96" width="31.95" height="200.76" transform="translate(5578.51 3938.67) rotate(180)"/>
      <rect class="cls-2" x="2707.56" y="1868.96" width="31.95" height="200.76" transform="translate(5447.07 3938.67) rotate(180)"/>
      <rect class="cls-2" x="2641.84" y="1868.96" width="31.95" height="200.76" transform="translate(5315.64 3938.67) rotate(180)"/>
    </g>
  </g>
  <g>
    <path class="cls-23" d="M2186.02,3665.13c129.71,28.9,368.07,26.28,504.91-6.5,44.92-10.76,76.53-51.01,76.53-97.2v-1392.43h-662.97v1394.13c0,48.88,33.82,91.37,81.52,102Z"/>
    <path class="cls-37" d="M2086.38,2081.47h698.95c3.5,0,6.34,2.84,6.34,6.34v215.03c0,6.61-5.37,11.98-11.98,11.98h-687.67c-6.61,0-11.98-5.37-11.98-11.98v-215.03c0-3.5,2.84-6.34,6.34-6.34Z" transform="translate(4871.7 4396.28) rotate(180)"/>
    <g>
      <rect class="cls-3" x="2712.18" y="2114.77" width="25.55" height="169.39" transform="translate(5449.91 4398.93) rotate(180)"/>
      <rect class="cls-3" x="2659.62" y="2114.77" width="25.55" height="169.39" transform="translate(5344.78 4398.93) rotate(180)"/>
      <rect class="cls-3" x="2607.05" y="2114.77" width="25.55" height="169.39" transform="translate(5239.65 4398.93) rotate(180)"/>
      <rect class="cls-3" x="2554.49" y="2114.77" width="25.55" height="169.39" transform="translate(5134.53 4398.93) rotate(180)"/>
      <rect class="cls-3" x="2501.92" y="2114.77" width="25.55" height="169.39" transform="translate(5029.4 4398.93) rotate(180)"/>
      <rect class="cls-3" x="2449.36" y="2114.77" width="25.55" height="169.39" transform="translate(4924.27 4398.93) rotate(180)"/>
      <rect class="cls-3" x="2396.79" y="2114.77" width="25.55" height="169.39" transform="translate(4819.14 4398.93) rotate(180)"/>
      <rect class="cls-3" x="2344.23" y="2114.77" width="25.55" height="169.39" transform="translate(4714.01 4398.93) rotate(180)"/>
      <rect class="cls-3" x="2291.66" y="2114.77" width="25.55" height="169.39" transform="translate(4608.88 4398.93) rotate(180)"/>
      <rect class="cls-3" x="2239.1" y="2114.77" width="25.55" height="169.39" transform="translate(4503.75 4398.93) rotate(180)"/>
      <rect class="cls-3" x="2186.53" y="2114.77" width="25.55" height="169.39" transform="translate(4398.62 4398.93) rotate(180)"/>
      <rect class="cls-3" x="2133.97" y="2114.77" width="25.55" height="169.39" transform="translate(4293.49 4398.93) rotate(180)"/>
    </g>
    <rect class="cls-7" x="2212.09" y="2536.48" width="460.31" height="806.3" rx="30.88" ry="30.88" transform="translate(4884.48 5879.26) rotate(180)"/>
  </g>
  <g>
    <path class="cls-8" d="M1629.19,3117.96l382.65,44.31c-79.39,147.99-113.68,312.11-110.79,479.39l-328.1-37.99c-133.57-15.47-230.2-137.41-214.73-270.98h0c15.47-133.57,137.41-230.2,270.98-214.73Z"/>
    <path class="cls-27" d="M2011.83,3162.28l319.42,36.99c133.57,15.47,230.2,137.41,214.73,270.98h0c-15.47,133.57-137.41,230.2-270.98,214.73l-373.96-43.31c-2.89-167.28,31.4-331.4,110.79-479.39Z"/>
  </g>
</svg>