<svg width="400" height="400" viewBox="0 0 400 400" fill="none" xmlns="http://www.w3.org/2000/svg">
<g clip-path="url(#clip0_651_50)">
<path opacity="0.5" d="M381.031 298.13H56.3108C46.0408 298.13 37.6408 301.91 37.6408 306.52C37.6408 309.72 41.6708 312.51 47.5608 313.92H18.9708C8.70078 313.92 0.300781 317.7 0.300781 322.31C0.300781 326.92 8.70078 330.7 18.9708 330.7H28.9308C26.1508 332.17 24.4608 334.06 24.4608 336.13V339.49C24.4608 344.1 32.8608 347.88 43.1308 347.88H363.011C373.281 347.88 381.681 344.1 381.681 339.49V336.13C381.681 331.52 373.281 327.74 363.011 327.74L341.261 327.93C342.921 327.93 345.611 327.34 347.411 326.16C350.571 324.09 350.711 320.94 349.171 318.33C348.171 316.64 346.561 315.3 342.581 314.79L381.031 314.9C391.301 314.9 399.701 311.12 399.701 306.51C399.701 301.9 391.301 298.12 381.031 298.12V298.13Z" fill="#B4C5E6"/>
<path d="M87.6605 168.19C106.77 168.19 122.261 152.699 122.261 133.59C122.261 114.481 106.77 98.9902 87.6605 98.9902C68.5515 98.9902 53.0605 114.481 53.0605 133.59C53.0605 152.699 68.5515 168.19 87.6605 168.19Z" fill="#353A85"/>
<path d="M87.6599 163.59C104.223 163.59 117.65 150.163 117.65 133.6C117.65 117.037 104.223 103.61 87.6599 103.61C71.0969 103.61 57.6699 117.037 57.6699 133.6C57.6699 150.163 71.0969 163.59 87.6599 163.59Z" fill="#F7F7F7"/>
<g style="mix-blend-mode:multiply" opacity="0.07">
<path d="M108.241 111.98C112.671 117.21 115.341 123.97 115.341 131.36C115.341 147.92 101.911 161.35 85.3515 161.35C77.3815 161.35 70.1415 158.24 64.7715 153.17C70.2715 159.66 78.4815 163.78 87.6615 163.78C104.221 163.78 117.651 150.35 117.651 133.79C117.651 125.2 114.031 117.45 108.241 111.98Z" fill="#394860"/>
</g>
<path d="M85.5119 134.147L85.5115 134.157C85.4846 134.798 85.9818 135.338 86.6219 135.365L114.158 136.519C114.798 136.546 115.338 136.049 115.365 135.409L115.366 135.399C115.393 134.759 114.895 134.218 114.255 134.191L86.7194 133.037C86.0794 133.01 85.5387 133.507 85.5119 134.147Z" fill="#D67086"/>
<path d="M88.8113 131.601V116.871C88.8113 116.231 88.2913 115.721 87.6613 115.721C87.0213 115.721 86.5113 116.241 86.5113 116.871V131.601C85.8213 132.001 85.3613 132.741 85.3613 133.601C85.3613 134.871 86.3913 135.911 87.6713 135.911C88.9513 135.911 89.9813 134.881 89.9813 133.601C89.9813 132.751 89.5213 132.001 88.8313 131.601H88.8113Z" fill="#292949"/>
<path d="M115.422 164.31C118.792 165.23 121.442 168.35 121.812 171.82C123.652 170.1 124.592 167.47 124.252 164.98C123.912 162.49 122.302 160.2 120.072 159.04C117.982 160.15 116.362 162.11 115.672 164.37L115.422 164.31Z" fill="#8C6654"/>
<path d="M354.142 127.221L342.872 129.801C342.412 129.271 341.702 129.001 341.002 129.161L311.252 135.961C310.542 136.121 310.022 136.671 309.842 137.351L298.572 139.931L301.322 151.971L312.472 149.421C312.912 150.121 313.722 150.501 314.532 150.311L344.282 143.511C345.092 143.321 345.652 142.631 345.752 141.811L356.902 139.261L354.152 127.221H354.142Z" fill="#353A85"/>
<g opacity="0.12">
<path d="M302.342 139.401L305.022 151.121L309.292 150.151L303.562 139.081L302.342 139.401Z" fill="black"/>
</g>
<path d="M299.935 129.812C299.229 126.722 296.151 124.789 293.06 125.496C289.97 126.203 288.038 129.281 288.744 132.371L295.824 163.332C296.531 166.422 299.609 168.355 302.699 167.648C305.789 166.941 307.722 163.863 307.015 160.773L299.935 129.812Z" fill="#353A85"/>
<path d="M288.828 132.345C288.121 129.255 285.043 127.322 281.953 128.029C278.863 128.736 276.93 131.814 277.637 134.904L284.717 165.865C285.423 168.955 288.501 170.888 291.592 170.181C294.682 169.474 296.614 166.396 295.908 163.306L288.828 132.345Z" fill="#353A85"/>
<path d="M282.051 156.64L280.811 156.54C279.911 156.46 279.081 155.56 278.801 154.35L277.311 147.85C277.041 146.65 277.391 145.47 278.171 145.01L279.241 144.38C280.311 143.75 281.691 144.72 282.061 146.38L283.711 153.61C284.091 155.26 283.271 156.74 282.031 156.64H282.051Z" fill="#353A85"/>
<path d="M352.638 111.854L349.948 112.47C347.6 113.006 346.132 115.344 346.669 117.692L354.364 151.343C354.901 153.691 357.239 155.158 359.586 154.622L362.277 154.006C364.624 153.47 366.092 151.132 365.555 148.784L357.86 115.133C357.324 112.785 354.985 111.318 352.638 111.854Z" fill="#353A85"/>
<path d="M363.746 109.321L361.055 109.936C358.708 110.473 357.24 112.811 357.777 115.159L365.471 148.81C366.008 151.157 368.346 152.625 370.694 152.088L373.384 151.473C375.732 150.936 377.199 148.598 376.663 146.251L368.968 112.6C368.431 110.252 366.093 108.784 363.746 109.321Z" fill="#353A85"/>
<path d="M374.742 135.441L375.812 134.811C376.592 134.351 376.942 133.171 376.672 131.971L375.182 125.471C374.902 124.271 374.072 123.361 373.172 123.281L371.932 123.181C370.692 123.081 369.882 124.551 370.252 126.211L371.902 133.441C372.282 135.091 373.662 136.071 374.722 135.441H374.742Z" fill="#353A85"/>
<path d="M76.0421 168.661L77.5921 163.121L75.2521 162.351L73.3521 165.911L72.4121 165.031L71.6621 169.941L73.9821 171.061L76.0421 168.661Z" fill="#C1796B"/>
<path d="M36.0215 193.39L58.3415 190.52L71.3515 168.19L75.8515 170.66L66.3315 200.43L39.8115 210.08L36.0215 193.39Z" fill="#61C5BE"/>
<path d="M41.7227 249.701V257.351L51.9227 290.501L50.1427 326.461L54.6027 327.291L65.9527 284.131L65.5627 271.751L60.8527 246.501L41.7227 249.701Z" fill="#BABCBE"/>
<path d="M49.8118 258.761L39.3018 330.661L35.0718 331.081L31.9618 290.641L25.5918 252.391L49.8118 258.761Z" fill="#BABCBE"/>
<path d="M54.6913 327.081L59.5613 332.231L58.1513 334.841L48.1113 330.021L49.9613 326.201L54.6913 327.081Z" fill="#292949"/>
<path d="M39.4818 330.521L45.4818 334.291L44.7718 337.171L33.8418 335.011L34.6818 330.851L39.4818 330.521Z" fill="#292949"/>
<path d="M55.7805 173.04C51.6505 173.34 47.7905 169.95 43.7205 170.79C41.0805 171.34 38.9905 173.68 38.1805 176.33C37.8005 177.56 37.6705 178.9 38.0405 180.13C38.2805 180.92 38.7205 181.64 39.2405 182.28C39.9305 183.13 40.7805 183.84 41.7205 184.38C41.2005 185.21 40.6105 186 39.9505 186.73C41.8605 187.46 43.7605 188.19 45.6705 188.92C46.0905 187.83 46.5105 186.73 46.9305 185.64C47.5005 185.61 48.0705 185.53 48.6305 185.38C52.0105 184.5 54.8205 181.54 55.5705 178.05C55.9205 176.41 55.8605 174.72 55.7705 173.05H55.7805V173.04Z" fill="#C1796B"/>
<path d="M54.7311 174.291L41.9611 172.771L39.4811 182.531L35.8711 179.661L37.7311 163.701L55.7611 163.311L63.5711 167.891L63.2411 172.481L56.2611 177.181L54.7311 174.291Z" fill="#292949"/>
<path d="M49.7712 190.42L34.6012 184.4C34.6012 184.4 27.5112 199.38 21.3812 220.84C15.2512 242.3 23.3612 272.09 23.3612 272.09C23.3612 272.09 65.6712 263.45 72.6212 262.09L58.9312 219.18L49.7812 190.42H49.7712Z" fill="#61C5BE"/>
<path d="M344.501 187.88C346.361 187.8 348.221 187.72 350.081 187.64C350.181 186.16 350.161 184.67 350.031 183.19C350.051 183.37 353.021 181.8 353.281 181.45C354.041 180.43 354.131 178.71 354.441 177.49C355.111 174.89 355.741 171.97 354.371 169.67C352.951 167.28 349.881 166.47 347.101 166.4C343.621 166.31 339.721 167.32 337.931 170.32C336.311 173.02 338.351 177 338.941 179.86C339.231 181.27 339.671 182.88 340.971 183.47C341.661 183.79 342.511 183.75 343.131 184.2C344.221 184.98 343.981 186.66 344.501 187.9V187.88Z" fill="#EFBFA5"/>
<path d="M332.44 165.14C332.23 163.21 332.03 161.29 331.82 159.36C331.74 158.64 331.67 157.9 331.9 157.22C332.28 156.09 333.44 155.38 334.59 155.07C335.75 154.76 336.96 154.75 338.13 154.49C339.38 154.22 340.59 153.66 341.87 153.72C344.3 153.83 346.15 156.08 348.55 156.46C351.87 156.99 354.92 155.47 356.93 159.38C357.3 160.1 357.4 160.92 357.73 161.66C358.15 162.61 358.91 163.37 359.51 164.22C362.14 167.98 361.29 173.68 358.1 176.86C356.56 178.4 355.93 179.8 353.8 180.3C354.77 178.32 353.49 170.44 350.82 169.55C350.11 169.32 347.99 170.18 347.21 170.29C345.48 170.54 343.79 170.82 342.16 171.5C339.74 172.5 337.12 173.21 334.5 173.41C334.17 173.43 333.79 173.45 333.54 173.23C333.3 173.02 333.25 172.68 333.22 172.36C332.96 169.95 332.7 167.55 332.44 165.14Z" fill="#292949"/>
<path d="M374.041 329.991L374.791 333.131L369.261 337.771L365.371 335.381L367.761 331.491L373.291 326.851L374.041 329.991Z" fill="#292949"/>
<path d="M361.341 232.851L363.611 242.381L360.731 286.741L374.131 328.901L368.201 331.631L341.361 282.951L338.171 267.411L336.551 234.531L361.341 232.851Z" fill="#BABCBE"/>
<path d="M324.161 236.631L323.691 277.831L331.451 330.961H337.421L341.191 281.941L349.361 232.921L324.161 236.631Z" fill="#BABCBE"/>
<path d="M337.391 330.251V333.481L330.931 336.701L327.701 333.481L330.931 330.251H337.391Z" fill="#292949"/>
<path d="M368.441 244.511C368.521 248.271 368.401 253.341 366.961 253.521C366.691 253.551 366.431 253.421 366.191 253.291C363.691 251.931 361.931 250.011 359.461 248.691C356.881 247.311 353.931 246.581 351.031 246.061C346.701 245.271 342.281 244.781 337.871 244.701C334.401 244.641 330.921 244.931 327.471 245.221C324.601 245.461 321.931 246.311 319.001 246.111C316.001 245.901 313.051 244.981 310.481 243.411C310.391 243.351 310.291 243.291 310.251 243.181C310.211 243.071 310.251 242.941 310.291 242.831C310.901 241.151 311.341 239.491 312.461 238.101C313.701 236.551 314.581 234.581 315.481 232.811C317.351 229.131 319.111 225.271 320.421 221.341C322.401 216.011 324.651 210.811 326.561 205.461C327.881 201.751 329.091 197.981 330.891 194.461C332.301 191.711 334.801 187.691 337.821 186.471C338.841 186.061 339.971 186.021 341.071 185.991C344.411 185.891 347.751 185.801 351.091 185.701C352.311 185.671 353.571 185.641 354.681 186.141C356.341 186.891 357.281 188.641 358.111 190.271C361.801 197.581 364.151 205.461 365.461 213.581C366.151 217.821 366.781 222.071 367.281 226.341C367.831 231.101 368.211 235.891 368.291 240.681C368.291 241.211 368.381 242.701 368.421 244.491L368.441 244.511Z" fill="#5FC0CA"/>
<path d="M346.16 204.201C346.03 206.091 346.3 207.991 346.57 209.871C348.21 221.311 349.85 232.751 351.49 244.191C342.52 244.111 333.55 244.031 324.58 243.961C324.9 239.671 325.23 235.391 325.55 231.101C325.76 228.351 325.97 225.591 326.55 222.901C327.49 218.551 329.36 214.461 331.23 210.401C334.67 202.911 338.12 195.411 341.56 187.921C341.74 187.521 341.94 187.111 342.28 186.821C342.69 186.471 343.24 186.361 343.77 186.271C346.33 185.821 349.23 185.451 351.81 185.831C352.45 188.181 350.08 192.251 349.2 194.431C347.92 197.601 346.39 200.761 346.16 204.211V204.201Z" fill="white"/>
<path d="M329.42 199.671L316.8 180.881L313.57 151.231L318.85 150.051L325.9 177.071L338.23 187.931L329.42 199.671Z" fill="#5FC0CA"/>
<path d="M318.85 150.051V148.131L319.74 146.241L319.44 144.771H317.97L317.39 148.001L312.99 149.04L313.57 151.23L318.85 150.051Z" fill="#EFBFA5"/>
<path d="M335.972 222.25L333.252 223.34L330.892 222.28L330.412 222.66L330.862 223.27L328.652 222.95L327.102 223.9L326.932 226.3L328.312 228.37L330.722 228.29L333.152 226.78L336.942 225.45L335.972 222.25Z" fill="#EFBFA5"/>
<path d="M332.832 221.53L348.512 214.94L350.272 196.15L361.142 200.85L358.632 221.77L334.892 226.86L332.832 221.53Z" fill="#5FC0CA"/>
<path d="M179.143 254.241L181.223 282.661L188.103 329.711H193.383L196.723 286.301L198.203 251.171L179.143 254.241Z" fill="#BABCBE"/>
<path d="M193.353 329.081V331.941L187.643 334.791L184.783 331.941L187.643 329.081H193.353Z" fill="#292949"/>
<path d="M216.592 247.541L214.592 287.381L209.982 333.111H204.572L200.172 289.781L193.742 244.181L216.592 247.541Z" fill="#BABCBE"/>
<path d="M204.602 332.461V335.391L210.462 338.321L213.382 335.391L210.462 332.461H204.602Z" fill="#292949"/>
<path d="M198.143 183.681C199.993 183.501 201.833 183.321 203.683 183.141C203.703 181.661 203.603 180.181 203.393 178.711C204.933 178.171 206.713 177.361 206.983 175.751C207.073 175.241 206.983 174.721 206.893 174.221C206.533 172.131 206.173 170.031 205.813 167.941C205.693 167.221 205.553 166.471 205.163 165.851C204.473 164.761 203.133 164.281 201.863 164.061C198.623 163.491 195.083 164.191 192.573 166.311C191.903 166.871 191.293 167.551 191.003 168.381C190.543 169.651 190.883 171.051 191.223 172.361C191.533 173.571 191.853 174.771 192.163 175.981C192.523 177.371 193.053 178.941 194.383 179.471C195.093 179.751 195.933 179.671 196.573 180.081C197.703 180.801 197.553 182.491 198.133 183.691L198.143 183.681Z" fill="#EFBFA5"/>
<path d="M180.092 162.751C180.052 161.311 180.262 159.861 180.542 158.551C181.032 156.301 183.692 155.291 185.982 155.131C190.942 154.791 195.733 152.541 200.583 154.271C203.353 155.261 207.073 155.501 209.583 156.901C210.633 157.481 211.463 158.401 212.113 159.401C214.363 162.891 214.373 167.701 212.113 171.191C211.613 171.971 211.002 172.691 210.372 173.371C209.062 174.791 207.493 176.541 205.693 177.061C205.653 175.451 207.123 170.381 205.893 169.061C203.933 166.961 199.503 167.691 197.062 168.201C194.412 168.761 192.043 170.631 189.413 171.031C187.523 171.321 185.103 170.381 183.493 169.401C180.973 167.861 180.133 165.321 180.062 162.731L180.083 162.751H180.092Z" fill="#292949"/>
<path d="M230.193 157.061L231.262 153.731L229.812 151.001L230.232 150.401L230.993 150.891L230.432 148.281L231.432 146.351L234.292 145.951L236.872 147.441L236.973 150.311L235.363 153.331L234.092 157.971L230.193 157.061Z" fill="#EFBFA5"/>
<path d="M230.043 154.602L235.333 154.892L230.043 181.032L214.963 196.582L206.223 183.522L222.113 173.102L230.043 154.602Z" fill="#284981"/>
<path d="M173.822 147.341L173.642 143.841L175.752 141.581L175.502 140.891L174.642 141.161L175.852 138.781L175.372 136.671L172.722 135.551L169.842 136.321L169.012 139.071L169.792 142.411L169.832 147.211L173.822 147.341Z" fill="#EFBFA5"/>
<path d="M174.602 145.001L169.422 143.921L169.012 163.871L171.042 179.281L184.302 198.731L195.152 183.031L182.552 173.771L174.602 145.001Z" fill="#284981"/>
<path d="M193.751 182.251L211.261 182.991L220.101 216.641L227.401 263.271L171.041 264.641L184.301 198.731L193.751 182.251Z" fill="#284981"/>
<path d="M149.172 191.66L151.302 189.65L151.342 187.06L151.892 186.79L152.252 187.46L152.892 185.32L154.402 184.32L156.662 185.17L157.952 187.3L156.862 189.45L154.462 191.01L151.662 193.89L149.172 191.66Z" fill="#EFBFA5"/>
<path d="M149.841 188.501L137.901 202.661L122.301 187.551L119.871 205.611L138.861 215.031L153.801 192.631L149.841 188.501Z" fill="#D67086"/>
<path d="M102.662 330.29L102.402 332.84L107.042 336.03L109.752 333.79L107.562 330.92L102.922 327.74L102.662 330.29Z" fill="#3B3387"/>
<path d="M102.772 252.22L101.992 259.97L108.952 286.62L102.492 329.43L107.242 331.07L119.782 289.27L121.772 277.11L121.702 251.37L102.772 252.22Z" fill="#EFBFA5"/>
<path d="M139.351 260.86L129.351 332.6H124.801L123.981 286.62L115.711 254.34L139.351 260.86Z" fill="#EFBFA5"/>
<path d="M124.83 332.04V334.61L129.74 337.19L132.2 334.61L129.74 332.04H124.83Z" fill="#3B3387"/>
<path d="M128.181 187.21C127.821 186.62 127.341 186.12 126.681 185.75C122.161 183.2 114.681 185.45 109.781 185.45C108.331 200.7 104.331 215.23 101.741 230.21C98.9909 246.11 95.9009 261.95 92.4609 277.72C92.2709 278.61 106.101 278.16 107.401 278.18C120.711 278.4 138.131 278.36 150.971 274.33C142.771 252.33 139.781 228.65 133.331 206.08C132.201 202.12 130.851 198.21 129.831 194.22C129.241 191.9 129.331 189.11 128.171 187.22H128.181V187.21Z" fill="#5A7EBF"/>
<path d="M128.992 169.22C127.252 160.03 115.772 161.62 112.472 169.06C110.602 173.29 112.562 179.28 116.312 182.23C116.392 183.04 116.502 185.29 117.122 185.83C117.792 186.42 119.922 185.86 120.752 185.67C120.982 185.62 121.222 185.55 121.392 185.38C121.602 185.17 121.632 184.61 121.642 183.99C122.252 183.95 122.882 183.83 123.512 183.62C126.182 182.74 128.122 180.27 128.912 177.58C129.712 174.89 129.512 171.99 128.992 169.23V169.22Z" fill="#EFBFA5"/>
<path d="M112.011 205.71C112.121 205.71 112.211 205.71 112.271 205.68C114.301 205.33 117.551 204.68 118.491 202.54C119.451 200.35 117.741 196.39 117.461 194.11C117.031 190.66 116.891 187.17 116.721 183.7C116.571 180.57 117.691 177.48 119.331 174.81C120.971 172.14 123.111 169.81 125.221 167.5C126.101 166.54 127.011 165.5 127.271 164.23C127.571 162.82 127.001 161.33 126.071 160.23C124.641 158.53 122.941 157.69 120.771 157.64C113.181 157.46 107.471 161.95 105.311 169.37C102.221 180 106.081 190.14 105.501 200.72C105.401 202.53 104.801 204.3 103.791 205.8C104.061 205.4 110.351 205.8 111.991 205.72H112.011V205.71Z" fill="#292949"/>
<path d="M96.6713 246.18C96.0613 246.94 94.9713 247.18 94.0113 246.99C93.0513 246.8 92.2113 246.24 91.4413 245.64C90.5113 244.92 89.6513 244.11 88.8713 243.23C88.4213 242.73 87.9913 242.18 87.7813 241.54C87.5713 240.9 87.6213 240.13 88.0713 239.62C88.3713 239.27 88.8213 239.08 89.2513 238.9C89.5513 238.77 89.8813 238.64 90.2013 238.71C90.4713 238.76 90.7013 238.94 90.9113 239.11C92.3813 240.3 98.6013 243.76 96.6813 246.18H96.6713Z" fill="#D67086"/>
<path d="M93.682 246.18C93.802 246.21 93.932 246.24 94.052 246.26C94.452 246.31 95.052 246.3 95.412 246.12C95.412 246.12 96.492 245.37 96.012 245.38L95.032 245.4L97.022 243.31L97.182 240.97L94.772 238.99L91.552 238.91C90.592 240.37 89.212 241.73 90.352 243.52C90.692 244.05 91.172 244.47 91.642 244.89C92.252 245.42 92.902 245.98 93.672 246.19H93.682V246.18Z" fill="#EFBFA5"/>
<path d="M253.741 186.8C253.651 186.83 253.561 186.87 253.471 186.9C249.191 188.57 245.831 196.04 243.901 200.43C238.931 211.76 236.761 223.57 236.361 236.1C236.151 242.84 236.231 249.6 236.441 256.35C236.501 258.21 238.121 274.9 237.291 275.3C245.771 271.21 254.391 267.35 263.411 265.02C272.431 262.69 281.931 261.92 291.041 264.05C288.271 242.86 284.251 221.31 278.451 200.84C277.761 198.39 277.291 195.78 276.271 193.46C275.091 190.79 273.311 190 271.071 188.42C270.301 187.88 269.531 187.33 268.681 186.96C264.231 184.97 258.241 185.15 253.731 186.82V186.8H253.741Z" fill="#1E2651"/>
<path d="M240.701 253.481L250.411 292.921L250.641 323.241L255.271 324.101L257.191 295.971L261.821 246.471L240.701 253.481Z" fill="#C1796B"/>
<path d="M255.412 323.821L256.172 326.771L255.502 332.551L251.682 332.561L250.252 324.201L250.692 322.801L255.412 323.821Z" fill="#3B3387"/>
<path d="M277.791 249.131L278.651 283.201L274.101 331.331L269.451 331.671L267.771 287.551L258.291 247.551L277.791 249.131Z" fill="#C1796B"/>
<path d="M273.96 330.531L280.23 333.861L279.73 336.791L268.65 335.431L269.18 331.211L273.96 330.531Z" fill="#3B3387"/>
<path d="M279.161 253.521L282.321 292.891L279.101 319.891L266.491 319.181L264.241 288.481L258.791 255.021L259.631 249.811L277.811 250.071L279.161 253.521Z" fill="#345F9D"/>
<path d="M260.03 290.031L258.55 318.271L247.59 317.701L247.81 290.921L240.9 257.291L242.47 247.891L260.92 249.041L260.03 290.031Z" fill="#345F9D"/>
<path d="M285.642 254.23C274.352 255.95 255.572 257.27 244.292 258.99C243.682 238.58 245.692 215.02 250.612 195.27C251.502 191.69 252.822 187.82 255.952 186C259.302 184.05 266.422 184.31 268.462 188.11C271.452 193.67 272.042 202.51 273.382 208.69C276.402 222.68 283.762 240.04 285.642 254.23Z" fill="white"/>
<path d="M253.971 171.53C255.651 163.21 266.061 164.77 268.971 171.56C270.891 176.03 268.111 182.59 263.601 184.5C263.881 185.64 264.101 186.79 264.281 187.94C263.001 188.01 261.731 188.08 260.451 188.15C260.061 188.17 259.591 188.15 259.361 187.85C259.221 187.66 259.201 187.4 259.191 187.16C259.161 186.35 259.121 185.55 259.091 184.74C258.991 184.71 258.901 184.68 258.801 184.65C256.381 183.82 254.661 181.56 253.961 179.1C253.261 176.64 253.471 174.02 253.981 171.52L253.971 171.53Z" fill="#C1796B"/>
<path d="M255.011 173.81C253.691 176.32 254.511 179.35 255.231 181.95C255.871 184.26 255.991 185.72 253.371 185.89C251.891 185.98 249.271 186.18 248.201 184.88C247.391 183.9 248.341 181.44 248.961 180.5C249.441 179.78 250.431 179.54 250.891 178.82C251.081 178.52 251.161 178.16 251.221 177.82C251.471 176.39 251.511 174.93 251.331 173.49C251.211 172.51 250.981 171.54 251.061 170.56C251.171 169.14 252.431 167.67 253.161 166.46C254.521 164.22 258.421 161.56 260.941 163.9C261.511 164.43 261.771 165.22 261.971 165.98C262.091 166.43 262.191 166.9 262.121 167.36C261.841 169.2 260.111 169.24 258.801 169.93C257.191 170.78 255.841 172.21 255.001 173.81H255.011Z" fill="#292949"/>
<path d="M268.311 176.43C268.201 177.75 267.281 179.09 267.821 180.3C268.061 180.84 268.551 181.22 268.941 181.66C270.011 182.86 270.381 184.66 269.861 186.18C272.491 186.51 275.111 186.83 277.741 187.16C278.141 187.21 278.551 187.26 278.921 187.11C279.711 186.79 279.921 185.79 280.011 184.94C280.191 183.27 280.341 181.48 279.531 180.01C279.151 179.33 278.581 178.77 278.211 178.09C276.401 174.81 279.471 170.08 277.081 167.2C276.011 165.91 274.221 165.54 272.801 164.66C270.321 163.12 269.031 160.08 266.451 158.71C261.591 156.12 255.581 161.58 257.881 166.66C259.751 170.8 268.751 171.12 268.311 176.44V176.43Z" fill="#292949"/>
<path d="M254.062 187.41C254.062 187.41 250.472 238.08 258.342 248.07C266.212 258.06 269.572 261.83 269.572 261.83L237.332 275.29C237.332 275.29 238.032 201.4 254.062 187.41Z" fill="#1E2651"/>
<path d="M287.561 218.43C288.321 219.04 288.561 220.14 288.361 221.09C288.171 222.05 287.611 222.89 287.011 223.65C286.281 224.58 285.471 225.44 284.591 226.22C284.081 226.67 283.541 227.1 282.901 227.31C282.261 227.52 281.491 227.46 280.981 227.02C280.631 226.71 280.441 226.27 280.261 225.84C280.131 225.54 280.011 225.21 280.071 224.89C280.121 224.62 280.301 224.39 280.471 224.18C281.661 222.71 285.141 216.5 287.551 218.43H287.561Z" fill="#898F92"/>
<path d="M287.561 221.42C287.591 221.3 287.621 221.17 287.641 221.05C287.691 220.65 287.681 220.05 287.501 219.68C287.501 219.68 286.751 218.6 286.761 219.07L286.781 220.05L284.691 218.06L282.351 217.9L280.371 220.3L280.281 223.52C281.741 224.49 283.101 225.87 284.891 224.73C285.421 224.39 285.851 223.91 286.261 223.44C286.801 222.83 287.351 222.18 287.571 221.41L287.561 221.42Z" fill="#DDC8AC"/>
<path d="M324.762 208.761C323.732 210.371 321.932 211.431 319.882 211.431C318.612 211.431 317.442 211.021 316.492 210.331C315.802 211.321 314.662 211.971 313.362 211.971C312.062 211.971 310.842 211.271 310.162 210.221C309.512 210.531 308.782 210.701 308.022 210.701C305.272 210.701 303.042 208.471 303.042 205.721C303.042 204.751 303.322 203.851 303.792 203.091C301.652 202.961 299.962 201.191 299.962 199.031V198.801C297.502 199.701 295.352 201.001 293.582 202.321C290.462 204.661 286.502 205.721 282.612 205.341C277.212 204.811 269.852 205.601 264.372 211.891C257.012 220.331 258.242 231.271 262.782 240.261C266.142 246.911 270.862 253.441 277.002 258.141C282.942 262.691 292.872 266.481 300.232 261.681C302.472 260.221 305.142 259.441 307.812 259.611C320.602 260.421 325.682 245.801 327.402 236.471C329.072 227.421 329.202 217.001 324.742 208.761H324.762Z" fill="#BB6175"/>
<path d="M291.621 203.051C293.581 201.441 295.111 198.861 296.121 196.151C297.141 193.441 297.691 190.581 298.141 187.761C298.451 185.801 298.721 183.831 298.671 181.931C296.681 182.721 294.701 183.661 292.751 184.751C290.551 185.981 288.331 187.421 286.451 189.571C284.571 191.721 283.041 194.671 282.741 197.661C282.111 203.961 287.591 206.371 291.621 203.061V203.051Z" fill="#292949"/>
<path d="M231.421 52.1304C220.351 52.3904 207.161 59.7104 204.851 69.4204C200.571 60.4004 183.121 56.4004 172.241 58.4504C143.521 63.8604 137.121 97.1904 151.691 117.62C159.531 128.61 170.111 137.84 181.441 145.92C190.931 152.69 215.031 166.63 215.091 166.57C215.161 166.62 235.831 147.96 243.701 139.36C253.101 129.09 261.521 117.87 266.891 105.48C276.881 82.4804 260.631 51.4404 231.421 52.1304Z" fill="#BC7A80"/>
<g style="mix-blend-mode:multiply" opacity="0.12">
<path d="M261.542 108.831C255.242 118.311 247.742 127.381 239.412 135.361C231.352 143.081 221.692 150.091 210.582 153.261C205.242 154.781 199.912 155.211 194.752 154.581C204.742 160.741 215.552 166.971 215.592 166.931C215.662 166.981 236.332 148.321 244.202 139.721C253.602 129.451 262.022 118.231 267.392 105.841C269.132 101.831 270.072 97.5808 270.292 93.3008C267.822 98.6808 264.842 103.861 261.542 108.831Z" fill="black"/>
</g>
<path d="M260.09 99.7004C252.53 100.69 244.96 101.68 237.4 102.67C233.61 93.0004 229.81 83.3304 226.02 73.6704C225.47 72.2704 223.34 72.6104 223.03 73.9804C218.98 91.9304 214.94 109.88 210.89 127.83C210.66 128.87 210.42 129.91 210.19 130.95C204.99 119.96 199.8 108.97 194.61 97.9804C193.78 96.2204 192.94 94.4604 192.11 92.6904C191.61 91.6304 189.74 91.3804 189.24 92.6404C186.92 98.4904 184.6 104.34 182.29 110.19C173.8 111.08 165.31 111.98 156.83 112.87C154.84 113.08 155.14 116 157.14 115.79C165.95 114.86 174.75 113.93 183.56 113.01C184.08 112.96 184.63 112.62 184.82 112.15C186.81 107.14 188.79 102.13 190.78 97.1104C196.11 108.38 201.44 119.66 206.77 130.93C207.6 132.69 208.44 134.45 209.27 136.22C209.9 137.54 211.93 137.35 212.26 135.91C216.31 117.96 220.35 100.01 224.4 82.0604C224.59 81.2004 224.79 80.3404 224.98 79.4804C228.3 87.9304 231.61 96.3804 234.93 104.83C235.16 105.42 235.87 105.83 236.54 105.74C244.5 104.7 252.46 103.65 260.42 102.61C262.4 102.35 262.1 99.4304 260.11 99.6904H260.09V99.7004Z" fill="white"/>
<path d="M101.742 242.991L69.3819 246.671C57.4119 248.031 46.5419 238.871 45.1019 226.221C43.6619 213.571 52.1919 202.211 64.1519 200.851L96.4319 197.181L101.742 242.991Z" fill="#F7F7F7"/>
<path d="M102.882 242.861L165.762 235.711C175.382 234.621 182.292 225.931 181.202 216.311L179.952 205.321C178.852 195.701 170.172 188.801 160.562 189.891L97.6719 197.041L102.902 242.861H102.882Z" fill="#378EA6"/>
<path d="M112.481 210.621L114.191 210.431L115.901 225.451L114.191 225.641L113.421 218.851L106.841 219.601L107.611 226.391L105.901 226.581L104.191 211.561L105.901 211.371L106.671 218.161L113.251 217.411L112.481 210.621Z" fill="white"/>
<path d="M118.311 209.961L125.861 209.101L126.021 210.541L120.181 211.201L120.781 216.421L126.211 215.801L126.371 217.241L120.941 217.861L121.561 223.331L127.791 222.621L127.951 224.061L120.011 224.961L118.301 209.941V209.961H118.311Z" fill="white"/>
<path d="M132.111 208.391L134.391 208.131L140.751 222.621L139.061 222.811L137.161 218.441L131.751 219.051L130.881 223.731L129.191 223.921L132.111 208.381V208.391ZM133.441 209.871L132.011 217.581L136.541 217.061L133.431 209.871H133.441Z" fill="white"/>
<path d="M143.142 222.351L141.432 207.331L143.142 207.141L144.692 220.721L149.982 220.121L150.142 221.561L143.142 222.361V222.351Z" fill="white"/>
<path d="M147.971 208.051L147.811 206.611L157.151 205.551L157.311 206.991L153.501 207.421L155.051 221.001L153.341 221.191L151.791 207.611L147.981 208.041L147.971 208.051Z" fill="white"/>
<path d="M167.632 204.361L169.342 204.171L171.052 219.191L169.342 219.381L168.572 212.591L161.992 213.341L162.762 220.131L161.052 220.321L159.342 205.301L161.052 205.111L161.822 211.901L168.402 211.151L167.632 204.361Z" fill="white"/>
<path d="M86.8115 217.69C84.0715 218 81.3315 218.31 78.5915 218.62C78.3315 218.65 78.0815 218.68 77.8215 218.71C77.5815 216.6 77.3415 214.49 77.1015 212.38C76.9815 211.32 76.8615 210.26 76.7415 209.2C76.7015 208.85 76.3815 208.58 76.0515 208.62C74.3515 208.81 72.6415 209.01 70.9415 209.2C70.6115 209.24 70.3615 209.57 70.4015 209.92C70.7315 212.82 71.0615 215.72 71.3915 218.61C71.4215 218.88 71.4515 219.15 71.4815 219.42C69.4815 219.65 67.4915 219.87 65.4915 220.1C64.4915 220.21 63.4915 220.33 62.4915 220.44C62.1615 220.48 61.9115 220.81 61.9515 221.16C62.1615 222.96 62.3615 224.76 62.5715 226.56C62.5915 226.76 62.6815 226.9 62.8015 227C62.9115 227.11 63.0715 227.17 63.2615 227.15C66.0015 226.84 68.7415 226.53 71.4815 226.22C71.7415 226.19 71.9915 226.16 72.2515 226.13C72.4915 228.24 72.7315 230.35 72.9715 232.46C73.0915 233.52 73.2115 234.58 73.3315 235.64C73.3715 235.99 73.6915 236.26 74.0215 236.22C75.7215 236.03 77.4315 235.83 79.1315 235.64C79.3215 235.62 79.4515 235.53 79.5415 235.4C79.6415 235.28 79.7015 235.12 79.6715 234.91C79.3415 232.01 79.0115 229.11 78.6815 226.22C78.6515 225.95 78.6215 225.68 78.5915 225.41C80.5915 225.18 82.5815 224.96 84.5815 224.73C85.5815 224.62 86.5815 224.5 87.5815 224.39C87.9115 224.35 88.1615 224.02 88.1215 223.67C87.9115 221.87 87.7115 220.07 87.5015 218.27C87.4615 217.92 87.1415 217.65 86.8115 217.69Z" fill="#378EA6"/>
<path d="M257.72 226.63C257.75 226.75 257.78 226.87 257.83 226.99C257.97 227.36 258.26 227.89 258.6 228.13C258.6 228.13 259.77 228.72 259.54 228.31L259.06 227.46L261.84 228.22L263.98 227.26L264.59 224.2L263.15 221.32C261.4 221.16 259.56 220.59 258.52 222.43C258.21 222.98 258.06 223.6 257.92 224.21C257.74 225 257.56 225.84 257.73 226.62L257.72 226.63Z" fill="#C1796B"/>
<path d="M259.341 221.12L249.341 214.62L241.631 221.89L257.831 226.99L259.341 221.12Z" fill="#1E2651"/>
</g>
<defs>
<clipPath id="clip0_651_50">
<rect width="400" height="400" fill="white"/>
</clipPath>
</defs>
</svg>
