<?xml version="1.0" encoding="UTF-8"?>
<svg id="Layer_1" data-name="Layer 1" xmlns="http://www.w3.org/2000/svg" viewBox="0 0 400 400">
  <defs>
    <style>
      .cls-1 {
        fill: #efbfa5;
      }

      .cls-2 {
        fill: #bb6175;
      }

      .cls-3 {
        fill: #5a7ebf;
      }

      .cls-4, .cls-5 {
        opacity: .12;
      }

      .cls-6 {
        fill: #ddc8ac;
      }

      .cls-7 {
        fill: #fff;
      }

      .cls-8 {
        fill: #b4c5e6;
        opacity: .5;
      }

      .cls-8, .cls-9 {
        isolation: isolate;
      }

      .cls-10 {
        fill: #292949;
      }

      .cls-11 {
        fill: #394860;
      }

      .cls-12 {
        fill: #353a85;
      }

      .cls-13 {
        fill: #c1796b;
      }

      .cls-14 {
        fill: #898f92;
      }

      .cls-15 {
        fill: #babcbe;
      }

      .cls-16 {
        fill: #d67086;
      }

      .cls-17 {
        fill: #1e2651;
      }

      .cls-18 {
        fill: #3b3387;
      }

      .cls-19 {
        fill: #5fc0ca;
      }

      .cls-20 {
        fill: #345f9d;
      }

      .cls-21 {
        opacity: .07;
      }

      .cls-21, .cls-5 {
        mix-blend-mode: multiply;
      }

      .cls-22 {
        fill: #284981;
      }

      .cls-23 {
        fill: #61c5be;
      }

      .cls-24 {
        fill: #8c6654;
      }

      .cls-25 {
        fill: #f7f7f7;
      }

      .cls-26 {
        fill: #bc7a80;
      }

      .cls-27 {
        fill: #378ea6;
      }
    </style>
  </defs>
  <rect class="cls-7" width="400" height="400"/>
  <g class="cls-9">
    <g id="Layer_1-2" data-name="Layer 1">
      <path class="cls-8" d="M381.03,298.13H56.31c-10.27,0-18.67,3.78-18.67,8.39h0c0,3.2,4.03,5.99,9.92,7.4h-28.59c-10.27,0-18.67,3.78-18.67,8.39H.3c0,4.61,8.4,8.39,18.67,8.39h9.96c-2.78,1.47-4.47,3.36-4.47,5.43v3.36c0,4.61,8.4,8.39,18.67,8.39h319.88c10.27,0,18.67-3.78,18.67-8.39v-3.36c0-4.61-8.4-8.39-18.67-8.39l-21.75.19c1.66,0,4.35-.59,6.15-1.77,3.16-2.07,3.3-5.22,1.76-7.83-1-1.69-2.61-3.03-6.59-3.54l38.45.11c10.27,0,18.67-3.78,18.67-8.39h0c0-4.61-8.4-8.39-18.67-8.39h0Z"/>
      <g>
        <g>
          <circle class="cls-12" cx="87.66" cy="133.59" r="34.6"/>
          <circle class="cls-25" cx="87.66" cy="133.6" r="29.99"/>
          <g class="cls-21">
            <path class="cls-11" d="M108.24,111.98c4.43,5.23,7.1,11.99,7.1,19.38,0,16.56-13.43,29.99-29.99,29.99-7.97,0-15.21-3.11-20.58-8.18,5.5,6.49,13.71,10.61,22.89,10.61,16.56,0,29.99-13.43,29.99-29.99,0-8.59-3.62-16.34-9.41-21.81Z"/>
          </g>
          <g>
            <rect class="cls-16" x="99.28" y="119.84" width="2.33" height="29.88" rx="1.16" ry="1.16" transform="translate(-38.43 229.49) rotate(-87.6)"/>
            <path class="cls-10" d="M88.81,131.6v-14.73c0-.64-.52-1.15-1.15-1.15h0c-.64,0-1.15.52-1.15,1.15v14.73c-.69.4-1.15,1.14-1.15,2,0,1.27,1.03,2.31,2.31,2.31s2.31-1.03,2.31-2.31c0-.85-.46-1.6-1.15-2h-.02Z"/>
          </g>
        </g>
        <path class="cls-24" d="M115.42,164.31c3.37.92,6.02,4.04,6.39,7.51,1.84-1.72,2.78-4.35,2.44-6.84-.34-2.49-1.95-4.78-4.18-5.94-2.09,1.11-3.71,3.07-4.4,5.33l-.25-.06Z"/>
        <g>
          <path class="cls-12" d="M354.14,127.22l-11.27,2.58c-.46-.53-1.17-.8-1.87-.64l-29.75,6.8c-.71.16-1.23.71-1.41,1.39l-11.27,2.58,2.75,12.04,11.15-2.55c.44.7,1.25,1.08,2.06.89l29.75-6.8c.81-.19,1.37-.88,1.47-1.7l11.15-2.55-2.75-12.04h-.01Z"/>
          <g class="cls-4">
            <polygon points="302.34 139.4 305.02 151.12 309.29 150.15 303.56 139.08 302.34 139.4"/>
          </g>
          <g>
            <rect class="cls-12" x="292.14" y="124.95" width="11.48" height="43.24" rx="5.74" ry="5.74" transform="translate(-25.18 70.09) rotate(-12.88)"/>
            <rect class="cls-12" x="281.03" y="127.48" width="11.48" height="43.24" rx="5.74" ry="5.74" transform="translate(-26.02 67.68) rotate(-12.88)"/>
            <path class="cls-12" d="M282.05,156.64l-1.24-.1c-.9-.08-1.73-.98-2.01-2.19l-1.49-6.5c-.27-1.2.08-2.38.86-2.84l1.07-.63c1.07-.63,2.45.34,2.82,2l1.65,7.23c.38,1.65-.44,3.13-1.68,3.03h.02Z"/>
          </g>
          <g>
            <rect class="cls-12" x="350.37" y="111.62" width="11.48" height="43.24" rx="4.36" ry="4.36" transform="translate(-20.74 82.73) rotate(-12.88)"/>
            <rect class="cls-12" x="361.48" y="109.09" width="11.48" height="43.24" rx="4.36" ry="4.36" transform="translate(-19.9 85.14) rotate(-12.88)"/>
            <path class="cls-12" d="M374.74,135.44l1.07-.63c.78-.46,1.13-1.64.86-2.84l-1.49-6.5c-.28-1.2-1.11-2.11-2.01-2.19l-1.24-.1c-1.24-.1-2.05,1.37-1.68,3.03l1.65,7.23c.38,1.65,1.76,2.63,2.82,2h.02Z"/>
          </g>
        </g>
        <g>
          <g>
            <polygon class="cls-13" points="76.04 168.66 77.59 163.12 75.25 162.35 73.35 165.91 72.41 165.03 71.66 169.94 73.98 171.06 76.04 168.66"/>
            <polygon class="cls-23" points="36.02 193.39 58.34 190.52 71.35 168.19 75.85 170.66 66.33 200.43 39.81 210.08 36.02 193.39"/>
          </g>
          <g>
            <g>
              <polygon class="cls-15" points="41.72 249.7 41.72 257.35 51.92 290.5 50.14 326.46 54.6 327.29 65.95 284.13 65.56 271.75 60.85 246.5 41.72 249.7"/>
              <polygon class="cls-15" points="49.81 258.76 39.3 330.66 35.07 331.08 31.96 290.64 25.59 252.39 49.81 258.76"/>
              <polygon class="cls-10" points="54.69 327.08 59.56 332.23 58.15 334.84 48.11 330.02 49.96 326.2 54.69 327.08"/>
              <polygon class="cls-10" points="39.48 330.52 45.48 334.29 44.77 337.17 33.84 335.01 34.68 330.85 39.48 330.52"/>
            </g>
            <g>
              <path class="cls-13" d="M55.78,173.04c-4.13.3-7.99-3.09-12.06-2.25-2.64.55-4.73,2.89-5.54,5.54-.38,1.23-.51,2.57-.14,3.8.24.79.68,1.51,1.2,2.15.69.85,1.54,1.56,2.48,2.1-.52.83-1.11,1.62-1.77,2.35,1.91.73,3.81,1.46,5.72,2.19.42-1.09.84-2.19,1.26-3.28.57-.03,1.14-.11,1.7-.26,3.38-.88,6.19-3.84,6.94-7.33.35-1.64.29-3.33.2-5h.01Z"/>
              <polygon class="cls-10" points="54.73 174.29 41.96 172.77 39.48 182.53 35.87 179.66 37.73 163.7 55.76 163.31 63.57 167.89 63.24 172.48 56.26 177.18 54.73 174.29"/>
            </g>
            <path class="cls-23" d="M49.77,190.42l-15.17-6.02s-7.09,14.98-13.22,36.44c-6.13,21.46,1.98,51.25,1.98,51.25,0,0,42.31-8.64,49.26-10l-13.69-42.91-9.15-28.76h0Z"/>
          </g>
        </g>
        <g>
          <g>
            <path class="cls-1" d="M344.5,187.88c1.86-.08,3.72-.16,5.58-.24.1-1.48.08-2.97-.05-4.45.02.18,2.99-1.39,3.25-1.74.76-1.02.85-2.74,1.16-3.96.67-2.6,1.3-5.52-.07-7.82-1.42-2.39-4.49-3.2-7.27-3.27-3.48-.09-7.38.92-9.17,3.92-1.62,2.7.42,6.68,1.01,9.54.29,1.41.73,3.02,2.03,3.61.69.32,1.54.28,2.16.73,1.09.78.85,2.46,1.37,3.7v-.02Z"/>
            <path class="cls-10" d="M332.44,165.14c-.21-1.93-.41-3.85-.62-5.78-.08-.72-.15-1.46.08-2.14.38-1.13,1.54-1.84,2.69-2.15,1.16-.31,2.37-.32,3.54-.58,1.25-.27,2.46-.83,3.74-.77,2.43.11,4.28,2.36,6.68,2.74,3.32.53,6.37-.99,8.38,2.92.37.72.47,1.54.8,2.28.42.95,1.18,1.71,1.78,2.56,2.63,3.76,1.78,9.46-1.41,12.64-1.54,1.54-2.17,2.94-4.3,3.44.97-1.98-.31-9.86-2.98-10.75-.71-.23-2.83.63-3.61.74-1.73.25-3.42.53-5.05,1.21-2.42,1-5.04,1.71-7.66,1.91-.33.02-.71.04-.96-.18-.24-.21-.29-.55-.32-.87-.26-2.41-.52-4.81-.78-7.22Z"/>
          </g>
          <g>
            <g>
              <polygon class="cls-10" points="374.04 329.99 374.79 333.13 369.26 337.77 365.37 335.38 367.76 331.49 373.29 326.85 374.04 329.99"/>
              <polygon class="cls-15" points="361.34 232.85 363.61 242.38 360.73 286.74 374.13 328.9 368.2 331.63 341.36 282.95 338.17 267.41 336.55 234.53 361.34 232.85"/>
            </g>
            <g>
              <polygon class="cls-15" points="324.16 236.63 323.69 277.83 331.45 330.96 337.42 330.96 341.19 281.94 349.36 232.92 324.16 236.63"/>
              <polygon class="cls-10" points="337.39 330.25 337.39 333.48 330.93 336.7 327.7 333.48 330.93 330.25 337.39 330.25"/>
            </g>
            <path class="cls-19" d="M368.44,244.51c.08,3.76-.04,8.83-1.48,9.01-.27.03-.53-.1-.77-.23-2.5-1.36-4.26-3.28-6.73-4.6-2.58-1.38-5.53-2.11-8.43-2.63-4.33-.79-8.75-1.28-13.16-1.36-3.47-.06-6.95.23-10.4.52-2.87.24-5.54,1.09-8.47.89-3-.21-5.95-1.13-8.52-2.7-.09-.06-.19-.12-.23-.23s0-.24.04-.35c.61-1.68,1.05-3.34,2.17-4.73,1.24-1.55,2.12-3.52,3.02-5.29,1.87-3.68,3.63-7.54,4.94-11.47,1.98-5.33,4.23-10.53,6.14-15.88,1.32-3.71,2.53-7.48,4.33-11,1.41-2.75,3.91-6.77,6.93-7.99,1.02-.41,2.15-.45,3.25-.48,3.34-.1,6.68-.19,10.02-.29,1.22-.03,2.48-.06,3.59.44,1.66.75,2.6,2.5,3.43,4.13,3.69,7.31,6.04,15.19,7.35,23.31.69,4.24,1.32,8.49,1.82,12.76.55,4.76.93,9.55,1.01,14.34,0,.53.09,2.02.13,3.81l.02.02Z"/>
            <path class="cls-7" d="M346.16,204.2c-.13,1.89.14,3.79.41,5.67,1.64,11.44,3.28,22.88,4.92,34.32-8.97-.08-17.94-.16-26.91-.23.32-4.29.65-8.57.97-12.86.21-2.75.42-5.51,1-8.2.94-4.35,2.81-8.44,4.68-12.5,3.44-7.49,6.89-14.99,10.33-22.48.18-.4.38-.81.72-1.1.41-.35.96-.46,1.49-.55,2.56-.45,5.46-.82,8.04-.44.64,2.35-1.73,6.42-2.61,8.6-1.28,3.17-2.81,6.33-3.04,9.78h0Z"/>
          </g>
          <polygon class="cls-19" points="329.42 199.67 316.8 180.88 313.57 151.23 318.85 150.05 325.9 177.07 338.23 187.93 329.42 199.67"/>
          <polygon class="cls-1" points="318.85 150.05 318.85 148.13 319.74 146.24 319.44 144.77 317.97 144.77 317.39 148 312.99 149.04 313.57 151.23 318.85 150.05"/>
          <g>
            <polygon class="cls-1" points="335.97 222.25 333.25 223.34 330.89 222.28 330.41 222.66 330.86 223.27 328.65 222.95 327.1 223.9 326.93 226.3 328.31 228.37 330.72 228.29 333.15 226.78 336.94 225.45 335.97 222.25"/>
            <polygon class="cls-19" points="332.83 221.53 348.51 214.94 350.27 196.15 361.14 200.85 358.63 221.77 334.89 226.86 332.83 221.53"/>
          </g>
        </g>
        <g>
          <g>
            <polygon class="cls-15" points="179.14 254.24 181.22 282.66 188.1 329.71 193.38 329.71 196.72 286.3 198.2 251.17 179.14 254.24"/>
            <polygon class="cls-10" points="193.35 329.08 193.35 331.94 187.64 334.79 184.78 331.94 187.64 329.08 193.35 329.08"/>
          </g>
          <g>
            <polygon class="cls-15" points="216.59 247.54 214.59 287.38 209.98 333.11 204.57 333.11 200.17 289.78 193.74 244.18 216.59 247.54"/>
            <polygon class="cls-10" points="204.6 332.46 204.6 335.39 210.46 338.32 213.38 335.39 210.46 332.46 204.6 332.46"/>
          </g>
          <g>
            <path class="cls-1" d="M198.14,183.68c1.85-.18,3.69-.36,5.54-.54.02-1.48-.08-2.96-.29-4.43,1.54-.54,3.32-1.35,3.59-2.96.09-.51,0-1.03-.09-1.53-.36-2.09-.72-4.19-1.08-6.28-.12-.72-.26-1.47-.65-2.09-.69-1.09-2.03-1.57-3.3-1.79-3.24-.57-6.78.13-9.29,2.25-.67.56-1.28,1.24-1.57,2.07-.46,1.27-.12,2.67.22,3.98.31,1.21.63,2.41.94,3.62.36,1.39.89,2.96,2.22,3.49.71.28,1.55.2,2.19.61,1.13.72.98,2.41,1.56,3.61h0Z"/>
            <path class="cls-10" d="M180.09,162.75c-.04-1.44.17-2.89.45-4.2.49-2.25,3.15-3.26,5.44-3.42,4.96-.34,9.75-2.59,14.6-.86,2.77.99,6.49,1.23,9,2.63,1.05.58,1.88,1.5,2.53,2.5,2.25,3.49,2.26,8.3,0,11.79-.5.78-1.11,1.5-1.74,2.18-1.31,1.42-2.88,3.17-4.68,3.69-.04-1.61,1.43-6.68.2-8-1.96-2.1-6.39-1.37-8.83-.86-2.65.56-5.02,2.43-7.65,2.83-1.89.29-4.31-.65-5.92-1.63-2.52-1.54-3.36-4.08-3.43-6.67l.02.02Z"/>
          </g>
          <g>
            <polygon class="cls-1" points="230.19 157.06 231.26 153.73 229.81 151 230.23 150.4 230.99 150.89 230.43 148.28 231.43 146.35 234.29 145.95 236.87 147.44 236.97 150.31 235.36 153.33 234.09 157.97 230.19 157.06"/>
            <polygon class="cls-22" points="230.04 154.6 235.33 154.89 230.04 181.03 214.96 196.58 206.22 183.52 222.11 173.1 230.04 154.6"/>
          </g>
          <g>
            <polygon class="cls-1" points="173.82 147.34 173.64 143.84 175.75 141.58 175.5 140.89 174.64 141.16 175.85 138.78 175.37 136.67 172.72 135.55 169.84 136.32 169.01 139.07 169.79 142.41 169.83 147.21 173.82 147.34"/>
            <polygon class="cls-22" points="174.6 145 169.42 143.92 169.01 163.87 171.04 179.28 184.3 198.73 195.15 183.03 182.55 173.77 174.6 145"/>
          </g>
          <polygon class="cls-22" points="193.75 182.25 211.26 182.99 220.1 216.64 227.4 263.27 171.04 264.64 184.3 198.73 193.75 182.25"/>
        </g>
        <g>
          <g>
            <polygon class="cls-1" points="149.17 191.66 151.3 189.65 151.34 187.06 151.89 186.79 152.25 187.46 152.89 185.32 154.4 184.32 156.66 185.17 157.95 187.3 156.86 189.45 154.46 191.01 151.66 193.89 149.17 191.66"/>
            <polygon class="cls-16" points="149.84 188.5 137.9 202.66 122.3 187.55 119.87 205.61 138.86 215.03 153.8 192.63 149.84 188.5"/>
          </g>
          <g>
            <polygon class="cls-18" points="102.66 330.29 102.4 332.84 107.04 336.03 109.75 333.79 107.56 330.92 102.92 327.74 102.66 330.29"/>
            <polygon class="cls-1" points="102.77 252.22 101.99 259.97 108.95 286.62 102.49 329.43 107.24 331.07 119.78 289.27 121.77 277.11 121.7 251.37 102.77 252.22"/>
          </g>
          <g>
            <polygon class="cls-1" points="139.35 260.86 129.35 332.6 124.8 332.6 123.98 286.62 115.71 254.34 139.35 260.86"/>
            <polygon class="cls-18" points="124.83 332.04 124.83 334.61 129.74 337.19 132.2 334.61 129.74 332.04 124.83 332.04"/>
          </g>
          <path class="cls-3" d="M128.18,187.21c-.36-.59-.84-1.09-1.5-1.46-4.52-2.55-12-.3-16.9-.3-1.45,15.25-5.45,29.78-8.04,44.76-2.75,15.9-5.84,31.74-9.28,47.51-.19.89,13.64.44,14.94.46,13.31.22,30.73.18,43.57-3.85-8.2-22-11.19-45.68-17.64-68.25-1.13-3.96-2.48-7.87-3.5-11.86-.59-2.32-.5-5.11-1.66-7h.01Z"/>
          <path class="cls-1" d="M128.99,169.22c-1.74-9.19-13.22-7.6-16.52-.16-1.87,4.23.09,10.22,3.84,13.17.08.81.19,3.06.81,3.6.67.59,2.8.03,3.63-.16.23-.05.47-.12.64-.29.21-.21.24-.77.25-1.39.61-.04,1.24-.16,1.87-.37,2.67-.88,4.61-3.35,5.4-6.04.8-2.69.6-5.59.08-8.35h0Z"/>
          <path class="cls-10" d="M112.01,205.71c.11,0,.2,0,.26-.03,2.03-.35,5.28-1,6.22-3.14.96-2.19-.75-6.15-1.03-8.43-.43-3.45-.57-6.94-.74-10.41-.15-3.13.97-6.22,2.61-8.89s3.78-5,5.89-7.31c.88-.96,1.79-2,2.05-3.27.3-1.41-.27-2.9-1.2-4-1.43-1.7-3.13-2.54-5.3-2.59-7.59-.18-13.3,4.31-15.46,11.73-3.09,10.63.77,20.77.19,31.35-.1,1.81-.7,3.58-1.71,5.08.27-.4,6.56,0,8.2-.08h.02Z"/>
          <g>
            <path class="cls-16" d="M96.67,246.18c-.61.76-1.7,1-2.66.81-.96-.19-1.8-.75-2.57-1.35-.93-.72-1.79-1.53-2.57-2.41-.45-.5-.88-1.05-1.09-1.69s-.16-1.41.29-1.92c.3-.35.75-.54,1.18-.72.3-.13.63-.26.95-.19.27.05.5.23.71.4,1.47,1.19,7.69,4.65,5.77,7.07h0Z"/>
            <path class="cls-1" d="M93.68,246.18c.12.03.25.06.37.08.4.05,1,.04,1.36-.14,0,0,1.08-.75.6-.74l-.98.02,1.99-2.09.16-2.34-2.41-1.98-3.22-.08c-.96,1.46-2.34,2.82-1.2,4.61.34.53.82.95,1.29,1.37.61.53,1.26,1.09,2.03,1.3h.01Z"/>
          </g>
        </g>
        <g>
          <g>
            <path class="cls-17" d="M253.74,186.8c-.09.03-.18.07-.27.1-4.28,1.67-7.64,9.14-9.57,13.53-4.97,11.33-7.14,23.14-7.54,35.67-.21,6.74-.13,13.5.08,20.25.06,1.86,1.68,18.55.85,18.95,8.48-4.09,17.1-7.95,26.12-10.28s18.52-3.1,27.63-.97c-2.77-21.19-6.79-42.74-12.59-63.21-.69-2.45-1.16-5.06-2.18-7.38-1.18-2.67-2.96-3.46-5.2-5.04-.77-.54-1.54-1.09-2.39-1.46-4.45-1.99-10.44-1.81-14.95-.14v-.02Z"/>
            <g>
              <polygon class="cls-13" points="240.7 253.48 250.41 292.92 250.64 323.24 255.27 324.1 257.19 295.97 261.82 246.47 240.7 253.48"/>
              <polygon class="cls-18" points="255.41 323.82 256.17 326.77 255.5 332.55 251.68 332.56 250.25 324.2 250.69 322.8 255.41 323.82"/>
            </g>
            <g>
              <polygon class="cls-13" points="277.79 249.13 278.65 283.2 274.1 331.33 269.45 331.67 267.77 287.55 258.29 247.55 277.79 249.13"/>
              <polygon class="cls-18" points="273.96 330.53 280.23 333.86 279.73 336.79 268.65 335.43 269.18 331.21 273.96 330.53"/>
            </g>
            <polygon class="cls-20" points="279.16 253.52 282.32 292.89 279.1 319.89 266.49 319.18 264.24 288.48 258.79 255.02 259.63 249.81 277.81 250.07 279.16 253.52"/>
            <polygon class="cls-20" points="260.03 290.03 258.55 318.27 247.59 317.7 247.81 290.92 240.9 257.29 242.47 247.89 260.92 249.04 260.03 290.03"/>
            <path class="cls-7" d="M285.64,254.23c-11.29,1.72-30.07,3.04-41.35,4.76-.61-20.41,1.4-43.97,6.32-63.72.89-3.58,2.21-7.45,5.34-9.27,3.35-1.95,10.47-1.69,12.51,2.11,2.99,5.56,3.58,14.4,4.92,20.58,3.02,13.99,10.38,31.35,12.26,45.54h0Z"/>
            <g>
              <path class="cls-13" d="M253.97,171.53c1.68-8.32,12.09-6.76,15,.03,1.92,4.47-.86,11.03-5.37,12.94.28,1.14.5,2.29.68,3.44-1.28.07-2.55.14-3.83.21-.39.02-.86,0-1.09-.3-.14-.19-.16-.45-.17-.69-.03-.81-.07-1.61-.1-2.42-.1-.03-.19-.06-.29-.09-2.42-.83-4.14-3.09-4.84-5.55-.7-2.46-.49-5.08.02-7.58h0Z"/>
              <g>
                <path class="cls-10" d="M255.01,173.81c-1.32,2.51-.5,5.54.22,8.14.64,2.31.76,3.77-1.86,3.94-1.48.09-4.1.29-5.17-1.01-.81-.98.14-3.44.76-4.38.48-.72,1.47-.96,1.93-1.68.19-.3.27-.66.33-1,.25-1.43.29-2.89.11-4.33-.12-.98-.35-1.95-.27-2.93.11-1.42,1.37-2.89,2.1-4.1,1.36-2.24,5.26-4.9,7.78-2.56.57.53.83,1.32,1.03,2.08.12.45.22.92.15,1.38-.28,1.84-2.01,1.88-3.32,2.57-1.61.85-2.96,2.28-3.8,3.88h.01Z"/>
                <path class="cls-10" d="M268.31,176.43c-.11,1.32-1.03,2.66-.49,3.87.24.54.73.92,1.12,1.36,1.07,1.2,1.44,3,.92,4.52,2.63.33,5.25.65,7.88.98.4.05.81.1,1.18-.05.79-.32,1-1.32,1.09-2.17.18-1.67.33-3.46-.48-4.93-.38-.68-.95-1.24-1.32-1.92-1.81-3.28,1.26-8.01-1.13-10.89-1.07-1.29-2.86-1.66-4.28-2.54-2.48-1.54-3.77-4.58-6.35-5.95-4.86-2.59-10.87,2.87-8.57,7.95,1.87,4.14,10.87,4.46,10.43,9.78h0Z"/>
              </g>
            </g>
            <path class="cls-17" d="M254.06,187.41s-3.59,50.67,4.28,60.66c7.87,9.99,11.23,13.76,11.23,13.76l-32.24,13.46s.7-73.89,16.73-87.88h0Z"/>
          </g>
          <g>
            <path class="cls-14" d="M287.56,218.43c.76.61,1,1.71.8,2.66-.19.96-.75,1.8-1.35,2.56-.73.93-1.54,1.79-2.42,2.57-.51.45-1.05.88-1.69,1.09-.64.21-1.41.15-1.92-.29-.35-.31-.54-.75-.72-1.18-.13-.3-.25-.63-.19-.95.05-.27.23-.5.4-.71,1.19-1.47,4.67-7.68,7.08-5.75h.01Z"/>
            <path class="cls-6" d="M287.56,221.42c.03-.12.06-.25.08-.37.05-.4.04-1-.14-1.37,0,0-.75-1.08-.74-.61l.02.98-2.09-1.99-2.34-.16-1.98,2.4-.09,3.22c1.46.97,2.82,2.35,4.61,1.21.53-.34.96-.82,1.37-1.29.54-.61,1.09-1.26,1.31-2.03h0Z"/>
          </g>
        </g>
        <g>
          <path class="cls-2" d="M324.76,208.76c-1.03,1.61-2.83,2.67-4.88,2.67-1.27,0-2.44-.41-3.39-1.1-.69.99-1.83,1.64-3.13,1.64s-2.52-.7-3.2-1.75c-.65.31-1.38.48-2.14.48-2.75,0-4.98-2.23-4.98-4.98,0-.97.28-1.87.75-2.63-2.14-.13-3.83-1.9-3.83-4.06v-.23c-2.46.9-4.61,2.2-6.38,3.52-3.12,2.34-7.08,3.4-10.97,3.02-5.4-.53-12.76.26-18.24,6.55-7.36,8.44-6.13,19.38-1.59,28.37,3.36,6.65,8.08,13.18,14.22,17.88,5.94,4.55,15.87,8.34,23.23,3.54,2.24-1.46,4.91-2.24,7.58-2.07,12.79.81,17.87-13.81,19.59-23.14,1.67-9.05,1.8-19.47-2.66-27.71h.02Z"/>
          <path class="cls-10" d="M291.62,203.05c1.96-1.61,3.49-4.19,4.5-6.9,1.02-2.71,1.57-5.57,2.02-8.39.31-1.96.58-3.93.53-5.83-1.99.79-3.97,1.73-5.92,2.82-2.2,1.23-4.42,2.67-6.3,4.82s-3.41,5.1-3.71,8.09c-.63,6.3,4.85,8.71,8.88,5.4h0Z"/>
        </g>
        <g>
          <path class="cls-26" d="M231.42,52.13c-11.07.26-24.26,7.58-26.57,17.29-4.28-9.02-21.73-13.02-32.61-10.97-28.72,5.41-35.12,38.74-20.55,59.17,7.84,10.99,18.42,20.22,29.75,28.3,9.49,6.77,33.59,20.71,33.65,20.65.07.05,20.74-18.61,28.61-27.21,9.4-10.27,17.82-21.49,23.19-33.88,9.99-23-6.26-54.04-35.47-53.35Z"/>
          <g class="cls-5">
            <path d="M261.54,108.83c-6.3,9.48-13.8,18.55-22.13,26.53-8.06,7.72-17.72,14.73-28.83,17.9-5.34,1.52-10.67,1.95-15.83,1.32,9.99,6.16,20.8,12.39,20.84,12.35.07.05,20.74-18.61,28.61-27.21,9.4-10.27,17.82-21.49,23.19-33.88,1.74-4.01,2.68-8.26,2.9-12.54-2.47,5.38-5.45,10.56-8.75,15.53h0Z"/>
          </g>
          <path class="cls-7" d="M260.09,99.7c-7.56.99-15.13,1.98-22.69,2.97-3.79-9.67-7.59-19.34-11.38-29-.55-1.4-2.68-1.06-2.99.31-4.05,17.95-8.09,35.9-12.14,53.85-.23,1.04-.47,2.08-.7,3.12-5.2-10.99-10.39-21.98-15.58-32.97-.83-1.76-1.67-3.52-2.5-5.29-.5-1.06-2.37-1.31-2.87-.05-2.32,5.85-4.64,11.7-6.95,17.55-8.49.89-16.98,1.79-25.46,2.68-1.99.21-1.69,3.13.31,2.92,8.81-.93,17.61-1.86,26.42-2.78.52-.05,1.07-.39,1.26-.86,1.99-5.01,3.97-10.02,5.96-15.04,5.33,11.27,10.66,22.55,15.99,33.82.83,1.76,1.67,3.52,2.5,5.29.63,1.32,2.66,1.13,2.99-.31,4.05-17.95,8.09-35.9,12.14-53.85.19-.86.39-1.72.58-2.58,3.32,8.45,6.63,16.9,9.95,25.35.23.59.94,1,1.61.91,7.96-1.04,15.92-2.09,23.88-3.13,1.98-.26,1.68-3.18-.31-2.92h-.02Z"/>
        </g>
        <g>
          <path class="cls-25" d="M101.74,242.99l-32.36,3.68c-11.97,1.36-22.84-7.8-24.28-20.45h0c-1.44-12.65,7.09-24.01,19.05-25.37l32.28-3.67,5.31,45.81Z"/>
          <path class="cls-27" d="M102.88,242.86l62.88-7.15c9.62-1.09,16.53-9.78,15.44-19.4l-1.25-10.99c-1.1-9.62-9.78-16.52-19.39-15.43l-62.89,7.15,5.23,45.82h-.02Z"/>
          <g>
            <path class="cls-7" d="M112.48,210.62l1.71-.19,1.71,15.02-1.71.19-.77-6.79-6.58.75.77,6.79-1.71.19-1.71-15.02,1.71-.19.77,6.79,6.58-.75-.77-6.79Z"/>
            <path class="cls-7" d="M118.31,209.96l7.55-.86.16,1.44-5.84.66.6,5.22,5.43-.62.16,1.44-5.43.62.62,5.47,6.23-.71.16,1.44-7.94.9-1.71-15.02v.02Z"/>
            <path class="cls-7" d="M132.11,208.39l2.28-.26,6.36,14.49-1.69.19-1.9-4.37-5.41.61-.87,4.68-1.69.19,2.92-15.54h0ZM133.44,209.87l-1.43,7.71,4.53-.52-3.11-7.19h0Z"/>
            <path class="cls-7" d="M143.14,222.35l-1.71-15.02,1.71-.19,1.55,13.58,5.29-.6.16,1.44-7,.8h0Z"/>
            <path class="cls-7" d="M147.97,208.05l-.16-1.44,9.34-1.06.16,1.44-3.81.43,1.55,13.58-1.71.19-1.55-13.58-3.81.43h0Z"/>
            <path class="cls-7" d="M167.63,204.36l1.71-.19,1.71,15.02-1.71.19-.77-6.79-6.58.75.77,6.79-1.71.19-1.71-15.02,1.71-.19.77,6.79,6.58-.75-.77-6.79Z"/>
          </g>
          <path class="cls-27" d="M86.81,217.69c-2.74.31-5.48.62-8.22.93-.26.03-.51.06-.77.09-.24-2.11-.48-4.22-.72-6.33-.12-1.06-.24-2.12-.36-3.18-.04-.35-.36-.62-.69-.58-1.7.19-3.41.39-5.11.58-.33.04-.58.37-.54.72.33,2.9.66,5.8.99,8.69.03.27.06.54.09.81-2,.23-3.99.45-5.99.68-1,.11-2,.23-3,.34-.33.04-.58.37-.54.72.21,1.8.41,3.6.62,5.4.02.2.11.34.23.44.11.11.27.17.46.15,2.74-.31,5.48-.62,8.22-.93.26-.03.51-.06.77-.09.24,2.11.48,4.22.72,6.33.12,1.06.24,2.12.36,3.18.04.35.36.62.69.58,1.7-.19,3.41-.39,5.11-.58.19-.02.32-.11.41-.24.1-.12.16-.28.13-.49-.33-2.9-.66-5.8-.99-8.69-.03-.27-.06-.54-.09-.81,2-.23,3.99-.45,5.99-.68,1-.11,2-.23,3-.34.33-.04.58-.37.54-.72-.21-1.8-.41-3.6-.62-5.4-.04-.35-.36-.62-.69-.58h0Z"/>
        </g>
        <path class="cls-13" d="M257.72,226.63c.03.12.06.24.11.36.14.37.43.9.77,1.14,0,0,1.17.59.94.18l-.48-.85,2.78.76,2.14-.96.61-3.06-1.44-2.88c-1.75-.16-3.59-.73-4.63,1.11-.31.55-.46,1.17-.6,1.78-.18.79-.36,1.63-.19,2.41h0Z"/>
        <polygon class="cls-17" points="259.34 221.12 249.34 214.62 241.63 221.89 257.83 226.99 259.34 221.12"/>
      </g>
    </g>
  </g>
</svg>