<?xml version="1.0" encoding="UTF-8"?>
<svg xmlns="http://www.w3.org/2000/svg" xmlns:xlink="http://www.w3.org/1999/xlink" viewBox="0 0 540.78 495.94">
  <defs>
    <style>
      .cls-1 {
        fill: #ccd5dd;
      }

      .cls-2 {
        fill: #dfe3e7;
      }

      .cls-3 {
        fill: #585858;
      }

      .cls-4 {
        fill: #1c1a2a;
      }

      .cls-5 {
        fill: #8140ff;
      }

      .cls-6 {
        fill: #fcfcfc;
        opacity: .69;
      }

      .cls-7 {
        opacity: .27;
      }

      .cls-8 {
        fill: #596876;
      }

      .cls-9 {
        fill: #747b85;
      }

      .cls-10 {
        fill: #eae8ed;
      }

      .cls-11 {
        fill: #edb2d1;
      }

      .cls-12 {
        fill: #a68efe;
      }

      .cls-13 {
        fill: #9e5fff;
      }

      .cls-14 {
        fill: #91b3ba;
      }

      .cls-15 {
        fill: #b52a71;
      }

      .cls-16 {
        fill: #a5b3bf;
      }

      .cls-17 {
        fill: #9573ea;
      }

      .cls-18 {
        fill: #cfc6f5;
      }

      .cls-19 {
        fill: #3b4a57;
      }

      .cls-20 {
        isolation: isolate;
      }

      .cls-21, .cls-22 {
        fill: #b0a7c2;
      }

      .cls-23 {
        fill: #fcffff;
      }

      .cls-24 {
        fill: #b0dadf;
      }

      .cls-25 {
        fill: #d889bf;
      }

      .cls-26 {
        fill: #dcd3fe;
      }

      .cls-27 {
        fill: #090000;
      }

      .cls-28 {
        fill: #ef529c;
      }

      .cls-29 {
        fill: #f4f5f6;
      }

      .cls-30 {
        fill: #d2448d;
      }

      .cls-31, .cls-22, .cls-32 {
        mix-blend-mode: multiply;
      }

      .cls-33 {
        fill: #b5a4e8;
      }

      .cls-34 {
        fill: #ebeff2;
      }

      .cls-35 {
        fill: #bbcddf;
      }

      .cls-36 {
        fill: #c5bed1;
      }

      .cls-37 {
        fill: #c3f6c3;
      }

      .cls-38 {
        fill: #ff73b5;
      }

      .cls-32 {
        fill: #a99bc1;
      }

      .cls-39 {
        fill: #2f2d3d;
      }

      .cls-40 {
        fill: #717f90;
      }

      .cls-41 {
        fill: #1a2738;
      }

      .cls-42 {
        fill: #c22a78;
      }

      .cls-43 {
        fill: #fbfafc;
      }

      .cls-44 {
        fill: url(#linear-gradient);
      }

      .cls-45 {
        fill: #e5fafe;
      }

      .cls-46 {
        fill: #403d54;
      }

      .cls-47 {
        fill: #f4fff3;
      }

      .cls-48 {
        fill: #d94693;
      }
    </style>
    <linearGradient id="linear-gradient" x1="109.99" y1="287.39" x2="528.03" y2="287.39" gradientUnits="userSpaceOnUse">
      <stop offset="0" stop-color="#c4b8e9"/>
      <stop offset=".42" stop-color="#b2cfde"/>
      <stop offset="1" stop-color="#ffcade"/>
    </linearGradient>
  </defs>
  <g class="cls-20">
    <g id="Default">
      <g>
        <g>
          <g>
            <g>
              <path class="cls-10" d="M175.75,415.86l-71.24,41.13c-2.31,1.34-6.07,1.34-8.38,0h0c-2.31-1.34-2.31-3.5,0-4.84l71.24-41.13c2.31-1.34,6.07-1.34,8.38,0h0c2.31,1.34,2.31,3.5,0,4.84Z"/>
              <path class="cls-10" d="M230.78,384.09l-37.65,21.74c-2.31,1.34-6.07,1.34-8.38,0h0c-2.31-1.34-2.31-3.5,0-4.84l37.65-21.74c2.31-1.34,6.07-1.34,8.38,0h0c2.31,1.34,2.31,3.5,0,4.84Z"/>
            </g>
            <path class="cls-10" d="M196.87,382.09l-71.24,41.13c-2.31,1.34-6.07,1.34-8.38,0h0c-2.31-1.34-2.31-3.5,0-4.84l71.24-41.13c2.31-1.34,6.07-1.34,8.38,0h0c2.31,1.34,2.31,3.5,0,4.84Z"/>
            <path class="cls-10" d="M287.96,329.49l-71.24,41.13c-2.31,1.34-6.07,1.34-8.38,0h0c-2.31-1.34-2.31-3.5,0-4.84l71.24-41.13c2.31-1.34,6.07-1.34,8.38,0h0c2.31,1.34,2.31,3.5,0,4.84Z"/>
            <path class="cls-10" d="M328.87,349.03l-71.24,41.13c-2.31,1.34-6.07,1.34-8.38,0h0c-2.31-1.34-2.31-3.5,0-4.84l71.24-41.13c2.31-1.34,6.07-1.34,8.38,0h0c2.31,1.34,2.31,3.5,0,4.84Z"/>
            <path class="cls-10" d="M194.44,426.65l-20.85,12.04c-2.31,1.34-6.07,1.34-8.38,0h0c-2.31-1.34-2.31-3.5,0-4.84l20.85-12.04c2.31-1.34,6.07-1.34,8.38,0h0c2.31,1.34,2.31,3.5,0,4.84Z"/>
            <path class="cls-10" d="M373.22,323.43l-20.85,12.04c-2.31,1.34-6.07,1.34-8.38,0h0c-2.31-1.34-2.31-3.5,0-4.84l20.85-12.04c2.31-1.34,6.07-1.34,8.38,0h0c2.31,1.34,2.31,3.5,0,4.84Z"/>
            <path class="cls-10" d="M211.04,352.32l-71.24,41.13c-2.31,1.34-6.07,1.34-8.38,0h0c-2.31-1.34-2.31-3.5,0-4.84l71.24-41.13c2.31-1.34,6.07-1.34,8.38,0h0c2.31,1.34,2.31,3.5,0,4.84Z"/>
            <path class="cls-10" d="M255.38,326.72l-20.85,12.04c-2.31,1.34-6.07,1.34-8.38,0h0c-2.31-1.34-2.31-3.5,0-4.84l20.85-12.04c2.31-1.34,6.07-1.34,8.38,0h0c2.31,1.34,2.31,3.5,0,4.84Z"/>
          </g>
          <g>
            <g>
              <path class="cls-10" d="M290.02,391.31l-71.24,41.13c-2.31,1.34-6.07,1.34-8.38,0h0c-2.31-1.34-2.31-3.5,0-4.84l71.24-41.13c2.31-1.34,6.07-1.34,8.38,0h0c2.31,1.34,2.31,3.5,0,4.84Z"/>
              <path class="cls-10" d="M345.05,359.53l-37.65,21.74c-2.31,1.34-6.07,1.34-8.38,0h0c-2.31-1.34-2.31-3.5,0-4.84l37.65-21.74c2.31-1.34,6.07-1.34,8.38,0h0c2.31,1.34,2.31,3.5,0,4.84Z"/>
            </g>
            <path class="cls-10" d="M311.14,357.53l-71.24,41.13c-2.31,1.34-6.07,1.34-8.38,0h0c-2.31-1.34-2.31-3.5,0-4.84l71.24-41.13c2.31-1.34,6.07-1.34,8.38,0h0c2.31,1.34,2.31,3.5,0,4.84Z"/>
            <path class="cls-10" d="M402.23,304.94l-71.24,41.13c-2.31,1.34-6.07,1.34-8.38,0h0c-2.31-1.34-2.31-3.5,0-4.84l71.24-41.13c2.31-1.34,6.07-1.34,8.38,0h0c2.31,1.34,2.31,3.5,0,4.84Z"/>
            <path class="cls-10" d="M443.14,324.48l-71.24,41.13c-2.31,1.34-6.07,1.34-8.38,0h0c-2.31-1.34-2.31-3.5,0-4.84l71.24-41.13c2.31-1.34,6.07-1.34,8.38,0h0c2.31,1.34,2.31,3.5,0,4.84Z"/>
            <path class="cls-10" d="M308.71,402.1l-20.85,12.04c-2.31,1.34-6.07,1.34-8.38,0h0c-2.31-1.34-2.31-3.5,0-4.84l20.85-12.04c2.31-1.34,6.07-1.34,8.38,0h0c2.31,1.34,2.31,3.5,0,4.84Z"/>
            <path class="cls-10" d="M487.48,298.88l-20.85,12.04c-2.31,1.34-6.07,1.34-8.38,0h0c-2.31-1.34-2.31-3.5,0-4.84l20.85-12.04c2.31-1.34,6.07-1.34,8.38,0h0c2.31,1.34,2.31,3.5,0,4.84Z"/>
            <path class="cls-10" d="M325.31,327.77l-71.24,41.13c-2.31,1.34-6.07,1.34-8.38,0h0c-2.31-1.34-2.31-3.5,0-4.84l71.24-41.13c2.31-1.34,6.07-1.34,8.38,0h0c2.31,1.34,2.31,3.5,0,4.84Z"/>
            <path class="cls-10" d="M369.65,302.17l-20.85,12.04c-2.31,1.34-6.07,1.34-8.38,0h0c-2.31-1.34-2.31-3.5,0-4.84l20.85-12.04c2.31-1.34,6.07-1.34,8.38,0h0c2.31,1.34,2.31,3.5,0,4.84Z"/>
          </g>
          <g>
            <path class="cls-10" d="M357.67,440.33l-37.65,21.74c-2.31,1.34-6.07,1.34-8.38,0h0c-2.31-1.34-2.31-3.5,0-4.84l37.65-21.74c2.31-1.34,6.07-1.34,8.38,0h0c2.31,1.34,2.31,3.5,0,4.84Z"/>
            <path class="cls-10" d="M323.76,438.33l-71.24,41.13c-2.31,1.34-6.07,1.34-8.38,0h0c-2.31-1.34-2.31-3.5,0-4.84l71.24-41.13c2.31-1.34,6.07-1.34,8.38,0h0c2.31,1.34,2.31,3.5,0,4.84Z"/>
            <path class="cls-10" d="M414.85,385.74l-71.24,41.13c-2.31,1.34-6.07,1.34-8.38,0h0c-2.31-1.34-2.31-3.5,0-4.84l71.24-41.13c2.31-1.34,6.07-1.34,8.38,0h0c2.31,1.34,2.31,3.5,0,4.84Z"/>
            <path class="cls-10" d="M455.76,405.28l-71.24,41.13c-2.31,1.34-6.07,1.34-8.38,0h0c-2.31-1.34-2.31-3.5,0-4.84l71.24-41.13c2.31-1.34,6.07-1.34,8.38,0h0c2.31,1.34,2.31,3.5,0,4.84Z"/>
            <path class="cls-10" d="M321.33,482.9l-20.85,12.04c-2.31,1.34-6.07,1.34-8.38,0h0c-2.31-1.34-2.31-3.5,0-4.84l20.85-12.04c2.31-1.34,6.07-1.34,8.38,0h0c2.31,1.34,2.31,3.5,0,4.84Z"/>
            <path class="cls-10" d="M500.1,379.68l-20.85,12.04c-2.31,1.34-6.07,1.34-8.38,0h0c-2.31-1.34-2.31-3.5,0-4.84l20.85-12.04c2.31-1.34,6.07-1.34,8.38,0h0c2.31,1.34,2.31,3.5,0,4.84Z"/>
            <path class="cls-10" d="M337.93,408.57l-71.24,41.13c-2.31,1.34-6.07,1.34-8.38,0h0c-2.31-1.34-2.31-3.5,0-4.84l71.24-41.13c2.31-1.34,6.07-1.34,8.38,0h0c2.31,1.34,2.31,3.5,0,4.84Z"/>
            <path class="cls-10" d="M382.27,382.97l-20.85,12.04c-2.31,1.34-6.07,1.34-8.38,0h0c-2.31-1.34-2.31-3.5,0-4.84l20.85-12.04c2.31-1.34,6.07-1.34,8.38,0h0c2.31,1.34,2.31,3.5,0,4.84Z"/>
          </g>
        </g>
        <g>
          <g>
            <g>
              <path class="cls-10" d="M81.35,274.55l-71.24,41.13c-2.31,1.34-6.07,1.34-8.38,0h0c-2.31-1.34-2.31-3.5,0-4.84l71.24-41.13c2.31-1.34,6.07-1.34,8.38,0h0c2.31,1.34,2.31,3.5,0,4.84Z"/>
              <path class="cls-10" d="M136.38,242.78l-37.65,21.74c-2.31,1.34-6.07,1.34-8.38,0h0c-2.31-1.34-2.31-3.5,0-4.84l37.65-21.74c2.31-1.34,6.07-1.34,8.38,0h0c2.31,1.34,2.31,3.5,0,4.84Z"/>
            </g>
            <path class="cls-10" d="M102.47,240.78l-71.24,41.13c-2.31,1.34-6.07,1.34-8.38,0h0c-2.31-1.34-2.31-3.5,0-4.84l71.24-41.13c2.31-1.34,6.07-1.34,8.38,0h0c2.31,1.34,2.31,3.5,0,4.84Z"/>
            <path class="cls-10" d="M193.56,188.19l-71.24,41.13c-2.31,1.34-6.07,1.34-8.38,0h0c-2.31-1.34-2.31-3.5,0-4.84l71.24-41.13c2.31-1.34,6.07-1.34,8.38,0h0c2.31,1.34,2.31,3.5,0,4.84Z"/>
            <path class="cls-10" d="M234.47,207.73l-71.24,41.13c-2.31,1.34-6.07,1.34-8.38,0h0c-2.31-1.34-2.31-3.5,0-4.84l71.24-41.13c2.31-1.34,6.07-1.34,8.38,0h0c2.31,1.34,2.31,3.5,0,4.84Z"/>
            <path class="cls-10" d="M100.04,285.35l-20.85,12.04c-2.31,1.34-6.07,1.34-8.38,0h0c-2.31-1.34-2.31-3.5,0-4.84l20.85-12.04c2.31-1.34,6.07-1.34,8.38,0h0c2.31,1.34,2.31,3.5,0,4.84Z"/>
            <path class="cls-10" d="M278.82,182.13l-20.85,12.04c-2.31,1.34-6.07,1.34-8.38,0h0c-2.31-1.34-2.31-3.5,0-4.84l20.85-12.04c2.31-1.34,6.07-1.34,8.38,0h0c2.31,1.34,2.31,3.5,0,4.84Z"/>
            <path class="cls-10" d="M116.64,211.02l-71.24,41.13c-2.31,1.34-6.07,1.34-8.38,0h0c-2.31-1.34-2.31-3.5,0-4.84l71.24-41.13c2.31-1.34,6.07-1.34,8.38,0h0c2.31,1.34,2.31,3.5,0,4.84Z"/>
            <path class="cls-10" d="M160.98,185.42l-20.85,12.04c-2.31,1.34-6.07,1.34-8.38,0h0c-2.31-1.34-2.31-3.5,0-4.84l20.85-12.04c2.31-1.34,6.07-1.34,8.38,0h0c2.31,1.34,2.31,3.5,0,4.84Z"/>
          </g>
          <g>
            <path class="cls-10" d="M263.27,299.03l-37.65,21.74c-2.31,1.34-6.07,1.34-8.38,0h0c-2.31-1.34-2.31-3.5,0-4.84l37.65-21.74c2.31-1.34,6.07-1.34,8.38,0h0c2.31,1.34,2.31,3.5,0,4.84Z"/>
            <path class="cls-10" d="M229.36,297.03l-71.24,41.13c-2.31,1.34-6.07,1.34-8.38,0h0c-2.31-1.34-2.31-3.5,0-4.84l71.24-41.13c2.31-1.34,6.07-1.34,8.38,0h0c2.31,1.34,2.31,3.5,0,4.84Z"/>
            <path class="cls-10" d="M320.45,244.44l-71.24,41.13c-2.31,1.34-6.07,1.34-8.38,0h0c-2.31-1.34-2.31-3.5,0-4.84l71.24-41.13c2.31-1.34,6.07-1.34,8.38,0h0c2.31,1.34,2.31,3.5,0,4.84Z"/>
            <path class="cls-10" d="M361.36,263.98l-71.24,41.13c-2.31,1.34-6.07,1.34-8.38,0h0c-2.31-1.34-2.31-3.5,0-4.84l71.24-41.13c2.31-1.34,6.07-1.34,8.38,0h0c2.31,1.34,2.31,3.5,0,4.84Z"/>
            <path class="cls-10" d="M226.93,341.59l-20.85,12.04c-2.31,1.34-6.07,1.34-8.38,0h0c-2.31-1.34-2.31-3.5,0-4.84l20.85-12.04c2.31-1.34,6.07-1.34,8.38,0h0c2.31,1.34,2.31,3.5,0,4.84Z"/>
            <path class="cls-10" d="M405.71,238.38l-20.85,12.04c-2.31,1.34-6.07,1.34-8.38,0h0c-2.31-1.34-2.31-3.5,0-4.84l20.85-12.04c2.31-1.34,6.07-1.34,8.38,0h0c2.31,1.34,2.31,3.5,0,4.84Z"/>
            <path class="cls-10" d="M243.53,267.27l-71.24,41.13c-2.31,1.34-6.07,1.34-8.38,0h0c-2.31-1.34-2.31-3.5,0-4.84l71.24-41.13c2.31-1.34,6.07-1.34,8.38,0h0c2.31,1.34,2.31,3.5,0,4.84Z"/>
            <path class="cls-10" d="M287.87,241.67l-20.85,12.04c-2.31,1.34-6.07,1.34-8.38,0h0c-2.31-1.34-2.31-3.5,0-4.84l20.85-12.04c2.31-1.34,6.07-1.34,8.38,0h0c2.31,1.34,2.31,3.5,0,4.84Z"/>
          </g>
        </g>
        <g>
          <g>
            <path class="cls-38" d="M278.51,101.51c0-1.89-1.4-4.08-2.74-4.78-.58-.3-1.3-.46-1.82-.15-.62.37-1.24.73-1.87,1.1,0-.65.12-1.38.5-1.91.16-.22.37-.4.61-.54.22-.13.47-.21.71-.25,1.09-.15,2.34.67,3.14,1.45,1.1,1.09,1.96,2.61,2.34,4.14.28,1.1.35,2.61-.31,3.51-.15.21-.35.39-.58.53-.22.14-.48.23-.74.27-.64.09-1.33-.18-1.89-.51.62-.37,1.24-.73,1.86-1.1.41-.24.68-.77.75-1.27.02-.17.04-.34.04-.51Z"/>
            <path class="cls-30" d="M273.19,95.23c4.54-2.68,9.08-5.36,13.62-8.04,1.99-1.17,4.5-.91,6.21.67,2.78,2.57,2.12,7.13-1.1,8.85h0c-4.47,2.64-8.95,5.29-13.42,7.93h0c.23-.15.43-.33.58-.54.66-.9.59-2.41.31-3.51-.38-1.52-1.24-3.04-2.34-4.14-.8-.79-2.04-1.61-3.14-1.45-.25.04-.49.12-.71.25h0Z"/>
            <path class="cls-38" d="M245.3,80.45c.27,1.09.35,2.61-.31,3.51-.16.21-.36.39-.58.53-.22.14-.47.23-.73.27-.64.09-1.34-.19-1.89-.51.62-.37,1.24-.73,1.86-1.1.34-.2.57-.58.68-.97.34-1.13-.17-3.47-1.93-5.06-.4-.36-.84-.67-1.36-.79-.39-.09-.83-.08-1.17.12-.62.37-1.24.73-1.86,1.1,0-.65.11-1.38.5-1.9.16-.22.37-.4.61-.54.22-.13.47-.21.71-.25,1.09-.15,2.34.67,3.14,1.45,1.1,1.09,1.96,2.61,2.35,4.14Z"/>
            <path class="cls-30" d="M252.69,67.07s.02-.01.02-.01c1.99-1.18,4.5-.91,6.21.67,2.72,2.51,2.15,6.94-.9,8.73-.07.04-.14.08-.21.12-4.46,2.64-8.93,5.28-13.4,7.92h0c.23-.15.43-.33.58-.54.66-.91.59-2.42.31-3.51-.38-1.52-1.24-3.04-2.35-4.14-.8-.79-2.04-1.61-3.14-1.45-.25.04-.49.12-.71.25h0c4.53-2.69,9.06-5.36,13.59-8.04Z"/>
            <path class="cls-12" d="M208.5,94.98c9.83-5.81,19.67-11.62,29.5-17.43.62-.36,1.24-.73,1.86-1.1.34-.2.77-.21,1.17-.12.52.12.97.43,1.36.79,1.76,1.59,2.28,3.93,1.93,5.06-.12.39-.34.77-.68.97-.62.37-1.24.73-1.86,1.1-9.83,5.81-19.67,11.62-29.5,17.42h0c-1.6.93-3.3,2.33-4.21,3.96-.84,1.49-.91,2.98-.09,4.54.89,1.72,2.65,3.16,4.31,4.12h0c.45.27.91.54,1.36.81,0,0,0,0,0,0,3.72,2.24,10.02,3.9,17.05,3.38,5.08-.37,9.23-1.8,11.84-3.36h0s.04-.02.05-.03c9.83-5.81,19.66-11.62,29.49-17.42.62-.37,1.24-.73,1.87-1.1.53-.31,1.25-.15,1.82.15,1.34.7,2.74,2.89,2.74,4.78,0,.17-.01.34-.04.51-.06.49-.34,1.02-.75,1.27-.62.37-1.24.73-1.86,1.1-9.83,5.81-19.67,11.61-29.5,17.42h0c-9.48,5.7-25.05,6.15-35.56.54.07-.04-.14-3.02-.61-4.44-.22-.67-.53-1.21-1.19-1.4-.52-.15-1.22-.04-1.8.29-.82.48-1.64.97-2.46,1.45-2.96-2.76-4.92-6.24-4.92-10.26,0-5.63,3.88-10.24,8.67-13.02h0Z"/>
            <path class="cls-35" d="M113.14,127.87s.04-.03.06-.04c0,0,0,0,0,0,.29-.17.59-.35.88-.52,1.78-1.05,3.56-2.1,5.34-3.16.38-.23.76-.45,1.14-.67.06-.04.14-.06.22-.06.78-.04,2.52,1.41,2.66,2.8.06.56-.15,1-.47,1.26h0c-1.6.95-3.19,1.89-4.79,2.84-.9.53-1.79,1.06-2.69,1.59h0c-.42.24-.89,1.12-.89,1.58h0v.83h0c.02,2.17-1.39,4.62-3.19,5.67,0,0,0,0,0,0-3.7,2.19-7.4,4.37-11.1,6.56h0c-2.75,1.6-5.62,4.34-5.62,7.63s2.84,6.01,5.62,7.62h0c.37.22.73.44,1.1.65h0c4.3,2.59,11.59,4.38,19.53,3.43,3.64-.43,7.77-1.55,10.89-3.43h0c22.34-13.2,44.69-26.4,67.03-39.6.37-.22.75-.44,1.12-.66h0c.12-.08.25-.12.4-.13,1.11-.07,2.38,1.68,2.41,3.06,0,.45-.12.89-.44,1.1-.02.01-.05.03-.07.04-.37.22-.74.44-1.11.66h0c-22.34,13.2-44.68,26.39-67.02,39.59,0,0,0,0,0,0-9.5,5.72-25.41,5.78-35.02,0,0,0,0,0,0,0-.37-.22-.73-.43-1.09-.64,0,0,0,0,0,0-4.83-2.8-8.68-7.61-7.81-13.29.68-4.39,3.99-7.89,7.75-10.08.02-.01.04-.02.06-.04h0c3.7-2.19,7.4-4.37,11.1-6.56h0c.39-.23.89-1.09.89-1.58h0v-.83h0c-.01-1.97,1.14-4.18,2.72-5.35.14-.1.28-.2.42-.28Z"/>
            <path class="cls-5" d="M210.21,117.91c.47,1.42.68,4.4.61,4.44-2.68,1.58-5.36,3.16-8.03,4.74h0c.13-.09.26-.19.35-.32.42-.55.37-1.48.2-2.15-.23-.93-.76-1.87-1.44-2.54-.48-.48-1.25-.99-1.92-.89-.15.02-.3.07-.44.15h0c1.74-1.04,3.48-2.07,5.22-3.09.82-.48,1.64-.97,2.46-1.45.58-.33,1.28-.44,1.8-.29.66.19.97.74,1.19,1.4Z"/>
            <path class="cls-12" d="M198.85,122.86c0-.4.07-.86.31-1.19.1-.13.23-.24.37-.33.14-.08.29-.13.44-.15.68-.09,1.44.41,1.92.89.68.67,1.2,1.61,1.44,2.54.17.67.21,1.6-.2,2.15-.1.13-.22.23-.35.31-.14.09-.3.15-.46.17-.4.05-.82-.12-1.16-.32.37-.22.74-.44,1.11-.66.02-.01.05-.03.07-.04.32-.21.44-.65.44-1.1-.03-1.39-1.3-3.13-2.41-3.06-.15.01-.28.05-.4.13h0c-.37.22-.75.44-1.12.66Z"/>
            <path class="cls-5" d="M140.98,130.07c0,2.55-1.93,4.6-4.14,5.9-6.42,3.79-17.5,3.12-22.24-1.73v-.74h0c0-.47.47-1.34.89-1.58h0c.9-.53,1.79-1.07,2.69-1.59,5.6,2.57,13.6,2.29,18.65-.69,2.62-1.55,4.13-3.68,4.14-5.9v6.34Z"/>
            <path class="cls-12" d="M139,119.45c1.36,1.37,1.98,2.84,1.98,4.27,0,2.22-1.51,4.35-4.14,5.9-5.05,2.98-13.06,3.26-18.65.69,1.6-.95,3.19-1.89,4.79-2.83h0c3.07,1.1,6.82.72,9.14-.65.95-.56,1.62-1.18,2.01-2.23.12-.33.18-.67.17-1v-3.96c.03-.95-.46-1.92-1.53-2.74-.76-.59-1.72-1.03-2.79-1.32,3.15.42,6.77,1.61,9.01,3.86Z"/>
            <path class="cls-38" d="M129.99,115.59c1.07.29,2.03.73,2.79,1.32,1.07.82,1.56,1.79,1.53,2.74-.03,1.12-.79,2.23-2.18,3.05-3.32,1.94-8.55,1.6-11.2-.44-1.01-.78-1.5-1.68-1.53-2.58-.04-1.18.73-2.35,2.19-3.21.64-.37,1.36-.67,2.12-.88,2.01-.55,4.32-.54,6.29,0Z"/>
            <path class="cls-12" d="M112.72,123.94c-.09-1.7.72-3.48,2.63-5.07,2.25-1.87,5.45-2.89,8.35-3.29-.76.21-1.48.5-2.12.88-1.46.85-2.22,2.03-2.19,3.21v4.05c0,.14.01.28.04.43-1.78,1.05-3.56,2.11-5.34,3.16-.83-1.03-1.31-2.18-1.37-3.37Z"/>
            <path class="cls-30" d="M134.3,123.6c.01.34-.04.67-.17,1-.39,1.05-1.06,1.67-2.01,2.23-2.32,1.37-6.06,1.75-9.14.65h0c.33-.27.53-.71.47-1.27-.14-1.39-1.88-2.84-2.66-2.8-.08,0-.16.03-.22.06-.38.22-.76.45-1.14.67-.02-.15-.04-.29-.04-.43v-4.05c.03.9.52,1.8,1.53,2.58,2.64,2.04,7.88,2.38,11.2.44,1.4-.82,2.15-1.92,2.18-3.05v3.96Z"/>
            <path class="cls-5" d="M113.21,127.83s0,0,0,0c-.02.01-.04.03-.06.04-.14.08-.28.18-.42.28v-4.21c.06,1.19.54,2.33,1.37,3.37-.3.17-.59.35-.88.52Z"/>
          </g>
          <g class="cls-31">
            <path class="cls-36" d="M280.4,103.78c-.6.9-1.39,1.39-2.47.97-.99-.39-1.75-.03-2.58.45-9.49,5.49-19.01,10.94-28.49,16.44-3.58,2.08-7.44,3.26-11.49,3.91-1.94.31-3.89.6-5.85.65-3.98.11-12.03-.73-16.99-3.4.66.09.99.09,1.29.18,3.87,1.12,7.83,1.75,11.84,1.65,6.41-.16,12.67-1.29,18.47-4.15,2.94-1.45,5.71-3.23,8.56-4.87,8.53-4.93,17.05-9.87,25.57-14.8.23-.13.48-.21.87-.39.44,1.15.87,2.27,1.3,3.4l-.04-.04Z"/>
            <path class="cls-36" d="M204.39,124.22c.27.7.5,1.3.79,2.04-.49.19-.96.55-1.3.45-1.05-.3-1.78.26-2.57.72-21.4,12.34-42.83,24.64-64.19,37.05-4.06,2.36-8.2,4.33-12.84,5.21-4.41.84-8.82.99-13.27.42-1.81-.23-3.62-.44-5.71-1.26,1.9.16,3.42.17,4.9.44,3.79.69,7.61.49,11.28-.32,4.63-1.03,9.21-2.25,13.43-4.73,16.73-9.81,33.57-19.43,50.37-29.12,5.93-3.42,11.85-6.84,17.77-10.26.39-.23.82-.4,1.33-.64Z"/>
            <path class="cls-36" d="M244.27,80.2c.4,1.31.74,2.39,1.06,3.45-1.05,1.25-2.22.98-3.44.48-2.69,1.54-5.36,3.07-8.03,4.61-6.79,3.92-13.59,7.84-20.37,11.77-1,.58-2.02,1.16-2.9,1.9-1.37,1.14-2.58,2.46-3.01,4.32-.56-2.79.34-5.07,2.52-6.67,1.91-1.4,3.99-2.57,6.05-3.76,9.07-5.25,18.15-10.48,27.23-15.71.21-.12.45-.2.88-.38Z"/>
            <path class="cls-36" d="M140.93,126.19c0,1.44.13,2.88-.03,4.3-.18,1.56-1.13,2.77-2.31,3.82-2.22,1.96-4.92,2.81-7.73,3.39-1.95.4-3.91.46-6,.21-.28-2.03-.11-3.99-.09-6.03,2.52.04,4.89.07,7.18-.55,1.59-.44,3.16-.98,4.65-1.68,1.63-.76,2.98-1.95,3.93-3.55.13.03.27.07.4.1Z"/>
            <path class="cls-36" d="M116.53,131.73c-1.4.38-1.87,1.26-1.91,2.53-.07,2.92-1.55,4.99-4.04,6.41-3.11,1.78-6.2,3.61-9.32,5.38-2.84,1.61-5.57,3.32-6.94,6.53-.04-1.88.81-3.37,2.05-4.57,1.09-1.05,2.32-1.99,3.62-2.77,3.53-2.12,7.12-4.13,10.69-6.18.23-.13.47-.25.7-.39,1.71-1.07,1.79-1.39.71-3.22.61-.95,1.24-1.95,1.9-2.94.75-1.12,1.69-2.02,2.88-2.69,2.14-1.2,4.25-2.45,6.54-3.77.35.69.66,1.29,1.01,1.99-1.73,1.05-3.35,2.03-5.07,3.07.94,2.28,1.82,4.41,2.75,6.67-1.46.13-2.65-.42-3.77-1.07-.33-.19-.48-.76-.62-1.19-.42-1.25-.8-2.51-1.2-3.78Z"/>
            <path class="cls-36" d="M245.33,83.6v-3.61c.63-.38,1.36-.83,2.1-1.26,2.98-1.73,5.95-3.48,8.95-5.18,1.56-.88,3.17-1.66,3.83-3.69,1.01,2.96.19,5.27-2.33,6.79-1.7,1.03-3.44,1.99-5.17,2.98-2.24,1.29-4.48,2.57-6.73,3.85-.1.06-.25.04-.65.1Z"/>
            <path class="cls-36" d="M279.16,103.86c.69-1.19.19-2.44.12-3.74,1.16-.68,2.29-1.35,3.43-2,2.58-1.49,5.16-2.99,7.75-4.46,1.53-.87,3.15-1.63,3.81-3.61,1,2.38.48,4.54-1.38,5.99-.73.57-1.53,1.04-2.33,1.5-3.14,1.84-6.29,3.67-9.46,5.47-.61.35-1.32.54-1.98.81l.04.04Z"/>
            <path class="cls-36" d="M134.17,120.41c.56.36,1.04.59,1.44.93,1.66,1.4,1.63,3.4-.07,4.76-1.17.94-2.57,1.38-4,1.7-.71.16-1.45.19-2.18.21-1.18.03-2.36,0-3.66,0v-3.85c3.21-.3,6.55-.45,8.47-3.76Z"/>
          </g>
        </g>
        <g>
          <path class="cls-29" d="M417.87,190.47c8.21-3.53,17.68-.12,18.87,4.15.32,1.17.08,2.54-.55,3.62-.62,1.08-1.61,1.85-2.72,2.45-7.95,4.3-18.72,1.07-20.01-3.59-.33-1.17-.08-2.55.54-3.62.84-1.44,2.34-2.35,3.87-3.01Z"/>
          <path class="cls-33" d="M439.44,197.91c0-1.79-.75-3.46-1.94-4.78-6.8-7.84-26.75-5.09-26.75,4.78,0,3.22-.03,3.23.09,3.92.73,4.15,6.14,6.33,10.31,7.04,5.94.89,10.67-.14,14.09-2.1,1.79-1.02,3.05-2.16,3.83-4.04.47-1.13.38-1.57.38-4.82ZM436.19,198.24c-1.21,2.09-4.09,3.28-6.42,3.88-8.31,2.13-18.39-2.04-16.18-7.75.01-.05.09-.28.12-.31.67-1.73,2.46-2.85,4.16-3.59,8.21-3.53,17.68-.12,18.87,4.15.32,1.17.08,2.54-.55,3.62Z"/>
          <path class="cls-29" d="M411.5,209.2c.32,1.17.08,2.55-.55,3.62-.61,1.08-1.61,1.85-2.72,2.45-7.91,4.29-18.71,1.1-20.01-3.59-.32-1.17-.08-2.54.55-3.62.83-1.44,2.34-2.35,3.87-3,8.2-3.54,17.68-.12,18.86,4.14Z"/>
          <path class="cls-29" d="M411.32,179.95c.32,1.17.08,2.55-.55,3.62-2.68,4.63-14.52,6.29-20.51,1.78-1-.76-1.9-1.74-2.23-2.92-.33-1.17-.08-2.54.54-3.62.84-1.44,2.33-2.35,3.87-3,8.21-3.54,17.68-.12,18.87,4.14Z"/>
          <path class="cls-33" d="M414.2,212.48c0-4.04-3.65-7.03-7.53-8.26-1.76-.61-4.34-1.03-6.02-1.03-2.06-.07-3.66.11-5.42.45-.01,0-.03.01-.04.01-3.12.71-4.66,1.54-6.47,2.86-2.35,1.95-3.21,4-3.21,5.97v3c0,1.18.5,2.36,1.21,3.33,3.81,5.18,16,6.74,23.29,2.54,1.79-1.03,3.03-2.17,3.82-4.04.47-1.15.38-1.55.38-4.83ZM410.95,212.81c-.61,1.08-1.61,1.85-2.72,2.45-7.91,4.29-18.71,1.1-20.01-3.59-.32-1.17-.08-2.54.55-3.62.83-1.44,2.33-2.35,3.87-3,8.2-3.54,17.68-.12,18.86,4.14.32,1.17.08,2.55-.55,3.62Z"/>
          <path class="cls-33" d="M414.03,183.23c0-3.83-3.24-6.64-6.85-8.03-4.61-1.71-9.96-1.66-14.08-.29-2.53.74-5.54,2.59-6.82,4.92-.55.9-.93,2.25-.93,3.15,0,.13-.01-.37-.01,3.25,0,6.61,13.48,10.97,23.35,6.46.01,0,.01-.01.01-.01,2.39-1.13,4.23-2.55,5.06-4.97.37-1.11.27-1.61.27-4.48ZM410.78,183.57c-2.68,4.63-14.52,6.3-20.51,1.78-1-.76-1.9-1.74-2.23-2.92-.33-1.17-.08-2.54.54-3.62.84-1.44,2.34-2.35,3.87-3,8.21-3.54,17.68-.12,18.87,4.14.32,1.17.08,2.55-.55,3.62Z"/>
          <path class="cls-29" d="M386.08,194.53c.32,1.17.08,2.54-.55,3.62-2.6,4.5-14.38,6.39-20.5,1.76-1.01-.76-1.92-1.73-2.24-2.92-.32-1.17-.08-2.54.55-3.62.83-1.43,2.34-2.34,3.87-3,6.04-2.6,13.14-1.4,16.63,1.24,1.01.75,1.92,1.73,2.24,2.92Z"/>
          <path class="cls-29" d="M367.03,161.13c8.11-3.49,17.64-.19,18.87,4.14.32,1.18.08,2.55-.55,3.63-2.66,4.59-14.47,6.32-20.51,1.76-1-.76-1.9-1.73-2.23-2.92-.33-1.17-.08-2.54.54-3.62.84-1.43,2.34-2.34,3.87-3Z"/>
          <path class="cls-33" d="M388.78,197.81c0-4.59-4.51-7.64-9.06-8.72-4.45-1.08-9.47-.69-13.21.87-3.41,1.42-6.41,4.15-6.41,7.84v3c0,1.17.49,2.35,1.21,3.31,1.44,1.96,3.98,3.23,6.28,3.95,8.06,2.4,15.98.17,19.09-2.94.67-.59,1.41-1.62,1.84-2.78,0-.11.13-.16.25-1.17,0,0,.02.16.02-3.38ZM385.53,198.15c-2.6,4.5-14.38,6.39-20.5,1.76-1.01-.76-1.92-1.73-2.24-2.92-.32-1.17-.08-2.54.55-3.62.83-1.43,2.34-2.33,3.87-3,2.76-1.14,5.43-1.57,7.95-1.44,3.04.07,7.11,1.14,9.29,3.19.08.05.14.12.19.18.01,0,.02.01.03.02.52.53.95,1.05,1.25,1.78.45.98.42,2.63-.4,4.05Z"/>
          <path class="cls-33" d="M384.86,162.17h-.01c-4.39-3.06-11.08-3.64-16.28-2.22-4.28,1.07-8.65,4.16-8.65,8.61,0,1.69-.07,3.45.15,4.12.43,1.72,1.45,2.92,2.88,3.99h.01c7.3,5.15,19.81,3.61,24.17-1.47.55-.61,1.16-1.65,1.32-2.45.21-.75.15-1.15.15-4.19,0-2.65-1.61-4.91-3.74-6.39ZM385.36,168.9c-2.66,4.59-14.47,6.32-20.51,1.76-1-.76-1.9-1.73-2.23-2.92-.33-1.17-.08-2.54.54-3.62,2.45-4.17,13.26-6.41,19.86-2.21,1.12.65,2.52,1.98,2.88,3.35.32,1.18.08,2.55-.55,3.63Z"/>
          <path class="cls-29" d="M360.49,150.61c.32,1.17.08,2.54-.55,3.62-2.6,4.51-14.38,6.4-20.51,1.76-1-.75-1.9-1.73-2.23-2.91-.33-1.17-.08-2.55.54-3.62.84-1.44,2.34-2.35,3.87-3.01,8.2-3.52,17.68-.13,18.87,4.15Z"/>
          <path class="cls-29" d="M341.8,175.7c8.2-3.53,17.69-.12,18.86,4.15.32,1.17.08,2.54-.55,3.62-2.6,4.51-14.38,6.4-20.5,1.76-1.01-.75-1.92-1.73-2.24-2.91-.32-1.17-.08-2.55.55-3.62.83-1.44,2.34-2.35,3.87-3.01Z"/>
          <path class="cls-18" d="M454.1,198.24c-.11,0-86.85-50.23-87.84-50.73-13.88-7.99-13.68-7.8-13.68-7.8-2.02-.76-4.55-1.02-7.2-.38-.11,0-1.35.39-1.58.55-.26,0-46.35,26.77-46.79,26.99-.48.32-2.2,1.03-3.01,2.06-.77.91-.92,1.98-.6,2.77.05.14.09.29.2.45.01.02.02.05.04.08,0,.01.01.02.02.03,0,.01.01.03.02.04,0,.01.02.02.03.03h0v.02s.03.05.05.08c.01.02.02.04.05.06.03.06.08.13.14.18,0,.02.02.03.04.05h.01s.01.03.03.04c-.01.01,0,.02.01.02h.01s.03.03.04.05c.01.03.03.05.05.06.02.03.05.06.09.09.01.01.02.02.03.02h0s.01.02.01.02h.01c.48.48,101.12,58.72,102.02,59.02.11.03.65.26.82.29,3.07.88,5.83.64,8.03-.32.12-.12,48.05-27.36,49.8-28.91,0,0,.18-.21.18-.22.37-.47.26-.41.36-.51.14-.21.36-.79.36-1.33,0-1.19-.81-2.18-1.78-2.82ZM395.88,174.24c.6-.14,2.25-.3,2.61-.3,2.81-.15,5.8.2,8.67,1.27,3.62,1.39,6.85,4.21,6.85,8.03,0,2.86.1,3.37-.27,4.48-.83,2.43-2.67,3.84-5.06,4.97,0,0,0,.01-.01.01-9.88,4.52-23.35.19-23.35-6.46,0-3.62.01-2.93.01-3.25,0-.9.37-2.24.93-3.15,1.7-3.09,6.21-5.16,9.61-5.6ZM380,159.97c4.35,1.17,8.61,4.15,8.61,8.6v3c0,2.15-1.45,3.97-3.22,5.21-.23.19-.9.57-1.18.73-3.58,2.01-9.26,3.03-14.69,1.88-.97-.18-1.44-.37-1.51-.37-2.13-.59-3.66-1.37-5.05-2.35h-.01c-1.05-.79-1.95-1.7-2.5-2.88-.31-.62-.48-1.46-.48-1.59-.07-.48-.05-.32-.05-3.64,0-2,.9-3.79,2.31-5.19,4.2-4.2,12.05-4.96,17.77-3.41ZM334.5,153.89c0-3.27,2.36-5.79,5.24-7.3,6.69-3.49,17.91-2.53,22.05,3.19.89,1.23,1.4,2.63,1.4,4.11,0,3.25.1,3.69-.38,4.82-.4.95-1.04,1.86-1.44,2.23-.47.52-1.57,1.38-1.94,1.54-.14.1-.29.18-.44.27-.01.01-.02.01-.03.01-7.41,4.41-20.21,2.36-23.45-2.82-.56-.78-1.01-1.95-1.01-3.05v-3ZM330.63,178.68c-6.23,2.23-16.67.95-20.23-3.95-.01,0-.01-.01-.01-.02-.51-.69-.88-1.47-1.04-2.32-.12-.69-.09-.88-.09-3.93,0-3.25,2.34-5.77,5.25-7.29,6.66-3.48,16.85-2.34,21.11,2.1,1.4,1.4,2.32,3.17,2.32,5.19,0,1.42.02,2.32,0,3,0,1.46-.81,3.01-1.71,3.92-.05.09-.14.17-.23.25-1.05,1.24-3.8,2.58-5.38,3.06ZM359.17,191.99c-7.29,4.21-19.48,2.65-23.29-2.54-.71-.96-1.21-2.14-1.21-3.31,0-1.89-.04-3.55.09-4.01.17-1.5,1.16-3.11,2.22-4.16h.01c5.1-5.1,17.06-5.7,23.3-.71,1.32,1.06,2.49,2.64,2.88,4.33.28,1.12.19,1.8.19,4.56.01,2.51-1.94,4.55-4.2,5.85ZM378.51,208.77c-.79.12-2.03.29-2.83.29-4.77.27-11.57-1.1-14.39-4.93-.71-.97-1.21-2.14-1.21-3.31v-3c0-3.69,3.01-6.43,6.41-7.84,3.74-1.57,8.77-1.95,13.21-.87,4.58,1.09,9.06,4.16,9.06,8.72,0,3.54-.02,3.37-.02,3.38-.11,1.02-.25,1.07-.25,1.17-.44,1.16-1.16,2.18-1.84,2.78-1.38,1.38-4.37,3.04-8.16,3.63ZM413.82,217.31c-.79,1.86-2.03,3-3.82,4.04-7.29,4.2-19.48,2.64-23.29-2.54-.71-.97-1.21-2.14-1.21-3.33v-3c0-1.44.49-2.91,1.43-4.13.06-.12.15-.23.25-.32,1.03-1.32,2.91-2.75,5.47-3.66.58-.24,1.86-.57,2.53-.72.11,0,2.25-.58,5.47-.46,1.65,0,4.24.42,6.02,1.03,3.88,1.23,7.53,4.23,7.53,8.26,0,3.28.1,3.68-.38,4.83ZM439.07,202.73c-.79,1.87-2.04,3.01-3.83,4.04-9,5.14-24.48,1.55-24.48-5.85v-3c0-1.62.58-3.07,1.53-4.29,4.25-5.5,15.01-6.37,21.54-3.2,3.08,1.5,5.62,4.13,5.62,7.49s.1,3.69-.38,4.82Z"/>
          <path class="cls-33" d="M363.34,182.62c-.08-1.38-.77-3.07-2.06-4.41-.43-.51-1.41-1.31-1.56-1.39-6.99-4.81-18.1-3.49-22.74,1.14h-.01c-1,1-1.94,2.49-2.17,3.9-.18.71-.13,1.85-.13,4.28,0,1.17.49,2.36,1.21,3.31,3.81,5.19,16,6.75,23.29,2.54,2.26-1.3,4.21-3.35,4.2-5.85,0-3.21,0-3.02-.02-3.52ZM360.11,183.47c-2.6,4.51-14.38,6.4-20.5,1.76-1.01-.75-1.92-1.73-2.24-2.91-.32-1.17-.08-2.55.55-3.62.83-1.44,2.34-2.35,3.87-3.01,4.08-1.78,9.06-1.75,12.2-.81,1.21.32,2.66.92,3.37,1.38.41.18,1.51.96,1.94,1.43.26.21.79.87,1.01,1.31.69,1.18.67,2.95-.2,4.45Z"/>
          <path class="cls-33" d="M363.19,153.89c0-1.49-.51-2.88-1.4-4.11-4.14-5.71-15.36-6.67-22.05-3.19-2.88,1.51-5.24,4.02-5.24,7.3v3c0,1.1.46,2.27,1.01,3.05.21.34.77,1.03,1.17,1.37,4.03,3.7,11.89,4.56,17.36,3.31,2.33-.44,5.79-1.95,7.33-3.68.49-.49,1.05-1.31,1.44-2.23.47-1.13.38-1.57.38-4.82ZM359.94,154.22c-2.6,4.51-14.38,6.4-20.51,1.76-1-.75-1.9-1.73-2.23-2.91-.33-1.17-.08-2.55.54-3.62.84-1.44,2.33-2.35,3.87-3.01,8.2-3.52,17.68-.13,18.87,4.15.32,1.17.08,2.54-.55,3.62Z"/>
          <path class="cls-29" d="M335.25,165.18c.32,1.17.08,2.54-.55,3.62-2.6,4.51-14.38,6.4-20.5,1.76-1-.75-1.92-1.73-2.24-2.91-.32-1.17-.08-2.54.55-3.62.83-1.44,2.34-2.35,3.87-3,8.2-3.54,17.68-.12,18.86,4.14Z"/>
          <path class="cls-33" d="M337.95,168.46c0-2.75-1.75-5.07-4-6.57-8.79-5.65-24.69-2.16-24.69,6.57v3c0,1.19.42,2.3,1.13,3.25,0,.01,0,.02.01.02,1.18,1.62,3.01,2.69,4.84,3.45,3.28,1.38,7.53,1.79,11.13,1.41,2.72-.33,4.79-.89,7.31-2.24.71-.36,2.1-1.37,2.56-1.98.72-.72,1.38-1.95,1.6-2.92h0c.16-.75.11-1.61.11-4ZM334.7,168.79c-2.6,4.51-14.38,6.4-20.5,1.76-1-.75-1.92-1.73-2.24-2.91-.32-1.17-.08-2.54.55-3.62.83-1.44,2.34-2.35,3.87-3,8.2-3.54,17.68-.12,18.86,4.14.32,1.17.08,2.54-.55,3.62Z"/>
          <path class="cls-17" d="M455.88,202.84c0,.95-.58,2.14-2.21,3.07l-47.62,27.49c-2.94,1.7-7.68,1.71-10.64,0l-99.98-57.72c-1.21-.7-2.22-1.78-2.21-3.08,0-1.13-.01-1.56-.01-1.67.05.14-.03.6.38,1.22.01.02.02.05.04.08,0,.01.01.02.02.03,0,.01.01.03.02.04,0,.01.02.02.03.03h0v.02s.03.05.05.08c.01.02.02.04.05.06.03.06.08.13.14.18,0,.02.02.03.04.05h.01s.01.03.03.04c-.01.01,0,.02.01.02.01.02.03.04.05.05.01.03.03.05.05.06.02.03.05.06.09.09.01.01.02.02.03.02h0s.01.02.01.02h.01c.81.81,99.43,57.68,99.55,57.68.45.18,2.29,1.44,3.29,1.64.11.03.27.11.46.13.14.06.7.18.83.18,0,0,0,.01.01.01.94.21,2.84.33,4.32.05.67-.11,1.25-.27,1.36-.3,1.61-.4,50.18-28.71,50.4-28.88.25-.19.57-.53.73-.75.01-.01.02-.02.02-.04.04-.04.09-.1.12-.15.1-.14.24-.43.24-.43.31-.47.25-2.2.25.67Z"/>
          <path class="cls-22" d="M372.07,179.4v-2.29c2.77-.65,5.42-1.14,7.99-1.9,2.46-.73,4.68-2.04,6.25-4.13.82-1.09,1.36-2.39,2.02-3.6,2.57,1.82,3.06,3.85,1.6,6.42-1.09,1.93-2.83,3.07-4.77,3.93-3.76,1.65-8.34,2.19-13.08,1.56Z"/>
          <path class="cls-22" d="M320.99,176.87c1.29-.21,2.3-.39,3.33-.53,2.98-.4,5.77-1.32,8.32-2.94,2.06-1.31,3.64-2.96,4.21-5.42.07-.32.33-.59.52-.9,3.08,2.78,3.27,5.27.5,8.03-.97.97-2.13,1.85-3.36,2.42-4.21,1.94-8.64,2.44-13.35,1.79-.05-.81-.1-1.47-.16-2.46Z"/>
          <path class="cls-22" d="M414.05,211.48c2.99,2.52,3.21,5.22.68,7.89-2.46,2.6-5.69,3.73-9.09,4.16-2.48.31-5.02.06-7.83.06-.04-.8-.07-1.6-.11-2.38,4.34-.85,6.66-.76,12.01-3.74,1.8-1,3-2.61,3.69-4.59.16-.47.42-.91.64-1.4Z"/>
          <path class="cls-22" d="M362.64,181.63c3.25,2.79,3.54,5.75.81,8.31-4.31,4.02-10.82,4.86-16.71,4.28-.06-.82-.11-1.63-.18-2.58,1.38-.22,2.6-.29,3.74-.62,2.41-.71,4.89-1.35,7.15-2.41,2.8-1.31,4.77-3.51,5.2-6.98Z"/>
          <path class="cls-22" d="M346.63,164.78v-2.37c.27-.14.48-.31.71-.36,2.3-.51,4.65-.83,6.88-1.54,1.64-.52,3.17-1.45,4.65-2.36,2.1-1.3,3.14-3.39,3.73-5.76,3.11,2.56,3.32,5.34.72,8.11-1.35,1.44-3.01,2.36-4.85,3.02-3.76,1.34-7.62,1.66-11.84,1.26Z"/>
          <path class="cls-22" d="M372.27,208.92c.07-1.04.11-1.8.14-2.26,3.23-.91,6.28-1.59,9.21-2.62,3.48-1.24,5.84-3.69,6.67-7.43,2.78,1.92,3.31,4.47,1.56,7.13-1.43,2.17-3.63,3.24-5.92,4.09-3.66,1.35-7.46,1.45-11.65,1.1Z"/>
          <path class="cls-22" d="M413.53,181.68c3.3,2.88,3.47,5.57.91,8.32-2.4,2.57-5.56,3.61-8.84,4.08-2.46.36-5.02.07-7.74.07v-2.42c4.74-.94,9.27-1.38,12.67-4.41,1.58-1.4,2.91-3.03,3-5.63Z"/>
          <path class="cls-22" d="M423.25,209.07c.06-1.11.1-1.85.14-2.7,1.61-.23,3.12-.25,4.49-.68,2.31-.73,4.67-1.5,6.78-2.68,2.97-1.66,3.76-3.07,4.57-6.32,2.62,1.62,3.46,4.37,1.77,6.76-2.12,3-6.58,5.58-12.4,5.61-1.65,0-3.3,0-5.35,0Z"/>
        </g>
        <g>
          <g>
            <path class="cls-8" d="M107.32,255.92c1.49,1.94,3.5,3.42,5.59,4.63l252.58,145.9c2.93,1.7,6.09,2.9,9.5,3.63,3.26.69,6.73,1.08,10.22,1.09,6.96.03,14.02-1.42,19.74-4.73l120.19-69.42c3.39-1.96,7.08-5.34,7.96-9.16.15-.64.21-1.29.21-1.94v17.92c.01,4.93-3.81,8.88-8.17,11.39l-120.19,69.43c-2.93,1.69-6.09,2.9-9.5,3.62-9.75,2.09-21.37,1.34-29.96-3.62l-252.58-145.91c-1.09-.64-2.16-1.34-3.17-2.16-2.74-2.17-4.99-5.82-4.99-9.32h-.01v-18.14h.01c.07,2.41,1.08,4.83,2.57,6.78Z"/>
            <path class="cls-4" d="M475.2,371.46c.77-.44,1.46-.51,2-.25.6.28.97.96.97,1.97v1.28c0,1.9-1.34,4.21-2.97,5.14l-20.33,11.74c-.82.48-1.56.52-2.09.21-.55-.31-.88-.97-.88-1.92v-1.29c0-1.89,1.34-4.19,2.97-5.13l20.33-11.75Z"/>
            <path class="cls-4" d="M430.08,397.2c2.83-2.88,5.55-1.73,5.47,1.24-.12,4.46-4.54,8.81-6.93,7.32-.32-.2-.59-.49-.83-.89-.4-.69-.41-1.54-.32-2.36.12-.98.41-1.93.84-2.81,0,0,0-.01.01-.01.23-.35.44-.71.63-1.09.33-.51.71-.97,1.13-1.4Z"/>
            <path class="cls-40" d="M112.23,254.81c2.08,2.5,3.74,3.17,11,7.41.13.08,246.14,142.24,247.42,142.86,4.18,2.04,9.38,3.06,14.58,3.06l-.03,3.04c-3.49-.01-6.96-.4-10.22-1.09-3.41-.73-6.57-1.93-9.5-3.63l-252.58-145.9c-2.09-1.21-4.1-2.69-5.59-4.63-1.49-1.94-2.5-4.37-2.57-6.78-.04-.76.03-1.5.2-2.24.89-3.82,4.56-7.2,7.96-9.16l120.19-69.42c5.72-3.3,12.77-4.74,19.73-4.73l-.03,3.04c-2.57,0-5.2.25-7.77.8-5.2,1.1-7.72,2.69-11.59,5.01-3.93,2.36,8.93-5.23-45.11,25.98-8.79,5.09-17.55,10.26-26.34,15.34-8.79,5.07-17.63,10.05-26.41,15.19-3.66,2.14-7.3,4.31-10.98,6.39-4.3,2.42-8.3,4.54-10.35,6.18-4.58,3.67-5.77,8.77-2.02,13.29Z"/>
            <g>
              <polygon class="cls-46" points="172.83 304.81 174.85 303.65 152.69 290.85 150.67 292.01 172.83 304.81"/>
              <polygon class="cls-39" points="174.85 306.45 174.85 303.65 172.83 304.81 172.83 307.61 174.85 306.45"/>
              <polygon class="cls-3" points="172.83 307.61 172.83 304.81 150.67 292.01 150.67 294.81 172.83 307.61"/>
            </g>
            <path class="cls-4" d="M417.11,409.01h0c.43-.25.78-.84.78-1.32h0c0-.48-.35-.66-.78-.42h0c-.43.25-.78.84-.78,1.32h0c0,.48.35.66.78.42Z"/>
            <g>
              <path class="cls-4" d="M518.69,354.54h0c.66-.38,1.21-1.3,1.21-2.04v-5.76c0-.74-.54-1.03-1.21-.65h0c-.66.38-1.21,1.3-1.21,2.04v5.76c0,.74.54,1.03,1.21.65Z"/>
              <path class="cls-4" d="M513.85,357.33h0c.66-.38,1.21-1.3,1.21-2.04v-5.76c0-.74-.54-1.03-1.21-.65h0c-.67.38-1.21,1.3-1.21,2.04v5.76c0,.74.54,1.03,1.21.65Z"/>
              <path class="cls-4" d="M509.02,360.12h0c.67-.38,1.21-1.3,1.21-2.04v-5.76c0-.74-.54-1.03-1.21-.65h0c-.66.38-1.21,1.3-1.21,2.04v5.76c0,.74.54,1.03,1.21.65Z"/>
              <path class="cls-4" d="M504.18,362.92h0c.66-.38,1.21-1.3,1.21-2.04v-5.76c0-.74-.54-1.03-1.21-.65h0c-.66.38-1.21,1.3-1.21,2.04v5.76c0,.74.54,1.03,1.21.65Z"/>
              <path class="cls-4" d="M499.35,365.71h0c.66-.38,1.21-1.3,1.21-2.04v-5.76c0-.74-.54-1.03-1.21-.65h0c-.67.38-1.21,1.3-1.21,2.04v5.76c0,.74.54,1.03,1.21.65Z"/>
              <path class="cls-4" d="M494.51,368.5h0c.66-.38,1.21-1.3,1.21-2.04v-5.76c0-.74-.54-1.03-1.21-.65h0c-.67.38-1.21,1.3-1.21,2.04v5.76c0,.74.54,1.03,1.21.65Z"/>
            </g>
            <path class="cls-40" d="M525.13,337.03l-120.19,69.42c-5.72,3.3-12.79,4.75-19.74,4.73l.03-3.04c4.63,0,9.29-.82,13.24-2.48,2.33-.97,4.06-2.09,6.13-3.33,3.92-2.36-8.93,5.23,45.11-25.98,8.79-5.09,17.55-10.26,26.34-15.33,8.81-5.07,17.64-10.05,26.41-15.19,3.66-2.14,7.3-4.31,10.99-6.39,7.28-4.1,10.71-5.7,12.96-8.93,2.94-4.23,2.26-9.82-5-14.12-.28-.17-252.87-146.12-254.01-146.68-4-1.94-9.18-3.06-14.59-3.06l.03-3.04c3.49.01,6.96.4,10.23,1.09,3.41.73,6.57,1.93,9.51,3.63l252.57,145.9c2.1,1.21,4.1,2.69,5.6,4.63,1.56,2.02,2.57,4.57,2.57,7.07,0,.65-.07,1.3-.21,1.94-.88,3.82-4.56,7.2-7.96,9.16Z"/>
            <g>
              <path class="cls-40" d="M272.04,172.38c-2.93-1.7-4.57-2.64-4.66-2.68-4-1.95-9.17-3.06-14.59-3.06-2.56,0-5.2.26-7.77.81-5.2,1.1-7.72,2.68-11.58,5-3.64,2.19,7.22-4.22-34.78,20.01l-10.34,5.97c-8.79,5.09-17.55,10.26-26.33,15.34-2.41,1.39-4.82,2.77-7.24,4.15-6.39,3.67-12.81,7.31-19.18,11.04-3.65,2.15-7.3,4.32-10.97,6.39-4.29,2.43-8.3,4.54-10.35,6.18-4.57,3.67-5.78,8.77-2.03,13.28,2.08,2.5,3.74,3.17,11.01,7.42l106.83,61.71c66.62,38.49,139.89,80.8,140.6,81.15,4.17,2.04,9.38,3.06,14.57,3.06,4.62,0,9.28-.83,13.23-2.48,2.33-.97,4.07-2.09,6.13-3.33,3.93-2.36-8.92,5.23,45.13-25.98,8.79-5.09,17.55-10.26,26.34-15.34,8.8-5.07,17.64-10.05,26.42-15.19,3.64-2.14,7.3-4.32,10.97-6.39,7.29-4.1,10.71-5.7,12.96-8.94,2.84-4.07,2.31-9.39-4.19-13.61-.26-.18-.53-.35-.82-.51-.25-.16-214.78-124.13-249.35-144.01Z"/>
              <path class="cls-44" d="M522.21,316.9c6.5,4.22,7.02,9.54,4.19,13.61-2.25,3.24-5.67,4.84-12.96,8.94-3.68,2.07-7.33,4.25-10.97,6.39-8.78,5.14-17.62,10.11-26.42,15.19-8.79,5.08-17.55,10.25-26.34,15.34-54.05,31.21-41.2,23.62-45.13,25.98-2.06,1.24-3.8,2.36-6.13,3.33-8.45,3.53-20,3.24-27.8-.59-1.17-.57-215.08-124.17-247.43-142.86-7.26-4.25-8.92-4.91-11.01-7.42-3.75-4.51-2.54-9.61,2.03-13.28,2.49-1.99,4.66-2.77,21.32-12.57,4.97-2.91,65.06-37.63,67.33-38.94,37.01-21.34,27.03-15.44,30.54-17.56,3.86-2.32,6.38-3.9,11.58-5,7.96-1.7,16.5-.59,22.36,2.26.16.07-6.69-3.88,254.82,147.19Z"/>
            </g>
            <g>
              <path class="cls-27" d="M193.47,201.95c1.09-.64,2.85-.64,3.94,0l1.46.84-26.75,15.45c-1.09.64-2.86.63-3.95,0l-1.45-.84,26.75-15.45Z"/>
              <path class="cls-41" d="M197.41,199.22l1.85,1.06c1.1.64,1.08,1.65,0,2.28l-.39.23-1.46-.84c-1.09-.64-2.85-.64-3.94,0l-26.75,15.45-.39-.23c-.53-.31-.81-.72-.83-1.12v-.03c0-.41.28-.82.83-1.13l27.14-15.68c1.09-.64,2.86-.63,3.94,0Z"/>
            </g>
          </g>
          <g class="cls-7">
            <path class="cls-40" d="M220.83,231.09l-54.78,31.64c-1.78,1.03-4.66,1.03-6.44,0h0c-1.78-1.03-1.78-2.69,0-3.72l54.78-31.64c1.78-1.03,4.66-1.03,6.44,0h0c1.78,1.03,1.78,2.69,0,3.72Z"/>
            <path class="cls-40" d="M217.16,248.09l-38.23,22.08c-1.78,1.03-4.66,1.03-6.44,0h0c-1.78-1.03-1.78-2.69,0-3.72l38.23-22.08c1.78-1.03,4.66-1.03,6.44,0h0c1.78,1.03,1.78,2.69,0,3.72Z"/>
            <path class="cls-40" d="M230.05,255.53l-38.23,22.08c-1.78,1.03-4.66,1.03-6.44,0h0c-1.78-1.03-1.78-2.69,0-3.72l38.23-22.08c1.78-1.03,4.66-1.03,6.44,0h0c1.78,1.03,1.78,2.69,0,3.72Z"/>
          </g>
          <g class="cls-7">
            <path class="cls-40" d="M327.69,215.47l-54.78,31.64c-1.78,1.03-4.66,1.03-6.44,0h0c-1.78-1.03-1.78-2.69,0-3.72l54.78-31.64c1.78-1.03,4.66-1.03,6.44,0h0c1.78,1.03,1.78,2.69,0,3.72Z"/>
            <path class="cls-40" d="M324.03,232.47l-38.23,22.08c-1.78,1.03-4.66,1.03-6.44,0h0c-1.78-1.03-1.78-2.69,0-3.72l38.23-22.08c1.78-1.03,4.66-1.03,6.44,0h0c1.78,1.03,1.78,2.69,0,3.72Z"/>
            <path class="cls-40" d="M336.91,239.91l-38.23,22.08c-1.78,1.03-4.66,1.03-6.44,0h0c-1.78-1.03-1.78-2.69,0-3.72l38.23-22.08c1.78-1.03,4.66-1.03,6.44,0h0c1.78,1.03,1.78,2.69,0,3.72Z"/>
          </g>
          <g class="cls-7">
            <path class="cls-40" d="M305.01,284.23l-54.78,31.64c-1.78,1.03-4.66,1.03-6.44,0h0c-1.78-1.03-1.78-2.69,0-3.72l54.78-31.64c1.78-1.03,4.66-1.03,6.44,0h0c1.78,1.03,1.78,2.69,0,3.72Z"/>
            <path class="cls-40" d="M301.34,301.23l-38.23,22.08c-1.78,1.03-4.66,1.03-6.44,0h0c-1.78-1.03-1.78-2.69,0-3.72l38.23-22.08c1.78-1.03,4.66-1.03,6.44,0h0c1.78,1.03,1.78,2.69,0,3.72Z"/>
            <path class="cls-40" d="M314.23,308.67l-38.23,22.08c-1.78,1.03-4.66,1.03-6.44,0h0c-1.78-1.03-1.78-2.69,0-3.72l38.23-22.08c1.78-1.03,4.66-1.03,6.44,0h0c1.78,1.03,1.78,2.69,0,3.72Z"/>
          </g>
          <path class="cls-6" d="M276.52,279.42l-37.96,21.93c-3.32,1.92-8.69,1.92-12.01,0l-21.65-12.51c-3.32-1.92-3.32-5.02,0-6.94l37.96-21.93c3.32-1.92,8.69-1.92,12.01,0l21.65,12.51c3.32,1.92,3.32,5.02,0,6.94Z"/>
          <g class="cls-7">
            <path class="cls-40" d="M417.17,269l-54.78,31.64c-1.78,1.03-4.66,1.03-6.44,0h0c-1.78-1.03-1.78-2.69,0-3.72l54.78-31.64c1.78-1.03,4.66-1.03,6.44,0h0c1.78,1.03,1.78,2.69,0,3.72Z"/>
            <path class="cls-40" d="M413.5,286l-38.23,22.08c-1.78,1.03-4.66,1.03-6.44,0h0c-1.78-1.03-1.78-2.69,0-3.72l38.23-22.08c1.78-1.03,4.66-1.03,6.44,0h0c1.78,1.03,1.78,2.69,0,3.72Z"/>
            <path class="cls-40" d="M426.38,293.44l-38.23,22.08c-1.78,1.03-4.66,1.03-6.44,0h0c-1.78-1.03-1.78-2.69,0-3.72l38.23-22.08c1.78-1.03,4.66-1.03,6.44,0h0c1.78,1.03,1.78,2.69,0,3.72Z"/>
          </g>
          <path class="cls-6" d="M366,332.94l-37.96,21.93c-3.32,1.92-8.69,1.92-12.01,0l-21.65-12.51c-3.32-1.92-3.32-5.02,0-6.94l37.96-21.93c3.32-1.92,8.69-1.92,12.01,0l21.65,12.51c3.32,1.92,3.32,5.02,0,6.94Z"/>
          <path class="cls-6" d="M391.25,264.97l-37.96,21.93c-3.32,1.92-8.69,1.92-12.01,0l-21.65-12.51c-3.32-1.92-3.32-5.02,0-6.94l37.96-21.93c3.32-1.92,8.69-1.92,12.01,0l21.65,12.51c3.32,1.92,3.32,5.02,0,6.94Z"/>
          <g class="cls-7">
            <path class="cls-40" d="M405.42,339.37l-54.78,31.64c-1.78,1.03-4.66,1.03-6.44,0h0c-1.78-1.03-1.78-2.69,0-3.72l54.78-31.64c1.78-1.03,4.66-1.03,6.44,0h0c1.78,1.03,1.78,2.69,0,3.72Z"/>
            <path class="cls-40" d="M401.75,356.37l-38.23,22.08c-1.78,1.03-4.66,1.03-6.44,0h0c-1.78-1.03-1.78-2.69,0-3.72l38.23-22.08c1.78-1.03,4.66-1.03,6.44,0h0c1.78,1.03,1.78,2.69,0,3.72Z"/>
            <path class="cls-40" d="M414.63,363.81l-38.23,22.08c-1.78,1.03-4.66,1.03-6.44,0h0c-1.78-1.03-1.78-2.69,0-3.72l38.23-22.08c1.78-1.03,4.66-1.03,6.44,0h0c1.78,1.03,1.78,2.69,0,3.72Z"/>
          </g>
          <path class="cls-6" d="M491.66,320.11l-37.96,21.93c-3.32,1.92-8.69,1.92-12.01,0l-21.65-12.51c-3.32-1.92-3.32-5.02,0-6.94l37.96-21.93c3.32-1.92,8.69-1.92,12.01,0l21.65,12.51c3.32,1.92,3.32,5.02,0,6.94Z"/>
          <path class="cls-6" d="M299.2,211.79l-37.96,21.93c-3.32,1.92-8.69,1.92-12.01,0l-21.65-12.51c-3.32-1.92-3.32-5.02,0-6.94l37.96-21.93c3.32-1.92,8.69-1.92,12.01,0l21.65,12.51c3.32,1.92,3.32,5.02,0,6.94Z"/>
          <g>
            <path class="cls-32" d="M442.66,348.74c-1.36-2.42-5.13-4.08-7.92-4.63-3.63-.71-7.27-.07-9.88,1.43-2.01,1.16-3.02,2.49-3.02,3.99v1.7c0,2.04,2.01,3.59,3.78,4.61,2.48,1.44,6.11,2.29,9.75,1.79,2.72-.38,6.17-1.74,7.4-4.16.23-.46.35-.92.35-1.39v-1.7c0-.54-.15-1.09-.46-1.64ZM434.46,342.01l14.74,8.51,1.81-1.04v-1.7l-3.68-2.13,8.49,1.05,2.23-1.29v-1.7l-11.17-1.28c.09-3.55.08-2.5.08-4.65l-2.34,1.35c0,2.14,0,1.04.04,4.97l-8.39-4.84-1.81,1.04v1.7ZM465.05,360.47c-10.65,7.03-27.06,8.23-39.58,4.93-6.04-1.59-12.83-4.7-16.71-9.61-4.27-5.41-3.99-11.36-.02-16.35,9.76-12.34,37.96-15.33,54.74-5.7,0,0,.01,0,.02.01,2.57,1.48,4.98,3.31,6.82,5.65,5.95,7.52,2.91,15.67-5.27,21.07Z"/>
            <g>
              <path class="cls-42" d="M398.2,345.6c1.85,2.34,4.26,4.17,6.84,5.65,11.53,6.62,28.69,7.36,41.45,2.91,4.91-1.71,10.06-4.52,13.28-8.6,1.88-2.37,3.07-5.07,3.08-8.16h0v8.81h0c0,7.14-6.39,12.42-12.9,15.39-12.3,5.61-29.7,5.61-42.02-.03-6.5-2.98-12.85-8.25-12.85-15.37v-8.77h0c0,3.06,1.26,5.83,3.1,8.16Z"/>
              <polygon class="cls-25" points="447.49 333.52 447.49 335.22 445.25 336.51 445.25 334.81 447.49 333.52"/>
              <polygon class="cls-25" points="445.25 334.81 445.25 336.51 436.76 335.46 436.26 335.17 436.26 333.69 445.25 334.81"/>
              <polygon class="cls-25" points="440.45 337.59 440.45 339.29 438.64 340.33 438.64 338.63 440.45 337.59"/>
              <polygon class="cls-25" points="438.64 338.63 438.64 340.33 423.9 331.82 423.9 330.12 438.64 338.63"/>
              <path class="cls-43" d="M440.45,337.59l-1.81,1.04-14.74-8.51,1.81-1.04,8.39,4.84s.03.4-.04-4.97l2.34-1.35-.12,4.65c.9.08-3.15-.36,11.21,1.28l-2.23,1.29-8.99-1.12-.05,1.45c.08.05.37.21,4.23,2.45Z"/>
              <path class="cls-28" d="M432.1,338.55c-1.36-2.42-5.13-4.08-7.92-4.63-3.63-.71-7.27-.07-9.88,1.43-2.01,1.16-3.02,2.49-3.02,3.99v1.7c0,2.04,2.01,3.59,3.78,4.61,2.48,1.44,6.11,2.29,9.75,1.79,2.72-.38,6.17-1.74,7.4-4.16.23-.46.35-.92.35-1.39v-1.7c0-.54-.15-1.09-.46-1.64ZM423.9,331.82l14.74,8.51,1.81-1.04v-1.7l-3.68-2.13,8.49,1.05,2.23-1.29v-1.7l-11.17-1.28c.09-3.55.08-2.5.08-4.65l-2.34,1.35c0,2.14,0,1.04.04,4.97l-8.39-4.84-1.81,1.04v1.7ZM454.49,350.28c-10.65,7.03-27.06,8.23-39.58,4.93-6.04-1.59-12.83-4.7-16.71-9.61-4.27-5.41-3.99-11.36-.02-16.35,9.76-12.34,37.96-15.33,54.74-5.7,0,0,.01,0,.02.01,2.57,1.48,4.98,3.31,6.82,5.65,5.95,7.53,2.91,15.67-5.27,21.07Z"/>
              <path class="cls-43" d="M429.95,340.5c.07-1.6-1.59-2.84-2.98-3.64-3.99-2.31-8.26-2.11-10.98-.55-1.38.8-2.1,1.76-2.14,2.88-.06,1.5,1.95,2.85,3.25,3.61,3.74,2.15,8.02,1.99,10.76.4,1.07-.61,2.03-1.48,2.08-2.71ZM432.57,340.19c0,1.69-1.53,3.13-3.02,3.98-4.25,2.45-10.32,2.19-14.48-.22-1.77-1.02-3.78-2.57-3.78-4.61,0-1.5,1.01-2.83,3.02-3.99,4.08-2.36,10-2.35,14.69.35,1.66.96,3.57,2.55,3.57,4.48Z"/>
              <path class="cls-28" d="M426.97,338.57c1.53.88,2.47,1.78,2.82,2.69-.98,2.55-7.09,4.77-12.68,1.55-1.67-.97-2.7-1.89-3.08-2.76,1.02-2.64,7.06-4.88,12.94-1.48Z"/>
              <path class="cls-25" d="M429.95,340.23c.03.31-.02.69-.15,1.04-.35-.91-1.29-1.81-2.82-2.69-5.86-3.4-11.92-1.17-12.94,1.48-.13-.29-.19-.57-.18-.84.05-1.12.76-2.08,2.14-2.88,2.72-1.57,6.99-1.76,10.98.55,1.9,1.09,2.89,2.22,2.97,3.36Z"/>
              <path class="cls-25" d="M415.07,343.95c4.13,2.39,10.2,2.69,14.48.22,1.48-.86,3.02-2.29,3.02-3.98v1.7c0,.47-.12.93-.35,1.39-1.22,2.42-4.67,3.79-7.4,4.16-3.62.5-7.25-.34-9.75-1.79-1.77-1.02-3.78-2.57-3.78-4.61v-1.7c0,2.04,2.01,3.58,3.78,4.61Z"/>
            </g>
          </g>
        </g>
        <g>
          <path class="cls-28" d="M335.79,211.04c.01,4.67-3.63,8.39-7.7,10.75-39.19,22.63-70.81,40.88-83.83,48.39-2.77,1.6-5.76,2.74-8.96,3.42-8.23,1.77-18.07,1.36-25.66-2.1-2.65-1.16-15.17-8.66-37.38-21.39h0c-2.83-1.64-.81-.47-9.8-5.66h0c-.32-.19-8.18-4.72-8.38-4.84-.9-.52-1.92-1.2-2.87-1.95-2.64-2.06-4.84-5.51-4.84-8.8v-26.09h.02c.01,3.91,2.6,7.81,7.69,10.75l52.96,30.57c5.65,3.26,12.69,4.59,19.55,4.43,7.89-.17,13.49-2.02,17.68-4.43,74.17-42.82,19.3-11.15,83.83-48.39,5.15-2.98,7.69-6.87,7.69-10.74h.01v26.08Z"/>
          <path class="cls-30" d="M314.86,199.03l-4.56,2.64c.03-.27.06-.54.1-.8-.14-.08-4.57-2.64-4.69-2.71-.28,2.21-.55,4.42-.83,6.63l-5.68,3.28v-18.09c5.22,3.01,10.45,6.03,15.67,9.05Z"/>
          <path class="cls-28" d="M304.87,204.79c.28-2.21.55-4.42.83-6.63.52.3,1.03.59,1.55.89-.19,1.57-.39,3.13-.58,4.7l-1.8,1.03Z"/>
          <path class="cls-15" d="M309.06,232.78c-.84,5.83-1.69,11.68-2.53,17.51l-1.8-1.03c.73-5.09,1.47-10.17,2.21-15.26l2.12-1.22Z"/>
          <path class="cls-38" d="M304.73,249.25l1.8,1.03c-1.56.9-3.13,1.81-4.69,2.71.11-.75.22-1.51.32-2.26.86-.5,1.72-.99,2.57-1.48Z"/>
          <path class="cls-28" d="M302.16,250.74c.73-5.09,1.46-10.17,2.21-15.26l2.57-1.49c-.73,5.09-1.47,10.17-2.21,15.26-.85.49-1.71.99-2.57,1.48Z"/>
          <path class="cls-38" d="M299.19,189.98v-2.07l17.46,10.07-1.8,1.04c-5.22-3.02-10.45-6.04-15.67-9.05Z"/>
          <path class="cls-24" d="M299.19,208.07l-6.48,3.74c0-1.3.08-2.48-.4-3.64-.31-.74-.84-1.43-1.51-1.85-.02-.01-2.92-1.69-3.73-2.15-.93-.55-2.51-.65-4.15.22,0-20.29.06-19.27-.16-20.51,3.41-.56,6.89-1.62,9.82-3.33,4.42-2.56,6.61-5.89,6.61-9.21v36.73Z"/>
          <path class="cls-38" d="M294.06,257.48c-1.56.9-3.13,1.81-4.69,2.71.11-.75.22-1.51.32-2.26.86-.5,1.72-.99,2.57-1.49l1.8,1.03Z"/>
          <path class="cls-15" d="M292.26,256.45c.26-1.77,1.81-12.51,2.21-15.26l2.12-1.22c-.84,5.83-1.69,11.68-2.53,17.51l-1.8-1.03Z"/>
          <path class="cls-24" d="M290.41,252.93c.5-3.41.99-6.83,1.48-10.26l2.57-1.48c-.5,3.48-1,6.95-1.51,10.42-.85.48-1.39.81-2.55,1.32Z"/>
          <path class="cls-28" d="M292.26,256.45c-.85.5-1.71.99-2.57,1.49.25-1.67.48-3.34.72-5,1.16-.51,1.77-.88,2.55-1.32-.23,1.61-.46,3.23-.7,4.84Z"/>
          <path class="cls-45" d="M290.15,163.64c0-.05.01-.13-.01-.15h-.01c0-2.08.03-2.11-.05-2.6,11.06,4.75,12.25,14.03,2.51,19.67-2.94,1.7-6.41,2.77-9.82,3.33-.3-1.73-1.01-3.52-2.01-5.11,1.87-.34,3.79-.97,5.43-1.92,1.68-.97,2.86-2.03,3.59-3.8.47-1.11.39-1.38.39-9.1,0-.11.01-.26,0-.27,0,0-.01.05-.01-.04Z"/>
          <path class="cls-14" d="M289.77,171.73s0-.16,0-.27c.01-.12,0,.41,0-2.93,0-4.84-.03-3.51.18-4.51.01-.08.02-.13.04-.22.03-.06.06-.14.06-.17-.01-.02-.03-.03,0-.08.09-.28.06-.46.06,7.17-.03.3-.08.3-.15.67-.04.22-.12.34-.11.38.01.02.03.03,0,.09-.02.03-.05.08-.08.06-.03-.02,0-.22-.02-.19Z"/>
          <path class="cls-14" d="M288.1,173.98c-.09-.57.04-1.68,0-2.2-.01-.08,0-4.18,0-4.2,0-.95.3-.95.72-1.47.1-.11.2-.27.28-.27.26.02.06,1.88.11,2.42.02.26,0,1.9,0,3.29.01.99.04,1.32-.11,1.62-.14.29-.4.48-.61.75-.22.28-.33.41-.39.04Z"/>
          <path class="cls-38" d="M275.9,221.52h-.01v-5.56c0-2.16.79-4.5,1.89-6.39h0c1.18-2.09,2.94-4.08,5.13-5.18,1.64-.86,3.22-.76,4.15-.22,1.14.65,2.28,1.31,3.42,1.98-1.64-.75-3.87.3-4.35.66-3.6,2.08-6.53,7.1-6.53,11.3v5.56l-3.71-2.15Z"/>
          <path class="cls-14" d="M285.32,175.82c-.06-.34.02-.76-.01-2.69-.03-1.95.04-2.35.01-2.99-.03-.42-.13-1.02.15-1.39.15-.2.45-.33.7-.47.32-.18.61-.4.75-.33.2.09.14.81.12,1.37-.02.76.04,2.16.01,3.05-.01.48-.04,1-.01,1.51.02.28.06.55.03.84-.06.63-.34.72-.88,1.02-.5.28-.8.57-.87.1Z"/>
          <path class="cls-45" d="M286.18,167.15c-8.79,4.92-23,1.24-23-5.36,0-.99.29-2.02.8-2.86.72-1.23,1.88-2.11,3.12-2.81,5.77-3.25,14.29-2.84,19.23.1,5.03,2.96,5.17,7.86-.15,10.93Z"/>
          <path class="cls-19" d="M285.08,211.63c.67-.68,1.32-1.07,1.9-1.21h0c.6,2.34-1.45,6-3.81,6.6h-.01c-.34-1.13.13-3.61,1.92-5.39Z"/>
          <path class="cls-28" d="M285.08,211.63c-1.78,1.78-2.26,4.26-1.92,5.39.04.15.11.29.18.42,1.5,2.61,5.77-1.02,5.88-4.87.06-2.23-1.97-3.15-4.14-.94ZM279.61,218.11c0-4.2,2.93-9.22,6.53-11.3l.04-.03c1.24-.72,2.97-1.23,4.3-.62.86.43,1.46,1.18,1.82,2.02.52,1.26.4,2.08.4,7.93l-13.1,7.56v-5.56Z"/>
          <path class="cls-19" d="M283.18,217.02c2.36-.59,4.41-4.26,3.81-6.59h0c1.31-.32,2.28.58,2.24,2.13-.11,3.85-4.38,7.49-5.88,4.87-.08-.13-.14-.27-.18-.42h.01Z"/>
          <path class="cls-14" d="M281.67,175.91c0-5.59-.02-3.96-.01-4.49.01-.23.03-.45.02-.68-.01-.13-.03-.26,0-.39.07-.38.45-.47.73-.55.55-.13,1.08-.43,1.31-.27.22.15.14.77.13,1.42,0,5.59.02,3.96.01,4.49-.01.23-.03.45-.02.68.02.25.05.44-.13.65-.17.19-.38.23-.6.29-.71.17-1.33.6-1.44.02-.04-.26-.01-.85,0-1.17Z"/>
          <path class="cls-24" d="M281.99,248.4c-.33,2.34-.67,4.67-1.01,6.99-.81.1-1.6.16-2.39.19.28-1.9.56-3.81.83-5.71l2.57-1.47Z"/>
          <path class="cls-15" d="M284.11,247.17c-.84,5.83-1.69,11.68-2.53,17.51l-1.8-1.03c.02-.11,2.21-15.15,2.21-15.26l2.12-1.22Z"/>
          <path class="cls-38" d="M281.58,264.68c-1.56.9-3.13,1.81-4.69,2.71.11-.75.22-1.51.32-2.26.86-.5,1.72-.99,2.57-1.49l1.8,1.03Z"/>
          <path class="cls-14" d="M279.92,177.56c-.7-.95-1.51-1.78-2.38-2.45,0-2.92-.04-2.51-.02-3.03.01-.28.03-.55.02-.85-.01-.12-.02-.25.01-.36.05-.15.19-.29.43-.34.29-.06.56,0,1.08-.09.24-.04.56-.12.76.05.2.16.15.4.14.6-.03.29.02.23-.01,1.58-.02,1.07.04,2.06.02,2.87-.01.39-.05.75-.01,1.15.02.29.09.6-.04.86Z"/>
          <path class="cls-28" d="M277.21,265.13c.46-3.17.93-6.36,1.38-9.54.79-.03,1.58-.1,2.39-.19-.4,2.75-.8,5.51-1.19,8.25-.85.5-1.71.99-2.57,1.49Z"/>
          <path class="cls-14" d="M273.31,170.88c0-.16,0-.3.17-.42.25-.16.51-.03,1.57.04.19.01.36.01.52.15.18.16.17.3.16.52-.01.14,0-.3,0,2.78l-2.42-1.4c0-.09.01-1.54,0-1.67Z"/>
          <path class="cls-45" d="M273.15,184.21c-5.84-.53-13.61-2.89-17.07-7.5-1.25-1.67-2.1-3.72-1.98-5.95l14.24,8.22c1.92,1.1,3.63,3.03,4.82,5.23h-.01Z"/>
          <path class="cls-14" d="M271.6,171.56l-2.18-1.26c0-.42-.02-.56.04-.67.15-.26.55-.09.88.02.71.23.99.22,1.17.52.11.16.09.26.08.44,0,.18.01.01.01.95Z"/>
          <path class="cls-28" d="M269.52,255.6c-.73,5.08-1.46,10.17-2.2,15.25-.86.5-1.72.99-2.58,1.48.73-5.08,1.47-10.17,2.21-15.25l2.57-1.48Z"/>
          <path class="cls-15" d="M271.64,254.37c-.84,5.83-1.68,11.68-2.53,17.52l-1.79-1.04c.73-5.08,1.46-10.17,2.2-15.25l2.12-1.23Z"/>
          <path class="cls-38" d="M269.11,271.89c-1.56.89-3.13,1.8-4.69,2.7.11-.75.22-1.51.32-2.26.86-.5,1.72-.99,2.58-1.48l1.79,1.04Z"/>
          <path class="cls-14" d="M266.27,168c.12-.15.3-.03.45.06.14.08.24.13.36.2.58.33.63.34.75.53.16.25.12.42.12.67l-1.72-1c0-.16-.03-.36.04-.46Z"/>
          <path class="cls-24" d="M256.08,176.71c3.45,4.61,11.22,6.97,17.07,7.5h.01c1.05,1.95,1.7,4.1,1.7,6.07v22.38l1.36.77c-.44,1.75-.32,2.49-.32,8.08l-21.58,12.46v-25.85l-.24-.52v-36.27c.02,1.89.84,3.82,2,5.37Z"/>
          <path class="cls-14" d="M264.97,166.7c.24.34.19.7.19,1.14l-1.11-.65c0-.24.01-.46.01-.7-.02-.35-.07-.81.2-.59,0,.01.69.78.7.8Z"/>
          <path class="cls-28" d="M330.36,183.24c-.67-2.87-3.44-5.42-6-6.9l-37.24-21.5-15.72-9.08c-8.18-4.71-21.41-4.82-29.79,0l-7.35,4.24c13.15,7.6,7.71,4.46,23.95,13.83,1.5-1.23,3.23-2.2,4.98-2.95h.06c.38-2.23,1.89-3.66,3.84-4.77,5.77-3.25,14.29-2.84,19.23.1,1.76,1.03,3.42,2.64,3.74,4.67,6.04,2.59,9.11,6.52,9.11,10.46v16.57l17.46,10.07,7.7-4.44c1.58-.91,3.09-2.02,4.23-3.5,1.47-1.93,2.31-4.47,1.78-6.8Z"/>
          <path class="cls-24" d="M288.1,171.78c.04.52-.09,1.62,0,2.2.05.37.17.24.39-.04.22-.27.47-.46.61-.75.15-.3.12-.63.11-1.62,0-1.39.02-3.03,0-3.29-.04-.54.15-2.4-.11-2.42-.08,0-.18.16-.28.27-.42.53-.72.53-.72,1.47,0,.02-.01,4.12,0,4.2ZM285.32,175.82c.08.47.38.18.87-.1.54-.3.82-.39.88-1.02.03-.29-.01-.56-.03-.84-.03-.51,0-1.02.01-1.51.03-.88-.03-2.28-.01-3.05.02-.56.09-1.28-.12-1.37-.14-.06-.43.15-.75.33-.25.14-.55.27-.7.47-.28.37-.18.97-.15,1.39.03.65-.04,1.04-.01,2.99.03,1.93-.05,2.35.01,2.69ZM281.67,175.91c-.01.32-.04.91,0,1.17.11.58.73.15,1.44-.02.23-.06.43-.1.6-.29.18-.2.15-.4.13-.65-.01-.23.01-.45.02-.68.01-.45-.01.97-.01-4.49.01-.65.09-1.27-.13-1.42-.24-.16-.76.14-1.31.27-.33.09-.66.18-.73.55-.03.13-.01.26,0,.39,0,.17-.01,5.06-.01,5.17ZM263.17,163.5s-.03-.01-.03,0v-1.71h.04c0,6.33,13.89,10.46,23,5.36,2.42-1.4,3.78-3.24,3.95-5.14,0,2,.02,1.32-.06,1.56-.03.04-.01.05,0,.08,0,.03-.03.11-.06.17-.02.09-.03.14-.04.22-.22,1-.18-.33-.18,4.51,0,3.34.01,2.81,0,2.93,0,.11-.01.27,0,.27.03-.03-.01.18.02.19.02.01.05-.03.08-.06.03-.05.01-.06,0-.09-.01-.04.07-.16.11-.38.08-.37.12-.37.15-.67,0,.83.03,1.4-.36,2.32-.73,1.76-1.92,2.83-3.59,3.8-1.65.95-3.56,1.57-5.43,1.92-.25-.42-.53-.82-.83-1.21.13-.26.06-.57.04-.86-.04-.4,0-.76.01-1.15.02-.82-.04-1.81-.02-2.87.03-1.36-.02-1.29.01-1.58.01-.2.06-.44-.14-.6-.2-.17-.53-.1-.76-.05-.52.09-.79.02-1.08.09-.24.05-.38.19-.43.34-.03.11-.02.24-.01.36.01.3-.01.57-.02.85-.02.53.02.12.02,3.03-.73-.57-1-.7-1.81-1.16,0-3.08-.01-2.64,0-2.78.01-.22.02-.36-.16-.52-.16-.14-.32-.14-.52-.15-1.07-.08-1.32-.2-1.57-.04-.17.12-.17.26-.17.42.01.13,0,1.58,0,1.67l-1.71-.99c0-.94-.01-.76-.01-.95.01-.18.03-.28-.08-.44-.18-.3-.46-.29-1.17-.52-.33-.11-.73-.28-.88-.02-.06.11-.04.25-.04.67l-1.46-.84c0-.25.04-.42-.12-.67-.12-.18-.17-.19-.75-.53-.12-.08-.22-.13-.36-.2-.15-.1-.33-.22-.45-.06-.08.11-.04.3-.04.46l-1.07-.61c0-.67.05-.91-.41-1.38,0,0-.48-.55-.48-.56-.27-.22-.23.24-.2.59,0,.24-.01.46-.01.7l-.56-.32c0-1.79.05-2.1-.17-2.82-.1-.32-.09-.37-.11-.42-.01-.03-.03-.06-.03-.1,0-.02,0-.03-.01-.04Z"/>
          <path class="cls-14" d="M263.14,163.5s.02-.01.03,0c.01.01.01.02.01.04,0,.03.02.06.03.1.02.05.01.1.11.42.23.72.17,1.03.17,2.82l-.36-.2v-3.17Z"/>
          <path class="cls-45" d="M263.11,166.66l-4.9-2.83c1.5-1.23,3.23-2.2,4.98-2.95h.06c-.14.99-.01.9-.12.9v1.71s-.02.03-.02.06c0,.19-.01-.72-.01,3.1Z"/>
          <path class="cls-28" d="M257.05,262.8c-.73,5.08-1.46,10.17-2.2,15.25-.86.49-1.72.99-2.57,1.48h-.01c.74-5.08,1.47-10.17,2.21-15.25l2.57-1.48Z"/>
          <path class="cls-15" d="M259.17,261.57c-.84,5.83-1.68,11.68-2.53,17.52l-1.79-1.04c.73-5.08,1.46-10.17,2.2-15.25l2.12-1.23Z"/>
          <path class="cls-30" d="M254.08,200.47v7.15l-3.07-6.6c.95-.25,1.98-.44,3.07-.55Z"/>
          <path class="cls-38" d="M256.64,279.09c-1.56.9-3.12,1.81-4.69,2.7.11-.75.22-1.51.32-2.26h.01c.85-.5,1.71-.99,2.57-1.48l1.79,1.04Z"/>
          <polygon class="cls-47" points="251.31 211.14 251.31 226.92 220.76 231.66 220.76 215.86 251.31 211.14"/>
          <path class="cls-13" d="M217.76,213.79l36.55-5.66v25.85l-13.78,7.95c-6.53,3.79-15.84,4.33-22.78,2.7.05-.11.01.77.01-30.84ZM251.31,211.14l-30.55,4.72v15.8l30.55-4.73v-15.79Z"/>
          <path class="cls-38" d="M271.39,145.76c-8.17-4.71-21.41-4.82-29.79,0l-7.35,4.24-3.72-2.15,7.35-4.24c2.77-1.59,5.75-2.73,8.96-3.42,9.2-1.96,20.15-1.26,28.27,3.42l52.96,30.58c10.17,5.88,10.34,15.52,0,21.5l-35.37,20.41v-4.29c6.55-3.79,25.59-14.78,31.65-18.27,1.58-.91,3.09-2.02,4.23-3.5,1.47-1.93,2.31-4.47,1.78-6.8-.67-2.87-3.44-5.42-6-6.9-44.06-25.43-33.57-19.38-52.96-30.58Z"/>
          <path class="cls-30" d="M254.1,170.76l-1.33-.77c-3.25.39-6.5,1.28-9.36,2.92,1.92,15.55,1.97,15.86,1.97,15.96l-1.97-15.96c-11.28,6.51-22.57,13.01-33.83,19.53l15.26-2.36c-.09-.63-.16-1.27-.24-1.9.37-.21,4.32-2.48,4.69-2.7.16,1.28.32,2.56.47,3.84l14.76-2.28.85,1.83s0,0,0,.01l5.64,12.15c.95-.25,1.98-.44,3.07-.55,0-31.43-.01-29.11.02-29.71Z"/>
          <path class="cls-28" d="M229.29,185.47c.16,1.28.32,2.56.47,3.84l-1.64.26c-.13-1.08-.26-2.14-.39-3.21.52-.3,1.03-.59,1.55-.89Z"/>
          <polygon class="cls-38" points="226.21 154.65 207.23 165.61 207.23 161.31 222.49 152.5 226.21 154.65"/>
          <path class="cls-12" d="M217.76,213.79c0,31.61.04,30.73-.01,30.84-4.41-1.03-6.43-2.37-9.78-4.3v-46.97c.09-.04.16-.1.25-.14l9.54,20.57Z"/>
          <path class="cls-28" d="M214.47,288.46h-.01c-.86-.5-1.73-1-2.6-1.51-.74-5.15-1.49-10.3-2.23-15.45.83.38,1.68.71,2.54,1-.04.13,2.29,15.84,2.3,15.96Z"/>
          <path class="cls-38" d="M214.46,288.46h.01c.1.71.19,1.44.31,2.23-.66-.33-2.38-1.35-4.72-2.69l1.8-1.04c.87.51,1.74,1.01,2.6,1.51Z"/>
          <path class="cls-38" d="M275.9,221.52c-.11,0,.54-.3-35.37,20.41-3.25,1.89-7.63,3.38-14.01,3.55-2.95.08-5.93-.18-8.77-.85-4.43-1.03-6.4-2.35-9.78-4.3-2.56-1.48-47.87-27.63-50.19-28.97-2.93-1.7-5.97-4.62-6.17-8.02-.11-2.02.7-4.08,1.94-5.68,1.14-1.47,2.65-2.58,4.23-3.5l35.37-20.42-3.72-2.15-35.37,20.42c-10.36,5.98-10.15,15.64,0,21.5l52.96,30.57c5.65,3.26,12.69,4.59,19.55,4.43,7.9-.17,13.49-2.02,17.68-4.43l35.36-20.41-3.71-2.15Z"/>
          <path class="cls-15" d="M211.85,286.96l-1.8,1.04c-.84-5.84-1.68-11.69-2.53-17.53h.01c.68.38,1.38.72,2.09,1.03.74,5.15,1.49,10.3,2.23,15.45Z"/>
          <path class="cls-5" d="M244.52,187.03c9.7,20.87,9.73,20.97,9.79,21.1l-36.55,5.66c-11.17-24.07-9.41-20.28-9.79-21.11,14.27-2.2,31.02-4.79,36.55-5.65Z"/>
          <path class="cls-37" d="M207.97,192.68l.25.54c-.09.04-.16.1-.25.14v-.68Z"/>
          <polygon class="cls-30" points="207.97 225.18 207.97 240.33 194.84 232.75 207.97 225.18"/>
          <path class="cls-38" d="M243.4,172.9c-11.28,6.51-22.57,13.01-33.83,19.53l-1.6.25v.68c-13.56,7.83-27.13,15.66-40.69,23.49l-1.8-1.04,76.12-43.95c2.72-1.57,5.92-2.56,9.05-3.09h.01l2.1,1.22c-3.25.39-6.5,1.28-9.36,2.92Z"/>
          <path class="cls-19" d="M207.23,167.68l-5.13,2.97v-22.38c0-2.65,1.26-4.12,2.59-4.54.82-.25,1.79-.12,2.67.19-.19.99-.13-.44-.13,23.76Z"/>
          <path class="cls-38" d="M207.04,221.65c-1.57.9-3.13,1.81-4.7,2.71-.08-.65-.16-1.29-.24-1.94,1.04-.6,2.1-1.21,3.14-1.81l1.8,1.03Z"/>
          <path class="cls-28" d="M204.34,199.87c.9,7.26,1.8,14.52,2.7,21.78l-1.8-1.03c-.82-6.62-1.64-13.24-2.45-19.85.52-.3,1.03-.59,1.55-.89Z"/>
          <path class="cls-19" d="M206.23,136.03c.34-.2.72-.32,1.13-.38,1.3-.16,2.34.17,3.49.83.6.35,63.23,36.52,65.54,37.85,2.76,1.57,5.65,5.42,6.37,9.56.23,1.27.16.31.16,20.51-2.2,1.1-3.95,3.09-5.13,5.17v-20.96c0-4.16-2.91-9.21-6.53-11.3-38.24-22.08-22.92-13.23-65.55-37.85-.69-.4-1.44-.73-2.25-.84-.8-.11-1.66,0-2.36.38,1.71-.99,3.42-1.97,5.13-2.96Z"/>
          <path class="cls-9" d="M200.3,169.61l-2.12-1.23c-.89-.06-1.37-.7-1.54-1.57-.36-1.81,1.02-4.46,2.54-5.62v-17.98c0-1.59.51-3.49,1.92-4.23.7-.38,1.56-.48,2.36-.38.81.11,1.56.44,2.25.84,42.56,24.56,27.46,15.85,65.55,37.85,3.63,2.09,6.53,7.13,6.53,11.3v20.96c0,.15-.99,1.46-1.57,3.88l-1.36-.77v-22.38c0-4.18-2.92-9.24-6.52-11.3-43.52-25.13,9.71,5.57-59.71-34.48-1.06-.64-2.69-1.15-3.94-.77-1.34.42-2.59,1.88-2.59,4.54v22.38l-1.79-1.03h-.01Z"/>
          <path class="cls-30" d="M202.09,170.65l5.13-2.97v-2.08l18.98-10.95c16.12,9.3,10.5,6.06,24.45,14.12-3.13.53-6.33,1.52-9.05,3.09l-76.12,43.95-7.7-4.44c-2.93-1.7-5.97-4.62-6.17-8.02v-.58c.04-1.82.81-3.64,1.94-5.1,1.14-1.47,2.65-2.58,4.23-3.5,41.18-23.78,32.98-19.05,42.53-24.55l1.79,1.03Z"/>
          <path class="cls-38" d="M202.29,283.5c-1.57-.9-3.13-1.81-4.69-2.7l1.79-1.04c.86.5,1.72.99,2.57,1.49h.01c.11.75.22,1.51.32,2.26Z"/>
          <path class="cls-28" d="M199.38,279.76c-.73-5.08-1.46-10.17-2.2-15.25l2.57,1.49c.73,5.08,1.46,10.17,2.21,15.25h-.01c-.85-.5-1.71-.99-2.57-1.49Z"/>
          <path class="cls-15" d="M199.38,279.76l-1.79,1.04c-.85-5.84-1.69-11.69-2.53-17.52l2.12,1.23c.73,5.08,1.46,10.17,2.2,15.25Z"/>
          <path class="cls-38" d="M195.99,154.71c.98-.57,2.1-.96,3.19-.88v3.37c-3.35,2.23-6.03,6.96-6.03,11v5.55l-3.72-2.15v-5.55c0-4.63,3.52-9.81,6.56-11.33Z"/>
          <path class="cls-30" d="M193.15,168.19c0-4.04,2.68-8.77,6.03-11v4c-1.52,1.16-2.89,3.81-2.54,5.62.17.87.65,1.51,1.54,1.57l2.12,1.23-7.15,4.13v-5.55Z"/>
          <path class="cls-28" d="M192.78,227.81c-.82-6.62-1.64-13.24-2.45-19.85.52-.3,1.03-.59,1.55-.89.9,7.26,1.8,14.52,2.7,21.78l-1.8-1.03Z"/>
          <path class="cls-38" d="M194.57,228.85c-1.09.62-2.17,1.25-3.25,1.87l-1.67-.96s-.01-.1-.02-.14c1.05-.6,2.09-1.21,3.14-1.81l1.8,1.03Z"/>
          <path class="cls-38" d="M189.82,276.3c-1.57-.9-3.13-1.81-4.69-2.71l1.79-1.03c.86.5,1.72.99,2.57,1.49h.01c.11.75.22,1.51.32,2.26Z"/>
          <path class="cls-28" d="M188.91,270.02c.18,1.35.38,2.69.58,4.02h-.01c-.85-.5-1.71-.99-2.57-1.49-.06-.43-.12-.85-.18-1.28l2.17-1.26h.01Z"/>
          <path class="cls-28" d="M187.29,258.78c.54,3.74,1.08,7.49,1.62,11.23h-.01l-2.17,1.26c-.67-4.65-1.35-9.32-2.01-13.98l2.57,1.48Z"/>
          <path class="cls-15" d="M185.12,273.59c-.85-5.83-1.69-11.68-2.53-17.51l2.12,1.22c.02.13,2.18,15.13,2.2,15.26l-1.79,1.03Z"/>
          <path class="cls-28" d="M177.85,215.17c.52-.31,1.03-.6,1.55-.9.43,3.44.85,6.88,1.28,10.31l-1.8-1.03c-.34-2.79-.69-5.58-1.03-8.37Z"/>
          <path class="cls-30" d="M207.04,221.65c-.9-7.26-1.8-14.52-2.7-21.78-.24.14-4.58,2.64-4.69,2.71.66,5.3,2.65,21.39,2.69,21.78,1.57-.9,3.13-1.81,4.7-2.71ZM174.71,216.98c.18,1.5.38,2.98.56,4.48l-7.98-4.61c13.56-7.83,27.13-15.66,40.69-23.49v31.82l-13.13,7.58-3.52-2.03c1.08-.62,2.16-1.25,3.25-1.87-.9-7.26-1.8-14.52-2.7-21.78-.12.07-4.55,2.63-4.69,2.71,2.64,21.4,2.5,19.8,2.35,19.91l-8.85-5.11c-.43-3.43-.85-6.87-1.28-10.31-.71.41-4.03,2.33-4.69,2.71Z"/>
          <path class="cls-38" d="M177.34,269.1c-1.57-.9-3.13-1.81-4.69-2.71l1.79-1.03c.86.49,1.72.99,2.58,1.48l.32,2.26Z"/>
          <path class="cls-28" d="M174.44,265.36c-.73-5.09-1.46-10.16-2.2-15.25l2.57,1.47c.73,5.09,1.47,10.18,2.21,15.26-.86-.5-1.72-.99-2.58-1.48Z"/>
          <path class="cls-15" d="M172.65,266.39c-.85-5.83-1.69-11.68-2.53-17.51l2.12,1.22c0,.11-.12-.82,2.2,15.26l-1.79,1.03Z"/>
          <path class="cls-28" d="M162.96,248.65c.53,3.67,1.07,7.33,1.59,11-2.02-1.18-2.01-1.14-2.54-1.51-.27-1.87-.55-3.74-.82-5.62.59-.58,1.3-1.1,2.06-1.53l-.29-2.35Z"/>
          <path class="cls-30" d="M163.25,250.99c-.75.43-1.46.95-2.06,1.53-.46-3.2-.93-6.4-1.39-9.6l2.54,1.46c.74,5.13.54,3.66.9,6.61Z"/>
          <path class="cls-15" d="M162.01,258.14l-1.81,1.04c-.84-5.83-1.68-11.65-2.53-17.49l2.13,1.23c2.86,19.78,1.85,12.75,2.21,15.22Z"/>
          <path class="cls-38" d="M162.01,258.14c.53.37.56.35,2.54,1.51.11.75.22,1.51.32,2.26-4.08-2.35-3.95-2.27-4.67-2.72l1.81-1.04Z"/>
          <path class="cls-30" d="M168.43,272.81c-5.71-3.29-10.23-8.53-11.47-15.06-1.17-6.17-2.34-12.33-3.51-18.5.28.19-.03,0,4.22,2.45.85,5.83,1.69,11.65,2.53,17.49.84.52.43.28,4.67,2.72-2.31-16.18-1.55-10.3-2.43-17.45l7.68,4.43c.84,5.83,1.68,11.68,2.53,17.51,1.56.9,3.12,1.81,4.69,2.71-.84-5.89-1.61-11.14-2.53-17.52l7.78,4.5c.84,5.83,1.68,11.68,2.53,17.51,1.56.9,3.12,1.81,4.69,2.71-.08-.57-1.26-8.66-2.53-17.52l7.78,4.5c.84,5.83,1.68,11.68,2.53,17.52,1.56.89,3.12,1.8,4.69,2.7-.32-2.23-.65-4.48-2.53-17.51,7.33,4.23,7.42,4.29,7.78,4.47h-.01c.85,5.85,1.69,11.7,2.53,17.54,2.33,1.33,4.08,2.37,4.72,2.69-.02-.11-2.65-18.08-2.61-18.19,9.4,3.28,22.92,2.99,32.09-2.32l10.22-5.9c-1.87,12.95-1.98,13.63-2.53,17.51,1.57-.89,3.13-1.8,4.69-2.7.85-5.84,1.69-11.69,2.53-17.52l7.78-4.49c-.9,6.25-1.71,11.77-2.53,17.51,1.56-.9,3.13-1.81,4.69-2.7.85-5.84,1.69-11.69,2.53-17.52l7.78-4.5c-.24,1.73-1.99,13.77-2.53,17.52,1.56-.9,3.13-1.81,4.69-2.71.84-5.83,1.69-11.68,2.53-17.51l7.78-4.5c-.02.12-2.12,14.65-2.53,17.52,1.56-.9,3.13-1.81,4.69-2.71.84-5.83,1.69-11.68,2.53-17.51l7.78-4.5c-.78,5.34-1.83,12.64-2.53,17.52,1.56-.9,3.13-1.81,4.69-2.71.84-5.83,1.69-11.68,2.53-17.51,20.61-11.9,19.32-11.15,19.63-11.35-1.17,6.17-2.34,12.33-3.51,18.5-1.23,6.47-5.69,11.73-11.47,15.06-26.64,15.39-53.29,30.76-79.93,46.15-4.7,2.72-11.54,2.73-16.28,0-16.35-9.45-32.7-18.89-49.06-28.33Z"/>
        </g>
        <g>
          <g>
            <path class="cls-12" d="M352.74,293.25c-13.97-2.17-13.56-1.99-13.97-2.32-.27-.23-.37-.57-.46-.91-.47-1.73-.5-2.39-.5-4.35,0-6.96,2.01-15.04,3.43-17.81.23-.45.49-.87.82-1.29.28-.36.54-.65,1-.59h0c15.87,2.44,13.68,2.1,13.88,2.13,6.24.97,10.79,6.34,10.79,12.59,0,8.24-7.67,14.01-15,12.54Z"/>
            <path class="cls-5" d="M329.48,263.87c4.53.7,9.06,1.4,13.59,2.11h0c-.46-.04-.72.24-1,.6-.33.43-.59.84-.82,1.29-1.43,2.77-3.43,10.84-3.43,17.81,0,1.96.03,2.62.5,4.35.09.33.19.68.46.91.11.09.25.17.4.2,0,.05-13.84-2.12-13.88-2.13-6.3-.97-10.79-6.39-10.79-12.59,0-8,7.26-13.94,14.98-12.55Z"/>
            <path class="cls-22" d="M365.68,273.86c2.04,2.19,2.52,6.25,1.85,9.66.38.15.78.35,1.2.45,1.87.47,3.67,1.1,5.27,2.19,4.08,2.77,4.08,6.16-.05,8.93-2.11,1.42-4.51,2.09-6.98,2.53-3.64.65-7.25.41-10.88-.2-7.93-1.33-20.97-3.11-29.12-4.72-2.41-.48-4.61-1.55-6.35-3.39-.28-.29-.64-.59-.74-.95-.44-1.54-1.39-2.73-2.43-4,.48.07.95.17,1.43.19.81.03,1.69.2,2.42-.03,2.28-.73,4.48-.1,6.69.22,8.14,1.2,19.4,3.09,22.65,3.48.66.08,1.41.08,2.02-.14,4.7-1.72,8.54-4.61,11.41-8.74,1.08-1.56,1.73-3.27,1.61-5.5Z"/>
          </g>
          <g>
            <path class="cls-38" d="M383.34,279.13h0c.16-.03.33-.01.48.04.28.1.48.34.66.58.31.43.58.84.81,1.3,1.41,2.74,3.41,10.83,3.41,17.76,0,1.96-.03,2.62-.49,4.34-.09.33-.18.67-.45.91-.15.14-.35.24-.55.24v.02c-4.51.69-9.02,1.4-13.53,2.09-.07.01-.14.03-.22.04-5.38.84-10.79-1.87-13.31-6.83-3.99-7.86,1.05-17.1,9.42-18.35.08-.03-.17.04,13.78-2.13Z"/>
            <path class="cls-30" d="M401.06,302.16c-4.62.72-9.24,1.43-13.86,2.15v-.02c.19,0,.4-.1.55-.24.27-.23.36-.57.45-.91.46-1.72.49-2.38.49-4.34,0-6.93-2-15.01-3.41-17.76-.23-.45-.5-.87-.81-1.3-.18-.24-.38-.48-.66-.58-.15-.06-.32-.07-.48-.03h0c4.61-.72,9.21-1.44,13.82-2.15.06,0,.11-.02.17-.03,5.36-.83,10.79,1.84,13.31,6.83,3.99,7.85-1.04,17.2-9.57,18.37Z"/>
            <path class="cls-22" d="M410.21,283.16c1.71,3.03,2.16,6.12,1.42,9.52,2.74.82,5.29,1.44,7.52,3.37,2.56,2.22,2.59,5.06-.02,7.22-2.42,2.01-5.33,2.91-8.38,3.39-9.43,1.48-18.84,3.02-28.29,4.35-2.65.37-5.4.13-8.1.04-.68-.02-8.26-.96-10.04-5.04-.52-1.42-1.26-2.66-2.69-3.65.42-.16.57-.28.68-.25,2.97.71,5.69-.16,8.36-1.32.53-.23,1.08-.45,1.53-.79,1.82-1.38,3.94-1.73,6.12-2.05,6.43-.95,12.84-1.98,19.26-2.98,1.02-.16,2.04-.37,3.07-.44,1.33-.09,2.4-.64,3.39-1.5,1.98-1.71,3.84-3.51,4.9-5.95.52-1.19.81-2.48,1.26-3.92Z"/>
          </g>
          <g>
            <path class="cls-30" d="M329.79,322.03c-14.4-8.31-9.05-5.25-10.3-5.94-2.03-1.26-2.65-4.01-2.48-6.59.46-6.9,6.05-14.38,11.32-15.77,1.38-.37,2.76-.33,3.93.3.06.03.11.06.16.09,3.28,1.89,6.54,3.78,9.82,5.67,3.98,2.14,6.65,6.42,6.65,11.2,0,9.77-10.6,15.94-19.11,11.03Z"/>
            <path class="cls-38" d="M309.46,310.29c-3.81-2.2-6.37-6.34-6.37-11.03,0-9.81,10.77-16.14,19.49-10.81,3.23,1.86,6.46,3.72,9.69,5.59-1.17-.63-2.55-.67-3.93-.3-5.28,1.39-10.86,8.87-11.32,15.77-.17,2.57.45,5.33,2.48,6.59-3.35-1.93-6.69-3.86-10.03-5.79Z"/>
            <path class="cls-22" d="M306.74,307.54c.39.17.81.3,1.17.51,5.94,3.42,11.93,6.75,17.79,10.31,2.17,1.32,4.29,1.5,6.58.87,5.25-1.44,9.45-4.44,12.69-8.78,1.19-1.59,1.85-3.43,2.08-5.66.34.41.59.61.7.88.89,2.02,1.42,4.12,1.13,6.35-.1.77.17,1.3.88,1.68,2.19,1.19,5.78,3.11,7.37,5.01,1.45,1.73,1.3,3.56-.18,5.32-1.22,1.46-2.84,2.38-4.59,2.99-6.21,2.16-12.42,2.19-18.56-.27-1.27-.51-2.46-1.24-3.66-1.93-5.84-3.36-11.68-6.72-17.5-10.12-1.04-.61-2-1.35-2.96-2.08-.31-.24-.56-.59-.76-.93-.74-1.32-.97-2.95-2.65-3.7.15-.15.31-.31.46-.46Z"/>
          </g>
          <g>
            <path class="cls-12" d="M356.33,313.41c3.24-3.49,8.79-2.49,12.86.2,4.16,2.75,7.38,7.62,7.38,12.28,0,2.25-.78,4.07-2.02,5.32h0c-2.4,2.4-4.79,4.8-7.2,7.2h0c-3.38,3.38-8.46,4.64-13.13,3.05-9.02-3.08-11.49-14.53-4.84-21.1,2.31-2.32,4.62-4.64,6.94-6.95h0Z"/>
            <path class="cls-5" d="M363.62,306.1c3.74-3.74,8.86-4.63,13.22-3.14,8.95,3.06,11.52,14.44,4.89,21.07-2.39,2.39-4.79,4.79-7.18,7.18h0c1.24-1.26,2.02-3.08,2.02-5.33,0-4.67-3.23-9.53-7.38-12.28-4.06-2.68-9.61-3.7-12.86-.2h0c2.43-2.44,4.86-4.87,7.3-7.3Z"/>
            <path class="cls-22" d="M348.41,337.42c4.99,1.13,8.9-.6,12.59-3,2.68-1.74,4.95-3.92,6.65-6.67.3-.48.69-.92,1.09-1.32,4.15-4.16,8.27-8.35,12.48-12.45,1.37-1.33,2.12-2.82,2.1-4.72,0-.2.06-.4.15-1,2.13,3.21,2.31,6.36,1.69,9.74.42.14.77.29,1.14.39,2.46.67,4.85,1.46,6.71,3.34,2.05,2.05,2.13,4.43.05,6.49-4.88,4.82-9.7,9.69-14.56,14.53-1.42,1.42-3.16,2.28-5.06,2.85-6.1,1.81-12.14,1.78-18.03-.8-1.23-.54-2.28-1.52-3.4-2.31-.18-.13-.36-.31-.45-.51-.39-.82-.65-1.73-1.15-2.48-.45-.68-1.15-1.21-2.01-2.07Z"/>
          </g>
        </g>
        <g>
          <path class="cls-5" d="M481.31,86.42v22c0,7.7-5.4,17.07-12.08,20.92-.94.54-1.88,1.08-2.82,1.63l-6.7,16.14-6.7-8.39c-.94.54-1.88,1.08-2.82,1.63-.27.16-.54.3-.81.43-3.01,1.51-5.72,1.57-7.73.41-.05-.03-.1-.06-.16-.09-2.09-1.3-3.38-3.97-3.38-7.72v-21.99c0-7.71,5.41-17.07,12.08-20.92,6.35-3.66,12.7-7.33,19.05-10.99,3.27-1.89,6.24-2.1,8.41-.92.04.02.09.05.13.07,2.19,1.26,3.54,3.97,3.54,7.82Z"/>
          <path class="cls-12" d="M431.85,135.51c-2.19-1.26-3.54-3.97-3.54-7.82v-22c0-7.7,5.4-17.07,12.08-20.92,6.35-3.66,12.7-7.33,19.04-11,3.34-1.93,6.36-2.1,8.54-.84,3.23,1.86,6.45,3.72,9.67,5.58-2.17-1.18-5.14-.97-8.41.92-6.35,3.66-12.7,7.33-19.05,10.99-6.67,3.85-12.08,13.22-12.08,20.92v21.99c0,3.76,1.29,6.43,3.38,7.72-3.21-1.85-6.43-3.7-9.64-5.56Z"/>
          <path class="cls-12" d="M453.01,138.7l6.7,8.39-9.8-5.66-.53-.67c.27-.13.54-.28.81-.43.94-.54,1.88-1.09,2.82-1.63Z"/>
          <path class="cls-26" d="M463.25,94.74c-.28.16-.55.42-.76.75l-15.3,24.14c-.41.65-.41,1.34,0,1.51l8.24,3.48c.41.18,1.1-.22,1.51-.87l15.3-24.14c.41-.65.41-1.34,0-1.51l-8.24-3.48c-.2-.09-.48-.03-.75.12h0ZM463.25,95.81l8.24,3.48h0s-15.3,24.14-15.3,24.14l-8.24-3.48,15.3-24.14ZM462.39,99.51c-.49.28-.93.74-1.2,1.21-.28.47-.4.94-.4,1.32s.13.71.4.86c.28.15.71.1,1.2-.18.49-.28.93-.74,1.2-1.21.28-.47.4-.94.4-1.32s-.13-.71-.4-.86c-.28-.15-.71-.1-1.2.18h0ZM462.39,100.58c.22-.13.32-.12.4-.08.08.04.13.16.13.3s-.05.32-.13.46c-.08.14-.18.26-.4.39-.22.13-.32.12-.4.08-.08-.04-.13-.15-.13-.3s.05-.32.13-.46c.08-.14.18-.26.4-.39h0ZM466.13,98.95c-.14.08-.27.22-.37.38l-12.84,20.26c-.14.21-.2.45-.15.61.05.16.19.22.38.16.19-.06.39-.23.52-.45l12.84-20.26c.16-.25.2-.51.12-.66-.09-.16-.29-.17-.51-.04h0ZM459.18,104.57c-.49.28-.93.74-1.2,1.21-.28.47-.4.94-.4,1.32s.13.71.4.86c.28.15.71.1,1.2-.18.49-.28.93-.74,1.2-1.21.28-.47.4-.94.4-1.32s-.13-.71-.4-.86c-.28-.15-.71-.1-1.2.18h0ZM459.18,105.64c.22-.13.32-.12.4-.08.08.04.13.16.13.3s-.05.32-.13.46c-.08.14-.18.26-.4.39-.22.13-.32.12-.4.08-.08-.04-.13-.16-.13-.3s.05-.32.13-.46c.08-.14.18-.26.4-.39h0ZM466.67,101.32c-.49.28-.93.74-1.2,1.21-.28.47-.4.94-.4,1.32s.13.71.4.86c.28.15.71.1,1.2-.18.49-.28.93-.74,1.2-1.21.28-.47.4-.94.4-1.32s-.13-.71-.4-.86c-.28-.15-.71-.1-1.2.18h0ZM466.67,102.39c.22-.13.32-.12.4-.08.08.04.13.15.13.3s-.05.32-.13.46c-.08.14-.18.26-.4.39-.22.13-.32.12-.4.08-.08-.04-.13-.15-.13-.3s.05-.32.13-.46c.08-.14.18-.26.4-.39h0ZM455.97,109.64c-.49.28-.93.74-1.2,1.21-.28.47-.4.94-.4,1.32s.13.71.4.86c.28.15.71.1,1.2-.18.49-.28.93-.74,1.2-1.21.28-.47.4-.94.4-1.32s-.13-.71-.4-.86c-.28-.15-.71-.1-1.2.18h0ZM455.97,110.71c.22-.13.32-.12.4-.08.08.04.13.16.13.3s-.05.32-.13.46c-.08.14-.18.26-.4.39-.22.13-.32.12-.4.08-.08-.04-.13-.16-.13-.3s.05-.32.13-.46c.08-.14.18-.26.4-.39h0ZM463.46,106.38c-.49.28-.93.74-1.2,1.21-.28.47-.4.94-.4,1.32s.13.71.4.86c.28.15.71.1,1.2-.18.49-.28.93-.74,1.2-1.21.28-.47.4-.94.4-1.32s-.13-.71-.4-.86c-.28-.15-.71-.1-1.2.18h0ZM463.46,107.45c.22-.13.32-.12.4-.08.08.04.13.16.13.3s-.05.32-.13.46c-.08.14-.18.26-.4.39-.22.13-.32.12-.4.08-.08-.04-.13-.15-.13-.3s.05-.32.13-.46c.08-.14.18-.26.4-.39h0ZM452.76,114.7c-.49.28-.93.74-1.2,1.21-.28.47-.4.94-.4,1.32s.13.71.4.86c.28.15.71.1,1.2-.18.49-.28.93-.74,1.2-1.21.28-.47.4-.94.4-1.32s-.13-.71-.4-.86c-.28-.15-.71-.1-1.2.18h0ZM452.76,115.77c.22-.13.32-.12.4-.08.08.04.13.15.13.3s-.05.32-.13.46c-.08.14-.18.26-.4.39-.22.13-.32.12-.4.08-.08-.04-.13-.16-.13-.3s.05-.32.13-.46c.08-.14.18-.26.4-.39h0ZM460.25,111.45c-.49.28-.93.74-1.2,1.21-.28.47-.4.94-.4,1.32s.13.71.4.86c.28.15.71.1,1.2-.18.49-.28.93-.74,1.2-1.21.28-.47.4-.94.4-1.32s-.13-.71-.4-.86c-.28-.15-.71-.1-1.2.18h0ZM460.25,112.52c.22-.13.32-.12.4-.08.08.04.13.16.13.3s-.05.32-.13.46c-.08.14-.18.26-.4.39-.22.13-.32.12-.4.08-.08-.04-.13-.16-.13-.3s.05-.32.13-.46c.08-.14.18-.26.4-.39h0ZM457.04,116.51c-.49.28-.93.74-1.2,1.21-.28.47-.4.94-.4,1.32s.13.71.4.86c.28.15.71.1,1.2-.18.49-.28.93-.74,1.2-1.21.28-.47.4-.94.4-1.32s-.13-.71-.4-.86c-.28-.15-.71-.1-1.2.18h0ZM457.04,117.58c.22-.13.32-.12.4-.08.08.04.13.16.13.3s-.05.32-.13.46c-.08.14-.18.26-.4.39-.22.13-.32.12-.4.08-.08-.04-.13-.16-.13-.3s.05-.32.13-.46c.08-.14.18-.26.4-.39h0Z"/>
        </g>
        <g>
          <path class="cls-5" d="M367.45,15.94c.04,4.68.07,9.3.11,13.99.77,6.79-4.1,15.75-10.21,19.28-6.1,3.53-12.21,7.05-18.32,10.58-5.19,2.99-9.65,7.1-13.06,12.02l-5.1,7.34v-38.6c0-6.56,4.61-14.54,10.29-17.82,8.73-5.04,17.46-10.07,26.19-15.12,2.79-1.6,5.31-1.79,7.16-.79,2.36,1.28,3.63,4.48,2.94,9.13Z"/>
          <path class="cls-12" d="M354.01.76c3.5,2.02,7,4.04,10.49,6.06-1.85-1-4.37-.82-7.16.79-8.73,5.04-17.46,10.08-26.19,15.12-5.68,3.28-10.29,11.26-10.29,17.82v38.6l-10.73-6.19v-38.61c0-6.56,4.61-14.53,10.29-17.82,8.73-5.04,17.46-10.08,26.19-15.12,2.84-1.64,5.42-1.79,7.27-.72.04.02.09.05.13.07Z"/>
          <path class="cls-26" d="M352.31,17.23c-.44.25-.83.74-1,1.24-.16.5-.07.91.25,1.03l.54.23-1.93,3.04,3.23,1.36,1.93-3.04.54.23c.27.13.67,0,1.05-.31.38-.31.67-.78.77-1.21.1-.43-.01-.77-.29-.88l-4.3-1.82c-.2-.09-.48-.05-.77.12h0ZM345.87,24.19c-.27.16-.55.42-.76.75-.42.66-.42,1.34,0,1.52l.32.13-11.21,17.68c-.81,1.27-1.26,2.63-1.26,3.77v3.6l-1.84,2.9c-.28.43-.39.9-.29,1.22.1.32.39.45.77.32.37-.12.78-.46,1.05-.9l1.84-2.9,3.6-2.08c1.14-.66,2.24-1.75,3.04-3.02l11.21-17.68.32.13c.21.09.48.04.76-.12.28-.16.55-.42.76-.75.42-.66.42-1.34,0-1.52l-7.53-3.18c-.21-.09-.49-.03-.76.12h0ZM346.94,27.24l3.18,1.35c.39.16.39.78,0,1.39-.38.61-1,.97-1.39.8l-1.08-.46c-.39-.16-1.02.2-1.4.81l-2.3,3.63.54.23c.42.18.42.86,0,1.52-.42.66-1.1,1.06-1.52.88l-.54-.23-1.71,2.69.54.23c.42.18.42.86,0,1.52-.42.66-1.1,1.06-1.52.88l-.54-.23-2.42,3.81c-.45.71-1.19,1.05-1.53.72-.25-.24-.19-.79.13-1.3l11.57-18.24Z"/>
        </g>
        <g>
          <path class="cls-22" d="M356.56,435.92c11.48,6.63,11.48,17.37,0,24-11.48,6.63-30.09,6.63-41.57,0-11.48-6.63-11.48-17.37,0-24,11.48-6.63,30.09-6.63,41.57,0Z"/>
          <g>
            <g>
              <path class="cls-30" d="M361.78,436.34v-.7c0-.28,0-.62,0-.87v8.39c0,2.79-1.41,5.26-3.41,7.23-2.32,2.28-5.44,3.9-8.51,4.97-4.79,1.67-10.21,2.3-15.4,1.98h0c.94-.78,1.84-1.62,2.68-2.51,1.7-1.8,3.19-3.85,4.31-6.06h0c5.92-.61,12.71-2.67,16.92-6.8.08-.08.16-.11.22-.11h0c.09.01.15.13.15.32v.7c1.73-1.82,2.94-4.05,3.04-6.54Z"/>
              <path class="cls-30" d="M342.01,432.71c-.22-.41-.44-.83-.65-1.24l20.43,3.16s0,.09,0,.14h0c0,.26,0,.6,0,.88v.7l-19.47-3.01c-.1-.21-.2-.41-.31-.62h0Z"/>
              <path class="cls-38" d="M342.31,433.32l19.47,3.01c-.09,2.49-1.31,4.72-3.04,6.54v-.7c0-.2-.06-.31-.15-.32h0c-4.96-.77-9.91-1.53-14.87-2.3-.04-2.22-.52-4.33-1.42-6.24Z"/>
              <path class="cls-38" d="M343.73,439.56c4.96.77,9.91,1.53,14.87,2.3-.06,0-.14.03-.22.11-4.21,4.13-11,6.19-16.92,6.81h0c1.16-2.28,1.94-4.73,2.19-7.25.07-.66.09-1.32.08-1.96Z"/>
              <path class="cls-5" d="M301.4,456.1c4.23,2.39,9.33,3,14.16,2.36,9.96-1.31,19.1-7.79,23.06-16.03,2.14-4.46,2.8-9.54.96-14.16-.06-.16-.1-.26-.09-.26,0,0,.03.04.08.14.09.16.17.32.25.48-.13-.29-.27-.58-.42-.86h0c.65,1.23,1.29,2.46,1.94,3.69.22.42.44.83.65,1.24h0c.11.2.21.41.31.62.89,1.91,1.38,4.02,1.42,6.24.01.64-.02,1.3-.08,1.96-.25,2.53-1.03,4.97-2.19,7.25-1.13,2.21-2.61,4.26-4.31,6.06-.84.89-1.73,1.73-2.68,2.51-7.35,6.09-17.59,8.8-26.05,6.28-3.06-.91-5.91-2.54-8.06-4.95-.81-.9-1.49-1.89-2.05-2.95-.84-1.6-1.68-3.2-2.52-4.8.55,1.01,1.2,1.94,1.96,2.78,1.02,1.15,2.23,2.15,3.6,2.98-.09-.16-.17-.32-.25-.48-.05-.1-.06-.16-.02-.19,0,0,0,0,0,0,.05-.03.17,0,.32.09Z"/>
              <path class="cls-12" d="M301.08,456.01c12.8-9.33,25.61-18.67,38.41-28h0s.03.1.09.26c1.84,4.62,1.18,9.7-.96,14.16-3.95,8.24-13.1,14.72-23.06,16.03-4.83.64-9.94.03-14.16-2.36-.15-.08-.26-.12-.32-.09Z"/>
              <path class="cls-5" d="M301.09,456.2c.09.16.17.32.25.48-1.37-.84-2.58-1.84-3.6-2.98-.75-.85-1.41-1.77-1.96-2.78-.03-.06-.06-.11-.09-.17-.15-.28-.29-.57-.42-.86l38.48-28.05c2.37,1.45,4.34,3.44,5.65,5.93.15.28.29.57.42.86-.08-.16-.17-.32-.25-.48-.05-.1-.08-.14-.08-.14h0c-12.8,9.33-25.61,18.67-38.41,28,0,0,0,0,0,0-.04.02-.04.08.02.19Z"/>
              <path class="cls-38" d="M354.25,424.49c3.92,2.19,7.47,5.69,7.53,10.14l-20.43-3.16c-.65-1.23-1.3-2.46-1.94-3.69h0c-1.31-2.49-3.28-4.49-5.65-5.93-.08-.16-.17-.32-.25-.48-.12-.22-.4-.5-.65-.66h0c7.14-.72,15.27.38,21.39,3.79Z"/>
              <path class="cls-5" d="M332.77,420.64s.06.03.09.06c.24.16.53.43.65.66.09.16.17.32.25.48l-38.48,28.05c-.09-.16-.17-.32-.25-.48-.12-.24-.32-.65-.43-.93l38.18-27.83Z"/>
              <path class="cls-12" d="M332.77,420.64l-38.18,27.83c-1.84-4.62-1.18-9.7.96-14.16,3.95-8.22,13.08-14.72,23.06-16.03,4.83-.64,9.94-.03,14.16,2.36Z"/>
            </g>
            <g class="cls-31">
              <path class="cls-36" d="M297.59,453.65c1.02,1.07,1.52,1.41,2.52,2.21.63.5.97.67.96.6-.02-.07.06-.29,0-.44.22.08.65.26.79.34,1.31.69,2.66,1.19,4.08,1.58,1.31.36,2.42.58,3.78.66.89.05,2.41.08,3.31.08,2.78,0,5.09-.58,7.74-1.39,3.43-1.05,6.27-2.56,9.16-4.67,1.79-1.31,3.37-2.68,4.83-4.37,1.33-1.54,2.5-3.19,3.45-4.99,1.05-1.99,1.81-4.08,2.17-6.31.2-1.23.33-2.47.26-3.71-.07-1.24-.26-2.47-.61-3.66-.02-.08-.64-1.7-.62-1.8,1.04,1.98,1.44,2.78,1.78,3.38.34.6.71,1.29,1,1.92.3.65.55,1.25.78,1.92.23.65.47,1.84.47,1.84,1.45,1.1,2.83,2.16,4.27,3.25.02.01.03.04.05.04,1.06.4,1.38,1.41,1.87,2.27.15.26.31.51.46.76.06.1.14.19.17.3.25.84.43,1.69.31,2.58-.03.22.03.36,0,.67,3.04-1.12,5.42-2.45,7.8-4.73.47-.35.35.24.37.37.01.13-.02.32,0,.56.19-.16.43-.49.54-.61,1.12-1.31,1.87-2.67,2.29-4.36.04-.16.13-.64.18-.8,0-.02-.02-.74.03-.79,0,.26,0,2,0,2.22-.03,1.89,0,3.47-.05,5.35-.02.81-.26,1.59-.55,2.34-.51,1.33-1.28,2.49-2.24,3.54-1.92,2.1-4.27,3.56-6.84,4.7-2.64,1.18-5.41,1.96-8.27,2.39-1.34.2-2.68.41-4.03.5-1.47.09-2.95.04-4.42.04-.09,0-.18,0-.28-.02-.5-.05-.92.09-1.32.43-1.47,1.23-3.09,2.26-4.78,3.15-2.54,1.33-5.2,2.35-8.01,2.94-1.4.29-2.8.49-4.23.6-3.72.29-7.29-.31-10.72-1.78-2.16-.93-3.95-2.22-5.56-3.96-.41-.44-1.45-1.7-1.73-2.24-.57-1.13-2.27-4.32-2.86-5.44.03-.03,1.67,2.58,1.71,2.54Z"/>
              <path class="cls-36" d="M333.52,421.14c.16.29.3.52.47.81-12.82,9.34-25.62,18.68-38.43,28.01-.33-.15-.4-.46-.54-.7.37-.4,37.6-27.6,38.5-28.12Z"/>
            </g>
          </g>
        </g>
        <g>
          <g>
            <g>
              <path class="cls-5" d="M96.92,306.75c-.92-.52-19.53-11.28-19.61-11.33-.41-.23-.86-.52-1.4-.73-1.36-.57-3.25-.8-5.18-.4-1.47.3-2.3.9-3.56,1.66-1.52.93-.94.49-6.4,3.68-2.81,1.63-3.28,1.82-3.76,2.36-.77-.81-.91-1.9-.18-2.83.4-.52.87-.81,1.44-1.13,11.03-6.4,6.8-3.85,8.9-5.12,1.25-.76,2.09-1.35,3.56-1.66,1.72-.38,3.74-.21,5.18.39.71.3.64.32,7.1,4.04,15.77,9.13,14.86,8.51,15.41,9.08.9.9.95,2.09.03,3.08,0-.02-.02-.02-.03-.04-.48-.5-.96-.73-1.51-1.04Z"/>
              <path class="cls-12" d="M94.71,310.19c-4.75,2.79-5.56,3.15-7.01,4.06-.11.07-.67.43-1.36.76-.95.43-2.04.73-3.57.73-1.04,0-2.45-.22-3.31-.65-2.08-1.08-19.96-11.52-20.51-11.79-.82-.46-1.39-.74-1.88-1.26,0,0-.02-.02-.03-.03.48-.54.94-.73,3.76-2.36,5.45-3.2,4.87-2.76,6.4-3.68,1.25-.76,2.09-1.36,3.56-1.66,1.94-.4,3.83-.17,5.18.4.53.22.98.5,1.4.73.08.05,18.68,10.81,19.61,11.33.54.32,1.03.54,1.51,1.04.02.02.02.02.03.04-.44.51-1.04.8-3.76,2.35Z"/>
              <g>
                <path class="cls-16" d="M260.26,422.46c-.12.06-.96.29-1.28.29-1.13,0-1.03.03-1.6-.06,0,0,0,0-.02,0-1.44,0-3.38-2.07-20.35-11.56h0c-.54-.33-.89-.93-1.03-1.63-.11-.57-.08-.66-.08-3.93,0-2.12,1.28-4.74,3.12-6.26.55-.45.53-.4,3.84-2.3.88-.51,1.87-.73,2.66-.35,1.54.86,6.97,4.23,18.89,10.73,1.16.63,1.56,1.36,1.64,1.36.38.39.75,1.24.81,1.39h0c.08.09.33,1.01.34,1.17h0c0,.08.09.3.09.96,0,3.5.04,3.55-.18,4.46-.37,1.4-1.27,2.63-2.58,3.39-1.12.65-2.25,1.3-3.37,1.95-.48.28-.81.37-.89.41h0Z"/>
                <g>
                  <path class="cls-2" d="M29.38,298.74c.06-.13.36-.64.51-.79.06-.1.41-.46.46-.5.32-.32.73-.65,1.2-.93,33.37-19.26,32.84-19.17,34.04-19.17,1.15-.17,2.23,0,3.27.47,155.48,72.8,96.16,70.86,176.67,118.81-.79-.37-1.79-.16-2.66.35-3.31,1.91-3.29,1.86-3.84,2.3-1.84,1.52-3.12,4.14-3.12,6.26,0,3.27-.03,3.36.08,3.93.14.7.49,1.3,1.03,1.63h0c-83.36-46.7-79.52-12.08-205.9-102.07-.53-.38-.93-.81-1-.9h0c-.65-.73-.86-1.32-.92-1.4,0,0,0,0,0,0-.21-.42-.41-1.19-.41-1.29v-.02c0-.1-.1-.29-.1-.98v-3.04c0-.56.06-.72.06-.85,0-.15.18-.76.18-.77h0c.19-.57.26-.7.45-1.04ZM98.46,307.84c.92-.99.87-2.18-.03-3.08-.55-.57.36.05-15.41-9.08-6.46-3.72-6.39-3.73-7.1-4.04-1.44-.6-3.46-.77-5.18-.39-1.47.31-2.3.9-3.56,1.66-2.1,1.27,2.13-1.28-8.9,5.12-.57.33-1.04.61-1.44,1.13-.73.94-.59,2.06.22,2.86.6.63.4.37,9.8,5.84.08.05,12.05,6.98,12.59,7.22,1.2.6,3.49.87,5.3.45,1.08-.19,2.05-.74,2.94-1.28,1.9-1.19,1.07-.57,7.01-4.06,2.22-1.27,3.29-1.82,3.76-2.35Z"/>
                  <path class="cls-22" d="M257.53,420.63v-2.77c2.58-1.14,4.2-3.68,6.85-4.81,1.18-.5,1.48-1.67,1.9-2.77.85.86.78,1.89.65,2.81-.26,1.83.52,2.87,2.14,3.56,1,.43,1.95,1,2.85,1.62,1.73,1.19,1.7,2.7-.08,3.82-1.3.82-2.69,1.52-4.04,2.26-.28.15-.58.31-.89.36-3.91.66-7.75.97-11.4-1.24-20.43-12.41-44.46-25.53-67.13-33.24-31.9-10.85-49.84-13.51-86.3-33.97-28.26-15.85-52.26-32.93-69.22-44.67-.75-.52-1.48-1.04-1.68-2.13.75-.1,1.19.43,1.68.77,29.63,20.36,48.61,33.87,80.92,50.27,34.13,17.32,54.83,17.8,89.94,33.42,19.05,8.47,29.92,15.02,49.28,26.43,1.46.86,2.84,1.09,4.53.28Z"/>
                </g>
              </g>
            </g>
            <path class="cls-28" d="M122.36,320.1l-1.46.84c-1.29.75-3.38.75-4.68,0l-1.46-.84c-1.29-.75-3.39-.75-4.68,0h0c-1.29.75-1.29,1.95,0,2.7l1.46.84c1.29.75,1.29,1.95,0,2.7l-1.46.84c-1.29.75-1.29,1.95,0,2.7h0c1.29.75,3.39.75,4.68,0l1.46-.84c1.29-.75,3.38-.75,4.68,0l1.46.84c1.29.75,3.38.75,4.68,0h0c1.29-.75,1.29-1.95,0-2.7l-1.46-.84c-1.29-.75-1.29-1.95,0-2.7l1.46-.84c1.29-.75,1.29-1.95,0-2.7h0c-1.29-.75-3.39-.75-4.68,0Z"/>
            <path class="cls-34" d="M36.68,298.73c18.43,12.88,47.08,32.76,66.72,43.97,4.41,2.54,1.97,1.21,8.66,4.82,2.26,1.22,1.22.67,2.92,1.5,5.73,2.77,3.79,1.93,10.41,4.61,24.02,8.88,78.83,30.52,99.77,43.26-7.51-3.49-12.65-5.51-24.71-10.18-16.33-6.31-54.02-20.24-76.81-28.13-.37-.13-.24-.08-4.81-1.91-1.18-.44-1.97-.84-6.21-2.85-1.77-.85-.72-.3-3.03-1.53-5.41-2.86-4.82-2.51-8.9-4.87-22.63-13.17-48.95-32.26-65.93-46.16l1.93-2.54Z"/>
          </g>
          <path class="cls-1" d="M151.82,333.14l-21.11,12.19c-2.1,1.22-5.52,1.22-7.62,0h0c-2.1-1.22-2.1-3.19,0-4.4l21.11-12.19c2.1-1.22,5.52-1.22,7.62,0h0c2.1,1.22,2.1,3.19,0,4.4Z"/>
          <path class="cls-1" d="M158.51,339.92l-14.75,8.52c-1.47.85-3.86.85-5.33,0h0c-1.47-.85-1.47-2.23,0-3.07l14.75-8.52c1.47-.85,3.86-.85,5.33,0h0c1.47.85,1.47,2.23,0,3.07Z"/>
        </g>
        <g>
          <path class="cls-30" d="M396.81,136.59c-4.13,2.38-8.27,4.78-12.4,7.16,2.09-1.29,3.37-3.96,3.37-7.7v-20.9c0-7.68-5.39-17.02-12.04-20.86-10.22-5.9-20.44-11.8-30.66-17.7-3.26-1.88-6.21-2.09-8.38-.91,4.14-2.4,8.28-4.79,12.43-7.18,2.18-1.25,5.19-1.07,8.51.85,10.22,5.9,20.43,11.8,30.66,17.7,6.65,3.84,12.04,13.17,12.04,20.86v20.9c0,3.84-1.35,6.53-3.53,7.79Z"/>
          <path class="cls-38" d="M387.68,116.88c-.02,5.66-.03,11.23-.05,16.88.61,4.95-.73,8.44-3.22,9.99-.05.03-.11.06-.16.09-2.18,1.26-5.19,1.08-8.51-.85-8.7-5.02-17.41-10.05-26.11-15.07-2.91-1.68-6.37-2.11-9.6-1.18l-6.99,1.99v-45.19c0-3.84,1.35-6.53,3.53-7.79.05-.03.09-.05.13-.07,2.17-1.18,5.12-.97,8.38.91,10.22,5.9,20.44,11.8,30.66,17.7,7.15,4.13,12.86,14.63,11.95,22.58Z"/>
          <path class="cls-23" d="M351.49,95.07c-.9-.52-1.62-.21-1.62.69v14.59c0,.9.73,2.04,1.62,2.56l17.83,10.3c.9.52,1.62.21,1.62-.69v-12.97c0-.9-.73-2.04-1.62-2.56l-12-6.93-.5-1.12c-.29-.66-.82-1.26-1.39-1.59l-3.95-2.28ZM360.41,105.08c2.68,1.55,4.86,4.99,4.86,7.67s-2.18,3.61-4.86,2.06c-2.68-1.55-4.86-4.99-4.86-7.67s2.18-3.61,4.86-2.06h0ZM360.41,106.7c-.45-.26-.81-.1-.81.34v1.62l-1.62-.94c-.45-.26-.81-.1-.81.34s.36,1.02.81,1.28l1.62.94v1.62c0,.45.36,1.02.81,1.28.45.26.81.1.81-.34v-1.62l1.62.94c.45.26.81.1.81-.34s-.36-1.02-.81-1.28l-1.62-.94v-1.62c0-.45-.36-1.02-.81-1.28h0Z"/>
        </g>
        <g>
          <g>
            <path class="cls-48" d="M485.04,190c.06.74-.12,2.31,0,3.11.09.54.25.34.55-.05.31-.4.69-.66.89-1.07.2-.43.15-.93.15-2.33-.02-1.1.02-4.37,0-4.67-.06-.77.2-3.43-.17-3.45-.11,0-.26.21-.38.38-1.27,1.56-1.04-.24-1.04,8.08ZM475.89,188.51c.02.32-.02.64-.03.97-.02.64.03,1.3.03,1.93.03.35-.05,5.94-.02,6.11.15.83,1.04.21,2.05-.03.34-.08.63-.12.86-.4.26-.31.21-.58.18-.92-.02-.34.02-.64.03-.97.03-.64-.02-1.32-.03-1.95,0-.15.02-4.29.02-4.44.03-.93.12-1.82-.18-2.02-.34-.23-1.09.2-1.85.38-.18.05-.37.08-.54.15-.28.14-.46.37-.52.63-.03.17-.02.37,0,.55ZM473.26,188.16c-.34-.32-1.13-.08-1.49-.06-.29.03-1.44-.11-1.7.49-.11.18-.06.25-.08,1.52,0,.06-.02,8.14,0,8.2.15.8,1.01.46,1.67.41.31-.02.63.03.97-.03.31-.06.63-.2.74-.44.14-.31.04-7.53.08-8.03.03-.97.12-1.78-.18-2.05ZM481.07,195.74c.11.67.54.25,1.26-.15.75-.41,1.16-.55,1.24-1.44.05-.41-.02-.81-.03-1.21-.05-.7,0-1.44.02-2.15.03-1.26-.05-3.23-.02-4.32.02-.64.12-1.82-.18-1.96-.2-.09-.61.23-1.07.49-1.12.59-1.36.69-1.21,2.65.06.92-.06,1.49-.02,4.26.05,2.73-.08,3.33.02,3.83ZM465.24,188.05c-.23-.03-.46-.09-.7-.06-.18.03-.38.12-.48.28-.12.18-.09,0-.09,5.76.02,3.26-.06,3.57.02,3.95.15.9,1.12.6,2.19.78.23.05.44.11.69.06.18-.03.4-.12.49-.28.11-.18.08,0,.08-5.76-.02-3.62.03-2.71.02-3.48,0-1.5-.92-1.03-2.21-1.26ZM458.46,190.52c.01.27-.05,5.85-.03,6.08.14.98,1.15.81,2.01,1.18.23.09.46.23.69.18.17-.03.34-.17.4-.34.06-.17.02-.37,0-.55-.03-.34.02-.64.05-.95.05-.64-.03-1.32-.06-1.96-.03-.75.02-1.47.03-2.21.02-.75-.02-1.52,0-2.22.03-1.44.18-2.07-.55-2.42-.32-.15-.97-.21-1.46-.43-.21-.09-.46-.21-.67-.18-.18.03-.35.17-.41.34-.06.17-.02.37.02.55.03.34-.03.64-.05.97-.05.63.03,1.3.05,1.96ZM454.76,184.79c-.32-.21-.69-.47-.86-.11-.03.08-.03,9.53-.02,9.64.09.93.83.98,1.58,1.49.32.2.7.49.86.11.05-.11.03-.21.03-.34-.02-.18,0-7.52,0-7.68,0-1.35.05-1.67-.09-2.01-.26-.6-.84-.66-1.5-1.1ZM450.82,182.12c.05.26-.02.41-.03.61-.03.21.02,7.37.02,7.75-.05,1.18-.05,1.36.58,2.08.4.51.4.43.57.63.05.08.09.15.17.2.08.03.18.02.23-.03.09-.11.02-.34-.02-.52-.05-.26.02-.41.03-.61.03-.2-.02-7.39,0-7.74.05-1.47-.11-1.53-.6-2.1-.11-.12-.21-.28-.34-.38-.08-.08-.15-.15-.21-.25-.06-.06-.11-.15-.17-.18-.08-.05-.18-.03-.25.03-.09.09-.02.32.02.51ZM449.49,188.16c.08.58.31,1.95.4,1.98.11.06.08-1.31.08-2.13.03-1.82-.04-1.19-.05-2.01-.03-.9.06-3.55.09-4.64.02-.86.03-.7-.2-2.02-.15-.92-.26-1.41-.32-.92v-2.67h.08c0,2.77,1.66,4.87,3.86,6.53,7.22,5.46,21.19,5.72,28.87,1.1,3.68-2.11,5.64-4.96,5.64-7.85v2.65s-.08.05-.11.09c-.05.08-.02.08,0,.11.02.06-.05.17-.08.26-.05.11-.06.2-.08.29-.06.31-.18.52-.23,1.12-.02.24-.04,10.06,0,10.14.03.02.09-.06.11-.11.05-.06.02-.08.02-.11-.02-.05.03-.17.08-.26.05-.11.05-.2.06-.29.06-.28.17-.46.23-.9,0,1.08.05,1.96-.51,3.28-1.06,2.51-2.74,4.03-5.13,5.41-10.19,5.88-26.83,3.28-31.48-3.79-1.41-2.15-1.33-3.74-1.33-5.27Z"/>
            <path class="cls-28" d="M482.3,183.38c-7.68,4.61-21.65,4.35-28.87-1.1-2.21-1.66-3.86-3.76-3.86-6.53,0-1.41.41-2.87,1.12-4.08,1.03-1.75,2.68-3,4.44-3.98,8.83-4.96,22.17-3.94,28.85,1.12,6.03,4.57,4.92,10.77-1.69,14.57Z"/>
            <path class="cls-15" d="M487.94,188.52c-.06.44-.17.63-.23.9-.02.09-.02.18-.06.29-.05.09-.09.21-.08.26,0,.03.03.05-.02.11-.02.05-.08.12-.11.11-.04-.08-.02-9.88,0-10.14.05-.6.17-.81.23-1.12.02-.09.03-.18.08-.29.03-.09.09-.2.08-.26-.02-.03-.05-.03,0-.11.16-.23.11-1.07.11,10.25Z"/>
            <path class="cls-15" d="M485.04,193.11c-.12-.8.06-2.38,0-3.11,0-8.32-.23-6.52,1.04-8.08.12-.17.28-.38.38-.38.37.02.11,2.68.17,3.45.02.31-.02,3.57,0,4.67,0,1.39.05,1.9-.15,2.33-.2.41-.58.67-.89,1.07-.31.38-.46.58-.55.05Z"/>
            <path class="cls-15" d="M482.33,195.59c-.72.4-1.15.83-1.26.15-.09-.51.03-1.1-.02-3.83-.05-2.77.08-3.34.02-4.26-.15-1.96.09-2.06,1.21-2.65.46-.26.87-.58,1.07-.49.31.14.2,1.32.18,1.96-.03,1.09.05,3.06.02,4.32-.02.7-.06,1.44-.02,2.15.02.4.08.8.03,1.21-.08.89-.49,1.03-1.24,1.44Z"/>
            <path class="cls-15" d="M475.86,189.47c.02-.32.05-.64.03-.97-.02-.18-.03-.38,0-.55.06-.26.25-.49.52-.63.17-.08.35-.11.54-.15.77-.18,1.52-.61,1.85-.38.31.2.21,1.09.18,2.02,0,.15-.02,4.29-.02,4.44.02.63.06,1.3.03,1.95-.02.32-.05.63-.03.97.03.34.08.61-.18.92-.23.28-.52.32-.86.4-1.01.25-1.9.86-2.05.03-.03-.19.06-5.71.02-6.11,0-.63-.05-1.29-.03-1.93Z"/>
            <path class="cls-15" d="M471.67,198.71c-.66.05-1.52.38-1.67-.41-.02-.06,0-8.14,0-8.2.02-1.27-.03-1.33.08-1.52.27-.61,1.49-.47,1.7-.49.35-.02,1.15-.26,1.49.06.31.28.21,1.09.18,2.05-.03.45.06,7.73-.08,8.03-.11.25-.43.38-.74.44-.34.06-.66.02-.97.03Z"/>
            <path class="cls-11" d="M468.55,226.11v21.3c-9.5-.02-21.36-2.71-27.92-9.55-2.38-2.45-4.01-5.49-4.05-8.9v-21.32c.02,1.58.37,3.14,1.07,4.66,3.51,7.68,13.88,11.71,22.17,13.09,2.73.44,5.67.7,8.72.72Z"/>
            <path class="cls-15" d="M464.06,188.26c.09-.15.29-.25.48-.28.25-.03.48.03.7.06,1.29.23,2.21-.25,2.21,1.26.02.77-.03-.14-.02,3.48,0,5.76.03,5.58-.08,5.76-.09.15-.31.25-.49.28-.25.05-.46-.02-.69-.06-1.07-.18-2.04.12-2.19-.78-.08-.38,0-.69-.02-3.95,0-5.76-.03-5.58.09-5.76Z"/>
            <path class="cls-15" d="M460.43,197.78c-.86-.37-1.87-.2-2.01-1.18-.02-.23.04-5.81.03-6.08-.02-.66-.09-1.33-.05-1.96.02-.32.08-.63.05-.97-.03-.18-.08-.38-.02-.55.06-.17.23-.31.41-.34.21-.03.46.09.67.18.49.21,1.13.28,1.46.43.74.35.58.98.55,2.42-.02.7.02,1.47,0,2.22-.02.74-.06,1.46-.03,2.21.03.64.11,1.32.06,1.96-.03.31-.08.61-.05.95.02.18.06.38,0,.55-.06.17-.23.31-.4.34-.23.05-.46-.09-.69-.18Z"/>
            <path class="cls-15" d="M453.9,184.68c.17-.37.54-.11.86.11.66.44,1.24.51,1.5,1.1.14.34.09.66.09,2.01,0,.15-.02,7.49,0,7.68,0,.12.02.23-.03.34-.15.38-.54.09-.86-.11-.75-.51-1.49-.55-1.58-1.49-.02-.11-.02-9.56.02-9.64Z"/>
            <path class="cls-15" d="M450.79,182.73c.02-.2.08-.35.03-.61-.03-.18-.11-.41-.02-.51.06-.06.17-.08.25-.03.06.03.11.12.17.18.06.09.14.17.21.25.12.11.23.26.34.38.49.57.64.63.6,2.1-.02.35.03,7.54,0,7.74-.02.2-.08.35-.03.61.03.18.11.41.02.52-.05.05-.15.06-.23.03-.08-.05-.12-.12-.17-.2-.16-.2-.17-.12-.57-.63-.63-.72-.63-.9-.58-2.08,0-.38-.05-7.54-.02-7.75Z"/>
            <path class="cls-15" d="M449.89,190.13c-.09-.03-.32-1.39-.4-1.98v-9.75c.06-.49.17,0,.32.92.23,1.32.21,1.16.2,2.02-.17,5.89,0,4.59-.04,6.65,0,.81.02,2.19-.08,2.13Z"/>
            <path class="cls-28" d="M436.59,198.1c0-8.27,5.58-14.9,12.91-18.7-.02.26,0,1.71,0,3.51,0,2.17-.02,4.46,0,5.24.03,1.5-.09,3.11,1.33,5.27,4.64,7.06,21.28,9.67,31.48,3.79,2.39-1.38,4.08-2.9,5.13-5.41.76-1.81.46-2.43.54-12.4,7.14,3.59,12.57,10.18,12.84,18.05,1.11,15.57-31.06,25.57-53.2,14.59-3.2-1.58-6.19-3.62-8.32-6.51-1.59-2.16-2.7-4.8-2.7-7.43Z"/>
            <path class="cls-48" d="M440.63,237.87c6.56,6.83,18.42,9.53,27.92,9.55v-21.3c-3.05-.02-5.99-.28-8.72-.72-8.29-1.38-18.66-5.41-22.17-13.09-.7-1.52-1.06-3.08-1.07-4.66v-9.55c0,2.64,1.1,5.27,2.7,7.43,2.13,2.9,5.12,4.93,8.32,6.51,21.33,10.58,53.22,1.68,53.22-13.91v40.21c0,7.46-4.11,14.89-12.37,19.66-16.11,9.3-42.83,5.39-50.15-11.46-1.13-2.61-1.72-5.39-1.72-8.2v-9.38c.03,3.42,1.67,6.45,4.05,8.9Z"/>
          </g>
          <path class="cls-22" d="M500.85,230.83c4.2.29,7.8.47,11.38.8,5.25.49,10.26,1.88,15.1,3.98,5.11,2.22,8.79,6.06,12.08,10.34,2.09,2.72,1.69,5.59-.56,8.57-5.24,6.92-12.32,10.87-20.66,12.42-4.99.93-10.11,1.39-15.19,1.53-8.73.24-17.47.2-26.21.02-6.86-.14-13.66-1.04-20.1-3.63-4.66-1.88-9.09-4.16-12.04-8.48-.37-.55-.55-1.22-1.11-2.5,6.94,2.63,13.39,4.16,20.6,2.53v-40.12c10.72-1.6,20.53-4.61,28.56-11.67.02-.01.03-.03.05-.04,2.32-2.07.47-5.93-2.62-5.6-1.18.13-2.34.27-3.5.3-6.22.2-12.44,1.42-18.67,1.53-.46,0-.92-.28-1.57-.49,0-4.36.08-9.21.08-13.75,7.07.65,20.61-2.14,21.42-10.72l.07,3.54s1.85,1.05,2.59,1.49c6.5,4.02,10.41,10.7,10.27,17.97.1,9.17.02,16.2.02,31.96Z"/>
        </g>
        <g class="cls-31">
          <path class="cls-21" d="M288.61,205.69c-2.29-.65-4.16-1.1-6.04-.87-.86.1-1.7.77-2.43,1.33-.66.51-1.15,1.23-1.99,2.16-.13-.89-.27-1.43-.27-1.97-.02-3.91.03-7.83-.02-11.74-.04-3.2-.19-6.4-.3-9.94,1.19-.69,2.67-1.54,4.35-2.51.5,1.32,1.33,1.75,2.62,1.44,3.58-.86,7.06-2.01,9.96-4.33,1.6-1.28,3.98-3.03,4.57-7.33.12.44.06,3.81.25,4.54,2.61-.38,4.53.99,6.32,2.73,3.15,3.06,5.54,6.68,7.83,10.38,1.46,2.35,2.86,5.11,4.37,7.79-2.3,1.38-4.57,2.52-6.78,3.85-1.23-.65-2.37-1.41-3.79-2.15-.16.85-.58,4.7-.58,4.7,0,0-6.22,3.6-8.31,4.81l3.33,2.27s14.32-8.36,24.92-14.4c3.42-1.95,9.12-5.5,9.16-11.48.05.82,0,5.8,0,6.61.01,6.18-.06,11.96.04,18.14.05,2.93-.42,5.24-2.27,7.48-.27.33-.98.95-1.33,1.46.44.36.78.72,1.2.96,14.59,8.44,29.19,16.87,43.79,25.28,2.2,1.27,4.29,2.66,5.97,4.58,3.7,4.26,3.83,8.47.68,12.78-1.63,2.23-3.83,3.74-6.19,5.1-7.99,4.59-15.95,9.2-23.93,13.81-.45.26-.87.56-1.47.94,1.28,1.07,2.48,2.08,3.99,3.35-2.44,1.65-4.53,3.09-7.04,3.86-.72.22-1.43.54-2.08.93-4.68,2.83-9.58,4.92-15.2,4.67-1.45-.07-2.68.37-3.93,1.09-11.12,6.45-22.27,12.87-33.42,19.27-4.92,2.83-10.27,4.26-15.91,4.33-7.92.11-15.83.11-23.75,0-5.73-.08-11.16-1.55-16.16-4.43-1.44-.83-2.89-1.51-4.56-1.74-4.46-.61-8.47-2.33-12.35-4.6-19.52-11.39-49.28-28.44-49.66-28.67-2.91-1.76-5.14-3.94-4.52-7.76-2.32-1.87-4.92-3.34-6.46-6.13,1.15-.26,1.77.45,2.49.86,16.18,9.33,32.39,18.63,48.52,28.07,2.38,1.4,4.48,1.54,6.98.32-.11-1.74-.11-3.55-.39-5.32-.14-.87-.6-1.91-1.26-2.44-3.05-2.44-5.48-15.32-5.48-15.32,0,0,2.35.86,4.55,1.26,2.19.4,5.53.81,5.53.81,0,0,0-17.17,0-25.93,1.91-.04,3.53-.06,5.16-.1,6.18-.16,12.03-1.51,17.43-4.64,5.13-2.98,34.79-20.22,34.79-20.22,0,0-.01-3.83,0-5.56.02-4.67,3.17-10.46,9.11-12.35ZM258.58,262.39l-.81-.22-1.74,7.06-2.31.51-1.44,9.8,4.36-.44,1.88-13.21.06-3.5ZM271.01,255.02l-1.75,2.1-1.5,10.66-2.57.76-.45,3.79,4.26-.51,2.08-13.9-.06-2.9ZM289.52,259.14l4.54-1.66,1.92-13.84-.58-3.05-1.15,2.06-1.99,13.8-2.74,2.69ZM283.45,247.78l-1.66,2.01-2.01,13.85-2.5,2.85,4.29-1.81,2.01-14.29-.15-2.61ZM310.22,287.23c-1.35-.22-2.24-.41-3.14-.49-3.09-.28-6.19-.4-9.26-.81-1.87-.25-2.94.64-4.35,1.95,4.24.41,8.09.71,11.92,1.18,1.84.22,3.08-.67,4.84-1.82ZM284.68,301.4c-3.93-.37-7.87-.7-11.79-1.12-1.72-.19-2.89.6-4.2,1.83.91.19,1.57.41,2.25.46,3.09.26,6.21.3,9.27.78,1.97.31,3.25-.51,4.48-1.96ZM322.61,279.88c-.98-.1-6.99-.81-12.7-1.15-1.5-.09-2.75.43-3.66,1.99,3.84.35,7.45.57,11.02,1.04,1.98.26,3.53-.25,5.34-1.88ZM281.26,294.72c.2.3.24.43.3.44,3.94.39,7.88.8,11.82,1.15,1.55.14,2.65-.53,3.71-2.17-3.58-.28-7.12-.35-10.58-.92-2.12-.35-3.67.15-5.26,1.5ZM318.64,272.99c.01.17.03.33.04.5,1.92.19,3.84.38,5.76.57.06-.18.12-.36.19-.54-1.15-.66-2.29-1.32-3.45-1.98-.93.53-1.74.99-2.55,1.46ZM302.1,251.89l2.12-.26,2.31-1.34-2.78-.42-1.64,2.02Z"/>
          <path class="cls-21" d="M254.1,170.76s.04,16.42.04,24.72c.56-.8.86-1.44,1.34-1.87.8-.72,1.69-1.03,2.86-.65,2.65.86,4.79,2.49,6.69,4.4,2.86,2.89,8.52,9.04,8.52,9.04l.24-18.37s.38-1.06.56-1.08c.42,1.36.52,3.03.51,4.51-.02,5.92-.03,15.29,0,21.21l1.36.77c-.14.52-.29,1.26-.28,1.69.02,2.08-.04,4.16-.04,6.39-1.04.61-1.96,1.13-3.19,1.85-3.86-4.28-7.21-9.11-12.54-11.69.94,2.51,2.55,4.61,3.94,6.83,1.42,2.28,4.57,7.16,4.57,7.16,0,0-19.07,11.11-27.85,16.05-9.38,5.9-22.79,3.11-23.07,2.9,0-9.95.01-20.48.01-30.84,12.02-1.88,24.4-3.76,36.55-5.66-.25-.81-2.04-4.47-2.28-4.99-1.5-3.23-1.46-3.28-3-6.49-.29-.61-.6-1.38-1.13-1.67-3.42-1.88-6.88-3.69-10.37-5.44-1.75-.87-5.56-.6-5.56-.6l-3.15.5-1.1-3.08-3.14,1.81s.16,1.16.24,1.9c-5.55.89-16.86,2.6-16.86,2.6l.02,15.89s.49,9.51,1.05,14.76c2.18,20.36,1.77,18.66,1.77,18.66l-19.44-11.32,3.21-1.83-4.25-20.89-3.15,1.82,2.49,19.98-8.97-5.19-1.97-2.45-.89-6.9-3.11,1.75.56,4.48s-9.17-5.29-16.51-9.63c-2.25-1.33-4.54-2.75-5.99-5.06-1.86-2.95-1.42-6.73,1.21-9.56,1.45-1.57,3.28-2.69,5.13-3.77,10.8-6.32,34.05-19.69,34.05-19.69,0,0,.01-4.19.07-6.18.11-3.89,2.03-6.79,4.76-9.38.16-.15,1.19-.99,1.19-.99,0,0,.37,4.78-.38,6.79-.92,2.44.53,5.54,3.3,6.67.07-.8-.07-15.45,0-21.89.01-1.18.13-2.2.62-3.26.76-1.65,2.69-2.44,4.64-1.58-.21,2.13-.2,19.87-.2,19.87l2.77.25,16.28-9.39,27.89,16.11ZM199.59,202.58c.86,6.93,1.71,13.67,2.54,20.37,1.97.2,3.38-.29,4.89-1.58-2.75-6.47-3.3-13.46-4.2-20.7-1.15.68-2.02,1.2-3.24,1.92Z"/>
          <path class="cls-21" d="M209.63,271.5l2.54,1,2.16,15.77-4.27-.27-.89-6.51s-6.43-3.85-7.79-4.63c.17,1.65.59,4.38.59,4.38l-4.36-.44s-.36-3.17-.56-4.69c-.18-1.38-.74-2.38-2.09-3.02-1.72-.82-3.32-1.87-4.98-2.82-.22-.13-.47-.2-1.05-.45.14,1.4.42,2.66.57,4.23-1.38-.14-4.36-.45-4.36-.45,0,0-.42-3.34-.59-4.95-.12-1.15-.56-1.9-1.61-2.45-2.06-1.09-4.05-2.32-6.46-3.71.11,1.56.54,4.37.54,4.37l-4.37-.45s-.44-3.4-.62-5.02c-.1-.92-.31-1.66-1.17-2.16-2.24-1.29-4.46-2.62-6.95-4.09.15,1.56.64,4.52.64,4.52l-4.35-.46s-.82-5.33-1.05-7.9c-.14-1.58-.85-2.74-1.67-3.98-1.19-1.8-2.23-3.7-3.27-5.59-.24-.42-.51-1.44-.75-2.46,6.62,3.48,12.68,7.39,18.79,10.87,5.43,3.1,37.38,21.39,37.38,21.39Z"/>
          <path class="cls-21" d="M234.77,150.1c7.44-5.26,15.13-8.63,24.27-7.55.26,3.15.23,6.28.84,9.28.61,3.02,1.85,5.92,2.76,8.7-.22.38-.27.6-.4.66-1.43.76-2.87,2.06-4.33,2.08-1.36.02-2.75-1.3-4.1-2.07-18.97-10.89-16.64-9.61-19.05-11.1Z"/>
          <path class="cls-21" d="M274.94,169.43c4.84.11,14.07-.84,15.19-7.43,0,0,.89,2.96,1.55,3.3.69.35,1.42.67,2.05,1.11,4.24,2.95,4.22,6.96-.02,9.89-2.58,1.79-5.54,2.43-8.58,2.73-1.29.13-2.82-.08-4.22-.08-1.45-2.1-2.79-3.67-5.02-4.95-.41-.24-.76-1.16-.85-1.7-.13-.75-.11-1.79-.11-2.88Z"/>
        </g>
      </g>
    </g>
  </g>
</svg>