<svg width="829" height="829" viewBox="0 0 829 829" fill="none" xmlns="http://www.w3.org/2000/svg">
<path d="M414.498 828.996C643.419 828.996 828.996 643.419 828.996 414.498C828.996 185.577 643.419 0 414.498 0C185.577 0 0 185.577 0 414.498C0 643.419 185.577 828.996 414.498 828.996Z" fill="#DFE5E8"/>
<path d="M674.896 714.057V736.992C603.733 794.534 513.142 828.995 414.495 828.995C315.857 828.995 225.257 794.534 154.104 737.011V714.057C154.104 590.145 254.555 489.685 378.466 489.685H450.535C574.446 489.685 674.896 590.145 674.896 714.057Z" fill="#AEB6BA"/>
<path d="M414.497 429.052C490.537 429.052 552.178 367.41 552.178 291.371C552.178 215.332 490.537 153.69 414.497 153.69C338.458 153.69 276.816 215.332 276.816 291.371C276.816 367.41 338.458 429.052 414.497 429.052Z" fill="#AEB6BA"/>
</svg>
